<mxfile host="app.diagrams.net" modified="2023-04-26T12:38:06.361Z" agent="Mozilla/5.0 (Windows NT 10.0; Win64; x64) AppleWebKit/537.36 (KHTML, like Gecko) Chrome/108.0.0.0 Safari/537.36" etag="FS8GSc1oL3UH3L5X0xo_" version="21.2.2" type="github">
  <diagram name="第 1 页" id="-g9hkXaIeT7j0srqdpWs">
    <mxGraphModel dx="954" dy="616" grid="1" gridSize="10" guides="1" tooltips="1" connect="1" arrows="1" fold="1" page="1" pageScale="1" pageWidth="827" pageHeight="1169" math="0" shadow="0">
      <root>
        <mxCell id="0" />
        <mxCell id="1" parent="0" />
        <mxCell id="VI82FPDczhNBWMs6-pdR-2" value="" style="shape=image;verticalLabelPosition=bottom;labelBackgroundColor=default;verticalAlign=top;aspect=fixed;imageAspect=0;image=data:image/png,iVBORw0KGgoAAAANSUhEUgAAA/MAAALqCAYAAAB5UgREAAAgAElEQVR4nOzdXW8bV5ov+n+9sIovRUqmJUp+UWJHsuS220mMJNOZTCd9NjBAzrk42NjAHmDu59zOB+hPMB9gvsRg+mpjzgCnGxigO+4onZ2k7e7EieVIkWw5kkXKFEUWX+r9XIhVoWxKIqkiVSz9f4ABmWItFqueVVqr1qpnCZ7neSAiIiIiIiKisSF3/sd1XTiOA8/zIAgCBEE4q/0iIiIiIiIiii3P84K+tyRJEEWxr+2DzrznebBtG41GA47jIJFIQJKk0HeYiIiIiIiI6LxzHAeWZUGSJKTTaSQSib4G1GXgYETetm0Ui0U8fvwYlUoFiUQCoihydJ6IiIiIiIgoRJ7nwXVdWJaFyclJLC4uolAoQJblnkfoZeDgjkCj0cDjx4/xb//2b3j48CGn2RMRERERERENiT/N/vbt2/jHf/xHaJqGTCbTX2fe8zw4joNKpYKHDx/im2++wdzcHCYmJkLv1PvT+ZvNJgAglUpBlmXeODjnGBfUDeOCumFc0HEYH9QN44K6YVxQN6OIC78Tv7+/j83NTQBApVIJ8tf1SgYAQRCQSCSCOfpzc3P4h3/4B9y5cyfUZ+f9qQTVahVbW1sAgMuXLyOXy3FK/znGuKBuGBfUDeOCjsP4oG4YF9QN44K6GVVc+M/Kf/311/jNb37zSn+8V0Fn3s+eJwgCJiYmcOfOHXz44YdQVTX0zvyLFy+wuroKAFhYWMDFixdZac4xxgV1w7igbhgXdBzGB3XDuKBuGBfUzajiwnEcGIYBAPjd734HQRAgiiIkSeq/M+/zN/TvDKiqOpTOvKIoUBQFAKAoClRVZaU5xxgX1A3jgrphXNBxGB/UDeOCumFcUDejigvHcQDg0Ej8IGXL3V70R+r9f7Lc9W1985/N71xDr/NzWGnOJ8YFdcO4oG4YF3Qcxgd1w7igbhgX1M0o4yKMMvtblZ6IiIiIiIiIzhw780RERERERERjhp15IiIiIiIiojHDzjwRERERERHRmGFnnoiIiIiIiGjMsDNPRERERERENGbYmSciIiIiIiIaM+zMExEREREREY0ZduaJiIiIiIiIxgw780RERERERERjhp15IiIiIiIiojHDzjwRERERERHRmGFnnoiIiIiIiGjMsDNPRERERERENGbYmSciIiIiIiIaM+zMExEREREREY0ZduaJiIiIiIiIxgw780RERERERERjhp15IiIiIiIiojEjn/UOENm2jWaziWq1inK5DACoVqtIpVJIJBIQBAGWZQEAEokEZFmGJEkAAMdxYNv2od+L4sE9Ktd1e3p90PKish9xLU8QBDiOg1arhUajAQBotVqwLAuCIAS/H7fvxfg8XXlRj4uoHKeolzes/fA8D5ZlvRIfhmEc+v24HKdxOe5RL6/fuBiX7xW38qLWzvC3JYoydubpzJmmid3dXTx9+hSrq6sAgEwmA8/zoGkaPM9DtVoFAORyOWiahkwmAwCo1+vQdf3Q71VVBQAYhtHT64OWF5X9iGt5iqLAcRxUKhXs7u4CAGZmZqBpGkRRhCiKY/m9GJ+nKy/qcRGV4xT18oa1H67rol6vvxIfqqpCkiSYpjlWx2lcjnvUy+s3Lsble8WtvKi1M9iZp3HAzjydmUajgd3dXfz444/44YcfsLa2hsePHwM4uOjOzs5C0zS4rotqtQpBEJDL5ZDP51EoFAAAxWIR5XIZ1WoVnuf1dbEftLyo7Efcy1MUBZ7noVwuY21tDcDBjI25uTnMzs5CEISx/F6Mz9OVF9W4iNpximp5w94Pz/Pw/PlzbG5uHoqPfD4PQRBO7MxH5TiN23GPenm9xsW4fa+4lBe1dsb169fx+uuvo1AoIJvNQlEUEEUVO/N0ZnZ3d/HHP/4RX331FR4+fIhnz56hVqsBAB48eIBkMglZluF5HmzbBgAoioLp6WksLS0BAFZWVlAqlWCaJoD+p2ENWl5U9uM8lGcYBur1OgBA0zRcunQJS0tLEARhrL8X4/N05UUxLqJ4nKJY3jD3w/M8rKysYHt7G7quAziY6eU39sfpOI3TcY96ef3ExTh9rziVF6V2xo0bN/DRRx/h7t27uHHjBi5evAiiqJJt24bjOME/z/MgCAI8zzv0Lwyu675Snv9/13WDSkXxZts2TNPEjz/+iK+++gr37t3D2tpa8Lz8cQRBQD6fx87ODgAE2/kxJQjCoff38vqg5UVlP85befl8HsVi8cz3I+rlRWU/RlleFOJiHI5TFMqLyn6ct/Kish9RLy8q+3HeyovKfuzu7ga/n5iYgKZpkGWZ/ZRzYlT91bD62bJhGHAcB4ZhwLKsoEDXdYN/juOEsc/wPC+4YeB/jv+a/zPFX7PZxO7uLn744Qc8fPgQa2trwZ3yk3ieh1qtFjxbr+v6K5XtqO3CLi8q+3HeyovKfkS9vKjsx3krLyr7EfXyorIf5628qOxH1MuLyn6ct/Kish+7u7tYXl6G53m4fv06pqenkclkkEgkum5D8eJ5o+mvdva1Pc975QZTr4T//M//9BzHgWVZ+Prrr/Gb3/wGmqbhn//5n/HBBx9AUZTQEkD4B6VarWJrawsAcPnyZeRyOQiCMPCXoPFSrVbx9OlTLC8v49///d/x8OHDs94lIiIiIqKgT3L37l380z/9E/72b/8Wk5OTSCaTZ71rNAKj6q86jgPTNLG8vIx//dd/RSKRwK9//Wv86le/gqqqkOXenoaX/+Vf/iXY6f39fWxubuLatWvY2trC6uoqFEUJdVqJ53nBUmQAsLW1hWKxyI78OVIul7G6uorHjx8Hz8gTEREREZ01f+RV13Wsra0hl8thamoK6XT6jPeMRmUU/VXXdWGaJra2ttBsNgee+cGHP4iIiIiIiIjGjPzrX/8aL0+zT6VSuHz5MhYWFjjNnkJXrVaRyWRQr9fx4MGDs94dIiIiIiIAP02z1zQN8/PzuH37NqfZnyOjnmZfLBaRSqUGLkf+1a9+FSTAA4Df/e53wfqMFy9ehKqqoXbm/eQBftZhfx1ISZLYmT8n0uk0ZFnG9vZ2kFTEMIxg+bnjCIKARCIBTdMAHEyB6kzc2K9By4vKfpy38qKyH1EvLyr7cd7Ki8p+RL28qOzHeSsvKvsR9fKish/nrbyo7AdwsGxdNpvF5cuXMTc3h6tXrzIB3jkyqv6q3//O5XI9Px/fjayqarDDiUQiuOMgimLwL6zOvOu6AH664+X/LElS8FkUf6lUCjMzM5ibm8Pc3ByePHmCYrF4Ymfej5tsNov5+XkAB0uN7O3tAUDXTJD+Rbvb64OWF5X9OG/lRWU/ol5eVPbjvJUXlf2IenlR2Y/zVl5U9iPq5UVlP85beWe5H9069/6I/NLSEmZnZ5HNZrk03Tkyqv6q53lBeS/HcT9k/06AJEmH7jb4X6Dzi5yWKIqvVEi//NN+ERofkiRBUZSekisKgoB0Oo3p6WlMTEwgmUxiZmYGi4uLAIDZ2VkUi8XgbmsikQhuPvmJJQB0fV0QDu7aFgqFvsobdLuw9yPu5fmxYZpmsHShpmm4fPkylpaWxvZ7MT5PV15U4yJqxymq5Y1iP2ZmZrC1tRXERyaTgaqqEARhbI7TOB73qJfXS1yM4/eKQ3mj2o+dnR20Wi3s7++jVCqh0WjgJJ19FPZTzodR9VfD6mcPPqZPNCDHcVCv11Eul7G9vY1SqRQ85tHJD/CZmRl89NFHuHXrFgqFQvAPOJj+Ui6XUa1WARxMg1EUBYIgwDCMnl7P5/MDlTfodiyv9/Jc10W5XMba2hoAYH5+HnNzc5idnYUgCGP7vRifpysvynERpeMU5fKGtR+e5+H58+fY3Nw8FB/5fB6iKMI0zbE6TuNy3KNeXr9xMS7fK27lDXs//H/ffvst/vCHP2BjYwPd+Fns/RsK9XodmUyGI/MUSezM08jZtg1d17G/v49qtYp6vd51mpMvk8lgYWEB7777Lubm5jA1NYVMJgMAqNfr0HU9WOIum81CVVUAgGEYPb2uadpA5Q26HcvrrTxFUeA4DnZ2dpDL5QAAt2/fxtWrV5HNZiGK4lh+L8bn6cqLelxE5ThFvbxh7Yfrurh27RquXr16KD5mZmYgSRJM0xyr45RIJA7dAAeAfD6PycnJ4PtVq1VUKpVDv/eTKTWbzVC2G/fyPM/DlStXMDU1FTybeufOHczOzkKSJLRara7bua6LS5cu4cWLFyiVSgAQ5Prxz2Xn65qmQZIkGIYxlsfprMsb9n7s7OxgY2MDlUrl2GR2lmVhb28vuKGg6zpUVeUz8xRJ7MzTyFmWhWq1imq1CtM0j+zI+6+LoghVVZHJZJDNZpHJZIIpVf40Of9i3TkN13Xdnl6XZXmg8gbdjuX1Vp4gCEFykKmpKQDA5OQkMpkMZFmGIAhj+b0Yn6crL+pxEZXjFPXyhrUfoigik8lgcnLyUHzkcjlIkgTP88bqOPkdeaD7s72dTvpbGtZ2415eP5/jOA6azSYqlUqQCCuRSATP1Far1UOvS5IUdCzH/TiddXnD2A/btlGv11Gv12Hb9oll+O3VWq2GXC53qozjRMPCzjydmV7+4HqeB0mSgo58KpU6dGdUFEUkEokjL7D9vj5oeVHZjziV53kH2USTySTS6TQAIJlMBg1f/9mlcfteZ1FeVPYjjPLGKS6ish9RLy/M/fCfrX05PvyVeQRBGIvj5M8gKJVK2NzcRLFY7Gk6sn+zonOkv1qtQhCEgbbzP2/cy+s2zd62beTzeQiCEEyz97ebmJhAPp+HZVn48ccfsb29jZ2dHQDAjz/+eGhkvvP1yclJpFIpuK47lsfprMob1X48e/YMGxsb2NjYCG6SHcXzvIFvDBGNEjvzNHKJRAK5XA65XC4YaTvqgikIAhRFQS6XC6YcEhERxVmtVsP333+P+/fv4969e1hfXw8SfimKgunp6SDh48rKCkqlUtdEka7rwrKsU20Xh/I8z8PKygq2t7dfSYDXbbtcLodLly7BdV08e/YM5XIZrVYLwMHNIX+WheM4h173R+c9zwtW6Bmn43SW5Y1iP7a3t1Gv17G/vx9ktj8K2580LtiZp5Hzp82rqtpTMpF+309ERDSOXNeF4zgolUq4f/8+PvnkEywvL2Nzc/PQUlz5fD4YEV5bW0O5XD52qa7TbnfeystkMpiengaAIAHaoKL0vaJe3ij3oxdsf9I4YGeexgKnOhERUdz5z8hvbm7i3r17WF5exu7u7qG/gZ7noVarYXV1FcBB5u2Xf9/NabY7b+W1Wq3gWfhuq+30I0rfK+rljXI/esX2J0UdO/M0cq7rwjAMGIYRJJE5juM4ME2z5/cTERGNI3+1l2KxiPX19UMj8p1M0wyydvdj0O3OW3m2bQfT5M9yP85beVHZDx/bnzQOOGeERq4zm71lWcfe9fQ871A2Uf9ZKCIiorjpdbUXIhoutj9pXLAzT0RERBQh7MQTEVEv2JmnkeuWzf4ozCZKRETnRT9/H4loeNj+pHHBzjyNHLPZExERvYp/74iig/WRxgEjk8YCpxwSERER0Six/UlRx848jRyz2RMREb2q37+PRDQ8bH/SOGBnnkaO2eyJiIhe1c/fRyIaHrY/aVxwnXk6M70k9hEEgQmAxpzrunAcB7ZtB38ME4kEZFmGJEkA0PX3oijy3BPRucRrH9HZYvuTxgU78zRyndl6FUWBIAhdRx/8C6n/fmYTHU+O46Ber0PXdVSrVQBALpeDpmnIZDIA0PX3mUwGyWTyzPabiGjUev37SETDw/YnjRN25mnkZFmGpmnI5/OYnp5GPp9HrVaDaZqH3pdIJJDNZlEoFJDP56FpGmSZITsuTNNErVZDqVTC5uYmisXioc56Pp9HoVAAABSLRZTL5UO/n5qawtWrVyEIAkzThKIoZ/ZdiIhGode/j6IoBp0Ly7J6fp530O3OW3mCIByaOXaaGyp+p1DTNACAruuneoQiruVFZT8Atj9pvDAyaeQkSUImk0GhUMDS0hJ2dnawurqKcrl86H2apmF+fh6Li4soFArIZDLBH1eKvlqthu+//x7379/HvXv3sL6+HjRIFUXB9PQ0lpaWAAArKysolUqHfn/t2jX83d/9HV577TV4nod8Pn9m34WIaBR6/fvodzaAg2utYRg9lT/oduetPEmSgplhrVYLtm0P9Pn+CG82m8X8/DwAYG1tDXt7ewAOnst+eSq339ns9npcyzvL/ejWuWf7k8YJO/NEFCr/GflSqYT79+/jk08+wfLyMjY3Nw/98c3n89jZ2QFw8Ee2XC4f+v3W1hY8z8OtW7dw9epVTExMcLopERFFmiAISKfTmJ6exsTEBJLJJGZmZrC4uAgAmJ2dRbFYDEaJE4lE0FF0XTe4qd3tdX+0uVAoxKq8Ue3Hzs4OWq0W9vf3USqV0Gg0QjvvRGeFnXkaOf8Z6mKxiJWVFaytrUHX9Vfep+s61tbWggt6vV5HJpOBKHIRhijzz+/m5ibu3buH5eVl7O7uHuqIe56HWq2G1dVVAAfn+uXf7+7u4rPPPkOlUsEvf/lLXL58mUvDEFGs9fr30bIs1Gq14OdeDbrdeSvPcRy0Wq3g5175I8IzMzP46KOPcOvWLRQKheAf0P2xMj8/gmEYPb1+0mNq41resPfD//ftt9/iD3/4AzY2NrqeR7Y/aZywM08jZ9s2dF1HuVxGqVQ6NCLbybIs7O3tBRd0XdehqiqTkEScf36LxSLW19cPjch3Mk3zlamjnZrNJp49e4ZUKoVbt26h1Wr11aiiwZxm9QF/+15eH7Q8QRCChrY/qtJqtWBZVtCQPsv9O+12bCwOhx/Xwz7/py2vXq+jVCrh2bNn2N7ePvLvo78e/SDH4bRT189DeZ7nDTy1HgAymQwWFhbw7rvvYm5uDlNTU68kfPVvMmSzWaiqCgAwDKOn17slkI1DecPej93dXWxubsIwDHz55ZdHnj+2P2mcsDNPI9e5jq5pmkdOnfZf71znM5fLIZVKjXJ3qU+9nt+T+NvZto1Go4FGo8HO/AgMuvpAZ2Oql9cHLU9RFDiOg0qlgt3dXQDAzMwMNE2DKIoQRfFM9++027EzPxz+DaB6vT7U83ja8srlMlZXV7GxsYF6vc5Hi8aMf75EUYSqqshkMshms4eeuc5kMlBVFblcDsCrN4F6eb3z5lCcyhv2fhiGEayUI4oi258UC+zM05nppZHieR4bM2MqjPPGcz86g64+4HleX50bQRBOVZ6iKPA8D+VyGWtrawCAarWKubk5zM7OQhCEM9m/025XKBQwNzeH6elpZLNZrt4QEn8G0IsXL/Ds2TPs7u4O5TwC4cRTpVLBxsYGHj58iP39/ZEeKwqH53lBIsNsNotUKnVoRNfPsH9Ux7Df1+Na3jD2I5VKQdM0pNPpE7PTs/1J44KdeRq5znV0/WmzR10wBUGAoihc53OM9HN+TyIIAmRZRjqdRjqdZjbZITrN6gP9TjsOozzDMFCv1wEcZB6+dOkSlpaWIAjCme3faba7fv06PvzwQ9y9exc3btzAxYsXBzmN9BJd17G6uoqnT5/i008/xcbGxtDOYxjlWZaFer2O/f39IPM2jRe2W6KL7U+KI3bmaeT86WeqqvY0pbTf99PZCvt8+R16WZZfWYKGTi+s1Qc69fL6MMorFotnvn+Dbre9vR28Pjk5iVwux2foT8HzPDiOE4zIf/vtt/jss89eieuXt/Ffj0K80/hiuyWa2P6kOGJnnsYCGzdEwxHW6gPdHPd6XMsbdLvd3V0sLy8DABYWFjA7O8tn6E/BdV20Wi1sbW3h008/xaNHj7rGdTdRiScabzyv8cDzSFHHzjyNnJ9d1jCMnpYacxwHpmn2/H46W/2e317KsywLtm3zj+oQhLX6QL/iWt6g2zUaDWxubmJ9fR3FYpHZk0/JT3hXLpfx5MmTI+P6KFGJJxpPbLdEE9ufFEe85U8j15nt3LKsYxtYnucdyiYaxrqzNFz9nN+T+MsDNZtNZrMfkrBWH6DT8ZMt8XoXDsdxglUweCOQRon1OLrY/qQ4Ymeezkwvzz/760bT+AnjvPH8E1E//Jk8rVYLzWYTrVaLNwFppPh3K/rY/qQ4YWeeRq4zm6iiKEdeLP0Lqf9+ZhMdD72e35P455/Z7IcrrPNFp8PrXThs2w7WcW82m7AsC67rMq5pJFiPo43tT4ojPjNPIyfLMjRNQz6fx/T0NPL5PGq1WrBMjy+RSCCbzaJQKCCfz0PTtBPXBaWz1+v59deQBRA0uDv5539qagq5XA7JZJKd+SEI63z1q3PUI4z1fKNS3qDb8Xp3OqZpolaroVgs4smTJ1hdXcWjR4+wvb2NVqvVd3nDiCf/+uU4zpnFZ9j1OK7lDbod63G0sf1JccTIpJGTJAmZTAaFQgFLS0vY2dnB6urqK8mBNE3D/Pw8FhcXUSgUkMlk2JkbA72eX/+PJXCwxrlhGId+r2ka3njjjWDN7WQyyczeQxDW+eqXP+oB4NS5FaJU3qDb8Xp3OrVaDd9//32wvOLjx4+DZ2P39/f7joew40mSJCSTSQBAq9WCbdunKm/Q/Qu7Hse1vEG3Yz2ONrY/KY7YmSciIqKx5LouHMdBqVQKOvLLy8t9Z68nIiIaR+zM08j561oXi0WsrKxgbW0Nuq6/8j5d17G2tobZ2VkUi0XU63WuuzwGej2/lmWhVqsFP79M13X88MMPUBQFr7/+OlqtFpeGGYKwzle//EzB/s9xKW/Q7Xi9G4wfv5ubm7h37x6Wl5dfWU9+EGHHk79Unv/zaQ26f2HX47iWN+h2rMfRxvYnxRE78zRy/rrW5XIZpVIJ5XK5a2PEsizs7e2hWCyiXC5z3eUx0ev59dd7PUrn+S+VSqhUKmg0GrAs69Dzp3Q6YZ2vfoXxHHIUyxt0O17vBuPHb7FYxPr6emgj8sOIp9NOrX+5vEH2L+x6HNfyBt2O9Tja2P6kOOItJhq5Xte15rrL4ymsdcv9899sNlEsFrG1tYVyuYx6vR5qo/i84zrz0cDr3WAYvxQlrMfRxvYnxRFH5unM9NLoCnt0hEYnrNGxRqOBzc1NaJoGURSxt7eH119/HYVCAdlsFoqihLC3xHp29ni9GxyPG0UF63H0sf1JccLOPI1c5zqfiUQCgiAcecEUBAGKonCdzzHSz/ntha7r+P7777Gzs4O//OUvWFpawkcffYS7d+8Gme5pcGGfLxocr3f9Y/xS1LAeRxfbnxRH7MzTyImiCFVVoapqT8lE+n0/na2wz5dpmiiXyyiXy3jy5AnK5XKwvvLk5CRyuRwkSWJsDIj1K1p4PvrD40VRxLiMJrY/KY7YmaexwJEWAg7iYHd3F8vLywCAhYUFzM7OMsssxQqvd0Tjj/U4HngeKerYmaeR87PEGobR01JjjuPANM2e30+98ddntm07SOySSCSCTrHruodel2U5yCB/3Hb1eh3lchmVSmUoCWP8Z+jX19dRLBaZZfaU+q2PNFy83vWH8UtRxHocTWx/UhyxM08j15lN1LKsY+96vpxNNJfLIZVKjXBv48tfb1XXdVSrVQBALpeDqqoAAMMwDr2uaRoymQwAHLtduVzG6uoqNjY2UK/XQ7+r7ZfHuAhHP/WRhovXu/4xfilqWI+ji+1PiiN25onOGdM0UavVUCqVsLm5iWKxiGq1Cs/zunbmBUFALpdDPp9HoVAAgGDt1W7bVSoVbGxs4OHDh9jf3x/Kd2CWWSIiIiI679iZp5FjNtGzVavV8P333+P+/fu4d+8e1tfXYZomgKOn2SuKgunpaSwtLQEAVlZWUCqVum5nWRbq9Tr29/ext7c3lO/AuAgPs4FHB+O6f4xfihrW4+hi+5PiiJ15GjlmEz0b/jPypVIJ9+/fxyeffILl5WVsbm4Gf8z8LPG+ztfz+Tx2dnYAAGtrayiXyyduN0yMi3DwOEYLz0d/eLwoihiX0cT2J8URO/M0FjjScnr+M/Kbm5u4d+8elpeXsbu7e+jYHnWcPc9DrVbD6uoqgIO133vZbtgYFxRHjGui8cd6HA88jxR17MzTyDGb6NmwbRu6rqNYLGJ9ff3QiHwv/PXeo4JxEQ5mA48WxnV/GL8URazH0cT2J8UR54zQyJ0mm+gwljo7LzqPu2maY323mXERHmYDjw7Gdf8YvxQ1rMfRxfYnxRE783RmXn7O+qj39PI+Ol8YF+Hj8Tx7jOvB8bhRVLAeRx/bnxQn7MzTyHVmE1UU5ciLpX8h9d/PbKKn0+txjzrGRbjiEhfjjnE9GMYvRQnrcbSx/UlxxM48jZwsy9A0Dfl8HtPT08jn81AU5ZX3JRIJXLhwAYVCAfl8HpqmQZaZ5mFQvR73o4Sd1VUQBIiiCFEU+2qAMy7C1WtcDCOrb9gjH1Epb5DtGNeDOe117ThhxtOg17uwywu7Hse1vEG3Yz2ONrY/KY7YmaeRkyQJmUwGhUIBS0tLmJ+fh6Zpr7xP0zTMz89jcXERhUIBmUwGkiSdwR7HQ6/H/SiJRALZbDa0O9T+XW9/rddeMS7C1WtcDOP8d/6LS3mDbse4Hsxpr2tHGUY8DXK9C7u8sOtxXMsbdDvW42hj+5PiiLeZiIiIiIhiQjddPNdt6KYLAYCmiJjRZGjK8WN4uulip72d195utoftiOjssDNPI+evd14sFrGysoK1tTXouv7K+3Rdx9raGmZnZ1EsFlGv15HJZEKb4nve9Hrcj2JZFmq1WvDzafmZYv2fe8W4CFevcTGM89/t53Evb9DtGNeDOe117SjDiKdBrndhlxd2PY5reYNuF5V6/Fy38f+t1rBWNiFAwEJewccLGrT88Y+g7Og2fruqY7VswoOH+byC/3Mhi4UTthsXbH9SHLEzTyPnr3deLpdRKpVQLpe7NkYsy8Le3h6KxSLK5TJ0XYeqqkxCMqBej/tR/PVZw+J53kCNWsZFuHqNi7DPPxBOpxHKmkkAACAASURBVCaK5TGuR+e017XjhBlPg17vwi4v7Hoc1/IG3S4q9Vg3XayVTXxZbMCQHTyHgovFg45otxF6f0T+y2IDfyxXsVo2odpS8Lu4YPuT4oi3mGjkel3v3G+scJ3PcMRlnXnGRbjiEhfjjnE9GMYvRUlU6rEAQIBw0JHXdDxABf9ro4LfrurY0e1X3u+PyP+vjQoeoILnmg5DdiBAQJzWh2D7k+KII/N0ZnppdIU9mkHhj16eBcZF+Hg8zx7jenA8bhQVUajHmiJiIa/gORToEFGxbTxoHUwnv1gUAdvGTMIBAOxYEr4sm/hjuYoHuo5K0sakImMhr2Ahr8TyeXm2PylO2Jmnketc59PPxHvUBVMQBCiKwnU+Q9DPcY86xkV44hQX445x3T/GL0VNFOrxjCbj4wXtoOO+ATxo6agkW3gAG1j38GJbxscTTQDAb/dT+KPh4AEqBx35VhJvaxr++7VJvFtIY0aLT1eB7U+Ko/jUUBob/a7fOoz1rc+juB3HuH2fs8LjGC08H/3h8aIoOuu41BQxSHb3onrwzPsD2DDqdewW91Bq1tBKvIAjSXiKWTxNamhcEDCZSuFtTcMv8zm8W0hjPiaJ73xsf1IcsTNPY4EjLdQN44LiiHFNNP6iUI8PjdCve9gt7mFx/T5e2/wO6e11NFQVmcU3MTX3MwALeC01GcsR+dOIwnkkOg5rKo2cnyXWMAy47slZUh3HgWmaPb+fuuv3uEcd4yIccYuLcce47g/jl6IoKvU4GKFvNPCiWUNp6yleW/sL5lcfIPP0KVq5HJQLORQuXcZrqQRuxnRE3sf2J8UR54zQyHVmE7Us69i7nswmGp5+jnvUMS7CE6e4GHeM6/4xfilqIlePPQ8zZhUfv3iIf9j8Av/t+6/xsydPkGs0AA+AJ2A2I+PjhSw+XtBiPSLP9ifFUXxrLBER9UwQ4rQA0XgSBIHngYjC02gA5TK0x99CW/kK+OGvwPYm6i0DO5MXsHb5Cp5NT8PN5WDK7BIQjSPWXBo5ZhM9G3HK+sy4CE9nXCiKMtZxMc78jrx/PhjXvYnTdY3iITJ/nzwPKJeBzz8HPvsM+PRTYHUVXq2G3YlJfHrr5/js9m386fYtmJMz2N9ysG3p+HhBC5LnxQ3bnxRH7MzTyDGb6NmI23GM2/c5K7IsQ9M0FAoFXL9+Hdvb29jd3UWj0QgaOX4nU9M0AICu65zSHCJBEJBOpzE1NYXr16+jUChA0zTIHCk7Ea8DFEVnHpftEXl8881BR/5//29gdRWtah372YsovrEI42/eh3vzZzAnZ1BKTOLPTQtuuXqQLA8HyfPitsY8258UR2wp0Fhgp4G6YVycniRJyGQymJubw4cffggAWF5exubmZvAeQRCQzWYxPz8PAFhbW8Pe3h6Ag3Pw8tRwnpfe+SPyU1NT+OCDD/Dhhx9ibm4OmUwGkiSd9e4R0YDO7Dp4zIj8fvYivll4B82/+QXu/Le/w+TMVexvOfhz0/ppHfqNg+Xs4jxC3w/+PaOoY2eeRo7ZRM9G3LI+My7CIYoiRFHE9PQ07t69G7y+vr4eJPxJJBIoFApYXFwEAMzOzqJYLAaj84lEIuh4WpYFXddRrVZRLpfRbDZH/6XGQCqVQj6fx8TEBDKZDBYWFvDhhx/i7t27mJ6e5pTOHsXtukbxEPbfp5bromLbaLXLSooiJmUZyZdHi48YkW/WdJRzF1B84yZaf/M+0u+/j9du3cIFbRLblg63XMUD2KjYNh60dLiCh+wLD4aUxtW0glwiHjcW2f6kOGJnnkbuNNlEc7kcUqnUCPc2PuKU9ZlxEb5sNosbN25gcnISCwsLKBaLqFarAIBcLod8Po9CoQAAKBaLKJfLh37vP29fqVSwsbGBhw8f4osvvsCPP/54Zt8pyvL5PN577z3cvn0b165dw+uvv465uTlMT08jm82e9e6NjThd1ygehvH3qWLbeFCr4blpQhQEzCoK3tQ0zCodI+fHjMiXcxfw1c23YLz3Pm78/S9x+fZNTExNIC13rEO/ATxo6agkW/hCNLC31cR6K4f/+dpF3JqIx99Xtj8pjtiZpzPTS9ZmZncOXxyOJ+MifIqi4OLFi8jlcpidnYWu66jVagAOOvqapiGTyQAA6vX6K79XVRUAUC6XcfnyZQDAysoKO/NdCIKAiYkJ3L59Gx988AHm5+cxMzODTCbDEfkB8XpAUTGMv08t18Vz08RKo4F9x8GsokBtj8pPyjKSrVbXEfm6rmN3chLfX5vH13feRPrum3jr1jwKrx3cmFUBaHkFLdfFw90kntktlJI29mCjUXORlxKoWk6o3yUK2P6kOGFnnkau1+zZzO4crrhkLWdcDJf/DL2qqsjlcgAOYkeW5WAqfbff+8mB/PdsbW1B07SxjbNh8eM3k8ng2rVrmJ+fx/T0NJ+RH1BcrmsUD8P8+yQKAvYdBw90PZheb7gu3sxkMHtU1vrJSXx6+zYe3nkLm2/dwWs3XoeZTb9SdjIJzM4Cs0lgvQXorYOB/rhVJbY/KY7YmaeR87Nn5/N5TE9PI5/Po1arwTTNQ+9LJBLIZrMoFArI5/PM7nxKvR73o4iiGPwxsyzr1M+Pdd719jyv5wY442K4/GfoE4nEkVMKj/u9v/2VK1cwOzt7ZJyFHU9RKe+k7fz4vXTpEq5cucIR+VM67XXtOJ3XpzDKGuR6F3Z5UaknUS9v0O2G9fcpKYqYVRTMKgqSongw7V7XIbdamPI85NbXoS4vQ/riC2B1FQ1dR2lyEt+98Qa+fvNNfHf7FnbnLgG5NJ54LqZME5Pt/arYNp7ZLezKLdhJG9OQkZcSuJJM4VYuFZvn5QG2PymeGJk0cv7IX6FQwNLSEnZ2drC6uopyuXzofZqmYX5+HouLiygUChy5OqVej/tR/D9uAFCr1WAYxqn2x7/rDaCvZ10ZF9HWa5yFHU9RKe+k7Ri/4Trtde0oL0+xDaPzPcj1LuzyolJPol7eoNsNq35PyjLe1LRgav0DXcdGswlndxcLGxuYevgQU198gfQPPxwakf/6zTfx5O23sXvlCp4lEjAbDXxerSIhCHizvdToX3Udf6pW8ftKBRXbxrVkErcuZPBOOoel9EECvLhg+5PiiJ15IiIiIqKI8kfmgYOp9aJto1GpQPnxR4hffQXvr3+Ft7aGRqOB3clJPJ6fx8bdu6i99RYKi4uQczmYjQZsz8M39Tpsz0PFtgEc3Bh41GigYtuYlGW8rWl4P5d7NcEeEUUSO/M0co7joF6vo1gsYmVlBWtra9B1/ZX36bqOtbW1YBmser2OTCYTPJtL/en1uB/Fsqwg4Zm/ZNlp+Jli/Z97xbiItl7jLOx4ikp5J23H+A3Xaa9rR+m8JoUxzX7Q613Y5UWlnkS9vEG3G3b99kfos80mJi0LcqmEmysrmFpbg6Lr2LpwAZ/evo2Nu3fR+pu/wcLSEm7PzMBMJPB5tYpv6nVstFp41Gjgk0oFAFC2bSRFEdeSSbytafjV5CSW0ulgGn6csP1JcRS/mkqRZ9s2dF1HuVxGqVRCuVzu2hixLAt7e3vBMli6rkNVVT5bOqBej/tR/PVZwzLoc6OMi2jrNc7CjqeolHfSdozfcJ32unacMBPphfGcfBjlRaWeRL28Qbcbdv32R+gVWUbCcYB6HZdfvICyv4+mquLZ9DT+vLSEFz//OW4vLuLW3BzutKfTJwQBtufhUaOBlUYDYvsxEtfzsJRO42Y6jfdzB1Pr4zoiz/YnxRFvMdHIda7zaZrmkQ0Sv7HSuc5nGHfqz6tej3vUMS6iLS5xNiyM33Ax3ihKRlW/NQBveB7e8DxoAFqKgu18HqtXr+LhG2/gxfXrWJiexpuahklZDkb039Y05GUZoiDA9Ty4ngdREJBvT6/33x9XbH9SHMW3xlLk9dLoCns0g8IdbTorjIvo4/k5GuM3fDyeFBWjqN+C60KyLMC2IbgubFmGnk7jRS6H4oULSGWzMDmKfCS2PylOODJPI9e5zmcikTiUMfhlgiBAURSu8xmCfo571DEuoitOcTYsjN/wMN4oakZRvxuui6etFp62Wmi0l83zBAGeIMDFwXPwD3Qdf9V1VGwbFdvGX3UdD3QdZdsORuT9EfqX3x9XbH9SHHFknkZOFEWoqgpVVXtKJtLv+6m7uB3HuH2fuOB56Q2PUzh4HCmKjorLluuiYttotTvgSVHEpCwjeULs6o6D56aJqm3D9jzUajXs1OvItVqYchxogoCsLGNKUXBFVbElinjUaEAAUHUcAMD9Wg2PGg0kRRFL6TTy7en0fgK8R40GZEGA5Xm4lkxCFUVoktTT/o0Ltj8pjtiZp7HAqU7UDeOCxhnjlyi+utXvim3jQa2G56YJURAwqyg9LQH33DTx2xcv8G2jAd1xgJ0daNUqbrVauOk4mBZFXFYU3E6n8WxiAl8lk9hotfC42cRn1SoAoGhZUAQB15JJ3Eyn8XY7MZ6/NN1Gq4VnhoGNVgvXkknMJBKYT6XwdjYb24R4veB1mqKOnXkaOT9LrGEYcNt3p4/jOA5M0+z5/dRdv8c96hgX0RS3OBsWxm84GG8URUfV75br4rlpYqXRwL7jYFZRoLZHfLuNgPsj+SuNBv5UreLPug7dcZCr1bBkmpj3PLgAZEFAVpJwVVXxXjaLRjqNx80mvm80sN6eSm57Hm6k0/hZOo1fTU7izXZnflKWIQsCnhkGnhkGdMfBM8PA66oKAFhIp0dwxEaD7U+KI3bmaeQ6s4lalnXsXc+Xs4nmcjmkUqkR7m189HPco45xEV1xirNhYfyGh/FGUXNS/RYFAfuOgwe6HnTeDdftOkLvP+v+ebWKR80mnhkGbM+D6nnQJAkTkoREx3Pfftb6ajaLz6pVrLeXowMOOvyFRAJ3s9lDWevf1DRYnoeNVgu64xx6DGAumYQRo04s258UR+zMExERERENmb9O/KyiICmKB9PudR0ADo3QAzg0Iv+gnZhOFAQo7X98gpuIAHbm6Qx0yyZ61N1RZhMNTz/HPeoYF9EVpzgbFsZveBhvFDXH1W9/5NzvuD/QdWy0WkEGeX+EHgD+quv4U7WK31cq2DQMJAUB11QVgiAgl0ig5brYdxxYHfHuj+Tfr9VQtCzYnge5Y5p90bJwv1ZDTpIOfc7n1SoeNRqo2DYmZRmzioLXVRUziUSwr3HA9ifFETvzNHLMJno24nYc4/Z94oLnpTc8TuHgcaQoOiou/ZF5AMH0dX/puAe6HjwjD/yUmM7vYN9MpTDlL6dmGICiQG2P0Nueh2b7WfcvajV812hAEQTcSKdRaHdC/QR43zUa8Nqf2/k5tufhqqriZjp9KAGeJkmjO3BDxvYnxRE78zQWONJC3TAuaJwxfoni67j6fdQI/aNGA59UKgB+WjLuWjKJn2cy+EUuhyuqGiw3t5XLIZNMIiNJaLoutkwTDxsNfLa/j612RvqfpdO4m80COFia7rt21vqTPuflpenOM16nKerOdw2lM8FsomcjblmfGRfRFLc4GxbGbzgYbxRFJ9Xvl0foW66LR40GVhoNiO1p8a7nYSmdxs10Gr+cmDiUIG9f0zCZTgPJJNKSdLD2vOOgZJp4ZpowXRc3X8pan5MkeEBfnxM3bH9SHHHOCI3cabKJWpY1wj2NlzhlfWZcRFec4mxYGL/hYbxR1PRTv/0R+rc1DXlZhigIcD0PrudBFATkZRlva9qh7PMAkBZFvJZM4rVkEmlRhIefRpBF4JXtBv2cuGH7k+KInXk6M0LHcirHvaeX91Hv4nA8GRfRx/NzNMZv+Hg8KSpYv6OP7U+KE3bmaeQ6s4kqinLkxdK/kPrvZzbR0+n1uEcd4yLa4hJnw8L4DRfjjaKk3/rtZ59/oOso23YwUu6PnJfbifH+2l6aztdwXTxttfC01ULDdSHgpw6qC7yy3aCfEzdsf1IcxXcuDUWWLMvQNA35fB7T09PI5/Oo1WowTfPQ+xKJBLLZLAqFAvL5PDRNgxzj6V/D1utxP4ooisEfM8uyTv38WOddb8/zep4ey7iItl7jLOx4ikp5J23H+A3Xaa9rx+m8PoVR1iDXu7DLi0o9iXp5g27Xa/32s9b768g/ajSQFEUspdPIt9/vJ6bzf6eKYpABv9xs4odmE2qrhSnHgSYIyEoSphUFVxUFW+3tZEEIlq77vI/PAQ4eAUjGLIM7258UR4xMGjlJkpDJZFAoFLC0tISdnR2srq6iXC4fep+maZifn8fi4iIKhQIymQykGC2RMmq9Hvej+H/cAKBWq8EwjFPtj3/XG0Bfz7oyLqKt1zgLO56iUt5J2zF+w3Xa69pRXp5iG0bne5DrXdjlRaWeRL28QbfrtX77I+X+OvIV28a1ZBI302m83U5Y5y8Z17kO/ZNkEgCgV6t4ruuYabVw03EwLYq4rCi4nU7j2cQEvkomsdFq4ZlhYKPVAoBg+blePsdf7z5uifDY/qQ4YmeeiIiIiGjIdMfBc9PESqOBz6tVfFOvB+vIv61peD+XC7LP+yPjnevQ+x1zWdeRtG3MtMuV2yPzV1UV72WzaKbTWGs28aTVQrXdQS9ZFq6qKm6l0/ioI8t9t8+xPQ9WO8v9rKLEaq15orhhZ55GznEc1Ot1FItFrKysYG1tDbquv/I+XdextraG2dlZFItF1Ot1ZDIZiDGb9jUqvR73o1iWhVqtFvx8Wn6mWP/nXjEuoq3XOAs7nqJS3knbMX7Dddrr2lE6r0lhTLMf9HoXdnlRqSdRL2/Q7U6q389NE7998eJgan2zCac9Uv62puFXk5NYSqeDbPLd1qHfa3fMX2808KEs4/X2OvM+P2t9PZvFfV3Hc9NEqb3/siDgqqrinWz2UNb6bp+zaRhYbzbxfi6Hjy9exEIq1fMxiDK2PymO2JmnkbNtG7quo1wuo1QqoVwud22MWJaFvb09FItFlMtl6LoOVVWZhGRAvR73o/jrs4Zl0OdGGRfR1muchR1PUSnvpO0Yv+E67XXtOGEucxfGc/JhlBeVehL18gbd7qT6rTsOVptNfFOvY8MwDkbkZRnXkklcSyYPTWufVRQYrosn7Snze7YdjMxrlgVVEDApy0h0PA7ir19/SVWRkySIOEiWBwCTkoScJOGSqp74ORXbhu26mEok8HeO0/dxiCq2PymOeIuJRq5znU/TNI9skPiNFa7zGY5ej3vUMS6iLS5xNiyM33Ax3ihKWL+jje1PiiOOzNOZ6aXRFfZoBoU72nRWGBfRx/NzNMZv+Hg8KSqOq9+aJGEhlcKuZUEWRTieh0p7xP31VguqKAbT3/3X/cR0F2QZaCfAu9hqwWhva3V8Vst1UTFNbBsGqo4DF0C6PTXcBVB1HGwbBp6b5rGfM5VI4GYqhYVUKpbPy7P9SXHCzjyNXOc6n4lEAoIgHHnBFAQBiqJwnc8Q9HPco45xEV1xirNhYfyGh/FGUXNc/Z5VFHx88SKupVJBArxuWeQBdM12/3a7Ay6bJvZtG0/a2ex9fpb8r2o1PDMM2J6H6fbnlywLzwwDX9VqyEjSsZ/z80wGv8jlggR4ccH2J8URO/M0cqIoQlVVqKraUzKRft9P3cXtOMbt+8QFz0tveJzCweNIUXRUXPoj85okISEIkAXhUBZ5f/154Kcl4zqz3V/zl6ar17EjSRA8DwIA2/PQdBw8Mwx8Uavh20YDkiBgPpXCzXQawE9L033baMAFjv0cP6t+nDryANufFE/szNNY4EgLdcO4oHHG+CWKr+Pqt591/uUs8o8aDXxSqQAAyraNpCgeynbvd+b3ajWsJ5NIyjIygoCm62LLNPGw0cBn+/vYarUOjbADODQT4KTP6cyqf97xOk1Rx5pKI+dniTUMA247y+pxHMeBaZo9v5+66/e4Rx3jIpriFmfDwvgNB+ONouik+u1nnQcOpta3XBePGg2sNBoQ29np3fY67zfTabzvT3mXJMAwcKFeh1IqAS9eIG2aMAQBu6KIZwCeWhZs18XNdBq/nJgIptMnBAG25/X2OTEbkfex/UlxxDkjNHKd2UQtyzr2rieziYann+MedYyL6IpTnA0L4zc8jDeKmn7qtz9C/7amIS/LEAUBrufB9TyIgoB8e9p7sC68YQAvXiD1ww+4+uc/4+o33yC1vw9LkrCfTqOaTsOR5Ve26/tzYortT4qj+NZYijyhY23U495z1Ptc14XjOLBtO7jIJhKJ4Lkm13V7el2WZUjtbK39lDfodmdVXrPZRK1WQ6PRgN1+Vm5cHRcXFA08P0dj/IaPx5OiYij123EA0wSKReDhQyS++AKJR49gF4swABQvXMDqlSt4cukSGskkLoT76bFz2vYnUZSwM08j15lNVFGUI7OJ+hdS//0vZxN1HAf1eh26rqNarQIAcrkcVFUFABiG0dPrmqYhk8kAQF/lDbrdWZVXq9VQr9fRarXguu7YZn0+KS7obPVav88rxm+4GG8UJf3Wbz/7/ANdR9m2g5Fy4GD6e7mdGG/SNPGmYWD222+B//gP4IsvgM1NGJ6HnYkJPJ6bw+c//znu37iBcjaLlL9de0QeQG+f035/XKfZh9X+JIoSduZp5GRZhqZpyOfzmJ6eRj6fR61Wg2mah96XSCSQzWZRKBSQz+ehaRpkWYZpmqjVaiiVStjc3ESxWES1WoXneX11egVBQC6XQz6fR6FQAAAUi0WUy+Vjyxt0u7D3o9/y/H+rq6vQdb3v89Z5lzqM9VcHLe+ouKBo6LV+i6IYNI4syzr184hRKe+k7Ri/4eo13voV9vWuMy5s24bruqcqUxCEQzOvei0rKvUk6uUNul2v9dvPWr/SaOBP1SoeNRpIiiKW0mnk2+8v2zYynoene3tYqddxbXsbhQcPIHzxBZzVVRiehxcXL2Lrxg1U3noL2TffxNWrV6F4HhKiiEeNBmRBCNah//yYz0m2358UxSAp36QsIxmzDO6nbX8SRREjk0ZOkiRkMhkUCgUsLS1hZ2cHq6urKJfLh96naRrm5+exuLiIQqGATCYDSZKwt7eH77//Hvfv38e9e/ewvr4eXIj7nY6uKAqmp6extLQEAFhZWUGpVDqxvEG3O8vydnZ20Gq1UK1WUSqV+m5I+nepAYTybOqg5R0VFxQNvdZvv7EEALVaDYZhnOpzo1LeSdsxfsPVa7z1K+zrXWdc6LoeXNs9z3tlKm8vnyVJEpLtzOatVqvnR6eiUk+iXt6g2/Vav/0R+ZfXd7+ZTuPt9kj6A13H0709VHd28OTxY9Q+/xzOd99B6hiR37pxA0///u+RfOcd/I833kAtk8H9eh3fNZvYaLXwzDCw0WoB+Glpum6f86jR6LrefdxG6E/b/iSKInbmaWy4rgvXdVEqlXD//n188sknWF5exubmZtD4OapRdNzr+XweOzs7AIC1tTWUy+WhbheF8oiIaPSy2SwuX76MRCIRPO6USCSCjoJt24duutbr9TPeYwqT7jh4bppYaTSCpeK6re8Ox8GkaWKlXseTx49R+PJLqF99BXtrCy0Ae+0R+fJ770F+7z3M3LqFOxcuwBVF5BQFkijimWHgmWFAdxy4noeSZeGqquJWOo2PJieD6ff+CHznevcAYj1CTxQn7MzTyPnPuheLRaysrGBtba3rtG9d17G2tobZ2dlgKj0AbG5u4t69e1heXsbu7u6hDupRndXjXq/ValhdXQ0+s9fyBt0uCuUNws/setznjqK8l+OiXq8jk8kEMxTobPVavy3LQq1WC34+raiUd9J2jN9w9Rpv/Qr7emfbNnRdx+XLl/Hxxx/j+vXrsCwreCbXf37X/y7ffvstfv/736PRaHT9fMdx0GqPuDqO0/N+RKWeRL28Qbc7qX4/N0389sWLg6n1zSac9kj5K+u7t5+Rv7a9jdrnn0P96itcLRZhAyh1jMjL772HxRs3cPnCBUwkEvAEAW9qGizPw0arBd1xULFtGK4LWRBwVVXxTjZ7KGt9t/Xu4zpCP2j7k9dpijJ25mnk/EZNuVxGqVQ6csTYsizs7e0Fz49XKhUAB89/r6+vHxqRPw3TNAeakjnoduNaXhjPjYZR3stxoes6VFVlcpqI6LV+++v9hiUq5Z20HeM3XL3GW7/Cvt65rgvTNJFIJHD9+nW88847kGUZqVQK2Ww2yH2yv7+Pzc1NGIaBL7/88tj9G2RVkqjUk6iXN+h2J9Vv3XGw2mzim3odG4ZxMCIvy7iWTOJaMnmwjnyrBRSLmP32WxQePIDz3Xewt7ZgA9i+cAFfX7+OrTt30LpzB1cWFpCfmkKh/cgFAMwqCq6qKqYSCSRFEU3Xhem6mEokMJVI4IqqHuqcd653Dxw8AtByXTw3TTw3TSzGaH31QdufvE5TlLEzTyPXuc6naZonjjr77/cvuidtR/H2clzUajXkcjmkUqkz3jMCeq/f5xXjN1zjEm/+fvm5TWRZxszMTJAluzP3SSaTQTKZhCiKkf0+1N2p63d7HXk8fAj8x39A+OILSJubaOFgRP7r69fx//7t32L3rbdwo1DAbHs0/pX9wOEbUrIgQJMkaJIEucv7/Sz2ascMgglJghuz+Bu0/cnrNEUZO/N0ZnpppHQbHWHjhsIeNaPw8fwcjfEbvnE4nn6yu0QiEYzI53K5Q+9JpVLQNA3pdJrZs8fUcfVbkyQspFLYtSzIogjH81CxbTyt1/Gj50GrVpF99AjKn/4EdGSt95+R37pzB7tvvYXStWtQVRWTponXDAOqJAXT5iu2jR8NA7uWBdvzMJVIYFKWcTOVwq10GrkucZUUxUMj9M9NE67nYVZRYvm8/KDtT6Io4l8KGrnOdT4TicSx6wILggBFUYKl1gD0tB3FW2dccP3XaOmnfp9XjN/wjFO89XLex+n7UHfHnedZRcHHFy/iWioVJMDbaLWg12rQPA/iDz/gxn/9Fy4+eHBoHXn/GfnWnTu4UShAErOXqwAAIABJREFUVVX8YBgotx8/9J9tBw7Wk/+8/Ux+y/Pws3bm+l/kclhKp499/t0fofen1idFMbhJEAeDtj95naYoi08NpbEhiiJUVYWqqj0lE/Hf709v6nU7ird+44hGg+elNzxO4Ri343jS/o7b96HujjqP/si8JklICAJkQUDFsuDt7sJ6+hTWX/4C74svYD95cmgdeT9r/ZWFBcwmEpg0TZTbS9o90PVg3Xrgp6XmHM/DnKri3Ww2yJJ/UiK7zhH6OBq0/cn6SFHGzjyNBY5MUDeMCxpnjN/zief9fDjuPAfPqAsCBMeBs76OO3/6E65++SVS29uvjMj7WevzU1PwBAGvtZPz+dnnHzUa+KQ9Sl+2bSRFsXuWfOob6ytFHWs2jZyfJdYwDLg9ZEl1HAemaaLZbAJAz9tRvPlxwXiIln7r93nF+A3HuMXbSed93L4PdXfSefZHwAXXhZlOw3IcvPHkCfI//ADFMFCanMQ3169j5623kHznHczcuoXLFy4EWetVSYLhumi5Lh41GlhpNCC2E9u5noeldBo302m838PU+vNk0PYn6yNFGeeM0Mh1ZhO1LOvYu57+Wr9+NvsXL170tB3FW2dc1Gq1UNYjpnD0U7/PK8ZveMYp3no57+P0fai7fur3hCjiTUXBXVnGJctC2jAgOQ6KFy7gv959F1998AEKb7yBO+115H3+yP7bmoa8LEMUBLieB9fzIAoC8rKMtzXt0HryNHj7k9dpijLWcCIiIiKiERM8D4LrQrJtKLaNRPu5dz2VwuqVK2hdvYpaJgNXFLsuQUdExJF5Grlu2USP8nI2+4sXL/a0HcUbs8xGVz/1+7xi/IZnnOJt0Gz2NF76qd/7to2Huo6H9Tr22x15AHAEAYYkoeh5uF+v46+6HiS4Aw6Wn/urruOBrqNs28GIvD9CX24nxnt5u/Nu0PYnr9MUZRyZp5FjNnsKA7PMRhPPS294nMIxbseR2ezPh5POo599frXRwJe1GpL1OuZsG4X271VJwnQyibIs47tmE6okQRVFGO3ntjdaLfypWsWjRgNJUcRSOo18ezq9nwDP/53a/vxJWY7lmvH9YDZ7iiN25mks8LlB6oZxQeOM8Xs+8byfD8edZ39k/cv9fXy+v4+Zeh0fOE7w+wuyjLuaBiOZxEarFYyuP2knwNtotfD79tJ015JJ3GyvJQ/8tDRd53b+OvRMhNc/1leKOnbmaeSYzZ7CwCyz0cRs3L1h/IZj3OKN2ezPh6POs+44eG6aWGk08Hm1ipX2NPiZl7afaCewa2kaKrYdrCe/0WoBQPDaZPt9/jrywE8j8J3bAeAIPZjNnuKJnXkaudNks/c8j1l+6ZUss7lcLngMg84Ws3GfjPEbnnGKt17O+zh9H+ruuPP83DTx2xcvDqbIN5uAaWJJVXEnk8GEJAVlBOvQT04C+Gk9+b32SPsFWT5yHfk3NS3ouPvbcYT+wGmy2fM6TVHFzjydmV4S+wiC8Mr7mBCIusUFRQvPz9EYv+Ebh+PZz3kfh+9D3R13nnXHwWqziW/qdWwYBi56HnKqiplEIuiAAz+tQ28kk3jSnmq/Z9t42mpBFgTkJAm3jlhH3v/Zf76+YttouS6emyaemyYWOcI8cPuTKIrYmaeR68wmqigKBEHoenfUv5D678/n8wBw4nYUby/HBbPMRkuv9fu8YvyGa1zirdfzPi7fh7obdv2WBQGaJOGqquKdbPbIdeSDkf32DYLnpokJSYJ7zmNp0PYnr9MUZezM08jJsgxN05DP5zE9PY18Po9arQbTNA+9L5FIIJvNolAoIJ/PY7I93eyk7folimJwkbYsq+fnogbdblzL67xL7XneqRuYg5b3clxomga5S2OGzkav9Tvq8T6s6wLjN1y9xlu/wo6nXs/7sOtPVOpJ1MsbdLuTzrMmSVhIpbBrWZBFETBNVG0bO5YVjKQD7Wz3pomNViuYJn9BlpFrd+R/0WVEvpM/sg8cjNA/N024nodZRTm3z8sDg7c/eZ2mKDu/NZrOjCRJyGQyKBQKWFpawvz8PLR24pZOmqZhfn4ei4uLKBQKwd3Uk7brl3/R7vfO66DbjWt5/l3qsNY+HrS8l+Mik8lA6njWkM5Wr/U76vE+rOsC4zdcvcZbv8KOp17P+7DrT1TqSdTLG3S7k87zrKLg44sX8Y8zM/i/8nm8kUph0zDwdb2O/Y5s9n62+z9UKvh9pYKNVgvXkkn83xcv4v+5dAn/c3oaV1X1xP3xR+g/mpzE/3HhAt7OZruO5J8Xg7Y/eZ2mKJNt24bjOME/z/OCaSed/8Lguu4r5fn/d12XazieE/757ie2Ot8bZkzSeOu8djAmomGQ+n1eMX5Pbxzj7bjzPo7fh7rrdp4zooj5ZBIZUYQEIN1s4s/1OpL7+xAtCx4ATxCw5zi4r+t4oOvYs21MShLeymTwi1wOb3UksDspRlRBwEyXmxHnNbYGbX/yOn2+jKq/GlY/WzYMA47jwDCMQ5kdXdcN/jkddwtPw/O84IZBZ8fML5+V5HywLAv1eh3Pnz/HysoK1tbWoLeXTumk6zrW1tYwMzOD58+f48qVKwBw4naD7E+tVgt+HvZ241qen9nV//msyns5Lq5du4ZMJsPn2SKi1/od9Xgf1nWB8RuuXuNtkHLDjKdez/uw609U6knUyxt0u17Pc1YQcCeVwgVZxuX9faRevMC0YcATBDiiiBeui/v1OtZbLVxTVbyZyeDDXA5LqRSyghBau/y8GbT9yev0+TKq/mpnX9sfTB+E/Ic//AGO48CyLHz99dfY39///9l7861Grixv+4lQSKEhJEgBSnJiSEiThhy7ylmucmVXu6rXet9b6ivoi+m+ga97vbW67GpX4iqbtHMkDQlO5kkIKSTFpIjvDyJkQTJIQggB51nLy7mE9okTcQadHfuc30bTNPL5PFtbW0QikZZtLQkeSj6fx/HTZOTzeUCoRl4mDMMgl8uxsLDAyspKNeXcfmzbZnt7m+XlZRYWFujt7QU41q5Rgryj7bI7r+W1OlLUbHn7+8XNmzfp7u4mGo22rG6C5ql3fHd6fz+teUH039ZSb39rlFb3p3rb/bTHT6eMk04vr1m7ettZdhzi5TID798Tf/sWZW6OVLGIEYmwlUox39XFPKAbBtdkmVHLoqdUImTb6MDJX1ddTppdf4p5+nLRLn+1UqlgWVb1Os2+LFL+/d//vVrpnZ0dFhYWGBoaYnl5mZmZGSKRSEu3v3ueh+M4lMtlAJaXl1lfXxeO/CWiVCqxublZfSN62MIr+Dx4QxqIjxxnJ7jY7O8XqVSK3t5e4vH4GddMAPWP78uK6L+t5bz0t3rb/bzcj+Bg6m1ntVBAW1wk8eYNmW+/JTY7S2xnh81EghfDw7y4fZt8IoFqWfSYJrFcjg1FIS/Wyiei2fWnmKcvH+3wV13XxbIslpeXKZfLzTvzLauRQHAKiIWMQCC4aIh57XIi2v1ycFQ7S5YFhQJ8+ID044+EX78m9e4dUqFANpHgp5s3+cenn/JiZISdRIIrbay3YC9ivArOC8q//du/7dlm/x//8R/EYjGuX7/O6OjoqW2zX15eBuD69eukUimxzf4SYRgGV69eJZ/Pk0gkjsyjK0lSVVX0/v37ADiOc6yd4OISzBVBv5iYmBDb3zqIRsb3ZUX039ZxnvpbPe1+nu5HcDBHtbO0tYWUyxFaXSX8+jXhd++IFArViPy34+N8/fAhbwYHyWka8UiErXiccjzOnUTiQDE7Qf00u/4U8/Tlol3+arDNfn19nVgs1nQ5yh/+8IeqAB7Af/3XfyFJEqlUip6eHlRVbakzH4gHrK+vA5BKpUin04RCIeHMXxJM00RVVdLpNGodqVUikQjpdJr+/n6Auu0EFw9JkojH4/T29nLnzh2Gh4e5efOmEKbpIBod35eVYF67evUqqVRKPKsm6dj+FomApu3+3/PAtqFYPLbd84ZBXlGo9PbiXb0K6fRuJHdfHmzBGbO/fS0LisVqO33UzpIE+TzS9ja8f480PY304QOm78h/GBjgw8OH5B484MrEBEM9PaQcB1WWWQmHmYlEuBGP0xuL0aUolzpX/Elodv0p5unLRbv81cD/TqVS1aPEzaCoqlqtcJDvWZIkZFmu/tcqZ951XWCveIAkSYRCoeq1BBefUCjU8GCo7Yfipc/lJJg3ent7+d3vfsfTp08ZHBwkmUyiKIqYPzqEZsb3ZSWY14L/BI3Tsf1N02BkZNcZ9zzY3obZWeDodi8C047DG1WlcPs23tYWzMxANnsGNyE4lP3tm83utm/NS5c97VwowLt38O238P/+H7x8iZTNsuNH5D88fMj206cMTEzw+2vXMFSV57rO21KJOcMg5zjIkoQFPNQ0EmK+aIqTrD/FPH15aJe/6nletbyT/IYpwZuA/R08uIFWbicIcjTWllf78qDjfowFp4LneViWhWVZ1QFzFIFAhGEYAHXbCS4GkUgETdPo6uqiu7ubsbExnj59yuPHj8lkMuJNeYfR6Pi+rATzmmVZJ0pJc9np2P4Wiew6erdu7Tp+2SxYFm5XF5Zf59p2N1yXnOPwk2kyZRi8AfLd3XDlym5Zgs7ioPa1bZAk0PVfxreu45km0tIS/P3v8OwZvHqFsbHBTm1E/te/JnX/PoPDwzxIJgHo9iPwOcch5zj8UCwiSRIxf63eLSL0DdPs+lPM05eLdvmrrfKzhQCeoO3Ytk0+nyefz2Pb9pHnAYNc5Pl8vppCpB47wcVB0zTu3LnD+Pg4Dx8+ZGxsjMHBQTKZDEl/0SPoHBoZ35eV2nmtUCiQSqVOdF7uMtOx/c3zdv/TNBgdBcvCA+xolLzrftTuOcfhR13nb/k8/1ss8tY02XGcX8oRdBYHtC8A4TDe+/e/jO+lJVKFArE3b+C//xtevYKtrY8i8qn793l46xYDySTdfpDtgaah+s76c11n3o/QA5iuywNNo1+86GmIZtefYp4WdDLCmRcIBB2LJEkkEgkGBga4f/8+n3/+OSMjIySTSRGRFwgEVTouYmZZu9FaPyIfOH2mqrIRi7HhOPR6XjUiP10q8Syf57mu7zpslrV7vnp7ezfiK+gsDmlfAGwbSdOQdR35/XukuTl4+RJevcJaX6eoaawODrLw6BG5X/2qGpEfSCb3OOfBv00/gpxzHAzXZdWyWLUsPumknSgCgeDMEM68oO2Ew2FSqRSpVKqq03CUmmgkEqkKTwB12QnOP8HWo2g0SiaT4dq1a6TTaRKJxImEQgSnSyPj+7JSO68lk0kh3ngCavtbJBLpnP5WLO6eoQ4c8dFR6O+nlMmw0NPDgqoyJMtU/Ij8s3ye/8nl2DJNboRC9Ng2r+fnMd+/x9P1s70Xwccc0r5oGhIQsW3SxSJX3rwhMjm5q3uwtUVR03g/OsrPDx9S+N3vSN6791FEvpZuRdkToV+1LLpCIdxO6OPnkGbXn2KeFnQyYkUsaDuyLKOqKqqq1iUiEXw/2N5Ur52gc5EkiXA4jKZpAOi6vmfLW61q/e3bt+nv76e7u5t4PE44HBbt38E0Or4vK+I5tQZFUdA0jUwmw/DwMCsrK2xublIqlZp26o+bn+rCsnb/kySkSAQlHCZ+4wahri4+hMN85zjIuk6oXK4KneUch25F4VEigdzdTairi580jU3DoLRvfmymfi25r0tQXl12Ne1L4ORpGmo0SrKvj/7tbdILC2irqyjT0zhbW5jJJMXbt6k8eUL0V7/i6sOHXBkY+CgiX0tUlvdE6FctC9fz6I9ExHn5Jmh2/SnmaUEnI5x5wbmgIyItgpYQRNyTySQjIyMAzM7Osr29vec7vb29fP7554yPj3P9+nWi0aj4MRVcKMS8dnJCoRCJRIJbt27x9OlTAL755hsWFhYADhStqnWK939+3PzUcHm6jvT+PYl4nFt376Jeu8Z74GfXZdIwkICs4xCVZYaiUR4mEjxNpQhXKvT+y7/wraLsuZ/gOo3Wr+X3dUHLa9iuWMR7/353az2Q7OvjrmXxaalE708/oS4vI29vU0omWR8bw3ryhOv/+q/cmpjA6e4mHI8fGJHfTxChD7bWR2W5LjvByRHztKDTETOBoO24rotpmpimWZeaaKVSwbIsyuUyQN12gs4iFouRTqfp6uoikUhw7do1PvnkEwD6+/tZX1/H9rcshsNhhoeH+eKLL7h16xae53Vm+inBRzQ6vi8rwbwmntPJCNL69PX18fjxY2B38d3b24vub09PJBKoqookSVV1atidZ4JUU8HnQVQ2k8kcOD95nneg3XHl9QwMMNTXRz6R4GvP471pMuvbuZ7HWDzO3Xic33Z1Ma5phIHwP/3Tbn5yYG5ubs/82Gj9Tuu+zlN5V69eZXl5+ch+0Ww9JE0jYtv0b2/zaanE4+Vlej58wNnZYSeRoDg8jPHkCdHf/Y4rDx6QuHlzN6pfJ7URekHzNLv+FPO0oJMRzryg7Qg1+8tJOp3ms88+Y2JigqGhIW7cuEEmkwFgfX2dbDZLPp8HdnUR+vr6uHHjBpIksbKycpZVFzRAx6qLdxBCJbn1JJNJ7ty5Q1dXF8PDw8zNzTHr53UfGRkhnU4jyzKWZe2ZZ4Jz9qZp7vk8nU4fOT8dZnfY51euXqV3aIjX4TA/ra+zWCpVzz3LkkRaUXikaTzQNLoVBdm/n+7ubkZHR1lfX29J/Vp9X+elPM/zWF1dZWFhoa5+0Wg9ZF0nXSySXlig96ef6PnwgZ58np1EgpfDwzi//jV3/vQnMg8fovb0NOTIC1qHULMXXESEMy84M+qJsh6Uf1FEZ88fkiTR1dXFxMQEv/vd7xgZGeHq1askEgkAisUiuq5TKBSA3YV5IpEgGo2ys7PD1tbWWVZf0ARinB5OK/LKCvYSiUTo6elB0zT6+vro7+8nlUoBMDExwdWrVwmFQliWtWeeCbJimKa553NN046cnw6zO+xzJR7HVlXmi8VqVLee+0mlUvT39390/Wbr1+r7Oi/lua7L0NAQN2/erKtf1F2PQoHC0hLy+/dcefMGbXUVdXm5GpF/d/Mmk59+ijcxQez2bWKZDKFwWCy+z5hm158CQSci5hNB26lXfTiYSIPv16rZd5RqseBIgnZMJBIMDQ0xMjJCX18fiUSiuqgNtjsGi6xA5E78kJ4/OlZdvEPYP68JleTWoigKiUSC7u5uent7Aeju7iaVShEKhfA876N5Bna339Z+rijKsfPTQXaHfb7purzyxe6yjoPrecj+/OZ6HlnH4bmuV89GB1uqA02A/ddvtn6tvq/zUp4syw31i7rrYRikCgWkuTkik5Mo09PI29vViPzkp5/y58ePcW/fxpEkysWiyA9/hjS7/hTztKCTEc68oO0E6sPpdJq+vj7S6TSFQqF6/i0gHA6TTCbJZDKk02m6u7sBjrVrFFmWq5O0bdt1n4tq1u6ylRe047Vr17hx40Y1Il/7wxiUXbuFzfM8KpXKieosaD/1ju9O6Z+tLu84u/3zmqZpItViCwmefzQaJR6PAxCNRlFVtaq7cdhW2cM+P2h+qscuFotV88i/N02+9VXro7LMWDxO2m/3QAAv+FuQhqxbUYj6mgBHXb/Z+p3kvs5becFZ92b6xYH1ME0oFGBpidibN7t55GdmcLa2KCWTFP2t9d7EBO7t22z39fG8UoF8/qP2FbSPZtefYp4WdDKiZwraThBpyGQyjI2Nsba2xszMDNlsds/3NE1jZGSETz75hEwmU30rfpxdowSTNkChUMA0zVO1u2zl7W/H2oi84OJR7/julP7Z6vKOsxPj4XKR25dHPuc4DEWj3I3HeeSnPgtS080bBjnHAXbTkIkIbgdTKMDbtzA5Cf/93/DqFfjp59bHxjCePOHOn/5EzI/IP69URPt2AM2uP8U8LehkhDMvEAgEAoHgTAgi18a+lFvHRSz1SoVVy0L3d+9ooRD9kQiJQ+wM16VQqVB0XUz/Wqoso4VCR17vsOtoxyzs847DomkyXSrxXaHA69o88prG56kUD3xnvltRUCSJBdNkwTT5R6GA43nYvsr9Uddrtn7tsgvaV69U2vLcG+0XDV8viMjPzOw68n/7G7x6hbW+TlHTKN6+jeWr1mcePiSWyVAuFiGfJ+c45PzjFPW2r0AgEByHcOYFbadSqVAsFllfX2d6eprZ2dlqqphadF1ndna2mhYmUJI9zq5RbNuuCtsEqX9O0+6ylbe/HYvFIolEQuSMv6DUO747pX+2urzj7MR42EvOcXheKLBqWciSRH8kUlfEctWy+P+2tpjxU5aOxmL8n54eRqLRQ6/zolTivWGw5rfL1XCYkViMR8nkodc77Dqjx6haL5om/7mxwWQ+z6JpEpIkhqJRHmkaf+juZqwmv/gDTcP2POb8M/VvSiVWLIu5cpnPU6kjr9ds/dplF7TvbLnclufeaL9o+HqHROSLmsb70VEqfh75Kw8eoPb0EAqHeaBp1a31z3WdecNgwTTral9Ba2l2/XnZ52lBZyOceUHbcRwHXdfJZrNsbGxUU87tx7Zttre3q2lhcrkcwLF2jRLkHW2X3WUrb3876rqOqqpCTOaCUu/47pT+2eryjrMT42EvhuuyallMl0rsVCr0RyJHnikOIr3TpRLP8nleFosAbNo2Q7EYCVkmeYBwpl6pMFMu872u87PfPoO+Ivmof4a6kescFlmutZvM53mWz6NXKlxXVR4pCkPRKEPR6B4ntj8S4Yaq0hsOo0gSm5bFumVRqlRIKQq/7eo6lfq1w06vVJgtl/lHodC2595Ivwh2bBx7Pds+MCJvrK+zk0iwODDAq3v3iD56xLXx8WoeecVvX9N1+TkaZd4w2PYj9I7r0hsO84XQhmkbza4/L/s8LehshDMvaDu1eT4tyzrUIQ8+PyjP/FF2gs5ifzuKfK0Xm3rH92VFjIePkSWJnUqF57peddIOO1McnEGfzOd5Wy4z7zuIiiwzmc8TAu7HYuzftGy6Lmu2zc+mybxhVD+/FY1Wt383cp2wJB1Zv+8KBRZNE71SwaljDEjsTYXleB56pXKo/Unr1y67dj/3RvvFjuPwolw+/nqHROR3EgleDA/z5v59fvrsM65++in3UymRR75DaXb9KeZpQScjnHnBmVHPIt/zvI++J5yD88dB7Si42Ij2PhwxHn4hKsv0RyL0RyJEZbl6phjYE6EHPoq8Vjyv+reK5/GyWCQERIAe28b0n/GabfOzLPOzYbBqWdXz+auWxbxhMG8Y9ITDDV1HkaQj6/e6VCIkSVz3o9BXFIWc4zBvGAwaBqqvDRDYLZomm7aN4brEZBmZ3ajxpm2zZJqsWlZL69cuu+D5tuu5N9ovtnxH/jA71ba5kssRX14m9uwZ4WfP9kTk39+6xet793h57x7vBwbIdXfzHriyr72C+805DlcUhd5wmLuxGKN+9F/QXppdfwoEnYhw5gVtpzbPZzgcPjIPtSRJRCKRj/LMH2cn6Cxq21Hka73YNDK+LytiPPxCkFd9/5ni/arfwIGq8I/2OUzbto3reYxaFjG/jJVikbeWxdsaEbrA5q2/HT6IwNZ7nWbrd5jdZD6/p36u57Fh2yyaJt8VCiRCoTOtX6vu66ye+2H9Ysa2+Wpnh51K5UA7c32d61tbaG/fcuOrrwi/fbsnIv/63j3e/OY3vB8a4n0sRt5/OXDcfd1LJPhNKlUVwBO0h2bXn5d9nhZ0NsKZF7QdWZZRVRVVVesSEwm+H2xvqtdO0Fk02u6C84lo5/oQz2mXIDIPVLdd16p+B2eh4ZcUbrWq8EO+sFng6G07Dj8Wi2zYNj3+In2rVGIlHMYBbqoqd/2z2m9LJRw/Aut4XkPXabZ+R9k5nvdR/UKWxcbyMotLS4x4HjHLwisUiBYKXNV1rgKPa7adr1oWqr+zIappEPwHoOtEdb2tdpquM6LrXK1UuObbrFgWWiiE1ub6xRIJIpUK3dvbAFTm54mFQvQXi/QfYhff3ia6ugqzs/DyJUY2y04iwYeBAT48fEju8WNS9+9zvaeHfLlcd38KshkIR769NLv+vOzztKCzEc684FwgInsXA9GOAsEviPHwC4dF6N+WSnwViJ86DlFZ3qMKHzjLg/557Oe6zpxh8NIwUP1zy2aphBaNMlwTEQWq26ubvc5p2O2v39rSErHpaco//YQ5N0fv5ib3TZMh2+affWfxSo0gnOG6ez7vUpRfVPMdh0HHORM7x/OI+TZl10WRpLbXrzsUIuF5RHxVfSsc5qEk8S++AN1BdoplkTEMunWdWC5H1o/If3j4kO2nT+m7d4/f37hBWVUb6k+12QwEnY2YpwWdjphJBG0nUHs2TRP3AAGc/VQqFSzLouynjKnXTtBZBO14Vu3nui6VSgXHcaopw8LhMIqiEPLPLB709+BtvOu6dX3eKeWdVT2KxWI1+0QrUsRdVM56PHQa+yP0huvytlRiulRC9p1y18/LfTce5/N9W5RVWd5j995xqmJynuMw5rrcjcf5fVdXdftzWJJwPO9E12m1XbV+pknYNFlaXcV88YK+qSmiP/1EdGODZKXC9SYcjH7/v061a3f96sUDjEiErUSCn27d4tvxcXIPHjAwMcHI7duMJ5NAc/1J0F6aXX+KeVrQyQhnXtB2atVEbds+8q2n53kHqtkfZyfoLGrb8axUYYP8srquk8/ngV39BU3TSCQSAAf+XfUFrEzTrOvzTinvrOqRzWaZmZlhfn6eYrEoxukBdMJ46FSCCH3Ocfgql0OWJFy/D8mSRNrfpvxA0/ZENj+yA1zfmZLhQLuWXOe07LJZHszP88mLF1S++w51eporhQLhSgVJjKm24QGeJLGtaby4fZu/f/opXz16RPfEBL+/do0HyeSJ+pOgvTS7/hTztKCTETOKQCC40FiWRaFQYGNjg4WFBdbX1/c4oel0mkwmA1DNKZvP5/E8ryE37wZcAAAgAElEQVSnV5KkjijvrOuRy+WYn5/n1atX7OzstLg1BYILjmlCNkt0Zob+qSl4/hzev8fY2SGnaSz19ZGPx5FUla5QiJS/5bx6pMDz2HEc8o7DTqXyUfo3VZbP1A440/oZrkuQNM5jd0fIUXa5SoVt12W+u5sXIyP8MDrKm8FBBnt6MPw5TyAQCM4S4cwL2o5Qs798nKUqbKFQ4KeffmJqaoqvv/6aubk5LMsCIBKJ0NfXx9jYGADT09NsbGxU/97odvROKe8s62HbNsVikZ2dHbZ9oSnBXoRK8uEE+cKf6zpZx8H1vD3blbO+gFwQ6Q62K39kB9UItitJH9kBrblOq+38iHz/1BT8+c/w+jVsb5PTNH4cGeHl8DCvBwaQ+/q4n0hwL5FgIpEg4/ehHdvmVbHIy2KRF8UiG5a15zp9kciZ2gFnWr91yyKQMXOBzDF2P5ZKPC+XmVMUtru6yKZSZDWNZIv6k6C9CDV7wUVEOPOCtiPU7C8n7VaFDc7Ib2xsMDU1xVdffcU333zDwsJC9cdbkiTS6TRra2sAzM7OVo9zBH+vpZ7PO6W8TqiH4HCESvJeAnX3IF/421KJqCwzFo+T9iO6gZBY8LfgHDrsqsUHdqosc1tRUP2XTWY4jOrbKZKE7ffPyRNep5V2XY5DdmmJ5bU1PnnxYjci//o1ztYWRipF8fZtnM8+w7h7l7Xr18l3d1NSVYqJBEp3N2U/SvzBNJnM5XhZLLJgmliet+c6WUk6E7udeBzDF/b7zn8O7azfC9+uZJq/9ItIhKyqUjzC7sdSiXnHoSxJdMdiJCWJZE07N9ufYPfoRVSM/bYi1OwFFxHhzAvOBcI5uBi0sx2DM/ILCwt8/fXXfPPNN2xubu6pg+d5FAoFZmZmANB1/aO/H8RRn3dKeZ1QD8HRiOf2C0Hken8+7rvxOI/8yGeQ4qs23/jPNanf/ieXY9txGFJVrskyPaYJwFY8zko4zJxhsGiazPvK8kE6uGau02z9DrPLLi2RePMG68UL3KkpmJuD7W2MVIq18XGMJ08Y+/JLtKEhcF1+sG2my2VWLQvbshj0HY2fLYu/WBY7ksTtK1cOrN9Z2M0YBj/5NtOGQaXN9ctJEsPd3Vy3bdL+jqHslSssh8NMGwZrR9mlUtxNJHiQTOJJ0p52brY/ma4rIvTnBDFPCzod4cwL2o5Qs7+ctFsV1nEcdF1nfX2dubm5PRH5WizLIpvNtuy6nVJep9RDcDAXTSU5iKwb/r1EZbmuyGPecVg0TaZLJb4rFHh9SD5u+CWSWZuvPXCkgs+6QyEeJBKMWhYxPzVYOR7ntaIwaxh8MAzyvkO1YdvcVFXG43H+ubu7ses0W7/9dqZJdzbL8toa1osX9H//PdHpacxCgXwyiX77NsaTJ0R/+1uuPnhAoq8PQ9dx8nk22I36Tpkmc356tZwfpe6OxZjo7t5Tv0Q0SqjNdpVcjre2zaJpkvN/wzcch5uqyp1Uii9qnvtp1q8rGmW8q2u3X/h558upFDORCJtAtlI5+HrRKPe7uj5qZ0WSWDRNFk0TvVLB9byG+hMgIvRngFCzF1xEhDMvaDtCzf7ycRaqsLX9zLIs0V8EHcNFVEnOOQ7PCwVW/bPM/ZFIXZHHRdPkPzc2mMznWTRNQpJ0aD7ug/LQb9fkFh+KRnmYSPA0laKnVGLDt7uTSBANh/mhWGTNstjwtSAUSeKmqvKrZPIjlfvjrtNs/T6yq1Gtd6emiPqq9flkkld37uA8ecLIH/9I3/37RNNpFP/Mddvqd0K7YqXClK6zesbP/bB+cSMeR5YkfvDzw9d7PdvzmDcM9EqFnONgum5D9yUi9GeDULMXXESEMy84M/afsz3sO/u/V4+doLM4qB0FgstMcAykUChQLper2QD2CxIqikIoFKraOI5zrGBhrV27znkarsuqZTFdKrFTqdAfiRwZeaw9Iz+Zz/Msn0evVLiuqjzyHamhaHSPk9MfiWC6Lj9Ho1XHK4h8E41W7QZVlYRtk/fnnKvhMIVIhGQohAyU/AhbdyhEKhTimqo2dZ1m6zcUjdLvebC5CbWq9XNzGIUCOU1jdmCA7ycmiD18yPDYGNqNG8Duoq0t9WuR3TVVJdUhz/2gfqGpKgvRKD+bZkPXu6mq9IbDRGWZsutiuS694TC94TA3DrgvoKqfEOxgWbUsVi2LT0TEt+00u/4UCDoR4cwL2k6tmmgkEjlUTTSYSIPv16rZH2Un6Cz2t2O7VGHr7WcCQbuRJAnXdTEMA13XKRQKVad7f6pATdNI+CrgxWIRXdePTCW4366dok2yJLFTqfBc16vO+2GRx+CM/HeFQnWrsnOZxufODrx8CZOTH6nWT42OMjUxwdTjx/TfucPn/nZtQefgsRu5DX5TFElCC4XQQiGUAxzA7n07KlYti65QqJqLXtAeml1/CjV7QScjnHlB21EUBU3TSKfT9PX1kU6nKRQK1TRXAeFwmGQySSaTIZ1O093dDXCsXaPIslydpG3brvtcVLN2l628/e2oaRqKcvpTT739rFOeU6vLa3U9aqMUtYvYk5YZlNcKWlneaT93XdeZmZlBVVU+fPhQddgDp1ySpOpLzEwmA8D6+jrZbJZ8Po/neQc684FdJpPh1q1b9PX1kUwmiZzyNt6oLNMfidAfiVTPBx90NhjYo1r/ulQiJElc9+/jiqKQ8yOkg4aB6p+9D+zmDaO6TfmKooAvMFdrdysSoce2Mf1+sGbbrACFSgUXiAe7GYB8pcKKabJqWQ1fp5n6LebzbBSLpBcXiT17hjI5Ca9fY2xuktM0ZgYHeXX/Pi8nJng3MECpq4t54Fqb6tdquxXTJN8Bz/2wfrHlC9g1er0l02TTtnE8j95wmG5F4W4sxng8TuqA37dgfMDuC65Vy8L1vOp4EbSHZtef7Vq3CATNIHqmoO2EQiESiQSZTIaxsTHW1taYmZn5SFxL0zRGRkb45JNPyGQypPy0NsfZNUowacNuTnLTV0A+LbvLVt7+dkwkEtVtw6dJvf2sU55Tq8trdT2CKAXQEs2K/VsYO628037u6+vr/OUvf2FqaopoNFodE7Xb5SORCH19fYyNjQEwPT3NxsZGdeF52Db7SCTC8PAwT58+5fHjx9y5c4eenp5mHkPd7I88HnY2GDhQtf7RPsesWbtt28b1vF2hM7+MlWKR14rComXheB59fj/e8IXZvisUSIRCbamftbbGzbU1Um/ecO2vfyX57t2eiPyr+/eZ/uwzlgcH2YxEoM31a7VdsPPirJ/7Yf1ixrb5ameHnUqloetN5vO8LZcxPI9PfeX636RSjMXjR55/D8ZJsLU+WvOSQHD6NLv+bNe6RSBoBjGDCAQCgUDQZkqlEvPz88DH5zeDFxGSJJFOp1lbWwNgdna2KgR6nN3Kykr18+7ublKp1Kmeod8feYRfFNyf63r1jDz8kqqrVt19qCaF20nsth2HH4tFNmybHv95bJVKrITDhCSJkViMu/E48EsqsdelEq5f39Oq32I+j7W2RmJmBuXNm90t9q9fY+Ry5DSN+aEhfn70iJ3Hj7ly7x4D6TSlNtbvNO3O8rkf2y9sm1ylwpUmrlfxPG6pKr9OJqtq98cJ2dWOE4FAIGgFwpkXtJ1A+Gl9fZ3p6WlmZ2fR/e2Ytei6zuzsLP39/ayvr1fPgx5n1yi2bVMoFKr/Pm27y1be/nYsFottOctbbz/rlOfU6vJaXY9A2Tf4dyvKO+jfnVLeaT73/fU7rL6e51EoFJiZmQF2x1I99+l5Hpubm3zzzTcAjI6O0t/f35Zxd1iE/m2pxFd+qris4xCV5T1q4YETNegLkJ3Ebs4weGkYqP7LDrNUQotGGY5GuZdI8Bt/l9dkPs9LX8X8tOu3USxyc20N5c0bHn/7LddmZ4nt7LDpR+R/fvSInS++4NrEBGPXr2NEIm2t32nbndVzr7dfnPR6tWr3gs6l2fVnu9YtAkEziJlH0HaC/N/ZbJaNjY09kaZabNtme3u7ek40F/yQHmPXKEHe0XbZXbby9rejruuoqnrqYjL19rNOeU6tLq/V9WjVOfn9ZXZqeZ3y3C3LauooUalUYmFhgbm5OdbX19s27vZH6A3X5W2pxHSphOw7Ua7nMRaPczce5/N9W5NVWW6J3XvH+UVDwXEYc13uxuP8vqurul06LEk4nne69fM82NkhvbhIyo/IX5udJZzLsalpvB0Y4NvxcXIPHjA8Ps7o8DAT7axfm+za/twb7Betup6gs2l2/dmu+VMgaAbxiknQdurN/x04D7V55re2tkTe8HPG/nYsFAotiRQfh8gzL7jMnNW4Cwgi9I80jbSiIEsSrufheh6yJJH2tzXX5uNuqR3gSRKeJCHDR3Ztq5+vWh/73//l2l//yrUXL4jt7FTPyP/l0SO+fvSIhbt3Gervb3/92mx35vU7pl+c9HqCzqbZ9We750+BoBGEMy84M+pxrg6KBgqn7PxxGlHdRq4tEFxGznLcXXpME9bX4d07mJxEmZwk+e7dbkQ+kahG5CfHx3k7MMDqlSsYIrorELSFZtefAkEnIpx5QdupzfMZDoc/EnGqRZIkIpFINUVTT09PXXaCzqK2Hc8iz7zoL4LLyFmMu4Agj/xzXSfrONWIZhDhzPrCYj/qelVYrKV2gOR5SJ6HCx/ZnXr9lpbIPX8OX3+9m0f+H//Yo1ofROR/HB1lO5Fof/3OyO7M63dMvzjp9QSdTbPrT5FnXtDJiL1BgrYjyzKqqqKqal1iIsH3Y7EYQN12gs6i0XY/b9cTCDqRdo2DQO1br1QwXZd5w9hN31UqEZVlxuJx0v525EBA7G2phAwUKxWu+XnmV/yUZSexU2WZ24qC6qfwM8NhVN9OYjfHOcDUCa9zkF2X45BdWmJ5bY1PXryA58/35JEPVOtzDx7QffcuQ1eukDrgekBdzyEqy9Xz3bCrwv6sjufebjtFkrD9KGc9/eI06ndUvzjp9WB3a77IGd/ZNLv+FOsIQScjnHnBuUBsdboYiHYUCNpPO8ZdznF4XigwWy6zZttVBXDH8xiKRrnr5+KGX1J7zRsGs+UyU7pOys/hnK9UWDRNQpLUlJ0sSQypKtdkmR5fiHArHmclHGbOMHhXLvO3IDOKbRNp8jqH1S+7tETizRusFy9wp6Zgbm5PRD5QrR8eH+fL/n6MSOTA6wF1PYcgKvxzTUq12nzrnWK3aJrM+wrx9fSLVtdv23GO7BcnvV6Qh14I4V08xLpF0OkIZ17QdgK1Z9M0cf234EdRqVSwLItyuQxQt52gswjasV3t12g/EwguIu0ad3qlwmy5zD8KBX42TVYti5zjcFNVuZdI7FEz71YUFEli0TT52TBYtazqmT8XcDyPkVisKbvb0Sjj8Th3bZuYnwGlHI/zSlF4Vy4zUy4z52+tdTyPO/E4n8bj/KG7+2T1M026s1mW19awXryg//vviU5PYxQK5DSNmcFBXt2/z87jx1ybmGB0eHjP9WRgtlzmvWGw4keOy65bvZ9/3le/qCzvyYMeOMrBZ0G+9SD/+VnZBc9x0TTR/R0HR/WLU6tfKMSDRIJRy9rTL2YikZZcDxAR+nNAs+tPsY4QdDLCmRe0nVo1Udu2j3zruV/N3vO8uuwEncV+VdhUKlU9NnFaNNLPBIKLSDvHnem6rNk2P/sRWMN16VYU7sbj/MZ3hALV7weahu15zBsGecdhw7Yp+QvluCzTFw6fzC6ZZNA02fDt7iQShBWFyUKBecPA8ecCRZLIhMM8TiZPXr9slgfz83ziR+Sj09Nc8R35qdFRXt2/z/Rnn3Hl3j3Grl9nYt/1ipUKU7rOimVR9q8Vk2Vuqiq/OqB+geMYOKDbfoT4iqIcmv/8LOyC56hXKtUo9lH94rTq9zCR4GkqRU+ptKdf3IjHkSWJH/y8981eT0TozwfNrj/btW4RCJpBOPMCgUAgEAgEzWCakM0SnZmhf2pq94z83BxmoUA+mWR2YICpiQleTkywPDjIQDpdl2p9VJa5GokwFI0yGI3ucQ6Df5uui+N5LJhm1ZnsDYe5l0gcmP/8LOyGolGGolEWTRPDf0lR+3m76vebVIqxWIyQbZP3d2ZcDYfpjcWwgAo0dT3YjeIbrsuqZbFqWXwiIrgCgaCNCGde0HYOUhM97O3ofjV7oC47QWfRKWr2or8ILhPtHHeqLHM1HGbQF4oLttm/LZWYzOcJS1J1m/KPul4VQduwbRRJots/k+4CG7Z9MrtCgR3bJuY7ZivFIq8UhXXbxvE8lJpt9uu2zVShQCoUaq5+psmD+fldR/7Pf4bXr2F7m3wyyas7d/h+YoKpx495NzDAZiRC6ZD7+q5QYNE0KbsuMd+RvxuLMRKLofnXriXIg257HnPlMo7vQN6NxT6KeJ+l3f5+ATCoqlz1xefaVb+HmkZSktD32XUpCg81jQo0db3gHlYti65QCFf8xnQ0za4/hZq9oJMRzryg7Qg1+8uJULMXCNpPu8aBFgox4s/Rt6LRPQJ4L4tFHM+rRj0DATHH87ipqtxU1Y8E5pq2A16XSmzbNj3+In2rVGIlHCYiy9yJx8n4i/JAAO9NqYQHDV0nZJqsLy5+pFrvbG1hpFLot2/jPHlC7OFD+u/codTVBcfcV0iSuB2NclNVGYpGGYnFGI/HSR3gTEZlmf5IhLF4nM9TKXr9exqNxT6KJJ+l3f5+AbsR8cNeUpxm/SqVykfOfFSWSYRCTV8PdiP0q5aF63n0RyLivHwHI9TsBRcR4cwLzgUionoxEO0oELSfdoy7bkXhUTLJaDy+JzXdS/8s8ttSia984bEgtdeQL+72q2Tyo9Rvr3218Gbs5gyDl4aB6kfgzVIJLRplOBrl03icx8kksJua7k2T19k8RLXeSKVYGx/HePKEkT/+keGxMT7XNOahofsajEbRQiFSinJgZDigPxLh//T08IUvLqeFQnWd126X3f5+AbvRei0UOtf3VXt/DzSturU+KstH3pfg/CHWLYJOR8w4grYj1OwvJ0LNXiBoP+0ad7WRSoCecJiwJOF4Hm9LJaZLJWTfuXY9j7F4nLs1Ku2B7aplkQiFcOFEdu8dB8m38xyHMdfl7j7V+lQohNfodQoFEltbh6rWF2/fxnjyhOhvf0vf/ftoN24AcK3J+zoOLRRitAlRrnbZ7e8Xp3Wd4+yOc8iavV6z9yc4G4SaveAiIvaMCNrOSdTst7a2hDr5OWS/Kqxt26d+TaFmL7jsnMW4Cwgilo80jbSiIEsSrufheh6yJJH2U37tP5PcMjvAkyQ8SUKGj+yavk6xyIP5ef7lxQv+dWqKX9eo1v8wOsrbJ0+IfvklV588IerrvJzkvgQCQes4iZp9O+dPgaARxC+G4MwIoibHfWf/9+qxE3QelUqFYrFIoVCgXC4Ti8UI+WcmK5UKjuNUfyzD4TCyLLekrUV/EVxWDpo/BU1imrCz85FqfRCRnx4Y4Nn4OExMoA0Pk+jrQ1GUEy+yXNc9cH5UFOXY+TOwb4XdeS8vcMwMw6BUKgFgGAamae75+1ndV/B3cS67PTS7/hQIOhHhzAvaTq2aaCQSOVRNNJhIg+/XqtkfZSfoPCRJwnVdDMNA13UKhQKqqpJIJAAoFovouk4+nwd22ziRSBD1BZOaod5+JhBcRPbPn+1WY845Dj/qOs91nazjVCPQsLutPOs4PNf1asQ62KrcMjtA8se7K0kf2QGNXWdnB16+hMnJPar1QUT+2fg4//PwIQwOIgGmrrfkvoKXoPvnR03Tjpw/Vf+Mv2maLbE77+W5rkuxWCSXy7G5uQnA1atXUVWVUCiEZVlnel/B34Uzf7o0u/4UavaCTkY484K2oygKmqaRTqfp6+sjnU5TKBSwLGvP98LhMMlkkkwmQzqdpru7G+BYu0aRZbk6Sdu2Xfe5qGbtzmt5tW+pPc9r2DHWdZ2ZmRlUVWVhYYFMJkMmkwFgfX2dbDa7Z3HT29vLzZs3kSQJy7KINHgusd5+1unPvVP6J7Cn/VtBJ5fXKc+92fL2z5+apqG0Yfu24brkHIfpUolnfnq3qCwzFo+T9q8fCL4Ff1NluSqONm8YJ7ZTZZnbioLqj3XTT4P2tlRCkSRsv39M1nEdzXFIb2+TWFwk9uwZyuTkHtX6oq9az8QEDA6y09vLc8eBfP5E92VZFkq5TH5ri4WFBdbX1/fMj+l0+sD50/O8A51KSZKasguud97L8zyP1dVVFhYWmJ2dBSCfz5NOp6u/MWdxX4FdJpPh1q1b9PX1kUwmG/69E9RHs+vPds2fAkEziJ4paDuhUIhEIkEmk2FsbIy1tTVmZmbIZrN7vqdpGiMjI3zyySdkMhlSqRTAsXaNEkzaAIVCAdM0T9XuvJYXvKUGGj6D7nke6+vr/OUvf2FqaopoNMrVq1cZGxsDYHp6mo2NjeoPaiQSYWhoiC+++IKBgQE8z6vuzKiXevtZpz/3Tumf+7ccntRh7vTyOuW5N1ve/vkzkUhUt/meJkEE+lk+z//kcuQch6FolLvxOI/8iHiQim3eMKrp2X72d+HMG8aJ7LYdhyFV5Zos0+M/q614nJVwmDnDYNE0mTcMgGr6uaOuY62tcXNtjdSbN1z7619Jvnv3kWr93S+/RBseRgKeO05L7mvZtomvrLD86hVff/01c3Nze+bHvr6+Q+fPw7Z7N2t3EcrzPI/p6WlWVlbQ9d0EdYlEoup8n+V9RSIRhoeHefr0KY8fP+bOnTv09PQgaD3Nrj/bNX8KBM0gnHmBQNAWisUixWIR2HW80uk0a2trAMzOzpLNZqsOmCRJLC8v43ke4+Pj3Lx5k66uLrFNXiA4ZYLIurEv1dZxubPzjsOiaTJdKlVTsOUcZzc1mabxeSpV3d4elJdzHHL+9vLAwQ4+a9ouFOJBIsGoZRHzU7+V43FeKwqzhsEHwyDvO8wbts1NVWW8RkU+uI7mOFhrayRmZlDevNndYv/6Nc7Ozm4e+Tt3cH7zG6Kff87VBw9I9PVh6jrk8y25ryVdJ76ywursLN98/z0L797tmR+Pmz9raYXdZSuv3fVYWVmp2nV3d5NKpcQZeoFAUBfCmRe0neAM4Pr6OtPT08zOzlbflNei6zqzs7P09/fv2WJ4nF2j2LZNoVCo/vu07c5rebUCQSd1qj3Po1AoMDMzA+y2dW2ZnuexubnJ3/72N3K5HL///e+5fv16Q1uW6+1nnf7cO6V/7m+fi15epzz3ZsvbP38Wi8W6zuTmHIfnhQKrloUsSfRHInWlSls0Tf5zY4PJfJ5F0yQkSQxFozzSNP7Q3c1YPF5VaX+gaah+PQKHd9t3sK8oyonsHiYSPE2l6CmV2PDt7iQSRMNhfigWWbMsNvznqEgSN1WVXyWTe1TkH2ga6e1tbq6tobx5w+Nvv+Xa7Cwx35FfGx/H+c1v6PrTn9AmJoim0yj+WfdW3dcPhQKhchnDsthy3Y/693Hz50GcxO6yldfuemxubvLNN98AMDo6Sn9/vzhDfwo0u/6sd/4UCM4C4cwL2o7jOOi6TjabZWNjY88b6lps22Z7e7t6viznR1mOs2uUIO9ou+zOa3nNnJM/CsuyjjwiUS6XWVxcJBaLMT4+jmEYVCqVusuvt591+nPvlP4JrTvbfh7K65Tn3mx5++dPXddRVfVYESfDdVm1LKZLJXYqFfojkaqjeVCEvvaM/GQ+z7N8Hr1S4bqq8sh3YIei0T0vA/ojEUzX5edotOrwBhFsotET2w2qKgnbJu9HSq+GwxQiEZKhEDJQ8l8KdodCpEIhrqnqL9cxTfp3dkgsLpLyI/LXZmcJ53JsahqbQ0OsPXpE9J/+iZ5PP63mkVdafV+mCbYNlQoc8BLzuPnzMJq1u2zltbsepVKJhYUF5ubmWF9fr3u8Chqj2fWnaA9BJyOceUHbqc3zaVnWsW+5a/PMe553rJ3gYhC0r+M4lEolSqVSQ858vf1MILiI7J8/C4UCqVSKWCx2rK0sSexUKjzX9arzbrrugRH64Iz8d4UCi6aJXqngnOex5qvWx54949pf/wqvXxPb2WFT05gaHWXp8WOszz6jf3ycIV/HRSA4KScZr4L6aXb9KdpD0MkIZ15wZtTjXB0UDRZO2eWh1duvBYLLRDO7aaKyTH8kQn8kUj3H/dzfhloboQf2qNa/LpUISRLXfUGxK4pCzo9MDxoGqn/2PrCbN4yq4NsVRQFfKK4VdrciEXpsG9O/9zXbZgUoVCq4QDwQKQPylQorpslqoUB3sUh0ZgYmJ1EmJ0m+e1c9I785NMTS48fMPnzIzq1bbCaT9HgeIctq6X1t2zYpSSJjWewsL2MuLUG53FAbCs4nrd79JjicZtefAkEnIpx5QdupzfMZDoePzP8tSRKRSOSjPPPH2QkuBpIkoSgK8XiceDzekJpsI/1MILiI1M6f9eZJ7j7k7Hegsh5E6IEDVesf7XNQ2223bdu4nrcrgOeXsVIs8lpRWLQsHM+jz38OG7bNomnyXaFAYmuLB/Pz9E9N7ckjH5yRX3v0COuzz9i5dYvnikLUP/bV6vvaMk1uhEL0FIu8+v57Nr77Dm97u9GmF5xDmhmvgsZodv0p2kPQyQhnXtB2ZFlGVVVUVa1LTCT4frC9qV47wcUgcOgVRflILfgoGu1nAsFFpNFxEETmgWqO9FqV9eCMPPySUq1WpX2oJhXbWdhtOw4/Fots2DY9/iJ9q1RiJRwmJEmMxGLcjceB3dR0IdNkc2mJ5bU1PnnxAp4/35NHvqpa/0//RP/4OJvJJFHfWT+N+0qFQoyrKobrsrC6ysbyMoiXkJcG8bt1ujS7/hTtIehkhDMvOBeIiKpAIBA0RzPz52ER+relEl8FYqSOQ1SW96i0B87roC/8dhZ2c4bBS8NA9V/+maUSWjTKcDTKvUSC3/hn3SfzedYXF0m8eYP14gXu1BTMze2JyAeq9aglrukAACAASURBVD2ffspQKlV9QXBa9zUeifArRWFFVfmbcB4uJWK901mI9hB0OsKZF7SdQJ3ZNM26Uo1VKhUsy6Lsnxus105wMXBdF9u2cRynoR/VRvuZQHARCebPRsfB/gi94bq8LZWYLpWQfSfZ9TzG4nHuxuN8nkoxFo9XbVRZPlO7945T3cnjOQ5jrsvdeJzfd3Xtbm83TcKmyfLaGtaLF/R//z3R6WmMQoGcplG8fRvjyROin3+ONjFRVa0PWdap3tevVZVbpknRcQgLJ+LS0ex4FdRHs+tP0R6CTka89hW0nVo1Udu2j3TQgtzmgZr91tZWXXaCi4HneTiOQ7lcPpGavegvgstI7fxZKBSaynsfROgfaRppRUGWJFzPw/U8ZEki7W8nr83T3hF2gCdJeJKEDB/ZdReLPJif519evOBfp6b49fQ0V3xH/ofRUd4+eUL0yy+5+uQJUV+vpR33NaGqSKWSmLcuIa0Yr4KjaXb9KdpD0MmIyLzgzKjn/LMkSR99r5Fz04LzzUHt30wZAsFlpBXj58JhmpDNEp2Z2RW7e/4c5uaqEfnpgQGejY/DxATa8DCJvr5dzY42V1O02+VDjNf20ez6UyDoRIQzL2g7tWqikUjkUDXRYCINvl+rZn+UneBiELR/K9TsRX8RXDb2z5/NqjEHeeSf6zpZx6lGkmF3e3jWF3QLIs/BtvIztwMkf7y7kvSLXTZ7oGp9EJF/Nj7O/zx8CIODSICp6229r4iqciseF/PWJaNV41VwNM2uP0V7CDoZ4cwL2o6iKGiaRjqdpq+vj3Q6TaFQwLKsPd8Lh8Mkk0kymQzpdJru7m6AY+0aRZbl6iRt23bd56KatTuv5cEvb7Nbsbg8rn5B+/f29pJKpYhGow058/X2s05/7p3SP6G17d/p5XXKc2+2vP3zp6ZpKEr9P/mB2nqQR/5tqURUlhmLx0n75QTCbcHfgnPhsKveflZ2qixzW1FQ/bFuhsOkHIfsEar1xdu3cZ48gYkJGBxkp7eX544D+Xxb7ytUqSCFw1iaRqqnp+XzVqf0z04vr931OOl4FdRHs+tP0R6CTkb0TEHbCYVCJBIJMpkMY2NjrK2tMTMzQzab3fM9TdMYGRnhk08+IZPJkPIViI+za5Rg0gYoFAqYpnmqdue1vP1bzk7qMB1XP03TuH37Nnfu3KGnp4doNNpQaph6+1mnP/dO6Z+tbv9OL69Tnnuz5e2fPxOJREMvw4JI8v686XfjcR75+dGDlGq1+dN/rknFdhZ2247DkKpyTZbp8Z/VVjyOo+vE3749VLXeePKEu19+iTY8jAQ835cXvl33lbUsSCaJx+NkRkYY2dho6bzVKf2z08trdz1OOl4F9dHs+lO0h6CTEc68QCAQCAQC4OOI/HNd35M3/fNUalcNnl1Rt6gs78mfPu+nYAs+a7tdKMSDRIJRyyKWy4FpYhSLmKurVGpU681CgXwyiR6o1v/2t1x98IBEXx+mrkM+f2b39co0icsyhf5+vOvXYWmpHU0vEAgEgnOIcOYFbadSqVAsFllfX2d6eprZ2Vl0Xf/oe7quMzs7S39/P+vr6+TzeYBj7RrFtm0KhUL136dtd17Lq410tmIb83H103Wd9+/fE4lEGBwcxDCMhrY61tvPOv25d0r/bHX7d3p5nfLcmy1v//xZLBZJJBLH7m45LCIf5E0fi8erKu0H5aHf9iPSVxTlTOweJhI8TaXoKZXYUBTIZrm6sUHip5/wvv+emK9an08meXXnDs6TJ4z88Y/03b9PNJ1G8c+6n/V9bVkWTjKJkU6j++fuaznv/bPTy2t3PZodr4LGaHb9KdpD0MkIZ17QdhzHQdd1stksGxsbZLPZAxfftm2zvb3N+vo62WyWXC4HcKxdowR5R9tld17Lg9adbYbj6xe0/+bmJvl8HsMwGkpNV28/6/Tn3in9E1rb/p1eXqc892bLC8bPysoKS0tLrK2t0dfXRzKZrG4XrVQqOI5TdS7C4TB522ahWGShWGSnXCYqSXwaDvNYVRkKheiqVLD8aHNXOMztcJiypmG5LrPlMsumieN5EI3yyHdgh6LRqhAcQH8kgum6/ByNVh3eIILdCrtBVSVVKmHm80gLC1xfWuLK9DTS3Bymr1o/OzDA9xMTxB4+ZHhsrJpHXmlD/eqx+1CpgKpCNAoHOBDnvX92enntrsf+9Y6u66iqKkTXWkyz60/RHoJORjjzgrZTm+fTsqxDF+DB57V55j3PO9ZOcDEI2tdxHEql0onyzIv+IrhsBP1d13Xm5+e5fv06sCvElUgkACgWi+i6Xt31lEql0CWJUrlMxLK47br0hUI8kiSGXRe5VGLLH1fB98PxOBOxGGXPY0rXWTRN9AbG6WmhlEqkPnxA+uEHwm/eIC0sIPmq9VOjo0xNTDD1+DH9d+7wub/dXSA4K/avdwqFAqlUilgsdsY1u1g0u/4U7SHoZIQzLzgz6nGuPM/76HvCKbs8tHr7tUBwmQhefr569QqA5eVlbty4QSaTAahGnfL5PJ7nkUqlyCsKb02TVdPEMk2MUIjVVGo3SgyYpkk+n0eSJFKpFJlMhlu3btGXSPDYF3tbNE1CkkTOj0wPGgaqLFe3lQefB0JxVxRlNwLN7nb0k9gt5PNsFgokZmeJv3lD5PVrIrOzmLpOTtOYGRzk1f37vJyY4N3AAKWuLuaBa5bVlvodZ7dt26QkiYxlsbO8jLm0BOXy6XUSQcdw0HpHcDo0u/4UCDoR4cwL2k5tns9wOHxkHl1JkohEIh/lmT/OTnAxaFWeedFfBJeVbDbL3//+d6anp9E0jf7+fsbGxgCYnp5mY2OjmpYpHA5jSxJ518WoVKi4LlFJ4nk4TNTf6u26bnVbfiQSYXh4mKdPnzLy4AH/d2CAX125wneFAq/3qbqbrlsVfDvwTP4+x7ZZO2t1lZurq2ivXtH3j3+Qmp0lrOts+BH5V/fvM/3ZZywPDrIZiYBp8l2hQCIUakv9jrPbMk1uhEL0FIu8+v57Nr77Dm97u8W9QtCJ1K53RF7z06HZ9adoD0EnI5x5QduRZRlVVVFVtS4xkeD7wfameu0EF4PAoVcUZU/qseNotJ8JBBeRcrnM0tISS0tLSJJEOp1mbW0NgNnZ2T1nRvePr3o+X1lZqX7+ZU8Pg+k0MUkisk/VPVDJh19SsdWquw/VpHBrxm4xn8daWyMxO4vy+jXKq1fE3r8H35GfHxri50eP2Hn8mCv37jGQTlMqlXA8j9elEi6cav3qtUuFQoyrKobrsrC6ysbyMoiXkJcG8bt1ujS7/hTtIehkhDMvOBeIiKpAIBCcDM/zKBQKzMzMALvn6evJAnDU55ubm3zzzTcAjI6Ocj+TYSIWI+ZHpAN19relEl8FIqaOQ1SW96i7B07voC8Y16jdRrHIzbU1Qm/e8Pjvf+f67CyxnR02/Yj8z48esfPFF1ybmGDs+nWMSITJfJ6XxWJb6lev3Xgkwq8UhRVV5W/CebiUiPVOZyHaQ9DpCGde0HYCVVfTNOtKNVapVLAsi7J/brBeO8HFINjW6zhOQz+qjfYzgeAyYFkW2Wy2ZeWVSiUWFhaYm5tjfX0dp1SiNxYjHI9jui6G6/K2VGK6VEL2I/yu5zEWj3M3HufzVIqxeLyq7q7KcmN2ngc7O6QXF0m9eQMvX3JtdpZwLsempvF2YIBvx8fJPXjA8Pg4o8PDTPjb28OShON5p1u/Bu1+rarcMk2KjkNYOBGXjmC9I363Todm15+iPQSdjHjtK2g7tWqitm0f6aB5nrdHzX5ra6suO8HFwPM8HMehXC6fSM1e9BeB4HQIRKJqVZ9t26bbz9f+SNNIKwqyJOF6Hq7nIUsSaX8b+gNNqwrBAY3b7ezAy5fE/vd/ufbXv3LtxQtiOztV1fq/PHrE148esXD3LkP9/VW7ttWvQbsJVUUqlcS8dQk5aBwJWkuz60/RHoJORjjzgnNHI+emBecf0d4CQWdzJqrPpgnr6/DuHUxOokxOknz3bjcin0jwdmCAyfFxJj/9lLcDA6xeuYJRk9tdIBAIBIKLgNhmL2g7rVCzj0QiQp38EiDU7AWCzucg1eec4/CjrvNc18k6TjUCDbvbyrO+EFwQsQ62o9dtl83yYH6e/qkp+POf4fVrqMkjPzk+zlcPHzI9MEAukSC173rA6davSbuIqnIrHhfz1iVEqKefPkLNXnAREc68oO00qyaaSCQIhUJkMhmGh4dZWVlhc3OTUqnU9GJHkiTC4TCav7jTdb2urY3N2p3X8s4SoWYvEHQ+wXjzwmHWHYd50+RZPs/bUomoLDMWj5P2t50Hgm/B34Lz5LCr+n6UXZfjkF1aYnltjU9evIDnz+H1a4zNTXK+av38w4dsfPop8q1bXOnuJh6JoPrXUyQJ258HJ0+hfie1kx0HT1HIKwq22JV06RC/W6eLULMXXESEMy84F3ieRygUIpFIcOvWLZ4+fQrAN998w8LCQvU7jaRWkiQJSZJIJpOMjIwAu6matv2cvoeV16xdq+txkvIEAoGg1Xiex//P3ptvxY1lifqfFFJIoRgMAQRgGwM2HhKcHiqzsrKGrLrZ1WvdF/i9TD9BP0z/XqDvWn1XdnWtLNs52Jm28VDG4DRmJoAIhUKz7h9IkQQGzBAEAT7fWrHSKbTPIB0d7a19zt4bvs+0afLQcZryrd8wDO7EHxeTVGxb866/2ZLCbS+58rt3ZJ89w338mPDhQ5iebvLIz9y+zcYf/0jpwgUGPQ8nilg1DOZVlWnbZtZxmIkjyz+PU9O1sn1HlVu2bWxNw3YcKiLg1keJeEd3FuJ+CDodYcwL2s5ho4l6nkcqlaKvr4+7d+82/j49Pd3wOquq2liKHYYhrusC7Hg88V6XSiWuXbsGwMDAAEtLS3uWd1i5VrfjoOXNz89jmmYjmGCSHaDTEdHsBYLOxwwCpl2Xeq3GZBTx0vOa8q1/WSg0lrd3KQr6tjz0iYGdHHtPznHoKpeZW1zEffyYgR9/RH/xArtabXjk39y5w8Znn3FuYoJcLkdmbg6AumEwqShM2Ta/2DaV2NBe9jwuahrjhsGfu7qO1r4Wya06DpOOgy3LVAYG4Px5KJfhlMzXgqMhoqcfLyKaveAsIox5Qds5SjTRZO/S1atX6erqYmxsjKWlJSqVCtC8n95xnH0dLxaLlEolAJaWliiXy8cqd1LlvXv3jpmZGZ4+fcp3333Hu3fvjnYj24CIZi8QdD5RFLHoefxXpYK+tsYvUYSkKE351q8bRiO6+61cDi1espoYvGuxgd29m1y8R/5a7JHXX7ygOzbkt+aR756Y4NPz58n6PstxfVezWXRV5adajUXXZTmOSq1IEhc1jc/y+abo84dqX4vkHlarvLYsFrJZNj77jEiW4bvv4BTM14KjsZO+k8lkTrpZZ4qj6p/ifgg6EWHMC06M/ex/TpaMbyWdTtPT00OhUGBgYADTNKlWqwDk83k0TQM289Hv53gulyObzQJQq9X2Xd5h5U6qvMXFRc6fPw/AixcvToUxv9P9P0wZAoHg+JAkCSuKmPE8sG3mo4geXedObMCO6HojEBzAQDqNE4a80fWGwZt4sNkuF0WwsgKvXm0Gu3v0CKanGx75JGr9ws2bFMfGGDh/nv58nqxpUomf/X5VpZpOk0+lkAEr9rB1pVIUUikGNe3w7TsGuUoUsZROw+AgLC5CvFRfcLZpxftOsD8Oq38KBJ2IMOYFbWdrNNG9otInE2ly/vZooskeek3TKBQKjbKTICVhGO7ruKIojaXqBynvsHInVV5fXx8Ac3Nz5HK5jo+SnNz/VkSzF9kPBILjIXlOZVlGSaWIUimkA6yg+SBxHnnu3981av03t2/jXLnC3XjZukBw2viQviNoDa3SPwWCTkIY84K2oygKuVyOYrFIX18fxWKRarXa2AeeoKoq+XyeUqlEsVgkl8uhKL8OWVmWkWUZVVV3Xfp00OOHLa9T2rFXefl8HlmWuXDhAgMDA7te991I2gSbS9WOun/sQ+Ul97+3t5dCoYCu6wcy5vc7ztrdr3aV1+p2fGxs9cocJI/6YeXaUd5xZM0wDIPe3l4ujI4yUioRFgoYjkMoSazHnulh20aT5cay8uR4EiiuW1Ea3uduRWHd95mtVFiu1SjOzpK5dw/l/v33ota/uXOHhZs3ca5cwSmVWJBlZmyboXSanjj4HcCi5zEPVIOAEDCSD6BAJQiYdxwWXPdA7Ttsv/YrF6ZS+I6DbduYYcj2WbpT5oWzWt5Jve9203cEraFV+qdA0EmIkSloO4lHvVQqcf36dRYXF3n16hXlcrnpvFwux5UrV7h27RqlUqmRmk5wOPZ73XcjebkBVKtVHMc5Uns+VF4ul+Py5ctcvXqVnp4edF0/UGqY/fa33f1qV3mtbgfQZFS2gk4uLzF8gQMZvIeVO+7yjitrRm9vL3/4wx/47E9/4uaNG7gDAzyoVnm6Laq7E4ZN+d3vVSpN0d3vbDNs3cVFLi4uUnj2jMG//538y5dNHvlkj3xxbIy7uVzDkF/zPMIoYsx1ycR1z9dqTCoKs66LH0X0xddz2fOYdRx+qFbJplIHat9h+7VfufF0mmq1yny5zJTrsn2W7pR54ayWdxLvO6HvHD9C/xScRYQxLxAIBALBGSXZYnPu3Dl0Xae/v7+lWTNGR0f56quvuHv3LlfPn8fL59FSKdRtUd3tMGwYskkqtq3R3UdiD/ZspYK7uEj21SuUZ882l9hPTmKvrzd55Nc//5zizZsMxnFAEkN5zff5uVZj2fPoiT9GrFoW86pKSpK4kslwwzCAX1PTTVoWIeyrfUk9B+3XfuUKssyEpmGEIZMLCyzMzYlI9gKBQCDYFWHMC9pOEATUajWWlpZ48eIFU1NTmKb53nmmaTI1NdVQOGu1Gtls9kDeWcGv7Pe674bneY0Ae14cDfoofKg80zR5/fo16XSa4eFhbNs+0FLH/fa33f1qV3mtbge0Pt9uJ5eXRDI+aLmHlTuO8iRJolQq8Ze//IXx8XFKpVLjB63JmlEqlRgaGqKvr498Pk+oKDtGdX9uWfxtfR2Asu+jy3JTdPfE6F2u1bi4uIjy7Bl3HzxgcGqKzMYGK9s98jdvcvviRQbiOCHDcaC5R6bJtG3zxLbR4hUFjmWR03VGdZ2b2Sy/i2XuVyo8qdUO1L6t9RyH3ISm8bmqUrYsvpmaavm81SnzU6eXdxLvO6HvHD9C/xScRYQxL2g7vu9jmiblcpnl5WXK5fKOSqrneaytrTUUTtM00TRNBCE5JPu97ruR5GdtFR8qL7n/KysrVCoVbNs+UGq6/fa33f1qV3mtbsfHxmH3p7din3wry8vlcoyNjfH5558zNDREb2/vsWTN2DovJ5HanTDEDkOeWxYvLAs5Nq7DKOK6YXDDMPiyUOC6YWxGrd/YoDg7SyH2yA9OTaGur7MSR61/MD7O+q1bjI6PMzIywnAu16hLk+Wm+l77/q/bLnyf62HIDcPgT+fONZa3q5KEH0X7a98u9bRa7jNN46LjYJomldXVls9bnTI/dXp5J/W+E/rO8SL0T8FZRBjzgrazNc+n67q7KqrJcZHnszXs97p3Ckn7fN/Hsqwj5Zk/Df0VCFpNFEXIsoymaWSzWfL5fNPez1ZnzdhKV+yhX/d9/ra+jixJhPEzKEsSxXgZeiO/+8oKPHlC5t49Bv/+d5icbPLIPxgf53/u3KHrxg2+Hhhoygu/Y31AGBvLMrxfHxysfYft1wHlJmSZ6tqamLc+MoS+0x6E/ik4iwhjXnBi7EdJabWXS9D6pc3HSauWKQsEHytJwKd8Pk8mk2nyLLU6a8ahcBwol+HVK7h/H+X+ffIvX2Jv88jfHx/n+aVLjHR3Y2/J0X5WEfPWx4fQd9qH0D8FZwlhzAvaztY8n6qq7pn/W5Ik0um0yPPZAg5y3TuFVuWZPy39FQhayUnOn+u+z8+mySPTpOz7hFHUtKy8HAeC6yqXuTUzw8DDhzvmkU888s8vXWItm6WQyMWe7mQZ+3v1AVL8vIeS9Gt9sRywv/Z9qJ4Wy6U1jSHDEPPWR4jQd44foX8KziLCmBe0nWTZp6Zp+womctDzBTtzWq9jYtArivJeiqy9OK39FQhaiSdJbKRSLEkSludRSKXoUhT0XZ6JJMq6GQQ4ccBJTZbJfUDODAIWXJeK7+NHEe/ilG/PLQtdlrluGBTjZedl3+ec71N+9465xUWuPX4Mjx7tmEd+/dYtum7cYKS7m0IcKO65ZSEDtSBgMN7LP7+lPk2WuawoaHE0fkdV0WI5ic3c8gAP92jffuo5DrnQ8zBTKRZ0HbunB4pFqFbB3Z5pXnAWEe+t40Xon4KziDDmBacC4ZkQCASCg7MRBDx1HIJaDSMMGfL9Jo/xdtZ9n0fVKlP1Ootx1O1+VeVKJsOdfH5XuQXX5T9XV5m0LMwgYCXO4Z6SJEZ0nRuGwZ3YI/7INCm/e0f22TPcx48JHz6E6ekd88iPjo/z9cAAdjrdSOE2Y9tM1es8NE0K8WqdShAw6zjIksSIpjEoy/TEAcdWDYN5VWXatnlZr/OPOBr/kueR3qV9H6pnt34dVW7GsnilKNiyzNLICNHKyuYWhPL2TPOCs4rQdzoLcT8EnY4w5gVtJ4nq6jjOvlKNBUGA67r7Pl+wMwe97p1CGIZ4nofv+4eKvn/a+isQtBI7CFhwHKjVcD2Pd0HQSBu3k6fdDAKm6nW+r1Z5ExvDw7F3eSzOz95UfuzJf2FZ3KtU+NE0MYMAOwzxo4grmQw3s9lfo8g7Dl3lMnOLi7iPHzPw44/oL15gV6us53K8Gh7m6aefsnH3LoMTE4yNjjaWxXcpCookMes4vLFtFlyXpPUh4EcRl3WdccPghueRiVO/1Q2Dp4rCy3qdV/U60/EKHz+KuGoYfGIY/KWr60D1vNevFsn94nmYvo8vy1QGBuD8eXj37ggjQHCaEPrO8SL0T8FZRBjzgrazNZqo53l7GmhJjmURTfToHOS6dwpRFOH7PvV6/UjR7E9LfwWCVhJFEUEY4joOS5bFa9tmKva2O2G4o4feCUMWPY83jsNMnBsdYEjXG8vut5LsBb9fqfC8XmfWcfCjCF2W6VNVbhgGvysUfo3uHu+RvxZ75PUXL+iODfmHY2M8/fRTXvz2t3TfvMn18+eZ2BZ93osiZmybiu+z7HlYcZuMrfXl8ww7Dsux3NVsFlVRuF+tMmPb+PFcoEgSJVXlbj7/XpT7fdWztV8tkjN9n7LvY8oyzrlz0N0NYq/uR4HQd44foX8KziLCmBcIBB3NQfbJCwSCZnRJok9R0BWFd1G0uYzeNAGaPPSwaZjP2DYzsVfZjg3RBddtHO9R1abzE4/8I9Nk3feRJYm0JKHJciPAG9CIWq+/erUZ7O7RI5iexqlWqeTzTF26xMOJCZ5MTDA3PMylYvGjiFovEAgEAsFREMa8oO2IaKInw2mM7i6i2QsEh0eSJLrTae4WCgx0d9MdRTzzPGZsm3XfB3710AO/etgti3XfbzLan1sW9ysVVElqOv9epcI36+u8dRz0eL+6JEmN5fcNOcfZMWp9JZ/n6dWr/DgxwcO7d3l56RIr6TTWLvUl7Vv2PBRJoiueE0Jg2fM266tW2fA8MnEf52s1nioKS56HH0UoW5bZL3keD6tVCqnUwes5bPv2kCv7PgVJwghDljY28NfWIF5NITjbCH3n+BH6p+AsIox5QdsR0URPhtN6HUU0e4Hg8OiyzKCmcSObRZdlNMdh3fcbHvrE6IZfA7H5UcRFTeNGvEc+OfakVsOPvftbz08M/xuZDL2xgrwSG64px2Fpdva9qPX+6ip2oYB5+TL+F1+QuX2bgatXsc6dg3ip/m71Je27qGnvBZjzgUnLYs3z6ImV9FXLYl5VScsyVw2DUqyUJwHwnlkWERysnsO27wNy51WVy4qCHYbYCwvU5uagXj/OISLoIMR763gR+qfgLCKMecGpQHhUBQKB4HBEUcQ5ReGWYVCI93w+Mk1mbJvnlsXf4kBxSYq0EV3nZjbL7woFAO5XKjyp1fZ1/gVNQwJmHYf7lQpLs7M7Rq23CwUWx8exv/iCK//yL4xev86XuRwzwA/VKpNxdPfd6hs3DD7L599L/TZpWUzbNk9sGy3++OdYFjldZ1TX+cQwuJvPA5up6Z4doZ7jkLumqtxMpVgIQ2ZnZliYmiKKt0UIPg6EvtNZiPsh6HSEMS9oOyKa6MlwWqO7i2j2AsHhSeZPyfMoKQqapuGEIXYY8tyyeGFZjb3tYRRx3TC4YRhN0dZVScKPon2dnwTU648iVMfZNWp97fJl7C++QP/97+n79FNyFy4AMOi6ZFMpQtizvj/H0eeT+ha2yb32/cZKnsj3uR6G3NgWtb6QShEdsZ5Wy32haQw5Dtg2+urqZko6YUx8NAh953gR+qfgLCLWjAjazlGiiXpi7+ChOY3R3UU0e4Hg8Ow0f3YpCrdyOe7kchQVBVmSCKOIMIqQJYmionAnl2tEWz/o+QldtRq3Zmb4X48f868PH/L5lqj1P42N8fyLL9C//pr+L75ALxZ/lTtsfdvlgEiSiCQJGVrXr2OWm9A0JMsS89ZHiNB3jh+hfwrOIsIzLzgx9rP/WZIkEc28xZym69mK+3+a+isQtJITmT8dBzY23otan3jkX1y6xL3xcZiYIDc6SravbzMmRntb2fGIeevjQ+g77UPon4KzhHh/CtrO1mii6XR612iiyUSanC+iiR6N/V73TiG5/62IZn8a+isQtJLd5s8kL/wj06Ts+w3PMGwu9y7HgfESTzJwoPMHNjbgyRO4f78pan3ikb83Ps43t2/D8DAS4Jhm03L0g7ZvVzlAip/3UJKO3q9Wt28XubSmMWQYYt76yBD6TnsQ+qfgLCKMeUHbURSFXC5HsVikr6+PYrFItVrFaehcFQAAIABJREFUdd2m81RVJZ/PUyqVKBaL5HI5FEUM2cOy3+u+G7IsN15mnucdef/Yh8pL7n9vby+FQgFd1w9kzCf9LZVKjI6OMj8/z8rKCpZlNV7eycs6Fyv3pmkeaWlrp5TX6nYkZTb2IEfRkQ2MTi/vsOO93c/JbmyfPxXDYCUMee043IvToOmyzHXDoBjPq0kgtueWhSJJePE1vL+P83O+T3FtjezsLJl791Du32+KWl+Lo9YzMQHDw2z09vLI96FSQZNlnLhfM7a9r/bpsryrnCbLXFYUtHhuc1QV7ZD92que45BLBQGSquLmchR6enadp0/7+Oz08k7qfSf0neNF6J+Cs4gYmYK2k0qlyGazlEolrl+/zuLiIq9evaJcLjedl8vluHLlCteuXaNUKpHNZg9kzAma2e91343k5QZQrVZxHOdI7flQeblcjsuXL3P16lV6enrQdf1AqWGS/g4NDfHVV18B8O233/L27dvGOZIkkc/nuXLlCgBTU1Osra0Bmwbh9iV2Wz8CbD+eGJMnXd5+5A5D8oEAaMle3k4v77Djvd3PyW5snz89TeNpvc4D0+Sb9XXWfZ8RXeeGYXAn/uiTpEibsW1mHYcZ2wZ+TU231/nu4iIXFxcpPHvG4N//Tv7ly/ei1t/4+mtyo6NIwCPfb8p3/0bXgU2jdz/t201uzfcZ0TQGZZme+FqtGgbzqsr0IfrV6vZ9SK7supDPYxgGpStXuLK8vOM8fdrHZ6eXdxLvO6HvHD9C/xScRYQxLxAITiVJfmw79nDoskyXoqDHBr8sy8iyTF9fH3fv3m3ITU5Ps+h51MIQWZa5UCrx2SefkJVlBgYGWFpaahiDqqriSxKVMMQMQ+wgIAIyskw2leJcKoUaRZvRwmNjslQqce3aNWphiN3Tg7+0RBiGGJJEv6qSixWCMAwb3gBVVRuKQi0MWXRdalG0r/YlcnYYsua6OFFESlG42NfH5598giZJDAwMsLi4iG3bbGxssLy8TK1Wa9etEpwgtTBkxvOYsyweVKs83ZIX/k4ux5eFQmPZeVccOG6qXueNbVOJDdJlz+OipjG+JUp7cn7O93EXF8m+eoXy7NnmEvvJSfyNjc088lev4v/ud+hffkn/rVtk+/pwTBMqlaZ894mBnRzbrX26LO8tl0pxK5tlzHXJxKnf6obBpKIwZdv8ss9+fbCew7ZvH3JPHQdDlqkODBCdPw/v3h3fABEIBALBqUYY84K2EwQBtVqNpaUlXrx4wdTUFOYOeXRN02RqaqphwNRqNbLZ7IG8s4Jf2e913w3P86hWq41/H5UPlWeaJq9fvyadTjM8PIxt201LE9d9n0fVKguuiyxJDKTTTXtUE/L5PFevXqWrq4uxsTEeLi3xX5UKM56Hkkpxo1jkr6OjjKgqS0tLlMtlKpUKAIVCgY1UiknH4bXjsOC6EEUMaBqjmsaEpnEuCJrOLxaLlEolZjyP1elp/HIZPwgYUVX+WigwGu/TcxynSS7Zv/facQ7UvkRu3nF4WKmwHASk02nGikW+HhqiT1FYWlpq/CYnJ/nmm2+athvshySyb/Lvo9Lp5R12vLf7OdmNZP60e3pYnZ5GNgz+6TiEksSIrnMnl+MvXV1cN4xG1PVbuRy1IOChabLguizH9SmSxEVN47N8vilK+61cjuLaGhcXF1GePePugwcMTk2RiQ35xfFx/N/9jnN//Su5iQn0YhEl3kuuxfN4YvCuxQZ2t6Ls2b4Pyd3OZvmqUKDHsliO5a5ms+iqyk+1Gov77NdxtW+/cquui5/PYxeLmNvmtKOMi04Zn51e3km874S+c/wI/VNwFhHGvKDt+L6PaZqUy2WWl5cpl8s7Kt+e57G2ttYwYEzTRNM0EYTkkOz3uu9Gkp+1VXyovOT+r6ysUKlUsG27KTWdHYYsuC4vLIuNIGAgnW4oxFs99Ol0mp6eHtK5HFKxyPz6OvraGtg2USqFXCiQHhykZBhcGB3Ft6yG0pXP55kDNqpVlmo1lNjLltN1LmazfJ7Pcx6azlcMA0/TmLMsZMMgqlQgCNB1nYHubj7JZjmnKEhblLt8Pk+kqmz4PlatdqD2JXJRLKf7PiXD4HJ3N9f6+hhKp6nVaqysrPD27Vscx+H7778/8P1qxT7001TeYcd7u5+T3UieH39pCb9cJqpUeBcEFDWNO7FhOaLrTR+/BtJpBjWNQiqFDFjxx7OuVIpCKsWgpv16vuMwsLFBdnaWQuyRH5yaQl1fZyWXY2VkhMU7d9B/8xt6PvmkkUdeietxwpA3ut4weBMPNrq+Z/v2IzesaWQ9j0q8DaVfVamm0+T30682tG8/cr8EAWga6DrsYECc9vHZ6eWd1PtO6DvHi9A/BWcRYcwL2s7WPJ+u6+6qgCfHt+b5LBQKZDKZdjb3zLDf694pJO3zfR/LsnbMMy9LEhtBwCPTbBjvThju6KE3o4h/RhGTUcQvUcR8FCEFAYbj8KBaRZUkJjIZejMZCoUCsLn8fcm2qVgWC8BCXJYOVFIplGyWHl1vOn8lDDf3Jler/NNxeBcERFGEEdfdLcvcMgxKitJcj+8zbZoHb18s9yiKeBRFOLJMVzpNWlWRZbmxR9BxHLLZbCP2QKfff8HRSO5vGIb4QQDxOGwZcdT6zL17DP797zA5SWZjg5VcjodjY7y7exf3t79lYHyckXi8CgSCnRH6TnsQ+qfgLCKMecGJsR/FstXeNkFrliC3i73aqssyA+k0A+l0Y7/po3i53FYPPWwuyX9p2/xYr/PS85AUhZ44MFUoSTy1LFRZJqMoqIZBl6Y15ObDkHdBwEoY4sflrsTH5sOQ86lU0/mvHYcHpslTyyKUJIrx3yRF4aXnYTgOhUwGTdOa5GYch4eOc+D2JXLPPA9bUehSFIayWS5kMuipVCN2QCaTIZfLYRiGiMr7kRBFEVlJYkRV0XUdI4qQFGVz3Ng2w7aNFseagHi8Ow6VICAEjHi8h0AlCJh3HBaqVbpqNfRXr+D+fZT798m/fNnYI78yMsK7u3eZun2bjaEhVvJ5eqKIlOs21TNj241Acd2KsumBZnM5+l7t24/cUDpNj+fhxPPHoucxD1T36lcb27eX3JrnUZAkSq7Lxtwczrt3UK8fzwARdBRC32kfQv8UnCWERidoO1vzfKqqumceXUmSSKfTIs9nCzjIde8U9sozn+Rx3r7XNIkinXjoYTOf9L1KpSma9J1tivRuckn6qiR4VSLz3LK4X6mgSlJL6mmZ3A57cuF03n/B0ZAkif50mr8WCgx0dzMZRbz0vD3H0w/VKrOOgx9F9MXz7bLnMes4/FCtkl1d5dbMDAMPHzblkU/2yC/euYP729+yMTTEI0VBj4PQHdt43ya35nmEUbQZAC8uY75WY1JRmHXd3fuVSnXEc7zqOFxIpeip1Xj6448s//ADUZyJQnC2EfrO8SP0T8FZRBjzgrYjyzKapqFp2r6CiRz0fMHOnNbrmBj0iqI0pWJLPPNAI5fz1ijSSbR7+DX109Zo0iNbUkZ9SM6PIi5qGjcMA/g1pdWTWg0/ilpWTyvkviwUuG4Y720zOK33X3A0srLMZU3jRjZLtyxjOM4Hx1NKkriSyTSN95TjsPLuHXOLi1x7/BgePWrKI9+IWv+b3zAwPs5KPo8eG7XHOd63y635Pj/Xaix7Hj2xkr5qWcyr6o798qOIScsihI54jgupFOOahh2GvF1YYHluDsRHt48GMU8fL0L/FJxFhDEvOBUID6JgN3bz0D+3LP4WewXLvo8uy02e60TJHo4DVH1I7mY2y+/ivb/3KxWe1GrHUs9R5bZ75AWCKIo4pyjcMgwK8Z7Pg473pdlZss+e4T5+TPjwIUxPN3nkk6j1PZ98wkih0DCkj3u87yQ3bds8sW20+OOfY1nkdJ3RU/Acj6fTfKYozGsa/xDGw0eJ0Hc6C3E/BJ2O0PgEbSeJ6uo4TlOqsd0IggDXdfd9vmBnDnrdO4UwDPE8D9/3d3ypbvfQ22HIc8vihWUhx8p8GEVcNwxuGMZ7nmtNlvcl96dz5xrLYlVJwo+iY6mnVXI7XcfTeP8FRyOZPyXPo6QoaJp2sPHuOKiOw9ziIu7jxwz8+CP6ixfY1SrruRy1y5exv/gC/csvyU1MNKLWp1y3reN9u9xr32+s5Il8n+theCqe4881jSHHoeb7qMKI+OgQ+s7xIvRPwVlEfPYVtJ2t0UQ9z9vzq2eSOzqJJtqKfK8fKwe57p1CFEX4vk+9Xt8xmv1WEg/9nVyOoqIgSxJhFBFGEbIkUYyXvW7NJ30YuXbVc1S57ZzG+y84GjvNnwce77Uat2Zm+F+PH/OvDx/y+YsXdMeG/E9jYzz/4gv0r7+m/4sv0IvFRt0n/pwAkSQRSRIynJrneELTkCxLPKcfIULfOX6E/ik4iwjPvEAg6Gi27pMXCARtwnGgXEZ/9Woz2N2jRzA93fDIv7h0iXvj4zAxQW50lGxf32Zsi5Nut0AgEAgEHxHCMy9oOztFE90NEU20dRzkuncKe0Wz38667/OzafLINCn7fsPjlXjAynHgqZ9NsxF46jBy7arnqHLbOY33X3A0dpo/9z2e3r1j/dEj+J//2Yxa//33sLbW8Mh/c+cO39y+zTfDw/w3nPh4f08OkKIIKYoI4dQ8x08dh8gwxHP6ESL0neNH6J+Cs4j4iC5oOyKa6MlwWq/jbtHsE5Ko0C8si3txGjldlrluGBTjZa5JgKnkb8n+VdiMMr0fOUWS8OIlefePsZ6jysHmkl592z0+rfdfcDSS+x6pKku+z4zj7Dmezvk+5T2i1tcuX8b/4guYmIDhYTZ6e3nk+1CpnMh430lOk2UuKwqa6wLgqCraKXmOZd8nUhQqioInDPmPDjFPHy9C/xScRYQxLzgViH2Dgt1IPF7b8zvfMAzuxIGuktRPW/M8v9mSMmo/crOOw0wckTpJaXUc9RxVLslfvVsgPMHHRxRFbPg+06bJQ8fZczyV373bM2q9/cUX3Pj6a3Kjo0jAI98/0fG+XW7N9xnRNAZlmR7HAWDVMJhXVaZPwXO8bNvYmobtOFREwK2PEqHvdBbifgg6HWHMC9qOiCZ6MpzWaOa7RbM3g4AF1+WFZTVSTG3Pt55ErU481VvzPCcKfXJsNzkZmKrXeWPbVGIFfdnzuKhpjBsGf+7qakk9rZJzw5BaEHDdMLioaRRi79+u9z+dhmx287+SBK4Lprn5X8GpxwwCpl2Xeq3GZBTx0vN2Hk+OQ1e5/F7UeqdapZLPYyZR63//e/pv3SLb14djmlCpnOh4f08uleJWNsuY65KJU7/VDYNJRWHKtvmlw5/jVcdh0nGwZZnKwACcPw/lMtTrxztQBB2B0HeOF6F/Cs4iwpgXtJ2jRBMtFApk4jzJgoNxGqOZ7xXNfsF1+c/V1c2lq/U6Qexh2ynf+k556Ndihb5bUfaUqwUBD02TBddlOY5mq0gSFzWNz/L5pqjVR6mnVXJT9ToPTZPfFQr8f319jMfn7nr/s1m4cgWKxU1jvlyGqanN/wpONVEUseh5/Felgr62xi9RhLTbeCqXuTUzw7XYI6/HUesr+TxPr17F/+ILrvzLv9D36afoxSJKHJ39pMf7drnb2SxfFQr0WBbLsdzVbBZdVfmpVmOxw5/jh9Uqry2LhWyWjc8+I5Jl+O47ePeulUND0IEIfef4Efqn4CwijHnBibGfwD6SJIkAQC3mNF3Pve6/GQS8qtd5Uqsx4zibHq9YYR7R9aZl5gPpNE4Y8kbXGwp24jFD1/eUG9Q0CqkUMmDFX+a7UikKqRSDmtayelolN+c4zMbLiz/NZimqalOKrMb1TKchl4OhIRgf3zTmTXPzb2/f7v8mCToWSZKwoogZzwPbZj6K6Nk+nqIIVlZgl6j1U5cu8ePEBJnbtxm9fr2RR16hM8b7TnLDmkbW86jEY71fVamm0+RPyXNciSKW0mkYHITFRYiX6gvONkLfaR9C/xScJYQxL2g7W6OJptNpJEna8etoMpEm54tookdjv9e9U0ju/36j2Qs28aMIMwiYdRx+qFbJplLcyuU4t/3+5/NEly/DJ5/AnTubxv2rVxBFmz/BqSZ5fmRZRkmliFIppC0rWxpsbMCTJ3D//mbU+snJRtT6h2NjPJyY4OHduwxcvcqX8bJwgUDQWoS+0x6E/ik4iwhjXtB2FEUhl8tRLBbp6+ujWCxSrVZxt+3RVVWVfD5PqVSiWCySy+VQFDFkD8t+r/tuyLLceJl5nnfk/WMfKi+5/729vRQKBXRdbzLmc6kUY5kMK56HIssEUcR67Akbtm00WW54pJPjSWCqbkVpeLu6FWVPuXnHoRIEhIARL4UNgUoQMO84LLhuS+pptVxKkpi0LNJxVO3LqopqGHT391McG+OcplEbG8MbHt700Jvm5tL6tTWIlyEnJEpNLjbmTNM80laNs1peJ7XDMAx6e3u5MDrKSKlEWChgOA6hJLHu+8xWKizXahRnZ8ncu4dy/z5MTmKvrLCey/FqeJinn37Kk4kJXl66hHXuHDPAYIeO961yQ+k0PZ6HE1+nRc9jHqieouc4TKXwHQfbtjHDkO2z9GHn43bP46e1vJN63wl953gR+qfgLCJGpqDtpFIpstkspVKJ69evs7i4yKtXryhv26Oby+W4cuUK165do1Qqkc1mhWf2COz3uu9G8nIDqFarOPFS7sPyofJyuRyXL1/m6tWr9PT0oOt6U2qYgXSa/93Tw0gm0wiAt1NUd2DHaPd3tinSu8n9UK0y6zj4UURfrIwte957nu+j1nPccvVcjolMht6REUb/9V95u7zML8UiG0EACwvw6hXSTz9tLrGv1SD2WCQeinw+z5UrVwCYmppibW0NoHHOVhJjc6fjZ7W8TmtHb28vf/jDH/jsT3/i5o0buAMDPKhWeRpHTXcXF7m4uEjh2TMG//538i9fNnnkn376KS9++1vmhodZSafhlIz3Nc8jjKLNAHhxGfO1GpOKwqzrnprneDydplqtMl8uM+W6bJ+lDzsft3seP63lncT7Tug7x4/QPwVnEcX3fYIgaPwSZSCKoqZfKwjD8L3ykv8Pw1DkcPxISO73QcbW1jHSyUvDO5nDXPdOYut8FIYhWVnmiq6TlWVSQApY8zzW4ijSSf55+DX101oc7fp2NsvIlpRRH5KTJYnLcTopiFNaAZOWRQgtq+e45SphiKWqVEZHSZdK9Ok6xY0NMuUymqahDgwgZzJIkkQQBHixhz6dTlMqlbh27RoA/f39LC0tNbwZqqoiy/J7crsdP2p5AK7rUqvVgE3Fa3BwkGvXriFJ0om1r1OuUzqdZnR0lD/96U/cvXuXq4ODePk8qiyjeR7uwgLZqSlSz55tLrGfnMReX2c9l2NmZISZ27dZv3uXrokJhopFaqdovK/7Pj/Vaix7Hj3xPLdqWcypKino+Oe4IEmMp9MYQcCz+XkW5uZEJPuPDKHvHB9C/xTsh3bZq62ysxXHcQiCAMdxmpbvhWHY+AU77bM7BFEUNT4YJPUkx5J/C84+nudRq9VYWFjgxYsXTE1NYSaBt7ZgmiZTU1P09/ezsLDAyMgI2WxW7Fs6JPu97nvJV6vVxr9b0Z69yjNNk9evX5NOpxkeHsa2bZKPj/DrfJGXJD7NZEgDYRTxc63GtG3z3LL4W5yaquz7aLLMiKZxK452PaxpAAyl0/uSGzcMfhd7Vu5Xq0xa1rHUc9xyQRCwEEUocSCuYVnmwtWr9F28SF6W0WJvr+M4jfuTz+cpFouUSiUAlpaWKJfLTX/X4nq3y+12/LDlpdNpoihibW2N6elpAEZHR7l48SL9/f1IknSi7euU61Qqlbh06RJ9fX0YhkEYPyfdksTFhQWUyUnufvcdg1NTZDY2WIk98jO3b7Pxxz/SPz7O9cFB7HT6VI33n2o13tg2Tx3n17FsWeQ0jWFdZ6LDn+NP0ml+k0qxZpp8MzW16zx92Pm43fP4aS3vJN53Qt85foT+KdgP7bJXt9raO6222y/Kf//3fze+6D9+/JiNjQ1yuRyVSoXV1VXS6XTLlpYkF6VSqeDHX6QrlQogokZ+TNi2zfr6Om/fvmV+fp5yubzjg+F5Hmtra8zNzfH27VsuXrxIV1cXuojseyj2e913I8nP2io+VF5y/1dWVhqpYdbW1lAU5b35IgX0eB5jcdqpJ7bNa98n+XYaApcVhUFZZsx16bEssrFCtV+5G57HcNzeDc9j7ZjqaZfccCrFUBhyM5Xiwrlz9BWLDWMZNj3fW43DXC6HEXs0u7q6ME3zPSN7J7njKC8MQ9bW1shmswCMjIxQKpXI5XJIknSi7euU65TIhWFIpVIh5XkYlsXw1BS5p09Rnj7l/NQU6vo6K7kczy9d4v74OMuffELpwgUu5PP0RxE4zqkb708dhynfb8wRke9zBTifSnX8czwaBGQ9j8XFRcqLi7vO04edj9s9j5/W8k7qfSf0neNF6J+C/dAuezUIAlzXbdRz2I9Fyr//+783Gr2xscHbt28ZGRlhbm6OV69ekU6nW7r8fWveaIC5uTmWlpaEIf8RYVkWKysrjS+iuxmUyfHkC2mhUKC3t7eh2AoOxn6ve6eQtM/3fSzLolwu8/btWzY2NnacL5woIuP79EQRWjzZhvF5UhShuS49jkNmfZ1lRWmkrTqoHNCWeo5bLuP7DNg2pSBACUMsScJ13cZ8H4Zh4yXmui4bGxuNAEC+7zd+yd93kzuu8lzXbRjzlmUxPz/f+NBzku3rlOuUyCXPiraxQeGXXzCePaPv++/JvH7d5JG/Pz7O327fRh4aYtDzyMzNnfrxHp3C51ir15ldWzs187SgNQh9pz0I/VOwX9phr4ZhiOu6zM3NUa/XD2/Mt6xFAsExIBQZgeB4kNgMBpRWFPKK0liSvB9UVW3pcsODlhdFUdP+RV3XmwzXk27fUeVaWZ7kOFCpIL15g/TTT6QnJylMTYFpNjzyD8bHefDJJ7y4dInurq5GFHiBQNA+hL7TWYj7ITgtKP/2b//WtMz+P/7jP8hkMpw/f56xsbFjW2Y/NzcHwPnz5ykUCmKZ/UeEbdv09/dTqVTIZrN75juXJKkRVXRiYkIsczoCW697shy5k19W2/PMF4tFhoaG6Ovr23G+WPQ85ms1Vi0Lx7KIti5jlSQcVWXVMKgbBlezWfpjo+igckBb6jkpuU5HvEcOhrS8jLSyQurdO9Rnz0hPTaGaJsuxR/7B+Dj/c+cOzy9dYj2bxUinz8x4l5K9jqfoOb7U08Ol/n5c0/zg+1FwthD6zvEj9E/BfmiXnpEss19aWiKTyRy6HOUvf/lLIwAewP/5P/8HSZIoFAr09PSgaVpLjfkkeMDS0hIAhUKBYrFIKpUSSthHguM4aJpGsVhsBG/ai3Q6TbFYpL+/n0KhsC8Zwft4nkcul2N0dJSrV6+ysrLCysoKlmV1XP7srXmyR0ZGKMb7ubu7u9+bL+wwZMP3Wa3XeeV5zHseOV3nehhSjJfTJgGm5lWVV+k0FwyDXDyOVh1nX3LPVZVzscxz12VeVY+lnpOS681kOKco6B2eVUS8R/aJ48DGBlK5vJl28MULpLdvcWJDfmZkhDd37rB+6xZdN24w0t1N4QyM9znPI6dpXAG0OOq/o6rkNI25U9Cvc6pKl2EQFApwSj6wCVqH0HeOF6F/CvZDu/SMxP4uFAqN7XSHQdE0rdFgVVUbXxxkWW78WmXMh2EINAcPkCSJVCrVqEtw9kmlUgd+GJJxmPwEByd5roeHh/nzn/+MJEl8++23vH37Fuic/NmJXG9vL19++SXj4+OcP3++sZR6+3xRDQIe1+vcr1T428YG60HAaJx+6k78sSBJ/TQd53mWJYm3W1JG7Udu1nH4Jf7omaS0Oo56TkrOBW7ncmQ7/PkS75F9Yprw7Bncvw/ffAOTk0hb8si/uXOHjT/+kdHxcb4eGMBOp8/GePd9hnWd86kUPXH7Vw2DOVXljW3zrsP7tWzbuJqG43lUhEf+o0ToO8eH0D8F+6FdekayZTBJMXtYlORLwPYBnnSglcsJkj2OW8vb+vFAeFQ+DqIownVdXNdtPDB7kQSIcF33SKkbPlaSfMZ2fK2jri4+uX278ffp6emGV1xV1cbLqhaGLLoutXiyuVAq8dknn5CVZQYGBlhaWmqS8yWJShhihiF2EBABGVkmm0pxLpVCje974pVP8mfXwhC7pwd/aamRP75fVRkfHeWPf/wjQ0NDRFGEoiiNeUKWZapBwKzj8MKy+CFOMbURBHQrCndyOb4sFLgVK8tdscd53fcbeajfxAr9uu/vKScDU/U6rx2Havzhc9nzuBinq/tzV1dL6mm3nCJJvHUcZl2XH0yTAAiA64bBQDpNbhelxQwCFlwXM74WuVRqz/MPK5eMWzMIcOKxq8kyWVkmv+29tPU9UgvDtrSv1f3KpVKN+3mkemKPPP/8Jzx4sGnMP3uGvbrayCP/5s4d1j//nOLNm4yMjJyp8d6lKNzOZhlzXTJx6re6YTCpKLy2bX6x7Y7u16rj8Mx1sVMpKgMDcP48lMsi1/xHgtB3jhehfwr2Q7vs1VbZ2SIAnqDteJ5HpVKhUql8cKl2FEWN86vVKoVC4Uj7Sj5G1n2fR9UqC66LLEl0SxJXRkcZKBYZGxtjaWmpkXKjUCiQTqeRJInXjsN/VSrMeB5KKsWNYpG/jo4yoqqNfNdb5TZSKSYdh9eOw4LrQhQxoGmMahoTmsa5IGg6P8mfPeN5rE5P45fL+EHAiKry10KBO319XLhwAUmSmJ+ff69fs47D/7+8zP1KhVnHISVJjOg6d3I5/tLVxXXDoCv+WHkrl0OLjaRHpsmMbbMWR/7uVpQ95WpBwEPTZCFOKwWgSBIXNY3P8nlu5XItqafdcl4UMV2v88g0eWZZzLsu0/U6XxYK/O+eHsZ2ec6/4k9mAAAgAElEQVQWXJf/XF3lVWxcjGUye55/WLlk3E7V6yzG171fVbms63xqGLu+vNrVvlb360omw518noE41dyh69nYgCdPNo34//t/YXISdvDIF2/e5PbFiwxvG7+nfbzfjvO791hWI2r91WwWXVX5qVZjscP79bBa5bVlsZDNsvHZZ0SyDN99B+/e7TguBGcHoe8cP0L/FJxFhDEvODH28yVKBLQ6OnbsqXwRe64H0mkKXV1cLhT4tFTCt6ym/NSRqrLh+1i1GvraGtg2USqFXCiQHhykZBhcGB19T24O2KhWWarVUGwbgJyuczGb5fN8nvPQdL5iGHiaxpxlIRsGUaUCQYCu6wx0d3Pp3Dn6czmcapXV1dWm/lSDgBeWxf1KhXuVCmYQcF7TuBMrzCO63mQUDaTTOGHIG11vKNgzcRvR9T3lBjWNQiqFDFjxl/yuVIpCKsWgprWsnnbLXdA0elUVRZJYcV2WXBcrCCgoCr8/d27HcbTu+7ywLO5VKjyp1QBY8TxGMpldPcuHlTODgKl6ne+r1YZ3c1jTCKOIUU2ja4f2JeOiHe1rdb8AxnZIe7Tvejxv05B/+XLTkL93DyYnsVdWWN+SR37h5k2KY2MMnj/PQKFwJsf7sKaR9bxGWrh+VaWaTpM/Jf2qRBFL6TQMDsLiIoigWx8FQt9pH0L/FJwlhDEvaDuqqlIoFJq8wDt9HU0m0uT8fD7f0jRPHxOyJLERBDwyzYZxUc/lmMhk6M1kKBQKwOa9WfJ9pk2TySjilyhiPoqQggDDcXhQraJK0s5ytk3FslgAFuJ6daCSSqFks/ToetP5K2HI03qdB9Uq/3Qc3gUBURRhRBGTUUR3GJKNIrbf8Q3f53G9zg/VKrOOgxkE+GJv6YGRaFZW/CjCDIJdr+e67/OzaXK/UuF5vc5MbIgqssz9SgVVkriVy73nWT6snBOGLHoebxznV4MIuKBpjeXpW0nGRbva1+p+Den6jv3adz0f8MjfHx/nm9u3ca5c4W68vFsgEHQGQt9pD0L/FJxFhDEvaDuKopDL5SgWi/T19VEsFqlWq7hx5OEEVVXJ5/OUSiWKxSK5XO5I0R4/VnRZZiCdZiCdbuzLfGSaAGQUBdUw6Io9g+u+z4zj8NBxeOl5SIpCT+wVCiWJp5aFKss7ys2HIe+CgJUwxI8/GKzEx+bDkPOpVNP5rx2HB6bJU8silCSK8d8kReGl55GxbbLpND2e18h7veh5rMYG26RlkZIkzsdy3Yqy2X7bZti20WS5sYw1OT4TB6bqVpSGt+tDcvOOQyUICAEj7lcIVIKA+XhLQSvq2Utuw/N4W6mwWK/TLctkwhApinDCkJptE1Qq5E2Tq5ZFd7yEuFdVyVcqBOUytUKBmq43lvI6YYhTq5FZWaG/WiXleThhiC7LZDY2cGybWj7fdH7ZtnlXqbBhmnRbFqNxPd2qysbqKu9yOS4WCuS31XNYuVqtRrCyglat0hPLaKpKmMthra9jOw5qnDLGVhSqhsGcabJRq7Wlfa3uV5DPU6tUqGWzB6pnzjC4lMtxbmmJ9IMHpL77rskjn+yRX7h5E+fKFZxSiQVZ7ujxflS5oR3mjXk2g2Weln6FqRS+42DbNmYY0vx23NzTmRgXnufta//vUeQ+tvLa3Q6h77QHoX8KziJiZAraTiqVIpvNUiqVuH79OouLi7x69Ypyudx0XpLf89q1a5RKJbLZrIgkegi6FGXHvZzr8V5OJwwbgZh+Nk3uVSp8s77Ouu9v7vHcpnDuJne/UuG5ZbHu+01K6vN4OXziQdxvPWueRxhFm4Gs4jrnazVeeR5/29hgIwgO1L7D9itZAeBHEX2xMrbsecw6Dj9Uq2RTqZbUs5vchucxU6/jLC8zsL5OtlZjyPNIeR6LrsuSbeNaFud9n1FZJhV72oPY2HcVhSXDQNd1+mMv8aLrUqnXKZomtzwPRZIIowg7DOlLp7HyeRYzmabzD1tPq9oHm6sHiqpKNZvF8P3NbSDAxqtXrKoqbr3etvYdR78qudyBr7sHlGWZ/NISxZ9/JjMzs/Me+bEx7uZyDUO+U8f7UeV2mzcmFYVZ1z01/RpPp6lWq8yXy0y5Ls1vx1+NDdjcvpSkF/4Qh5X72MprdzuEvtMehP4pOIsIY14gOOMknnmgsYw3ibb8yDQbe3Lh1xRJiUF+J5djZEtqpQ/J+VHERU3jRrz3Nzn2pFbDj6ID1bPm+/xcq7HsefTEHrZVy2Le81jfEhX6IO07bL9SksSVTOa9fk1aFmF8PVtRz3tyUcS7tTWixUUyMzOov/wCa2vguuB54Lporku/69IP9G+Jbm4GAYuxt0FLpyH5AbguWdfliusyFEVNMmlJorDD+Yet5zjal0+nSUcRehwMzs5kyEgSA67LQJvadxz9yh6iHjkI0MNwc1zMzGBb1o5R6wfPn+/88d4CuV3nDVU9Ff0qyDITmoYRhkwuLLAwNyci2QsEAoFgV4QxL2g7QRBQq9VYWlrixYsXTE1NYcbLvrdimiZTU1ONNGi1Wo1sNivySB+S3Tz0zy2Lv8UpnMq+jy7LTVGXE2V0ON7f+yG5m9ksv4v3xt+PA3Ydtp5p2+aJbaPF3kjHssjpOqNHaF8n9GtfcpoGUcTaygo3/vlPUt99x/VXrxhcXd1cZh+G9Ich58KQS/FHGl2Wm7y9W4/rsty491vlQmiSkT9w/mHraXX7VCAVpxgLUilKcCLtO+nrLkURGUB3XdK1Gsv5/I5R6wfisdux472FcnvNG53erwlN43NVpWxZfDM1tev70fO8RkBRL956sR8OK/exldfudgh9pz0I/VNwFhHGvKDt+L6PaZqUy2WWl5cpl8s7BiDxPI+1tbVGGjTTNNE0TQQhOSTbPfR2GPLcsnhhWcix0htGEdcNgxuGwZeFQiPnOGzmwt6P3J/OnWssH1UlCT+KjlTPa99vBGmLfJ/rYXik9nVKv/aUy2QY8H1YWqL/n/+k/8kToqdP6f7lFyTLYsMwcOLnIC3L9CpKwwBsIpXCCUMqscdyK5ok7Sh30PMPW89R21fZOmf4fse076j9Omw9S5qGnc8zPTjIP27epHrrFqPj44yMjDC8JRBfR473Y5Dbbd7o9H59pmlcdBxM06Syurrr+zEMw0Mt/T6s3MdWXrvbIfSd9iD0T8FZRBjzgrazNc+n67q75vlMjos8n60l8dCv+z5/W19HjvdLw2bU+2K8PHRr3uXDyrWkHjaD7wHI0NL2nWi/dpPLZulKpWBuDv7nf1C//ZbuH38k+uUXUrbNWjbLPy9eZOXcOSJZpjed5kY229gHvJ2K5/E8XnachFySgT5V3VHuoOe3W67T23dS/ZpJpVjs6uL1hQv8fPUqA9eu8fXAQOeP9+OS48PzRif2a0KWqa6tffD9KDhbCH2nPQj9U3AWEca84MTYj5ISRZFQZgQfFVKttrn/+fFj+PZbUt9/j/z2LTXX5V1PD1MXLvDT2BgLxSKhLHNB15HOnSPIZJrymid7cl/V69zb2ODtNq/QkKY1yQEHOv+w9ZzV9p10v55LEktdXcz19fHLwAB0d2NvS4snEAgEAqF/Cs4WwpgXtJ2teT5VVd01zyds5vpMp9Miz2cLWfc381Y/Mk3Kvk8YRU3LPctxgKbEk5QsEz2oHNCaegApHh+hJLWsfSfer21ya77PT5UKXRsb3H74EP377+HBA6I3b4gsi8WeHr65fZvvPvmE5yMjLHd3EwCXdB373DmsQqG5PtdtZBn428YGb2ybZKF2CAxvk0v6td/zD1tPK9uXjItIkk68fSd93V97Hm46jZ1OY+p6x4/3Y5dj73mjU/uV1jSGDOODebAFZwuR17w9CP1TcBYRxryg7ciyjKZpaJq2r2AiBz1f0EziwTODACcMmbHtRho5XZa5bhgUYw9hEojpuWUhA7UgYDDO4z4fp3D6kJzEZu5mgIf7OH+vejRZ5rKioMXRwR1VRTti+zqhX9vl1nyfbsehPj3N2vQ07j/+AY8fE83MULNtFnt6eH7tGtO/+Q3rExPkLlwgyGYp+z6rssxDXccxDGr5fHN9us6kYbDa1YUShk3tTORsw6ASp0x6qOs8+8D5h62nle1b6eoism3SybhIp1nR9RNpn5fN4hUKXNQ0IuCd43A/k+HJPusDWtI+LQwZPCXj/bjl9po32tUvRZLw4uwejXGxj3k3FQRIqkrY1cXg8DCX5udZWVnBsqyG0ZEYfbn4o4Rpmnie90Gj/7ByH1t57W6HJEkYhkFvby+jo6OUSiWR1/yYEPqn4CwiZgrBqUB4Jg7Puu/zqFplql5n0fMakZT9KGJE17lhGNyJlYwkRdKMbTNVr/PQNCnEqbAqQcCs45CSpD3lXtbr/KNSAWDJ80h/4Pzd6pEliRFNY1CW6YmXHq8aBvOqyvQR2nfS/dqpnp8qFerT01x88ID8Tz+hTE4Szc0RWhYLsUd++je/IfjNb/jN2BjXenrwFKXj+3Uc7VM7bFzMOg4ztk2vqhJFESuex/N6nWCfzxdwrO07q+PisPNGu/p12HFRdl3I5+nr7ubW73+PLst8++23vH37lgRJksjn81y5cgWAqakp1tbWgM13ZRL4LyE5dhi5pL6Ppbx2tyOR6+3t5Q9/+ANfffUVQ0NDIq95ByH0T0GnI4x5QdtJoro6jkMYhh88PwgCXNfd9/mCZswgYKpe5/tqlTeOw4Lrsu77XNQ0bmazTdGduxQFRZKYdRze2DYLrtu05NePIq5kMjvKScDLep1/WhbT0q/ps64aBp8YBn/p6jpQPZd1nXHD4IbnkYlTONUNg+eqyqzj8Druy37b1yn9aqonm0Wq1eja2GBtepr8Tz9R+ukntPl5TN9nsaeHJ1ev8vPt29Ru3WL86lU+PX++8/t1jO0by2S4nskwoaonOi4SuVnHwQwCdFkmiiL8KMKOIoY0jTu5HF9uWU7fpSjIwFS9zmvbZj72HNfDsDHe/9yh171TxsVh542nisLLep1X9Xpb+nXQcaHLciMP/VPHYUjTOH/9OtfYzHQwODjYSGmmqiqlUolr164BNNJnJd5eVVUbhmAYhriu2/AOH1Quqe8slNff38/c3FwjFVk2m0XTNCRJOrF+JXKjo6N89dVX3L17l76+PrGk+5gQ+qfgLCKMeUHb2RpN9ENL16IoEtFEj4gThix6Hm9iT5EdhnQpCjcMg9/FCuXW6M5eFDFj21R8n2XPw4pfYIYsb0bW3kWuEgT8o1JhWtpM9wSbebRLqsrdfP5w9eTzDDsOy7Hc1WyWc5rGL45DNQgO1L6O6leh8GvU+rU1bj98iPuPf6BMTqLNz5NxHN719vLNnTv8fPs2czdvMvj/2Hv35yaubd/30y+13tiSLdsBFnYM2OBAcNg7ZuUkZ9c5t26t++OtuvevvHV+P3ufXad2VlJFVrIJj8AiZoGxweCHDLaRWq1+9/1B3YpsbCMbIcvy/FStCkvu0XOO1tTUmBpzfsf4ONeGh3vfry7070YmwxXPO9ZxEdsZvs+251GP7IY0jSvpNP+Uy/EvAwNMpdM77Gq+zz3DYNVxmjYpWeacrnOzx597L4yLo84bmqryc7XKkmV1xa/Djou49GBch349CPin4WEm83n+74sXkbe3qUQ7CvL5PIVCgVKpBNAsn9X69/i8vW3bHbE76fcLw5C1tTWWl5dZWFgAYHJykkKhgCzLOI5zrH6VSiXOnz/P8PAwuej4jaDziPhT0I+IxbxAIBB0mzBsqtYnHz5siN09fEi4soLp+6wPD/P40iV+vXaN36enqY+Oks5mccUZyp4jCEPsIMAJAlRJYiAqMba7zjjAaCLBhWSS8WSSl9EOAktke/qSw44LaPzwCo2jUVYQ4GazpIeHuf755xQ9j2q1CkAulyObzZLJZACo1WoYhrHj73p0xt+27Y7YnfT7BUHA+Pg4586dI5/PAzAzM8PIyAiKouA4zrH6Ff9dZOQFAsFhEZGhoOsINdHuossyI5rGhSjIiLfZz5smP1cqaJL0nqr2vGmy4bqNIDTeNghsuO6+dveqVcquixeGqC3bWMuuy71qlbyiHL6dapV3rkvK8wBYrdWYd5wj9a9n/KrV+CWRQNve3qlav7REYJpsDA3xt6++4s61azybmmJlZISKLBP2ul9d7N/9Wg3X8451XOy2G9I0sorCdCr1Xsa2layiMJlKUY625q5HGfpXkbBapoefey+Mi6POG39X1WPxq91xEavfxxn6NcfhjKKgqCrpTIaiqjYXoZqmoapqc0t3vF289e+xWFcQBB2xO+n3k2WZTCbDwMAAQ0NDjWc+MEA+n0dRFMIwPFa/Wv8u+HSI+FPQj4jFvKDrCDXR7hIvHgDOJ5M7BPAe1Wp4Ych2FPTGQkxepMJ8TtffE346yC4hSVxKpylFX3qxwNTvpkkIh2sHeGyabLkuxejL9q1psqppeHCk/vWCX4l6nerW1nuq9Y7jYIyMsH3lCt6f/0x2ZoaJkRESqdSJ8Ktb/dMkiSf1OpUeGBetdvGi7Wo6/V7mtZW8qnI1nQaglEg0xdIUSeKxaRL06HPvpXFx1HkjIctd96vdcZGU5R0Z+jXHIQhDRhMJcrpOKpHYd4uvLMtomrbv3zttdxLvF591TyaTpKPPXzKZRNd1FEVBkqSe8Uvw6RDxp6AfEYt5wYlAqIkenQFV5UYux8V0ekdpuke1WnNh/0MkFBWXSBqPRKRu7i6FVa3yOFJd3s/uSjrNbFxKrFrl9w9cf1A7i5bFI8tCjzJptmmSTSaZ+Ij+HatflQrm8+d7qtYbIyO8+POfqc/N8eXcHLPj41jJJC99v/f96nL/emlcxHZndR1Vksir6r4LttbP4+epFIbv88KyutK/fhsXR503uu1Xu+OidXxcz2a5HG25T8rynpl8gUDQHUT8Keh1xDeEoOsINdHu0prxAShqGlokbjVvmjwxTeQo6A3CkKl0mukWVe3Yds1xyCgKARxo16oKnVcUwg9c/6F2nntes+RP6HlMBcFH9e9Y/ApD1j2PzPb2nqr15WKR7StXqM/NkZ2b4/zUFAPFIgBne9mvY3zuvTIudtt9iPjzGF//ma53tX/9Mi6OOm8cl1/tsnu+FggEnUPEn4J+ROwZEXSdj1ETjUu5CI5OnPm5kc1SUFVkSSIIQ4IwRJYkCpFQ0+6znYe161g7QChJhJKEDB3rX9f8CkMIQ85EqvXf/PQTs48f83mkWl8eHOSvs7Pc+fZbMnNzjE9NkWlRM+5Zv467fz02Lo7KiXvuPda/fe0+MD56fVwIBILOI+JPQT8ivmkEx0acNfnQNe1cJxD0JGEI9TqUy++p1huex8rQEPcvXeL2zAzq9DTjY2OM5XIkVRUhtXOyCYIA3/fxPG9HPelWgSzXdbHDEEeW8X0fsZlTIBAIPj0i/hT0E2IxL+g6rWqicU3WvX4djSfS+HqhJtoZtj2P3wyD+4bBpuc1M0rQ2Ca66XncN4xmBire8nlYO6Az7QBSND4CSepY/z65X4rC9UyG0XIZfvwRbt/eoVpfLhb56+wst2dmuDM1RapYZMR1kQyjt/3qlefeY+Ni99Zo3/ebJaha60m3lq6qVCps+D6vdJ1fPY+3tt37z73H+nfUeaPbfgkEguNHxJ+CfkQs5gVdR1VVstkshUKB4eFhCoUC1WoVJyrVFKNpGrlcjlKpRKFQIJvNoopti0fGCgK2PY8npsnfovJJSVlmKp2mED3XWMAp/psuy83ax0uW1ZadKkm40Zfjzx/Zji7LfK6q6NHYsDUN/SP71w2/ntRq5CyLku8z8PQp2u3bKHfuvKda7966hTo9TapYxM7leOg4KJVKz/rVK8+9l8ZFbAeNLdiy16gHvrGxwfLyMuVymUql0ix91VzMhyGVIGAjmeTV0BAvNQ3ftvmTJDGaTqMoSs89914aF0edN7rtVzwukkIJWyA4dkT8KehHxMgUdB1FUchkMpRKJaamplhfX+fZs2dsbm7uuC6bzTI5Ocnly5cplUpkMhlRh/UjiDNKf6tU+H57m23PYzyZZDqd5kaUqYpLKy1ZVrPc0otkEmgEse3YvbJtliwLoFmm6SjtbHke47rOmCxTtG0A3qbTrGoaix/Rv0/t15NajaV6nXB9nemnTxl59IjBu3eRX758T7X+67k5xsfGGHFdHjrOR/XvuN+vbvXPDcOeGhexnR0EXM9m0apVnj59yr179/jxxx9ZXFxsBoo7ttmfOYP7pz9hT05iShLKmTMM1OtcyWT476US6VSqp557r42Lo84b3fYrHhciQy8QHD8i/hT0I2IxLxCcEOLMurWrZNGHMj4Vz+OVbfPENJsllbY9r1EiK5vlVj7f3HYa32/b89iOtovGgW/82n52MrBQr/PCsqhEgeyG63JO17naou7cdjvRNvWLjkMqKv1UT6d5lkgcqX9d8UtRyFkW4fo6Z/7+d7S7dwnn5wlfvsTxvEZG/to13Fu3yH79NeNTU4zlckiGgVKp9K5fH9HOUe1USeKVbfPKtjF8v2lzNpHgajrNtOse67jYbReGIWoYoq2t8evdu/z844/cvn2b5eXl5jZOSZIgkYBMBs6fJyyVwLahXObM27ekNjfJDw9z9bPPGBsaIi/LXX/uvT4ujjpvPFZVFiyLl132ywtD3EjlfjSRICsWBAKBQCDoIGIxL+g68VnScrnMkydPWFhYwDCM964zDIOFhQVGR0cpl8vUajUymUwzs3Xa2PY87lerrDkOsiQxmki0lfF5Zdv8j40Nfq5UeGXbKJLEeDLJjWyWfxkYYCqdbqouX89mm1tD4wB2Kwp8B1X1QLua73PPMFhzHDYiwS9Vkjin69zM5XaoO7fTzpeZDN/l8xRNk43I7lImw9l0GlmSeFCrHap/n9yvMOR6JkPJ95l++hTt7l1mHj1icGUFxbKoRhl599YtSt98w+DkJJlI7O5j+tcr71en++eGIUuWheH7zSzngKoynU4zl8txwbaPdVzstnsblTuSnz7l5++/5x8//8ybN292nMcMw7CxkJ+chCtX4MYNyGZhbQ3zxQuWnz1j6U9/4s3Zs/ypUGAmlSIVtSnGxcfNG0lN40GtxnqX/Vq2bRbrdW7l8/ylWORiKoVAIDgeRPwp6EfEYl7QdTzPwzAMNjc32djYYHNzc08BEtd12draolwus7m5iWEY6Lp+akVIrCBgzXF4Ypq8831GE4kDz2S2npH/uVLhb5UKhu/zma5zIwpIx5PJHT8GjCYS2EHAi2SyGcDGGSmSyQPtxnSdvKIgA2a0e2BAUcgrCmO6fqR2Lug6GdelEglMjWgaWV1nOZnkhW0fqn+f1K9ItX60XGYg2lofzs8zuLKC5zi8LhZZu3yZtdlZsjducGFiollHXvvI/vXS+9VO/15aFqokkVcUrqbT3Mrnm1nLVrsLus55TWNJljGi/g3JMmcVhTFJ4ozvs1avA3DG9zmjqtjZLF4Y8rJeZ9O2CcOQgWSSy5rGrK4zriic8X2cqO9nNI1xRaGi65i2zaJh8NaykCSJoqIwk07zdTbL55q2r51t26wZBluOw4Lr4q6vM7+4yOuWjPwONA0GB6FQaGTpDQOePcP7/Xcqz59TNk1WlpaYPH+e4eFhPtd16tksbhAcyq/PNY16NosTBCzU66zYNl4Y9uy46KTdXvNGNZEgdwx+bXseXhAwpGn8l2iHiUAgOB5E/CnoR8RiXtB1Wut8Oo6zb53P+PXWOp/5fJ7UKc5syJLEO9/nvmE0F+/7ncmMz8j/Wq02typ7B9RUFRyRqI48kWq9dvs2g3fvEr58iWJZvC4W+f7GDV7dvEny6lUmzp7FPcVjWJUksoqyZ0a0lQRQkCRGgWgZxSiQ931c02R7e5s3b94AMDIywnA6zUwqhQc8MwxM28b3ff4EXJUkJoIA2TR5G80n0FCXlzWNiSBgS5L4HRrn1xWFS7rO17kcM6kUmm3z1jT3tLMkiS3glechuS6GYRxcv1iSGv+LFvFsbsKDB4TLy2AYGIbB0tISn332GQBnhoeZSaVww/BQfmnR86iHIfcMY8dxBYFAIDiNiPhT0I+Ixbzg2Ng32N11TTvXnQaSssxoIsFoItE8l3k/2h7WmqEHdqjWPzZNFEnis0hFe1BV2Y4yTRcsCz06ex/bLVlWU8BpUFUhEn76kN2qbVPxfQIgHYt8ARXfZ9W2WXOcQ7dzPpGgGNXiBlh3Xd5GAlaH7d+n8mvd8ziztUXy4UOIVOvl6Ix8dWSEtcuXeXXzJotffIE8PIyjaYx6HtoRnkevv1/t9C8fLeTn9sjIAziOQ7VaZX1tjbdPn2KUy3iRkJmh67xKJPhV01ArFRYWFgCoVCqcP3+e0dFRHM8jWFxsLJI9D0vTWMvn+X1XSTjYWSpuzbaxKhVwXVBVgkIBxzQpa1ozO7OXKn1sZ1sWNc9jc2EBu1rd6yMcO9joGzR+BNrchJcvYWuLMPLl73//OwArKyucPXuWUqmE47pt+SVJEvl8nlKpxPnz5xnOZJiN3qv4mE0vjotO2u01b6wC1WPwa0jTmE6luJhKifPyAkGPIOJPQT8hFvOCrtNa51PTtH3rfEJDMCqRSIg6n9CsW7z7TOZu1WRgT9X6G7sCzk7bxTsAvDBkOHqfNlyXV7bNr9UqGUU5VDtbrksQhg0hq6jN1VqNZ67LD+/e8c73j9+vSoXM9jZf3rtH8s6dHXXkY9X6tdlZklevIg8P8xh4EYly9dv71W7/rqbT3MzlmEqnORctRFupRmrwv969yy/ff8/jxUUs3ycE1mSZp4rC3yQJyXWp1WpAQ3l4bGyMqakpzDBk/vFjVsplgiDgnSyzpmlk4gVcEOBGZ6Zb1eVrQcC662IGAbIso5VK/O+rV8nIMk+ePGFjY2NPVXorCNh2XepRHx3DwCyX3/OriWHAwgIsLzcW844DkR8Am8tN5KcAACAASURBVJub/Od//idPnjwhm80yOjrK1NQUtSBo269EIsHExATfffcdk9ev83/96U/cHBxsCmD24rjolN1+88ZjVeWV43Tdry8ymX1/uBIIBN1FxJ+CfkQs5gVdR5ZldF1H1/W2xEQOe32/EmfmgWbN41bV5PiMPPxRIqlVdXm8pbTSp7JTJInJVIrpdBr4o/TTY9MkiPrbbjtbnsdvtRobrksx+rJ9a5qsui7bvs/gcfpVq5Go1zGfP2drcRHnp5/g4cOddeRj1fobN5g4exZH03gRBfn9+H61279Y/Xv3wiYIAnzfZ2Njg3v37vHzjz/y9OefWWs5e/4uOgMd06oSXygUKEeL6NcLC1Sis5BVoHyA3X6vvy4U+DXKoC8sLOw4W3mQXev/35PWzPwe1Ot1Xr9+zevXr5t+ra+vH9qv1dXV5uv/rVjkQqFASpJI7FJb75Vx0Sm7fecNTeup8S4QCLqPiD8F/YhYzAtOBGKr0x/sl6GfN01+iLK+m55HUpZ3qC7HweiFSMjpU9nFmSiAnysVHkXq4kdpZ9GyeGRZ6NGixTZNsskkE8fpVxjySyJBdWuLc7/8Qu7BA9THjwlXVnZk5GPV+gsTE7ipFKMtAX+/vl/t2LWqf7cSqwwvLy/zY1TWbU81+D0Iw5BqtcqzZ8+AhhJxu3bduN9R+Zh+vHnzhtu3bwNw8eJFrpVKe6rj98q46KTdQfNGr4x3gUBwMhDxp6DXEd8wgq4TBAF2VMYpiDLMB+H7Po7jtH19v7M7Q28FAfOmyRPTRI6C1yCqazy9h1q4Lsuf1O7bM2ea2041ScILw49q57nn/ZHx9DymguD4/MpkkGo1tO1tthYXyT14QOnBA/TVVQzPo1wssn3lCvW5ObJff83g5OQfqvWOcyrer3btdhOrDJfLZRYXF3fUZ28Hx3HYPCDjfVg6fb9u98M0TZaXl1lcXKRcLuOZJkOpFFo63dPjolN2+80bvTLeBQJB9xHxp6AfEXtGBF2nVU30QNVnGr+ItqqJxmdCBX9k6G9ksxRUFVmSCMKQIAyRJYlCtM1zt1p4t+w61g4QShKhJCHD8fmVyTCgKJzZ2uLLe/f45qefmH38mM9XV0nZNuXBQf46O8udb78lMzfH+NQUmVzu9L1fbdrtpl2VYUF7xOJNu+fPXh8X3Zo3jnu8CwSC7iPiT0E/Ir5pBAKBoA2kWg0i1frknTuNM/IrKxiex8rQEPcvXeL2zAzq9DTjY2OM5XIkVRUhmXM4xCK+cwg1ZoFAIBAI+huRmRd0nb3URPdDqInuz7bXqCN/3zDY9LxmZijOFG1GAk2/GUZToKmbdh1rB5DCECkMCaDrfm15Hg8qFR4sLvLuP/4D/vVfG6r1z58TmGYzI/8/5+a4MzXFg2KR2657bM/92N+vNu12c5h5QdAee82fvT4uujVvHPd4FwgE3UfEn4J+RGTmBV1HqIl+HLF6clxHft40ScoyU+k0hWhbZyzEFP8tPucJDTXmT2mnShJulA38+SPb0WWZz1UVPSoJZmsaehf92vI8Bm2b+uLi/qr1V67g3rqFOj1NqljEzuV46DgolUpXn3svvF/t2EFjq3Jy12dZfM4/DfFzDTWNsuexZNs9OS46aXfQvNEr410gEHQfEX8K+hGxmBecCMRW0T+IM0O76xlPp9PciISd4hJJrfWQX7SUVvqUdq9sm6VI8Tku/XSUdrY8j3FdZ0yWKdo2AG/TaVY1jcUu+fWgUqG+uHigan19bo6v5+YYHxtjxHV56DjH8tyP+/1qt39xXW4hDNY9wjDkneexaBjcs+2eHBedsvvQvCHGu0AgOAwi/hT0OmIxL+g6Qk30aBi+z5rj8MQ0myWV9qpnDH9kglrrIccBbPxap+1kYKFe54VlUYkC2Q3X5ZyuczWd5r8ODByuHUXheibDRcchFZV+qqfTPEskPr1fkWr9wLt376nWm77PxtDQH6r1kdjdWC6HZBgolUpXn3vPvF9t9s8LQ9xI9Xs0kSCrKMDh5wVBexi+z6LjUK/VeByG/MN1e3JcdMxun3njsaqyYFm87LJfgMjQCwQ9gog/Bf2IWMwLus7HqInm83lSqVQXe9s7rDkO//b2bWOLZ72OH2WU9qpnvFcd+q0ogB1U1U9iV/N97hkGa47DRqT6qkoS53Sdm7ncDnXndtr5MpPhu3yeommyEdldymQ4m04jSxIPovrQHfcrlWJAUSBSrXd++gn18WP0SLV+fXiYv331Fd6f/8yXc3Ocj1Trk5HKdbefe6+8X+32b9m2WazXuZXP85dikYvR5/kw84KgPcIwZN11+d+VCsmtLV6GIVKPjotO2e03byQ1jQe1Gutd9ktk6AWC3kHEn4J+RCzmBcdGOwJXkiQJIawIw/d5Vq/zqFZjybYbmaEosBxPJncEiaOJBHYQ8CKZbAaicWaJZPKT2I3pOnlFQQbM6BfsAUUhryiM6fqR2rmg62Rcl0o0BkY0jayus5xM8sK2O++XrjPqebCyAnuo1r8eGuLxpUvcuXaN7MwMs+Pjf9SRP6bn3kvvVzv92/Y8vCBgSNP4L77PbsTnvXNIkoQZhiy5LlgWq2FIsUfHRSft9po3qokEuY/w66VloUoSeUXh6j515ON/x+frtz0PKwhYcxzWHIfLIrMnEPQEIv4U9BNiMS/oOq1qoolEAkmS9vx1NJ5I4+uFmqjgkxKGjf+Vy/Djj3D7dkO1fmmJwDRZLxb5/sYNfr12jWdTU0yMjGBF52gFH0+784KgPeL5U5ZlVEUhVBSkPX48EbSHKklkFWXPTH4rcR36OEO/5jicURQCMZYFgmNHxJ+CfkQs5gVdR1VVstkshUKB4eFhCoUC1WoVJ1IejtE0jVwuR6lUolAokM1mUfcInk4LWUXhYirFG9dFlWX8MGQ7ykxdsCx0WW4Gl/Hr8TbPQVWFaOE5qKqfxG7Vtqn4PgGQjgLZAKj4Pqu2zZrjHLqd84kERdfFjr5s112Xt5GAVSf9eue6vN7aYuvNG0aePkW7fRvlzh3CFy+oWRZrxSKPLl3ity+/5PfpaVZGRkikUrz0fc4ewa9+fb/a6d+QpjGdSnExlWqel4f254X9kGW5GWy5rvvR5xuPer/WbE4n6rwftR/x/Hm2VGK6UEDO50nbNoEk9eS46KTdXvPGKlD9CL/y0UJ+bo+MfCtJWd6RoV9zHIIwZDSREOflBYJjRsSfgn5EjExB11EUhUwmQ6lUYmpqivX1dZ49e8bm5uaO67LZLJOTk1y+fJlSqUQmk0FpCf5PG6OJBH8pFhlPpZoCeHudyQT2VLu/sStQ7bTdr9Uqr2wbLwwZjhYfG67LK9vm12qVjKIcqp0t1yUIw4aQVdTmaq3GM9flh3fveOf7HfHrneuyVK8Trq8z/fQpI48eMXj3LvLyMmGckf/yS3778ktWvviC+ugoFVk+sl/9+n61278vMpk9F0Ttzgv7EQdfANVqFTtSMj8qR71fnM0BOnL2/6j9iOfPm1eu8H9MTJAYG+OXapW/76O2Dsc7Ljplt9+88VhVeeU4R/brajrNzVyOqXSac7r+wecfZ+jjrfXJlh8lBALB8SDiT0E/Ir5ZBIITQpyZzyoKmiShRhm2WDU5rj8Pf5RIalVdHm8prfSp7BRJYjKVYjqdBv4o/fTYNAngUO1seR6/1WpsuC7FaEH01jRZdV22fZ/BTvgVhrze2iJcX+fM3/+Odvcu4fw84cuX1ByH9WKR+cuXWfzqK2rXrzM2Pk46myX8CL/69f1qt3+x+rcQAusOGVlmXNMopdNokoS2S229V8ZFp+z2nTc07aP8Ouy4bc3QCwQCgUDwqRCLeUHX8X2fWq1GuVzmyZMnLCwsYEQlfFoxDIOFhQVGR0cpl8vUajUymQzyKd+quPtMZqyaPG+a/BCVYtr0PJKyvEN1OQ56L0SCUZ/KLs68Ajt2EBylnUXL4pFloUfblm3TJJtMMtEJv3QdwpCtN2+YfvoU7e5dZh49YnBlBcWyeB1l5Be/+gr/q6+4eukS14aHcVX1o/3qJbtOvl/t2LWqf7fS7rywH67rUq1Wm//+WI56v1gBOf73cfVj9/x5dmKCmVSKVPTse21cdNLuoHnjqH7tN24FAsHJQcSfgn5EfDMJuo7neRiGwebmJhsbG2xubu4Z9Lquy9bWFuVymc3NTQzDQNf1Uy9CsvtMphUEzJsmT0wTOQpeg6iO9/Qeqsu6LH9Su2/PnGluV9UkCS8MP6qd5573xxlkz2MqCD7er1SqoVpfLjMSba0P5+cZXFnBcxxeF4vcv3iRn774AmNmhq8uXuTaZ5911K9esev0+9Wu3W7anRf2I64f3CmOer9OnJPvRD92z5+eaTKUSqGl0z09Ljplt9+88bF+CQSCk4uIPwX9iPiJSdB1Wut8Oo6zb+AbB8WtdT47kXHrF+IM/Y1sloKqIksSQRgShCGyJFGItofuVl3ull3H2gFCSSKUJGT4+P5lMo068pFqvfa//heDd+8y+PIlimWxPjjI9zdu8D9v3eLe1BTG2bNcLhY771eP2XW7f7tpd14QtMd+82evj4tuzRudGrcCgeDkIOJPQT8ivqEEx0Y7wXqns1wCgVSrwdYWPHwIkWq9vLxMbVdG/tepKV6NjJDOZHBFMN81xOe9c4j5UyAQCN5HxJ+CfkJk5gVdp7XOp6Zpza2QeyFJEolEQtT53INtz+M3w+C+YbDpec2MUpxh2owEpH4zjKawUzftOtYOIIUhUhgSwJH7t+V5PKhUeLC4yLv/+A/4139t1JFfXGyo1hcKOzLyr0ZGMJLJT+dXj9l1u3+7Ocy8IGiPvebPXh8X3Zo3OjVuBQLByUHEn4J+RKSbBF1HlmV0XUfX9bbERA57/UkhVmm2dpUu2q8WcXx9xfMwfJ8XlsWv1SrzpklSlplKpylEGeRYwGneNJGBmu8zFpVTWo1KMX0qO4lG7WaAex/Zji7LfK6q6FENWFvT0I/Qvy3PY9C2qS8usrW4iPPTT/DwIeHSEjXL2qFab8zMMHb2LOlM5pP51Ut23fbrrK6jShJ5VWU0kWjWmt/3c55IQCbT+K8kgeOAYTT+K/ggriTxTlFYAcqWxWoQ8HOl0nPjopN27cwbQFvtJGW5KTZ60PwsEAh6HxF/CvoRsZgXnAj6cavTtudxv1plzXGQJYnRROLA0kfx9Y9Nk4V6nSXL4pVto0gS48kk0+k0NyJhp7i00pJlsVCvc88wyEeLporvf1K7f9Tr/FSpAFB2XRJHbEeWJMZ1nTFZphgJgL1Np1nVNBYP2b8HlQr1xUXO/fILuQcPUB8/JlxZITBN1nap1n918SKXi0VcVf0kfvXr+9Vu/4Y0jayicDWd5i/FIhdTqYM/KJkMTE5CodBYzG9uwsJC47+CD/LO9/m7bfOuWqVimrz2/WZJtl4aF52ya3feANpqZ3e9eyGEJxCcLvox/hT0F2IxL+g6sTqzbdsEUVb6IHzfx3Gctq8/KVhBwJrj8MQ0eef7jCYSB2aAKp7HY9Pkp3fvmK/XWXcc6kHA58kkV9Np/uvAQFOleUBVUSWJV7bNC8tq/GAQ3ScAvDBkMpXii0xmh7rzx9hJwD/qdZ6aJovR1jUvDLmUTnMlneZfDtm/2K9p1yUVlYyqp9PMaxqvbJvntv3h/mUySLUaA+/esbW4SO7BA0oPHqCvrmJ4HuvFIo8uXeK3L7+kdv16o/xci2r9p/Cr08+9V96vdvuXlGWyikLF8xhPpcgqCgOqSrh7XtA0yGbh/Hm4erWxmI9LCC0v7/44Cfah5vss2jYbtRprwJtoh885Xe+pcdEpu/3mjceqynPL4rllsRpl7A+aP5OyvKPePSAy9ALBCUfEn4J+RCzmBV2nVU3Udd0Df/XcrSaaz+dJfSiTd4KQJYl3vs99w2gGh/tlgAzfZ6FeZ75eZ81xsIKAlCxzTte5mcvtUF2+ns3ihiFLlkXF89hwXczoiygtywxrGtPpNHP5fMfsKr7PT5UKi1G5JwBVkihpGrNH7V8uxwXbZiOyu5TJcEbXeWnbVH3/4P7FqvVbW3x57x7OTz+hPn6MvrpKyrZ5PTTE9zdu8NuXX7LyxReMjY9zbXi4O3518Ln31PvVRv/euC7bnkdaUfi5UkGTJK5ns6R3zwvZLHz+eWMhf+NGY5v9s2cQho3/CT5IGIbUg4A120a1LNYALzrO02vjoqN2e8wbKU3jQa3GavQjKHDg/Bkv3ON69yJDLxCcfET8KehHxGJeIDgm4nrxo4lEMwu0VwYIGlvsX1gWS5bFerSQFxxAGDZV65MPH5K8c6dxRn5lBdP3WR8e5vGlS/x67Rq/T09THx0lnc0K1fpPiCxJ6LJMPHLj8a5Gr38W60ckEjA4CL7fWMhfvNjI0BtGY2v95qY4L98mkiQhNf5x3F3pOZKyzEgiwXgyyYVkcsfiPP63Hc2zsbbJmuOw5jhcFvOvQCAQCHoEEbkKus5eaqL7/Traz2qicZ3jD2WAAH4zDH6tVnll29SjjDw0tom+ioSfMoqy4/pY5GrDdVElqZGlprEddcN1mTfNHZnRj7W7V61Sdl28MERt2Z5bdl3uVavkj9K/apV3rksqeiartRrzjnOwXa3GL4kE2vY2X96711jI//IL4dISgWmyMTTE3776ijvXrvFsaoqVkREqskzYTb86+Nx76v06oH/bnseAqjIqy4RhiBeG/G6aGJEY2XVN43w6Tf6zz9Cmp5GqVcIbNxoL+bW1Rlb+wQN4+RJqtfY+ZKcYSZKQJIlULDSYTJLkj232vTIuPondHvPGY1XldZSVT0UL+elUisnoqMduds/Pa47DGUUhELtCBIITi4g/Bf2IWMwLuo5QE20QZ+ZhZwYozljG6vXwhyCTIkl8nkxyLlJwjgWcHpsmQWTfer0XhpzTdc7p+ntCUV4Y8qhWwwvDjtklJIlL6TSl6EsvFs763TQJD9s/4LFpsuW6FKMv27emyaqm4cG+dol6nerW1nuq9Y7jYIyMsH3lCt6f/0x2ZoaJkRESqVR3/foEz70n3q82+jedTjOkaYRhyBvXZb5eb473qqZxSZJYy2YxLl6EahVyucZ/nz2Dx48bZ+W3tt77LEmShKZpZKNFn2EYH9xCeRBHvV9c5qhTgkkf0490Os3Q0BCXJiaYLZUoDA6yGYYsRwveXhoXHbVj/3lDbpk/x5NJJlMprqbT5PfYkbN7fl5zHIIwbO6kEggEJw8Rfwr6EbGYF5wI+llNdL8M/bxp8kMk4BSXShqPxJpu5nJAo7TS40h1+UPX7y7h9KnsrqTTzEb9u1et8vtHtLNoWTyyLPRokWSbJtlkkon97CoVzOfP91StN0ZGePHnP1Ofm+PLuTlmx8exkkle+n7X/eolu2759UUmw1w+zzldJwRe2zY/Vyo8qtVYsix+NwzykoQVhrwaHyd88wZpdRWePSN88ACWl5EMY8eW8TAMmxnoXC7H5OQkAAsLC2xFi/74mlbi+WSv1496v9hudxtH5WP7MTQ0xDfffMPX337LzUuXGBkZwQFe7Hruxz0uPoVdO/PGhWSSrKKQV9Xmcaa9iOfneGt9XEJUIBCcDvo5/hT0B+IbSdB1hJroTnZngKwgYN40eWKayFEwGoQhU+k007tUlzOKQgBtXR+3seY4n9SuVe06ryiEH9nOc8/7I+PpeUwFwft2Yci655HZ3t5Ttb5cLLJ95Qr1uTmyc3Ocn5pioFgE4Owx+dUrdt3yK1Ylj+1GEwm0SGRt3jT5h2X9YTcwwBngnGGQzeVwh4dBUdA0rZkdcRwHI9KYyGazfPbZZ0xNTTXuPTpKuVxuZrE1TUOJt2MHAU505n6v1+NseKlU4vLly23fz/d9giDAMAzK5TK1Ix4FSKVSFAoFzpw5QyaTYWxs7FD9iPs/MTHBd999x+zsLJdGRylG7/HQrud+3OPiU9m1NW+0Qev8LBAITjYi/hT0I2IxL+g6Qk10b+IM0Lbn8cP2NrIkNc9nypJEQVW5kc2+p7p8mOuP2s6x9g8IoqBchvftInXzM/uo1q8MDfHX2VncW7f4em6O8akpMlHGsV+fez/4dWFwkP+nUGDy8mUqs7PgOOTzeRKJBEEQsLm5ycLCAgCTk5OcP3+e0dFRJEmiXC6zublJJaqTHttJkoRt2229XigUKJVKAG3dr1arYVkWCwsLfP/990dezBcKBf75n/+ZmZkZxsfHOXv27KH6Eb9eKpU4f/48w8PD5E7jeOcD84ZAIDh1iPhT0I+IbzTBsbF7i+h+17RzneCUEoZQr0O5/J5qveF5rAwNcf/SJW7PzKBOTzM+NsZYLkdSVRFSNr1NMplkdHCQaVVFvnCBpCyTy+VIJBL4vs/6+jr5fB6AmZkZzp07Ry6XQ5ZlarUahmFQrVYByOVy6NF2bNu223o9m82SyWQA2rpftVrFMAx0Xefu3btH8lmSJM6cOcPMzAzffPMNk5OTjIyMHKofu/svRJsEAoFgJyL+FPQTYjEv6DqtaqJxVmmvX0fjiTS+vt/VRLc9j98Mg/uGwabnEYThju2lm5FQWJyBAg51fbxV9LDtHNWuY/0DpGh8BJL0h52icD2TYbRchh9/hNu3d6jWl4tF/jo7y+2ZGe5MTZEqFhlxXSTD6A2/esyu1/yqhCFPw5CSrjOTzzOSSDTVh33fx7ZthoaGABgYGCCTyaCqKpIkkclk0HW9udhv3Z4fBEFbr6uq2tzC3s796vU61WqV5eVlksnkgSrJexHPd5lMhvHxcSYnJxkeHiaTyRyqH3v1v5WTPi4+et7YZScQCE4PIv4U9CNiMS/oOqqqks1mKRQKDA8PUygUqFarzXOsMZqmkcvlKJVKFAoFstksah9uj4xV65+YJn+Lyi4lZZmpdJpC5G8s/DRvmqiShBt9+fzcxvVJWUaX5aZi/pJltdXOUe062T9dlvlcVdGjsWFrGrokMV+rkbMsSr7PwNOnaLdvo9y5855qvXvrFur0NKliETuX46HjoFQqx+5XL9n1sl8LrkvOdRnMZMglkwyoKnq0mE8mk6TTaaCRxY8XtpIkIcsymqbtuyXysK+3c79UKoWu63z22WdMTk6yvr7OmzdvME3zUOrzFy9e5MKFC82MfGsAeVS/oP/mmUPPG7vsoLE1XyjTCwSnBxF/CvoRMTIFXUdRFDKZDKVSiampKdbX13n27Bmbm5s7rstms0xOTnL58mVKpdKODFU/EWeU/lap8P32Ntuex3gyyXQ6zY0oMxaXZFqyLF7ZNkuWBdAs03TQ9XFZpxfJJNAIettp56h2nerflucxruuMyTJF2wbgbTrNqqqyVK/D+jrTT58y8ugRg3fvIr98+Z5q/ddzc4yPjTHiujx0nJ7w61M99373yw4CrmezjPRodiSe186fP893330HwO3bt1leXgbaV5//7rvvOH/+fMfnu36bZw49b2gai3uMJ5GhFwhODyL+FPQjYjEvEBwThu+z5jg8Mc1mqahtz2MgEmq6lc83t7kOqCoysFCv88KyqEQB6Ybrck7XubpL5T7OOLXWrY8D8/i1/do5ql3H+xdto7/oOKSi0lT1dJqXngdra5x5/Bjt7l3C+XnCly9xPK+Rkb92DffWLbJff8341BRjuRySYaBUKr3hV4efe8+8Xx3unypJLNs2y7bNnWoVLwxxw5DLqRTDBwRV8efK8H0AsorCaCJB9gOBWKfsnGyWS9evN/++uLi4Q33ekyQqQYARBFiRTUpVuTQxwdfffsvs7CzDw8Pvbek8av8qnscr2+aJaTZLt53kcXHUeeNZIrHDDhAZeoFAIBCceMRiXtB1fN+nVqtRLpd58uQJCwsLzRJTrRiGwcLCQrMcU61WI5PJNM+InnTWHId/e/u2sTW0XsePMl83sln+ZWCAqXR6h5p0zfe5ZxisOQ4brguAKkmc03Vu5nLvqU/vrlu/FQXmg6p6YDtHtet0/77MZPgun6dommxEqvWXUimubm1x5elTEnfvMvPoEYMrKyiWRTXKyLu3blH65hsGJyfJRGJ3veRXp597v/rlhiGL9Tr3DYPfTZNVx2GxXufrXI7/c2CAgQ98rp7V6wBcTKX4S7HIxQ+oEHfK7ryi8O2FC/y3YpGLFy9SLpd3qMy/UxQe2zbPbZu1aGvnaCLBbKnEzUuXuDQ6ukN9/mP798q2+R8bG/xcqfDKtlEk6USPi0PPG8ClTIaz6TSyJPGgVttzx4fI0AsE/Y+IPwX9iFjMC7qO53kYhsHm5iYbGxtsbm7ueabUdV22traa5Zhipeh+ESExfJ9n9TqPajWWbLuRiYoC0vFkckdwOZpIMKbr5BUFGTCjc6IDikJeURjT9feut4OAF8lkM+CNM1gkkwe2c1S7T9G/C7pOxnWpSBKSaTK6ukpmeZmxR49gfp7BlRU8x+F1scja5cuszc6SvXGDCxMTzTryWg/61cnn3q9+ndV1hjQNVZJ44ziUHQfT98nKMnPZ7HuLeSsIqPp+80z4o6g03BvXZTyVIqsoe2Zgd58l/1i7LzIZps6cYWxwkGulEp5p7lCZXwHeVauUazXU6Flkk0kKg4OMjIw068F3sn8/Vyr8rVLB8H0+0/UTPS522720LFRJIq8oXE2nmcvnmUqlUKJ5A2BE0xhKpXBo6BNsex5WELDmOKw5DpdF/WiB4FQg4k9BPyIW84Ku01rn03GcfcWh4tdFnU8BYQgbG0iPHqH/4x8M3rsHL1+iWBavi0W+v3GDVzdvkrx6lYmzZ3HFGDnxSOwsDeSFIYbvY/g+3h5zxjvP42G93hBrq9dZis5Lq7LMz5UKmiTtmYGNz5J32k4JQ2ZSKYZSqR0q82XLomKarAFr0b2SwGYYslOCqTP9+7Va5ZVt7/vcTjqqJJFVlObOgS+zWXKSxO5c2xlV5ctsllR0LGHNcTijKM0a9gKBoP8R8aegHxGLWK6jDwAAIABJREFUecGx0U7ZpjAMD1Xe6SSRVRQuplK8cV1UWcYPQ7ajDNUFy0KX5eb20m3PY9W2qfg+AZCOy1EBFd9nNdqy23r9kmU1t5MOqipEQlGDqnpgO0e1+xT9O69pjFSryGtrpJ4+RX3yBPXZM9TojHx1ZIS1y5d5dfMmi198gTw8jKNpjHoeWoeeR68/937165Vt88Z1sYKAlCwj08g2v/U8XjsOGdfFjuaGddflbbSQf1Sr4Ydh815+GPKoVkOVpB1npON2WjPenbZLqSpaOs1AVAt+2/NYDQJe+z5vggAvuu+bIGDZdXlh2wwlEh3t32PTRJEkPov6cNLHxW67fLSQn8vnmUqnGU0k8H3/vcV8UpbJKAqSJGFHWfkgDBlNJMR5eYHglHHa409BfyEW84Ku01rnM64bvd+EKUkSiUSiL+t8jiYS/KVYZDyVai5C9jrLCezIsHlhyHD0HDZcl1e2za/VKhlF2XH9btXqG7sC4v3aOapdp/u35bqEvs+1lRXOPXxI8ddf0Z8/h3J5h2r92uwsyatXkYeHeQy8iESvetWvTj/3fvUrLocWi6EFYdjon+Nw1zCwPI9UZLtaq/HMdfnh3Tve+X5PP/fdfsU289F2+DjTLsZFe3ZX02lu5nJMpdOci36wOIi4zny8tT7Z8mOBQCDob0T8KehHxDeYoOvIsoyu6+i63paYyGGvPynEmfmsoqBJEmp0ljNWW47PvMIfJZkUSWIylWI6qq8dl4x6bJoE8N71rarQ4y0lnD7UzlHtOtY/18WpVtne2KD2j3+QevSI/D/+gba+jhOGO1Xrb9xg4uxZHE3jRRTk96xfn+i596tfXhhyTtd39M8NQ+brdd65LsUoCHtrmqy6Ltu+z+AJeO57+eVFmXYv2qEjxkV7drHafXzM4EOZtKQsC7E7geCUIuJPQT8iFvOCE0E/b3WKM0W7VZrnTZMfoizzpueRlGXGk0m+yGSYi87gtmb097s+VoWOg+ULkdDUh9o5qt1H969eRwoCNjc2OP/LLwzeu8eZx4/JrK8jOQ7V0dEdqvUXJiZwUylGWwL+nvTrEz/3fvVrr/4tWhaPLAs9Ok9vmybZZJIJ8dxPTf/2UrsXCASCTtPP8aegPxDfgIKuEwQBtm1j2zZBGyrCvu/jOE7b1580WjNFdhBgBQHzpskT00SOFitBGDKVTjOdTvPtmTPNbaeaJOGF4YHX32o5SwqN2srttHNUu4/qXxiSNE3szU22lpbIPXhA6dEjcqur2L5PeWiI7StXqM/Nkf36awYnJ/9QrXec3vWrC8+9X/3ar3/PPa8pjhd6HlNBIJ77KerfbjvBToIgwPd9PM/DjUoMapqGqqookQjgXn+Ps49BELT1+km5XzxXCE43Iv4U9CNiMS/oOq1qoq7rHvirZxiGp0ZNNM7Qb3seP2xvI0tSU2lZliQK0bbS3XWeD3P9UdvpSv/CEMKQM1tbfHn/Ps5PP6H+/jv66iop22ZlaIi/zs7i3rrF13NzjE9NkWmpx92zfh1D//rVrx3XA0EUoMvQE/07Fc+9B/sneJ+4nrZhGFQqFQDy+TzZbJZMJgOw59/1SHfAtu22Xj8p91PFWBEg4k9BfyJmN4FAcPyEIZgmbGyQfPiQ5J078PAh4coKhuexMjTE/YsXuT0zgzo9zfjYGGO5HElVRUjSCAQCQQPHcahWq2xsbLC8vEy5XN6xuC0UCpRKJYBmDe1KpUIYhodaLEuSdCLuVyqVOH/+PENDQ6QjDQiBQCDoJ8RiXtB1hJro3mx7jbrQ9w2DTc8jCMMd20s3I0GoOHMFHOr6eDvqYds5ql3b/VMUrmcyjG5swI8/wu3b8MsvhEtLBKZJOaoj/9PMDHcuXyZVLDLiukiG0dt+HdNz71e/3usfIEXzRiBJx96/U/Pce6x/Ypv9TqrVKk+fPuXevXv8+OOPLC4u4jgOAIlEguHhYaampgB48uQJGxsbzb8fdhv7SbjfxMQE3333HTdu3GBycrJjz1lwMhHxp6AfEYt5QdcRaqI7idWa47rQ86ZJUpaZSqcpRFsDY+GnedNElSTc6Mvn5zauT8py8xwqNNSi22nnqHaH6d+TWo28ZVHyfQaePkW7fRvlzh3CpSUc26Y6MkJ5cpK3V65Qu3wZ5dw5rFyOh46DUqn0rF/H8dz71a+9+qfLMp+rKnoU5Nuahi6e+6nqX2wHja35p71WfHxGfmNjg3v37vHDDz9w+/ZtlpeXm4sVSZIoFAqsr68DsLCwwObm5o6/t9LO671+v9XV1eZr8SIuDENxhv6UIuJPQT8iFvOCE0E/q4nGmajd9ZOn02luRJmxuCTTkmXxyrZZihSf45JRB10fl3V60VL6qZ12jmrXbv+e1Gos1euE6+tMP33KyKNHDN69i/zyJYFpUh0Z4cXcHG+vXGF0bIyvSiVKg4O81HUWe9iv43ru/erX7v65Yci4rjMmyxRtG4C36TSrmnYs4+K0PPde619sF9ehP+0Z+viM/PLyMj/++CO3b9/mzZs3O747wzCkWq3y7NkzAAzDeO/ve3HQ671+vzdv3nD79m3CMGRiYoLPP/8cz/NEllXQNv0cfwr6A7GYF3QdoSbawPB91hyHJ6bZLP20V/1kaGSeZGChXueFZVGJAtkN1+WcrnM1nea/DgzsuD4pyzvqNceBefzafu0c1e5Q/VMU8pZFuL7Omb//He3uXcL5ecKXL3E8r1FH/osvcG7dIvH55xQkiXQ2y2g+z0Ai0bt+HcNz71e/9uvfWV1nOpXiqqaRikqW1dNpnnV5XBzVTpUkXtk2r2wbw/cJwrCnnvvu/sU253SdLzKZHSr3vTDegR0Zev2UZlw9z8MwDMrlMouLizsy8q04jsPm5mbH2u31+5mmyfLyMqOjo5TLZUqlkljMn2JE/CnoR8RiXtB1hJpogzXH4d/evm1sKa3X8aPM1171k69ns9R8n3uGwZrjsBGdCVQliXO6zs1c7j316d1167eiBdGgqh7YzlHt2u5fGHI9k6Hk+0w/fYp29y5XHz1icGUFxbIaGfk//xlnbo7huTkKAwO8Xl0lqapcymQ4m04jSxIPorrXPePXMT33fvVr3/4lEnyVzXLZddmIrj+OcXFUOzcMWbIsDN9n2/Owg6Cnnvvu/kFjkTydTjMXLax7abzvztCPnNJFWuv3quM4IpsYET+HWBiwWq3iRWNGcPoQ8aegHxGLecGx0c6ZNUmS+vZsm+H7PKvXeVSrsWTbjUxUFMiOJ5M7to2OJhKM6Tp5RUEGzOgX4gFFIa8ojOn6e9fbQcCLZLIZKMeZL5LJA9s5ql1b/YtU60c3NhiIttaH8/MMrqzgOQ6vi0XWLl9mbXaWzI0bnJuYQJUkym/fAjCiaWR1neVkkhe23Tt+HeNz71e/9utfTlEYSyQYASrR3HAc4+Kodud0nSFNIynL1IMAJwgY0jSGNI2zezx3aCxUnSBgoV5nxbbxwvDQ/XtpWaiSRF5RuLpPnfbRRKJ5v1e2jRU999bX9+ufF4Ys23ZzcT2kaXyRyezbzsfaQSOLbwUBa47DmuNwWWTOBPsQL8wsy8I0TRRFwbIsbNtGUZTm3+HT1rvv9P3EOe6jcdrjT0F/IRbzgq7TqiaaSCT2VRONJ9L4eqEmesIJG3XkiVTrtdu3Gbx7l/DlSxTL4nWkWv/q5k2SV68y/tlnuKkUarxIEgj6gJDGwiKe81RJIqsoZBUFdY/AMVZtj3cqtG5/PwxxO3vtAGhFl2VGNI0LUakvgAu6zkgkMrhf/9wwZLFex4sW1NOp1HuZ/E7axX1ZcxzOKEqzFv1ppd3v1dNGHEfIsoyqqgRBwPb2NrZtMzIygq7rKIqC4zhdqXff6fuJxfzhEPGnoB8Ri3lB11FVlWw2S6FQYHh4mEKhQLVabZafidE0jVwuR6lUolAokM1mUfcI7k4qWUXhYirFG9dFlWX8MGQ7yvBdsCx0WW4Gs9uex6ptU/F9AiAd/1oPVHyfVdtmzXF2XL9kWc1tqIOqCpHA1KCqHtjOUe0O7J9lse55nNnaIvnwIUSq9XJ0Rr46MsLa5cu8unmTxS++QB4exk4kKPk+RdfFjr5s112Xt5EwV0/41QPPvV/92q9/Vd9n1XHIHfO4OKrda9vmjevihSFDmtbYwp5KcTWdJr/H/JaUZUYTCaaibe4Ar2wbRZIO1b98tJCf2yPj3UpWUZiMtpKej3wa0TQmUymyUWZxv/7dyucZigLei6nUge18rB00MvRrjkMQhowmEqda0b7d71VZlpuLEtd1P/oc8Em5n+u6LC0tYZomq6urqKpKpVKhUCggSVJzMf+p6t13+n6lUonz588zPDxMLpcjccoFINtFxJ+CfkSMTEHXURSFTCZDqVRiamqK9fV1nj179p7oTTabZXJyksuXL1MqlchkMs1tav3AaCLBX4pFxlOppgDeXmdAoVHn+ddqlVfRFtvhKNjZcF1e2Ta/VqtkFGXH9bvV8W/sCvT3a+eodvv2z7L4tVIhs73Nl/fvk7xzZ0cdeSM6I782O0vy6lXk4WEeA0vb2wRhyEXHIRW1uVqr8cx1+eHdO975/vH61SPPvV/92rd/jsNdw8DyvGMdF0e1+znSyLDCkCuRUvuHFtgA53Sd/3d4mGuZDL9WqzzeR9V9v/5dTae5mcsxlU5zriXrvpsBVeVGLsfFdLq5nV2XZbKKsmemPCaez/5LtGsgqyhtKcwf1S7O0Mdb65MtP2acRtr9Xo0XKdCoSW9HFSGOSq/fL168GYbBv//7vyNJEvV6HVmWyWQyzcXyp6533+n7TUxM8N133zE7O8ulS5coFosf9ZxOCyL+FPQjp/ebTyA4ZuLMfFZR0CQJNcq0xSrNcf15+KMkkyJJTKZSTKfTwB8lox6bJgG8d32rKvR4S+mnD7VzVLv3+lerkajXMZ8/Z2tpCeenn+Dhw0YdecdpqNZfu4Z76xbZGzeYOHsWR9N4sb3NlufxW63GhutSjDKwb02TVddl2/cZPE6/euy596tfe/XPDUPm63Xe9cC4OKqdH4ac13X+KZdrqrV/aAGbV1WuqioFTSOjKCR2qbp/qH/tttOa+T4M8XzWLbv9+im2lgv2olqtsrq6im3bx1LvvtP3W11dbb4+MDBAPp8XZ+gFglOKWMwLuk5cD7dcLvPkyRMWFhYwohJDrRiGwcLCQrOkTK1W68szYrvPgMYqzfOmyQ9R6a1NzyMpy4wnk3yRyTS327Zm9Pe7PlaFjhcbF6Iz6B9q56h2zf6FIb8kElQ3Nzn3n/9J7v591N9/J1xZ2ZGRd2/dovTNN1yYmMBNpRhtWZAsWhaPLKtZbso2TbLJJBPH6VePPvd+9Wuv/vXSuPhYu1a19nY47Hxx1HYEJ4t2v1dd16VarTb//bGcpPt5ntd23fpO17vv9P3evHnD7du3Abh48SKjo6N9GR91GhF/CvoR8c0u6DpxPdzNzU02NjZ2/ELdiuu6bG1tNc+XGYaBrut9J0Ky+wyoFQTMmyZPTBM5WqwEYchUOs10Or2jzrMmSXhheOD1u1WhdVluq52j2n175gzXMxmkWg1ta4utpSVy9+9T+u039NVVDM+jXCyyfeUK9bk5sl9/zeDkJAPRNkHNcXa089zzmhmK0POYCoLj86uHn3u/+rVf/3plXBzW7nIyyaSmcV3T+MzzSFsWoaZht6lafdj5Yi9VeEH/0e73alxnu1P06/06Xe++0/czTZPl5WUWFxcpl8t9Gx91GhF/CvoRsZgXdJ126+HGr5+WOp9xxm3b8/hhextZkpoKzbIkUYi2y+6u83yY64/azqHsMhkGFAW2tvjy/n2cn35C/f139NVVUrbNytAQf52dxb11i6/n5hifmiITnZHcsx0giBYpMhyfX73+3E+BX70+Ltqxy0sSlySJ87ZNdWsLV5aPpFp91P4J+hNRZ/50cdrio04h4k9BPyK+4QXHRjvBRmsJJ8EJIAyRajWIVOuTd+40zsivrGB4HitDQ9y/dInbMzOo09OMj40xlsuRVFXE792C04BlWaytrfG7YVBZWQHHEarVgo4hvi9PDyI+Ojoi/hT0E2IxL+g6rXU+NU07sB6uJEkkEolTUedz2/P4zTC4bxhseh5BGO7YNrsZCV3FGTngUNfH22wP2067dluuy4NqlYF9VOvLxSJ/nZ3l9swMd6amSBWLjLgukmEc3A4gReMjkKSu+9Xrz/20+PVe/3psXLRr92J7m/9vaYnss2e48/OwtXUk1eqj9k/Qnxzme1XQH5ym+KhTiPhT0I+Ixbyg68iyjK7r6LrelpjIYa8/acQq1E9Mk79VKsybJklZZiqdphBtj40FreZNE1WScKMvn5/buD4py81zvNBQ226nncPYbbkug45D/SDV+itXcG/dQp2eJlUsYudyPHQclEpl33Z0WeZzVUWPSvjYmobeRb96/bmfBr/26l8vjYsP2V1OJslLEpZl8WJ7m3dv3lCpVqFaJXzzBpaXkQwDWsS+DlKtTmSzGGHIPw7ZP2hszT/Ntdj7mX7/nhTsjXjfD4eIPwX9iFjMC04E/ZxhiDNsu+tCT0c1qOGPUlNLlsUr22YpUsyOS4kddH1crupFS+msdtpp2y4MeVCtUn/+/EDV+vrcXOOM/NgYI67LQ8c5sJ0tz2Nc///Ze9PlNq4s3/eXExJIDKJAEiItqTVQk4dySXbfsk9XuytOnA91XqmfoN/l9n2A2x1x4lZXn3bZfVpltdtlS1WiZokUKIEUkBhyvh+YCQMQQQIgiInrF+EIGsqVuYG9c+Veufb+L5N1VWU5FjB6a1lsGQaPJ/G9Zv13PyXfq7d9XhTN1Lg4ym7DMLiuKGxvb/N/P3lCtVYjWl+H+FwYBtGjR3CAONZBqtVKschfoog/NptDtS+pQy8ZekFYLBZ5fjQLyO8rzDoSzAsTJ1GXdRyHMM5mHUYQBLiuO/DxkybJrLfitqVVdaAMWNX3eeE4PGg0uFur8WOfutCwn1FTgc1mk6etFtV4gr7jeVwwTT6yLP5uaanr+HRPHeokIEo+63edoexi1fqlvb33VOsbQcDOysrPqvWx2N16Po9i22jV6uHX0TQ+zWa55rpk4pJbTcviYSp18t+rw05XFF44Di8cBzsI2jYXTJNPstkutfWJ/e5jsJvJ8TRA+86bJrcyGT4yjKmOi0HtPjUMLjoOP9k2uYcPoVbbD+RzObh2bd8ZeB5EEdTrEK82SEhUqx88fsz9cpm9vT3uRRE/ed5Q7QMkQ7/ADPtcFRaDWZ8fzRqLNv8UBJBgXpgCnWqinucd+tYziqKZVxPd833u1Wpsuy6qorCWSg2UAXvhOPw/Ozt8W63ywnHQFKVvXehPcznqQcB3ts2267ITL8nVFYULpsnn+fx7qt+9dah344DorK4fep2B7TKZQ1XrX6+u8s1nn+H/t//GL7/4gouxan26T53s3uv8Mpvlq0KB5UaDnbh917NZzlsWqqLwn3E99LF/rx47L4p40mphB0E7y7mk69yyLL6IA6iJ/u5jspu58TRo+1IpPsvluOF5Ux0Xg9p94PvUdnepvnqFd//+/tJ62A/k19a6MvRsbr4XzCf+cdfz+K5aJb27y70oojVk+yRDv9gM81wVFoN5mB/NGos2/xQEkGBemCJJjeijjhnkuGnSCkO2XZcHjQbvgoC1VOrQDFjnHvlvq1W+qVaxg4APTJPb8QT9cjrdNdleS6VYN00KmoYKNOI3xEuaRkHTWDfN9453wpCn6XQ70Egyh6TTh15nIDvTZM3z4NUr6FStj+vIv1xZ4f7163z/6afkPvmEzy9f/rmOfHwd2A8svDDkWbNJxXGIooildJobhsFt0+SyqqIGAdvNJgBngoAzuo6Ty+FH0YF2d0yTy5rGmSDAjdt+xjC4rGlUTZOG4/DYtnnbaqEoCsuaxseWxa9yOa4axnt266rKeU3jiapix7/7SvzZuqq+d/xVw6CZy/X9XuNuX3I9NwzZbDZ55Tj4UXRkP8/UeBqifXlNYz2V4hxQjX3DOcMgZ5o8T6d56jgTaV+v3bNWC11RKGgaH3XUd7daLTxVRfE82N2F58/3A3fYD+RTKSgW9/97/px+OGHIThCQ9n2cePVPkpHvrSPfeX8B7ZVD267LtutyQzJMC8usPy+F8TEP86NZZVHmn4IAEswLU6BTTTSVSvVVE00caXL8LKuJqorCuyDgnm23g/d+GbBkj/zdWq29dNufpyxKFO3/t7MD//qv8PXX+6r1T58Sxar1v/vlL/mvX/6S7Y8/5sr58/gHvM1OVLadIOChbdNwHIIg4K+AjxSFK2GI0miwt7fHmzibee7cOVYti48zGXzoa6c2GryN36jDfr1u1TC4EobsKgo/AQ1FQdM0rpsmv8rn+TiTwXAc3jYaXXY+UAgC1oA4zGMt/syv13lbr3cdb8Tt86JoIu1LrteMIr6z7a7tAMLk0BWFnKa9t7Ih6vV39fr+HvlE8K5YBNsGRdn/r4fED2q6TiqVomRZLKVSXMxm38vId5LcX8mLxW3X5YymtWvRC4vFoM9VYTGYp/nRLLGI809BkGBemDi6rpPL5SgWi6yurlIsFqnVarg9y0sNwyCfz1MqlSgWi+RyOfQDJq3TJq2qrKVSrKVS7X2qB+1RBbpU639sNNAUhQ/i+tJndZ29ODN4qdXCjLNvid2W41ANAkLASspYAdUgYMtx2HbdruOftFrt5bVndR1iga6jrnOU3cvdXXbfvOHcX/6C8fXXaP/xH0RPn1JvtXi9vMxPN27w6LPPqP3iF6xeucLFUolMfI5OVN/HqNUwtrdRHzyAchl8n5ZhsF0ocD+VIooiKpUKm5ubAFSrVS5evMja2hqu7xM+frwvHNZh91NPvW6gq473tuPQqlb3gyldJywWcRsNyoZBuVymUqlQrVaJoohCoUBV1/cDZMfBjwXXbNPkhWnyH6ZJwfe76oIXi0VKpRKu551o+xK7dh3ybJY78e+cbNuYh/E0bPtqQcCW65L3PJx4Evba83gbC+VNqn29doU4kP+iJ1Pu9fq7XG7f3z17tp+hLxb3g/hK5b0l9vCzH7ywusq1YpGrZ8+SMgzOZzLvZeQ7SfwS7L9Y3HZdwihq+ylhsRj0uaqqajso8Tzv2PuAZ/18ndnVYeqGz/r3mpf50ayxaPNPQQAJ5oUpoGka2WyWUqnEzZs3ef36NQ8fPqTSo+acy+XY2Njgxo0blEolstksmqZNqdX96c2A9dujChyoWn+7J0DoZ5dk8v0oYjWeFOx4Hi8ch7u1GllNG8t1DrVrNolev+bWn//MuR9+4Owf/4j6/DlRo8Hr5WX+v9u3eXTnDuFnn/HxtWv8olTiaqFwYMBRq9X4y1/+wg937/L4d7/j1aNHhGHIO1Vl2zDIJiscHId6vQ7sj4n19XVu3rxJI4q4/+OPvCqXD7TrrNfdWce7Hoa89jwaYbg/wSqV+F8ffURWVXnw4AE7OzvtB7thGHiKQjUMqQcBzXgCtq2q/EXT+EZVMeJ9dbBfF3x1dZWbN29SD8MTb19nHfKNTz/lf/7VX/H52bNtQcWZH0+jtM91+aNt0/J9MrHtVr3OQ8/j9+/e8S4IJtK+XruPLIvP83luWhYX4hczcIi/s+39PfLPn+8H8667n6HvIfGDf/3hh/z3ixe5sbqKqqqkNe3AjHwviX9KltanO15KCIvDoM/VJEiBfR/sxC8oR2XWz5dkV4GhtARm/XvNy/xo1li0+acggATzgnBsejNg8LOi9T3bbu+Rh59LRnWqUF/uKGl1lJ2mKGxkMtyyLODnUmI/NhqE8XXHcZ2D7J7V69SrVYytLdQ//pHo+++Jnj2j7rq8Xl7m/o0bPL5zh/qdO1y9cYMP19cP3GYQhiFBELCzs8N3333H3f/9v3n57/9O9flzoiiiBpR7lht31t0uFouUy2UAXm5uUq1UBrLr9/nLYpG78YN8c3OTSny+w+zeHdG+169fT6x9nXXI//vyMpeKRTKKQqpHzXzWxtOo492LIu43m7zzPJbj3+Fto8GW57EXBJydYPsOUpMfWFjOdQ/MxPfDVBRWdZ2LqRSapg1c87jTPwmCIAiCsFhIMC9MnCAIqNfrlMtlHjx4wObmJvYBGSnbttnc3GRtbY1yuUy9XiebzQ48iZ00/TL09xsNfh+X0Kr4PmlV7VKhToKHS7Hw1lF2n2SzfFEoAPBttcoPsXr3uK/Ta/cyisiHIcbeHteePOHss2dorRYv4z3yjz/7jOCzz7h64wb/17lzXO1QQ+8k6f/nz5/zr//6r3z99de8efOmK2PSL3sSRRG1Wo2HDx8C+2NkULtFPV9vHfJflEp8nMmQiX/7WR1Pxxnvj1stfmi1MOOXIE6jQS6d5soU2neQmnwng/q7fsybHxSmw6DjzPM8arVa++/jMuvnSxTJk7+n1Y5xn0/8wmgs6vxTON1IMC9MHN/3sW2bSqXCzs5OV6axE8/z2N3dbe8Ttm0b0zRnVoSkN0PfCkPuNxo8aDRQ46AjjCJuWha3OtSuExtTVQey66xrbigKfhSdyHV67fKGgRYvB15/9w7DtmmlUmwtL/PdjRu8+fhjPrt2jQ/X17l6SIYy6f9yuczjx495HmfkB8V13feWxB2HeT9fUof88ePHlMtl/EaDlUwGw7Jmejwdd7w/8v2f98L6PjfDcCrtO0hNvpNB/V0/5s0PCtNh0HGW1NkeF7N+vmH2yZ9kO8Z9PvELo7Go80/hdCOvmISJ01nn03XdQ7OSvXU+x/FG+6RJMvS3czmKuo6qKIRRRBhFqIpCMV6W+2lP5npYu0ldJyGnKFzXNK5rGjlFwdV1Krkcr1ZWeHT+PPb589xYXn7PrpdB+18YjH73yayPp2O3D4gUhUhRUGHq7evHccf7vPpBYbKIXz1diF8YjUWffwqnE8nMC1NjkMlO6gfGAAAgAElEQVTGqG/VhRMgilDCEMIQoohAVWmZJtVslkqhgJHN4g0hrCX9Oj7kPpl9jtM/0r/CoMg4OT2IXxgdmX8Ki4Rk5oWJ01nn0zCM98S/OlEUhVQqNVd1PpM68vdsm4rvtzN5SWavEgtqfW/bbUGtUewmdZ2EehjyqNnkUbNJvaeOeQh97XoZpv+FwTjoPpn18XTs9gFKFKFE0aHjb9Lfq5dxjPd59IPCZBG/evoQvzA8iz7/FE4nkpkXJo6qqpimiWmaA4mJDHv8pElUru0gwAlDnrRafFutcr/RIK2q3LQsinHGOhHOut9ooAL1IGA9LmO1FZcEO8pOYb8WOMB3Axw/6nV67arVKs9tm0KrxbkwZFlRsDSNs7rO+VSKZ7Gdrih4UcTldBpTVcnFJbSS2taz3p/ziqcovNM0XgHlVoutMBxoHE5rPB1nvJuqylVdx4zV4B3DwDzmdZJxe8E0iYCXjjPQ75dW1bboZec4TxjXeJf7RjgMGR+nE+n34Vi0+acggATzwpwwy0ud9nyfe7Uam80mrz2vrXztxwHtLcvidizglZS0etJqsdls8p1tU4hrl1aDgBeOg6Yoh9r9udnkD9UqAGXPI3XE8aNep9dO2d1F39vjo2aTXwQB66rKsq6zkcnwRaGAmk7zpNXihePwpNXicjrNOcNgI5Phdj4v5bFOmHdBwJ8ch3e1GtVGg5dBMNA4nNZ4GnW8G4rCZdPcH3+xoNRby2LLMHh8jOsk43bFMParBHge95tNgiN+v9469Cc5zmfZDwqCMB3EL5ws8vsKs44E88LESVRdHcchjOuyH0YQBLiuO/Dxk8YOAjabTf6jVuOp47Dtuuz5PhdMk0+y2S417iVdR1cUXjgOT1sttl23vdclBPwoYiOTOdBOAf7cbPKXRoPH8dIwP4q4bll8aFn8ZmlpLNfpZ3emVuOi63IlDAmiCA3IqCrrqRSf5/M0s1leOA4vHAc7DqAuxdnRa3GdcBi+/4XBqAcBjx2HnXqdbeBNvGKk3zic9ngadbxfy2S4mcnwsWGQiUvFNS2L+4bBC8fhUXwPDtu+ZNymVZUoivCjiFYUcdE0u+rIJ3ZpVe2qQw8cmKEf13ifdT8oTBfxq6cT8QvDsWjzT0EACeaFKdCpJup53qFvPXvVRAuFAplMZoKtPRonDHnteTyNM3utMGRJ17llWXwRBwCJ2vWnuRxeFPGk1aLq++x4Ho34AWGpKquG0deuGgT8oVrlcVyeC0BXFEqGwZ18fmzX6WeXiSIKmkZR10l17DNLVL+9QoEnrRZ2ELDn+7Riu4vpNE7HQ3CY/hcGI4oimmHItuOgt1psA76qHjoOpz2ejjPeb2ezfOj77MTHX89mOWOaPHMcakEwUvuScduM7VYMgw8ti7/O59+rI/9pLtcO3JM69P0y9OMY7/PgB4XpIn719CF+YXgWbf4pCCDBvCAIwkKgAIjo1ciEUYQThrhhiK4oLMWl5w6qI5/8nbykSl5ebbsu267LDcngCIIgCIIwASSYFybOQWqi/d6OzoOaqKmqnDOM9pLyZJn9/UaDb6tVDEVpL8/93rbbolo7nrcfNMR7e0Ngx/P62n1Xq1H2PPwoQu9Ydlz2PL6r1Sho2liu088upShUg4CK7+N29Fei+p3Y7fk+S7rOWirFJdPkXCxOljBM/wuDoSgKaU1jLZUil06T5udl9rM6no4z3u/V63i+TybOhm/V69x33bG0b8UwyGkat2ItiH515JMVKcnY3nZdzmgaYc9YHsd4nwc/KEwX8aunD/ELw7No809BAAnmhSmwaGqiOU1jI156dTEWgUuEx36o1/GjqL0ENxHO8mPV7Aum+Z5Q12F2KUXhumVRih8qiWDZT40GEYztOgfZKVGEnkqRUVU0RSEA3DBky3W5W6u1z3XBNLllWV0CeLn4HDD7/Tmv5FSVq6bJ+WyWqqZ1CeDN4ngadbwbisKDZpOq57EcT8LeNhpsGQY+HLt9STD/kWW9l5HvJK2qXRn6bdcljCLWUqkuRXtRsxcmgYyP04n0+3As2vxTEECCeWFOmOUMw5Kuczuf55pldZWm+6Febwf2v4+FupKSVpfTaT6yLD7P598rofVjrJLdz+5Dy+JOPg/sl+r66YjjR71Or13VNHn+9i2FODh3w5C3vs9ms8m31SrPYgX7T7JZvigU3itNJ5wsBVXlI9Pkr/N59Gy2XZruqHE4rfF0nPH+uNXih1YLM87YO40GuXSaK2No33nTRFcUCvHqkqNIMvTJ0vp0rFVwEsyyHxQEYTqIXzhZ5PcVZh2ZYQsTZ9HURDszdADLhoERi3bdbzR40GigxkFHGEXctCxuWRZ/F6uFJ7bbrktW0wjhULtOlfGCphEdcfyo1+m12221WM7lIJ0mq6r4UUQjCNj1fV66Lq0w5JZltdXC+wVCorp8MuhRxJkg4ANgOZ3mA00baBxOazwdd7w/8n2U+PjI97kZj79xtW9Qeu//XkTNXpgE4ldPJ+IXhmPR5p+CACBrRoSJcxw1Uc/zJtjS0UgydbdzOYq6jqoohFFEGEWoikIxFtbq3Ys7rN2krpOQVVWuZjJczWTIdiybh31H0s+uF1FdHj8H3SezPp6O3T4gUhQiRTl0/I3avnFxEmr28+AHhckifvX0IX5heBZ9/imcTiSYF6ZGklU76phBjhPmD+nX8SH3yexznP6R/hUGRcbJ6UH8wujI/FNYJCSYFyZOp5poKpXq6ywTR5ocPy9qoom6+z3bpuL77QxgkhGs+D73bJvvbbstxDWK3aSuk1APQx41mzxqNqkHQdd3DqGvXS+D9r8wGP3uk1kfT8duH/uijEoUHTr+Rm3fuDjueJ9XPyhMFvGrpwvxC6Ox6PNP4XQie+aFiaPrOrlcjmKxyOrqKsVikVqthuu6XccZhkE+n6dUKlEsFsnlcugzLKTWikuBPWg0+CYud5VWVW5aFsW43YngVvJvpqq2a1U/abUGstMVBS9eGvbtCV6n126n2eSnep10q8W5MGRZUbA0jbO6zvlUimc9drC/xLlT2RsG7/9+qKrafqh6nnfsfWzzfr7e+0S3LN6EIY8cZ6bH03HGu6mqXNV1zHjMOHH5w3G0Dw4et6Ny3PE+b35QmA6DjrN593fD0pldjaJo4O0Hs/69xC+MxqLOP4XTjYxMYeJomkY2m6VUKnHz5k1ev37Nw4cPqVQqXcflcjk2Nja4ceMGpVKJbDaL1rNXe5ZIMoDfVKv8bm+PPd/ncjrNLcvidizglZTCetJqtbOAT9NpYD/oGMTuhePwpNUCaJfVOonr9NrtvXvHI9tmrdnkF0HAuqqyrOtsxPW41bgsX2LnhOGBgmKD9n8/kocsQK1Ww3Gcofpp0c7Xe594psmfmk3+3bZnejyNOt69KOKyae6Pv/i3eGtZbBkGj8fQvn7jdlSOO97nzQ8K02HQcTbv/m5YkuwqMJSWwKx/L/ELo7Go80/hdCPBvCAcEzsI2HZdHjQa7VJge76/X7Iul+PLQqGtxp1k/JJlw/dsux2oJJ/1s1OBzWaTp60W1Tjw2PE8LpgmH3WocR/3Ov3ssG1C32ct/t4akFFV1lMpPs/n8XK5Ljs/ivBitfC1VKqr1rwwfpwoYicIeNdq8W2txn8eMQ51ReGF4/DCcbDjbRN7vs8F0+STbLZdlSA5ftzj6Si7fu07n0rxkWVxy/PIxCXmmpbFw1RqLO0DTiRDLwiCIAiCMG4kmBcmThAE1Ot1yuUyDx48YHNzEzueRHdi2zabm5usra1RLpep1+tks1nUGZtcb7su//T27f5S3maTIM5s3s7l+M3SEjctq62S/Wku1w4UkoBjNw7Mz+r6oXb1IOA722bbddmJVVV1ReGCafJ5Pt+lxn2c6/Szu9Bs8qs4E98ZmCdq4ebSUpfdc8fhcbPJl4UCv11e5lomAwze//3wPI9ardb++7jM+/mS+0RbXcV6/hy1UODf6nVqR4xDL4p40mphB0E7K72k69yyLL6IA96THE9H2R3avnyeS47DTnz89WyW85aFqij8Z71+rPaNO0N/3PE+L35QmC6DjrN593fDkiiSJ39Pqx3jPp/4hdFYtPmnIIAE88IU8H0f27apVCrs7OxQqVQOfMh6nsfu7i7lcplKpYJt25imOXMiJHYQ8LDZ5Id6nSeOs58BjAOIy+l0VzCwlkrhhCFP4yXpu77/c+Y7nT7Ubt00KWgaKtCI99staRoFTWPdNMd2nX52Gc9r75E3OkRjkjrbTjrdZbfn+/hhyIph8OsOwbxB+78fSZ3YcTHv50vukxflMg8rFdK2TSMIWDLNdiY6WR2RsJZKtfv/hePQisdT5+e9x8N+gOtHEc8dpx30rhgGn2Szfa8zql2/9l1Kp7lkmpwLQ6rxODxnGKxkMrhAACO1D/az+K0wZNt12XZdboyhrvBxx/u8+EFhugw6zubd3w3LMPvkT7Id4z6f+IXRWLT5pyCABPPCFOis8+m6bt8HbfJ5Z53PQqFAJs7wCvPJoP0vDEby+wW+T8txWAoCPrUsLuXz72WiOzFVlXOGwSXTbH92yTQ5F4vJ9ZKswPCiiMfNJn4c6N6KNRP61Wkf1W7Y9p3RdX6ZyxHASO1LzrntupzRNMIxjcvjjnfxg8IgiF89XYhfGA2ZfwqLiATzwtQYZLIx6lv1SZLTNK5lMrzxPHRVJYgi9uKM9qVWC1NV20FE8nmynPesrkMs1HVW1w+123IcqkFACFhx4BEC1SBgy3HYdt2xXKef3XIQ0AgCdn2/rS4OsYq/675nt2IY3MpkuNazLD9h1vt1noiiiJSisKppXE+nOZvPc/mATHQnOU1jI56YXIz7+JxhvLeNIiFZgXHTsviyUGAlzlBcy2QOvc6odv3adzWd7tu+rKaN3D7Yz9Bvuy5hFLGWSo11v/xxxvs8+EFhNpBxcnoQvzA6izL/FASQYF6YAp11Pg3DQFGUvg5TURRSqdRM1/lcS6X47fIylzOZtgDeQXtvgQPV7m/3BNL97O7WarxwHPwoYjX+HXY8jxeOw91ajaymjeU6/ewIQ976Ppuxmn1CW8V/b6/L7pNsli8OCCiH6X9hMBRFoZhK8VmhwBdnz3LmzBnOZDIHZqITlnSd2/k81yyrvczcVFVymnaoXTLek60TOU0baF/5sHb92pdVVfKKQr9d56O2L8nQJ0vr0x0vuY7DOMb7PPhBYbqIXz19iF8YnkWbfwoCgO77PkEQtP+Loqg9uDv/GwdhGL53vuT/wzAUYYlTQuIgU6nUQH2uqmr7+FmcoGRVlY10mqyqorGv8r7reezG6thJ/Xn4uRTWru+zpGn8MpvlckcJraPsVEXhalxeC+JSYsCPjQYhjO06B9ntOg6PNY3k1w8ANwzZcl3u1mrcs+0uuy8KBX7ZISCW9Nuw/S8MRpJhvpxOUzBNzHji0e9+MRWFc4bBuT4TlH52yXgf9PhR7fq1LwxDwjCk1uc5Mmr7kusNa3cU4xrvs+4HZ4XTOs8Qv3o6Eb8wHIs2/xROhkk9R8YVZ+uO4xAEAY7jdNXgTCZMYRgSdGThjkMURe0XBsl1ks+Sv4XFp/PF0SAkN0/nS6dZJK8o/CKTIQWEUcT39TqPWy3uNxr8Pi6hVfF9TFXlsmnyaTbLV4VCe0/wxVRqILuPYjVvgG9rNX5sNE7kOr12b5pNzmazZOIXF25Hpv7bapWnrVaX3c1MhryivNdfw/a/MBjzcp8cl3l7joxrvJ+W/j0u8zY+xoX41dOJ+IXhWNT5pzBeJvUc6Yy1k2T6KOj/8i//QhAEeJ7Hf/3Xf/Hu3TtyuRzVapW3b9+SSqXQxlQfOvlRqtUqfpwJrFarwP7bslG/hDBftFot9vb2qFQqA6m7Oo5DpVLh9evXOI5D+oCsWye9zhdA07T2+Oq8ITVNQ9O09lu2Uew6x60GLHse1+LycT+0WjzyfZJ3eCFwVddZV1WuuS7LjQbZuEzNoHa3PI9L8e/2zvPYPaHr9NoFjQbnPQ8jCEhHEX4UtffQv3Qc7Fary07zPGx4bzn0sP0vDMaw98m8Mm/PkXGN99PSv8dl3sbHuBC/ejoRvzAcJz3/FBaDST1HgiDAdd32dUbdyqH/wz/8Q7vR79694/nz51y+fJlXr17x8OHDsS/ZiqII3/dpNpsAvHr1inK5vLAPWOF9Go0Gb968YXNzk3q9fugbriiKqNfrbG5uUigUWFlZwYqXmPcjCAJarRatVotGowGAZVno8f5X3/e7Pk+n020HPYpd78suJ4rI+D7LUYQZ3/RhPL6VKMJ0XZYdh8zeHju63i6vNawdMJHrJHbRu3foOzsUbBs9dm5xJ6FAX7tehul/YTBGuU/mmXl6joxjvJ+2/j0u8zQ+xoX41dOH+IXhOen5p7A4TOI5EoYhruvy6tUrms3m6MH82FokCFPGdV1s2+bt27e8evWKSqXSDr4zmUz7JvE8r31zWpZFoVBgeXkZgLdv31KtVgeyKxaLfPDBBywvL5PL5UgNILIlCIIgCIIgCIIwDvS///u/71pm/4//+I9kMhk++OADrl27dmLL7F+9egXABx98QKFQWOjlb0I3rVaLc+fOUa1WyWazR6qJ5nI5NjY2+Pjjj1laWuq7zKlSqfDw4UNevHjBv/3bv/H06VN83yeKInRd71pK7/s+iqKg6zorKytcu3YNgIcPH/LmzZuB7C5dusSvf/1rVlZWWF9fp1gsAvDa89iq13nbaOA0GkSdy9gVBccweGtZNC2L69lsW3RrWDtgItdJ7Kpv3vCs2aSay+Hr+s9vAhWFCHBSqQPtjtP/wmAMc5/MO/P2HBnHeD9N/Xtc5m18jAvxq6cP8QvDc1LzT2GxmNRzJFlmXy6XycSleEdB/81vftMWwAP453/+ZxRFaWcrTdMcazCf7Dkul8sAFAoFisVi195kYbFxHAfTNCkWi5ixuNphpFIpisUi586do1AovGeT7HN/+/Ytz54948cff+T+/fs8f/68S0G9k87P37x5g+u6ADx69IhKpTKQXbPZ5OzZsywvL7OxsYGZz2NHEW8dh4eex5bnkUunuRmGFONl8YnA3JZh8DCV4rxlkYu/z6B29w2DM7HNfddlyzBO5Dq9druNBi8Ng4ymcVVRyCkKlqZxVtc5b5r46XSX3Uomwxldf69W97D9LwzGUffJojBvz5FxjffT0r/HZd7Gx7gQv3o6Eb8wHOOefwqLyaSeI0n8XSgU2lt6R0E3TbPd4KTmoqIoqKra/m9cwXwY1+/tfKuhKEpbSEzKqZwOEvG4YW6GZBwm/3WS7JFPMvJ/+MMfePPmzXslJQ4iiiJqtRqbm5sA2LY9sN2bN2/4wx/+gKqqXL9+HW1lhb+EIX9stfj9u3fsBQFX4jJyt+M67knpt8dxnXdVUXjeUTJuELsXjsOz+OVbUpruJK7Ta7dbq/G4Xmet1eLTMOQDVWVZ19nIZPiiUEBNp7vsXOCXuRzZnv4apf+FwTjsPlkU5u05Ms7xfhr697jM2/gYF+JXTy/iFwZn3PNPYTGZ1HMkiqL2+Y7ju/XkTUDvAE++wDiXE6iq+p70fufLA3kInQ6iKMJ1XVzXbd8wh5EIRLiue2DphjAMqdfrvHnzhidPnnRl5AfBdV0qlcrQ36PZbPLixQt+fPyYezs7bL97x49RxJ89j3dBwFld53Yux5eFAp/GwfJSnKne8332fJ//rNd5Ggfme75/qJ0KbDabPHIcavELuB3P40Jcru7vlpbGcp1+dtTrhEHAevz9NSCjqqynUnyez+Plcl12Afu16G9aFmupFLn4IThs/wuDcdR9sijM23NkXOP9tPTvcZm38TEuxK+eTsQvDMe455/CYjKp58i44mwRwBMmjud5VKtVqtUqnucdqSaaHF+r1SgUCu/tK+k8X+JwJ0Fyndeex/+qVknv7vIsilB0ncvpNLdzOX6ztMRNy2Ipfmn2aS6HGb/Ru2fbPGm12I2V4c8eYVcPAr6zbbbjsnIAuqJwwTT5PJ/n01xuLNfpZ3eh2eRXcSY+1/F2eknX9+2WlrrsnjsOj5tNviwU+O3yMtfifhum/4XBGOQ+EabDOMa79K9wFOJXTx/iF4Zn3PNPQZgFJJgXpsYgb6LmQbCoHoY88TxotdiKIpbTaW7HAfPldJq1DpX7tVQKJwx5mk63A+Unrdb+Px5ht26aFDQNFWjEb5SXNI2CprFummO7Tj+7jOe198gbHX2SVtV9u3S6y27P9/HDkBXD4NfxSoJOZr1f54l5uE9OO8fpH+lfYVBknJwexC+MzqLMPwUBYDE3jwkzjWEYFAoFCoUCqVSqr7NMHGlyfD6fP7AG46DnGzedS2502a84MNPqr0Vl0PtEmA7HHe/Sv8IgiF89XYhfGI1xzz8FYRaQzLwwcXRdJ5fLUSwWWV1dpVgsUqvV2oryCYZhkM/nKZVKFItFcrncgWqPg56vH6qqdtWSH3S/YdK+86USt4pF1EIBy3EIFYW9OKN9qdXCVNX2Mvbk8yexUNxZXYdYYO6srh9qt+U4VIOAELCScnlANQjYchy2XXcs1+lntxwENIKAXd/H61ia1gpD9lz3PbsVw+BWJsO1nmX50+qvRT3foPeJMB2OO96lf4VBGHSczbu/G5bO7GpSbmoa7Rj3+cQvjMa455+CMAvIyBQmjqZpZLNZSqUSN2/e5PXr1zx8+PA9EbqkvueNGzcolUpks9kDlUQHPV8/EqcNUKvV2mUajyJp3+cffsj/uHKF1Po6/16r8adGox3UAjhh2BaY+962+aZa5Xd7e+z5/v7e9Z5Aup/d3VqNF46DH0WsxpOCHc/jheNwt1Yjq2ljuU4/O8KQt77PZrPJLzqWze/5/r7d3l6X3SfZLF8UCm0BvGn316Keb9D7RJgOxx3v0r/CIAw6zubd3w1Lkl0FhtISmPXvJX5hNMY9/xSEWUCCeUE4JllV5bJhULIsDEXB6FCDv2fb+5nrOHBOSr/t+T5LsZr85Y6ScUfZaYrCRibDLcsC4tJ0UcSPjQYhjO06B9ntuS6POt5MB4Abhmy5LndrNe7ZdpddopLfGcgLgiAIgiAIgjAeJJgXJk4QBNTrdcrlMg8ePGBzcxPbtt87zrZtNjc3WVtbo1wuU6/XyWaz79V3HPR8/fA8j1qt1v57UHrbd/7KFT7OZMjEAW+i6n6/0eD3e3sAVHyftKp2qcknwfKlWGjuKLsk4w3wbbXKD/X6iVyn127HcTiby5GOl827HZn6b6tVnrVafVXyO5lWfy3q+Qa9T4TpcNzxLv0rDMKg42ze/d2wJIrkyd/Tase4zyd+YTTGPf8UhFlAgnlh4vi+j23bVCoVdnZ2qFQqBz5kPc9jd3eXcrlMpVLBtm1M03xPhGTQ8/UjDMORlrz1ts9vNFjJZDAsCycMaYUh9xsNHjQaqPGevTCKuGlZ3LIsvuxZgm6q6kB2f3vmTHtZvKEo+FF0ItfptStkMijZLKTTZFUVP4rae+hfui6tMDzQrpdp9deinm/Q+0SYDscd79K/wiAMOs7m3d8NyzD75E+yHeM+n/iF0Rj3/FMQZgF5xSRMnEHrwicP4c46nwe90Z5mnfmD2pfUXb+dy1HUdVRFIYwiwihCVRSK8TL0zrrwwNB2k7pOQlZVuZrJcDWTIduzd0yFvna9TKu/FpVB7xNhOhx3vEv/CoMgfvV0IX5hNMY9/xSEWUCCeWFqDDLZGOat+jQmL6O+9Rem01+LioxDQRBA/OppQvz+6Ix7/ikI00SCeWHidNb5NAzj0Hq4iqKQSqUGrjN/1PnGzUHtS9Td79k2Fd9vZ7yTDHglFp77PhaMSxjWblLXSaiHIY+aTR41m9Q71Oxhv0ReP7teptlfi8og94kwHaTOvDAJxK+ePsTvD8+455+CMAvInnlh4qiqimmamKY5kJjIUccPe75x4ykK7zSNV0C51WIrDPm2WuV+o0FaVblpWRTjZeeJwNz9RgMVqAcB66YJwFZcYu4oO4X92vIA3w1w/KjX6bWrVqs8t20KrRbnwpBlRcHSNM7qOudTKZ7Fdrqi4EURl9NpTFUlp2ks6TrpuG+m3V+Livyus0lS17hUKnHlyhW2trZ48+YNjUbjyKyPoihYlsXKygpXrlyhVCpJvWPhQOT+P51Ivw/HuOefgjALyIxAmAtmeanTuyDgT47Du1qNaqPByyBol4y7nE5zy7K4HQvWJaXfnrRabDabfGfbFOL959Ug4IXjoCnKoXZ/bjb5Q7UKQNnzSB1x/KjX6bVTdnfR9/b4KK4zv66qLOs6G5kMXxQKqOk0T1otXjgOT2Jl+3OGwUYmw+18XkrUTYBZvk9OK0ld44sXL/LVV18B8PXXX/P8+XNgv896s0PJZ4qisLKywt/8zd/w1VdfcfHiRal3LAhCF+L3Txb5fYVZR4J5YeIkqq6O4xCG4ZHHB0GA67p9jx/2fOOmHgQ8dhx26nW2gTdx3fYLpskn2WyX+vySrqMrCi8ch6etFtuu297rEgJ+FLGRyRxopwB/bjb5S6PB43jy70cR1y2LDy2L3ywtjeU6/ezO1GpcdF2uhCFBFKEBGVVlPZXi83yeZjbLC8fhheNgxy8MLsVZ/WuW1f69pt1fi8pR94kwHVRVRVVVVldXuXPnTvvzx48f43keURRhGEY7QA/DENd120vrr1y5wldffcWdO3dYXV2VpZ7CgYhfPZ2I3x+Occ8/BWEWkGBemDidaqLJZLYfvWqihUKBTCYz8vnGTRRFNMOQbcdBb7XYBnxVZUnXuWVZfFEodKm7f5rL4UURT1otqr7PjufRiB8Qlqqyahh97apBwB+qVR7H5egAdEWhZBjcyefHdp1+dpkooqBpFHWdVEcmMVHH9woFnrRa2EHAnu/Tiu0uptM4HQ/BafbXojLIfSJMl3w+z/Xr11laWuLatWuUy2Wq8Qqbzv30jhNYG/8AACAASURBVON0fV4qlbh48SKrq6vk8/lpfgVhhhG/evoQvz88455/CsIsIMG8IBwTBUDEhgRBOIRUKsXy8jKFQoG1tTVs26ZWqwH7gb4Zr2JxHKfr81wuRzablYy8IAiCIAjvIcG8MHEOUhPt93Z0VDX7SWUlFEUhrWmspVLk0mnS/LzM/n6jwbfVKoaitJexf2/bbXG8Hc9DVxSWkuW1wI7n9bX7rlaj7Hn4UYTescy+7Hl8V6tR0LSxXKefXUpRqAYBFd/H7fh9E3X8xG7P91nSddZSKS6ZJucMA7NDOGaa/bWoiOru/JDsoTdNk0KhAOzfE4m4UhiGXZ/rui575IUjEb96+hC/Pzzjnn8KwiwgwbwwcRZNzT6nqlw1Tc5ns1Q1rUsA74d6HT+K2qXaEoE5P4q4YJpcMM33hOkOs0spCtcti1L8UEkE8H5qNIhgbNc5yE6JIvRUioyqoikKAeCGIVuuy91arX2uC6bJLcvqEsDLdQQj0+6vRUV+1/kg2UNvGEbfJZuylFMYFrn/TyfS78MhavbCIiLBvDAXzHKGoaCqfGSa/HU+j57NtkvT/VCv86TV4n6jwe/39oCfS79dTqf5yLL4PJ9/r2Tcj7GafD+7Dy2LO/He2e9qNX464vhRr9NrVzVNnr99SyEOzt0w5K3vs9ls8m21yrNYwf6TbJYvCoX3StMJJ88s3yeCIAjC+BG/f7LI7yvMOjLDFibOoqnZ61HEmSDgA2A5neYDTcOIReruNxo8aDRQ42XxYRRx07K4ZVn8Xaw+n5Rs23ZdsppGCIfadarWFzSN6IjjR71Or91uq8VyLgfpNFlVxY8iGkHAru/z0nVphSG3LKutjt+vFN20+2tREdVdQTi9iF89nYjfHw5RsxcWEVkzIkyc46iJep53rPONm4Pal6i7387lKOo6qqIQRhFhFKEqCkVd53Yu16UiDwxtN6nrJGRVlauZDFczGbI9e3hV6GvXi6guj59B7hNBEBYX8aunD/H7wzPu+acgzAISzAtTQxlAAV5RlIGOG/R842aY9gndyO82PmQcCoIA4ldPE+L3R2fc809BmCYSzAsTp1NNNKmtfBCJI02OH0TN/rDzjZt+7UvU3e/ZNhXfb2e8kwx4xfe5Z9t8b9tt4TlgaLtJXSehHoY8ajZ51GxSD4Ku3yKEvna9TKu/FpVB7xNBEBYX8aunC/H7ozHu+acgzAKyZ16YOLquk8vlKBaLrK6uUiwWqdVquK7bdZxhGOTzeUqlEsVikVwuh37A8u3kfKVSiStXrrC1tcWbN29oNBpHLjVMnHUu3oNu2/ZASxQVRcGyLFZWVrhy5QqlUgndsngThjxyHL6Jy7SlVZWblkUxbnciMJf8m6mqOPE+rCet1kB2uqLgxe379gSv02u302zyU71OutXiXBiyrChYmsZZXed8KsWzHjvYX9Kf7lGAHbT/+5EogcP+krnj7mOb9/MNep8IgrC4DOpX593fDUtndjWKooG3H8z69xK/Pxrjnn8KwiwgI1OYOEmd5VKpxM2bN3n9+jUPHz6kUql0HZfL5djY2ODGjRuUSiWy2eyB9ZaT8128eJGvvvoKgK+//prnz58D+w/w3revyWeKopDP59nY2ABgc3OT3d3dgexWVlb4m7/5G7766isuXryIZ5r8qdnk322b3+3tsef7XE6nuWVZ3I5fFiSl3560Wu3s9dN0GtgPsgexe+E4PGm1ANpl5E7iOr12e+/e8ci2WWs2+UUQsK6qLOs6G5kMXxQKqOl0l50ThgcK4Q3a//1IHrIAtVoNx3EGslvU8w16nwiCsLgM6lfn3d8NS/LCHhhKS2DWv5f4/dEY9/xTEGYBCeaFuSep27y6usqdO3dwooidICAslQh8H1NRWDIMMrEjDsMQ13XbD/lSqcSNGzeohyGt5WX8cpkwDLEUhXOG0a6R3mt35coVvvrqKzY+/ZQ32Sw/NRrtkm97vs9SLAj3ZaHQVp9PMtXJMvl7tt0OzJPP+tmpwGazydNWi2ocMO94HhdMk4861OePe51+dtg2oe+zFv/uGpBRVdZTKT7P5/FyuS47P4rwYnX8tVSqq9a8IAiCIAiCIAjHQ4J5YeIEQUC9XqdcLvPgwQM2Nzexbfu942zbZnNzk7W1NcrlMvV6nWw2i6oeLPWQz+e5fv06Xj7PzgcfUCiXcV2XVU3jTqHAWrw/ynEcqtUqAIVCgWKxSKlU4onn8fbxY/xKBT8IuGwY/I9CgSt97EqlEhcvXuRNNsv/22zy3e4uLxwHTVG4nE5zO5fjN0tL3LSstrr7p7lcewl6EijvxoH5WV0/1K4eBHxn22y7LjuxqqquKFwwTT7P57tU5I9znX52F5pNfhVn4jsD80Qd31xa6rJ77jg8bjb5slDgt8vLXMtkhur/fnieR61Wa/99XOb9fMPeJ4IgLB6D+tV593fDkiiSJ39Pqx3jPp/4/dE4qfmnIEwTCeaFieP7PrZtU6lU2NnZoVKpHPiQ9TyP3d1dyuUylUoF27YxTbOvCEkqlWJ5eZnz6TR/lc2yt7tLudEgreusnT3Lh9ksZ3QdpeOhms/n0S0LzzR51WigWhZRtQpBQDqdHsjup0aD73Z3+aZaxQ4CPjBNbscB8+V0umuZ+VoqhROGPI2XpO/6/s+Z73T6ULt106SgaahAI95vt6RpFDSNddMc23X62WU8r71H3ujYfpBW1X27dLrLbs/38cOQFcPg1x2CeYP2fz+SOrHjYt7PN+x9IgjC4jGoX513fzcsw+yTP8l2jPt84vdH46Tmn4IwTSSYFyZOZ51P13X7PmiTzzvrfBYKBTJxhrcfqqqSMgzcVIpHrRYvo4izUURaVfnUsijpOoVCAdjfx/YmDPf3utdq/MVxeBkERFGEFUX8GEWcPcLubq3GC8fBDgJ8qe17JIP2vzAYo94ngiAsDuJXTxfi90fjpOefgjANJJgXpsYgk41R3qqnNY3zmQwXPY9Nz2PP9/nJ8zAdh0Img2maLJkmsL9//JHj8O+2zZ8aDUJFoRj/m6Lr/NnzsI6w+7HRQFMUPoj/7ayusxdntC+1Wpiq2l7GnnyeCMWd1XWIBeaOsttyHKpBQAhY8VKvEKgGAVuOw7brjuU6/eyWg4BGELDr+201fYBWGLLnuu/ZrRgGtzIZrvUsy+/sW2E8jJp9EgRhsRA/cHoQvz86JzX/FIRpIMG8MHE663wahoGiKH0dpqIopFKpoep8tvdw9+z97lVZB/jetvmmWu1Sd7/dE9jOil2yAsCPIlbj32HH83jhONyt1chq2om2jzDkre+zGavZJyR167/Z2+uy+ySb5YtCoS2AN0r/C4Mxyn0iCMLiIH719CF+f3hOev4pCNNAgnlh4qiqimmamKY5kJjIsMcne7iBdo30TpX1Vhi2A9mkFFunuvvljhJus2anKQobmQy3LAv4uTTdj40GYfw9T6p9e67Lo446qwHghiFbrsvdWo17tn2gSn5vabph+1MYDPldBeH0Ivf/6UT6fThOev4pCNNAgnlhLhglw9AvQ3+/0eD3e3sAVHyftKp2qbsnweulWPht1uySjDfAt9UqP9TrE2nfjuNwNpcjHS+bdzsy9d9Wqzxrtfqq5AuTQTJxgiAIpwvx+yeL/L7CrCMzbWHiJKqujuMQxpnzwwiCANd1Bz4+oTdD3wpD7jcaPGg0UGM19jCug37LsviyZ0m4qaozafe3Z860l8UbioIfRRNpXyGTQclmIZ0mq6r4UdTeQ//SdWmF4YF2x+1/YTBGvU8EQZh/xK+eTsTvD8ek5p+CMElkzYgwcTrVRD3PO/StZ1IjNlETHaU+a5Khv53LUdR1VEUhjCLCKEJVFIrxsvDOOu3zYDfp9mVVlauZDFczGbI9gnYq9LXrZZj+FwZjHPeJIAjzi/jV04f4/eGZ9PxTECaBBPPC1FA6apUfdswgxwnzh/Tr+JD7RBAEEL96mhC/Pzoy/xQWCQnmhYnTqSaaSqX6OsvEkSbHj6ommqit37NtKr7fzkAnGelKLAT3fSzgNi92k25fPQx51GzyqNmk3qFmD/sl8vrZ9TJo/wuDMa77RBCE+UX86ulC/P5oTHr+KQiTQPbMCxNH13VyuRzFYpHV1VWKxSK1Wg3XdbuOMwyDfD5PqVSiWCySy+XQhxBUS1TaHzQafFOtcr/RIK2q3LQsivF5EsG35N+S/eSwr/o+i3a6orTrvH87wfbtNJv8VK+TbrU4F4YsKwqWpnFW1zmfSvGsxw72l/SnexRgB+3/fqiq2n6oep537H1s836+494ngiDMP4P61Xn3d8PSmV0dpm74rH8v8fujMan5pyBMEhmZwsTRNI1sNkupVOLmzZu8fv2ahw8fUqlUuo7L5XJsbGxw48YNSqUS2WwWrWev9mG065/31E2/ZVncjgXkklJsnXXXn3aUcJtFuxeOw5NYkT4pTTeJ9u29e8cj22YtrjO/rqos6zobmQxfFAqo6fSB9et7hfAG7f9+JA9ZgFqthuM4A9kt6vmOe58IgjD/DOpX593fDUuSXQWG0hKY9e8lfn80JjX/FIRJIsG8sHDYQcC26/Kg0WiXbjuo/jn8nDnurLueBMrJZ7NipwKbzSZPWy2qccC843lcME0+siz+bmnpRNuHbRP6Pmvx76wBGVVlPZXi83weL5frsvOjCC9Wx19LpcjJg1AQBEEQBEEQxoYE88LECYKAer1OuVzmwYMHbG5uYtv2e8fZts3m5iZra2uUy2Xq9TrZbBZVPVzqYdt1+ae3b/eXkjebBHHm+qD65wfVod+NA+Wzuj5TdvUg4DvbZtt12YlVVXVF4YJp8nk+36UifxLtu9Bs8qs4E98ZmCfq+ObSUpfdc8fhcbPJl4UCv11e5lomM1T/98PzPGq1Wvvv4zLv5xv1PhEEYXEY1K/Ou78blkSRPPl7Wu0Y9/nE74/GSc8/BWEaSDAvTBzf97Ftm0qlws7ODpVK5cCHrOd57O7uUi6XqVQq2LaNaZpHipDYQcDDZpMf6nWeOM5+BjoOYC+n013LvtdSKZww5Gm8RHzX93/ORKfTM2W3bpoUNA0VaMT77ZY0jYKmsW6aJ96+jOe198gbHaIxaVXdt0unu+z2fB8/DFkxDH7dIZg3aP/3I6kTOy7m/Xyj3ieCICwOg/rVefd3wzLMPvmTbMe4zyd+fzROev4pCNNAXjEJE6ezzqfrun0ftMlDWOp8LhaD9r8wGHKfCIIgfvV0IX5/NGT+KSwikpkXpsYgk41R3qrnNI1rmQxvPA9dVQmiiL04w3yp1cJU1fay8uTzRLjtrK5DLPh2Vtdnym7LcagGASFgxUu9QqAaBGw5Dtuue6LtWw4CGkHAru+31fQhrhrguu/ZrRgGtzIZrvUsy+/sW2E8jJp9EgRhsRA/cHoQvz86JzX/FIRpIMG8MHE663wahoGiKH0dpqIopFKpoep8rqVS/HZ5mcuZTFsA7yCVdeBAtfvbPYHtrNjdrdV44Tj4UcRq/DvseB4vHIe7tRpZTTvR9hGGvPV9NmM1+4R21YC9vS67T7JZvigU2gJ4o/S/MBij3CeCICwO4ldPH+L3h+ek55+CMA0kmBcmjqqqmKaJaZoDiYkMe3ySmc9pGoaioCtKl8p6Un8efi7F1qnufrmjhNus2WmKwkYmwy3LAn4uTfdjo0EIJ9q+PdflUUed1QBww5At1+VurcY92z5QJb+3NN2w/SkMhvyugnB6kfv/dCL9PhwnPf8UhGkgwbwwF4ySYWirrPeos99vNPj93h4AFd8nrapd6u5J8HopFn6bNbsk4w10rTw46fbtOA5ncznS8YsStyNT/221yrNWq69KvjAZJBMnCIJwuhC/f7LI7yvMOjLTFiZOourqOA5hrMp+GEEQ4LruwMcnJCrrsL+UvBWG3G80eNBooMZq7GFcB/2WZfFlz5JwU1Vn0u5vz5xpL4s3FAU/iibSvkImg5LNQjpNVlXxo6i9h/6l69IKwwPtjtv/wmCMep8IgjD/iF89nYjfH45JzT8FYZLImhFh4nSqiXqed+hbz3GoiSYZ+tu5HEVdR1UUwigijCJURaEYLwvvrNM+D3aTbl9WVbmayXA1kyHbI2inQl+7Xobpf2EwRHVXEE434ldPH+L3h2fS809BmAQSzAuCIAiCICwASrzKShAEQTgdSDAvTJyD1ET7MQ410URt/Z5tU/H9dgY6yUhXYiG472MBt3mxm3T76mHIo2aTR80m9Q41e9gvkdfPrpdh+l8YDFHdFYTTTadfTaVS4ldPAeL3h2fS809BmASyZ16YOJNSE01U2h80GnxTrXK/0SCtqty0LIrxMvBE8C35t2Q/Oeyrvs+ina4o7Trv306wfTvNJj/V66RbLc6FIcuKgqVpnNV1zqdSPOuxg/0l/emePhN12JNBfldBOL3ouk4ul6NUKnHlyhW2trZ48+YNjUajvZRYURQMwyAXa67Ytn2sJfmzfr7TgPj94RA1e2ERkWBemAtGeZi365/31E2/ZVncjicLSSm2zrrrTztKuM2i3QvH4UmsSJ+UpptE+/beveORbbMW15lfV1WWdZ2NTIYvCgXUdPrA+vX9hPCE8SOTXkE4nWiaRjab5eLFi3z11VcAfP311zx//rx9jKIo5PN5NjY2ANjc3GR3dxfY9x29WcrOlwC9nyuKMvHzCQcjv83JIr+vMOtIMC9MnJNWE7WDgG3X5UGj0S7ddlD9c/g5c9xZdz0JlJPPZsVOBTabTZ62WlTjgHnH87hgmnxkWfzd0tKJtg/bJvR91uLfWQMyqsp6KsXn+TxeLtdl50cRXqyOv5ZKkYtF80R1+WQQ1V1BOL2oqoqqqqyurnLnzp32548fP24LdxmGQalU4saNGwCsra1RLpfb2W/DMNA6/LTrum273s+TLPpJn29rawvbtqlWq1QqFZrN5on+jvOG+P3hEDV7YRGRYF6YOMdREy0UCmQymUPPv+26/NPbt/tLyZtNgjhzfVD984Pq0O/GgfJZXZ8pu3oQ8J1ts+267MSTM11RuGCafJ7Pd6nIn0T7LjSb/CrOxOc61OwTdXxzaanL7rnj8LjZ5MtCgd8uL3Mt7jdRXR4/o9wngiAsHvl8nuvXr7O0tMS1a9col8tUq1UACoUCxWKRUqkEQLlcplKpdP17st/ecZyBPj/p8718+ZInT57wpz/9if/zf/4PL1++nMTPOBeI3x+ek55/CsI0kGBemBqDCPQkS++GwQ4CHjab/FCv88Rx9jPQcQB7OZ3uWva9lkrhhCFP4yXiu77/cyY6nZ4pu3XTpKBpqEAjfkO8pGkUNI110zzx9mU8r71H3ujok7Sq7tul0112e76PH4asGAa/7hHMA1FdHiej3CeCICweqVSK5eVlCoUCa2tr2LZNrVYD9gP9XC5HNpsFoF6vv/fvpmkC4DjOQJ+f9Plev37NBx98AMCDBw8kmO9A/P7onNT8UxCmgQTzwsQ5SHX3oLejiSNNjhc10cVg0P4XBkPuE0EQekn20JumSaFQAPZ9r67r7SXuB/17IvIVhuFAn5/0+VZXVwF49eoVuVxOnhcx4vdHQ+afwiIiwbwwcRLV3WKxyOrqKsVikVqt1t5Pl2AYBvl8nlKpRLFYJJfLoetHD9mcpnEtk+GN56GrKkEUsRdnmC+1Wpiq2l5WnnyeCLed1XWIBd/O6vpM2W05DtUgIASsZCIEVIOALcdh23VPtH3LQUAjCNj1/baaPsRVA1z3PbsVw+BWJsO1nmX5g/Z/P1RVbT9UPc879j62eT/fqPeJIAiLS7KH3jCMvkuDj/r3YT8/ifPl83lUVeX8+fOsra1N7Hkx688F8fujcdLzT0GYBjIyhYmTZAxKpRI3b97k9evXPHz4kEql0nVcLpdjY2ODGzduUCqVyGaz7Tf2h7GWSvHb5WUuZzJtAbyDVNaBA9Xub/cEtrNid7dW44Xj4EcRq/GkYMfzeOE43K3VyGraibaPMOSt77MZq9kntKsG7O112X2SzfJFodAWwBu2//uRPGQBarUajuMMZLeo5xv1PhEEQZh1pvW8mPXngvj90Tjp+acgTAMJ5oWFI8nM5zQNQ1HQFaVLZT2pPw8/l2LrVHe/3FHCbdbsNEVhI5PhlmUBP5em+7HRIIQTbd+e6/Ko4810ALhhyJbrcrdW455tH6iSL6XpBEEQBEEQBGH8SDAvTJwgCKjX65TLZR48eMDm5ia2bb93nG3bbG5utsvd1Ot1stlse6/dUbRV1nvU2e83Gvx+bw+Aiu+TVtUudfckeL0UC7/Nml2S8Qa6Vh6cdPt2HIezuRzp+EWJ25Gp/7Za5Vmr1Vclf5T+74fneW3BpKTk0nGY9/Md9z4RBEGYVab1vJj154L4/dGY1PxTECaJBPPCxPF9H9u2qVQq7OzsUKlUDhQg8TyP3d3ddrkb27YxTXNgEZJEZR32l5K3wpD7jQYPGg3UWKE0jOug37IsvuxZEm6q6kza/e2ZM+1l8Yai4EfRRNpXyGRQsllIp8mqKn4UtffQv3RdWmF4oN2o/d+PpE7suJj38x33PhEEQZhVpvW8mPXngvj90ZjU/FMQJom8YhImTmedT9d1+z6Yoyh6r87nKG+0kwz97VyOoq6jKgphFBFGEaqiUIyXhXfWaZ8Hu0m3L6uqXM1kuJrJkO3ZO6ZCX7teBu1/YTDGdZ8IgiDMGvK8OBjx+6Mx6fmnIEwCCeaFqTHIQzlxqMLiIf06PuQ+EQRhkRH/9j7i90dH5p/CIiHBvDBxOut8GoaBEi/xPghFUUilUseq85mord+zbSq+385AJxnpSiwE930s4DYvdpNuXz0MedRs8qjZpN6hZg/7JfL62fUyTP8LgzGO+0QQBGHWkOdFf8TvD8+k55+CMAlkz7wwcVRVxTRNTNMcSExk2OMTEpX2B40G31Sr3G80SKsqNy2LYrwMPBF8u99ooCsKXhTx/7P3bt1tG2ne7w8HAjxLpixatqW2bNmR20mn7Z2ZTr894+695qY/wJ6b/VHmE8yHmftZ78xVv/Ha7rg7aSeZxLE6kiVbsiVRMiWRIIgz9oUAhJJF8SCKIu36raUVB8RTB6BQqAdV9X+u6zoSsGHbPOnCTgYavs9VXQdgMwoVd152Eoex5QGenmM+x+1qtRrrhkHRsrgSBExJEllF4ZKqcl3TeHXsOs6n0+iyTF5RmFRV0tG96/d+Ck5HXFeBQPC+Ifq10xHXpzeGNf4UCIaJcOYFY0E/S52S+OfH4qbfzWa5HwnIxaHY1iyLddtmtdnkcvS1dtd1k9Bvp9mtNJs8NQyK0T7ymu+zYdsoknQudn9vNvlzrQZAxXXRzimf43bS3h7q/j73ojjzV2WZKVVlIZPh82IROZ1mzbLYsG3WImX7K6kUC5kM9wsFEaJuCIglgQKBQPBhIfr980VcX8GoI5x5wdCJVV1t2yYIgo7n+76P4zhdn398Rr5d/HMgmTHe9zzWbZtvDANVkpAkKUlnVtf5JJc7oiI/qaqoksSGbfPSsthynGTPSgB4YchCJjNQOwn4e7PJT6bJarQ0zAtD7mSz/DKb5Q+Tk+davol6nTnH4WYQ4IchCpCRZa5qGp8VCjRzOTZsmw3bxog+GNyIZvVvZ7N9339Bd/T6nARBgO/7eJ6XCPukUqlk9iEIgiPHVVVFiT7s9GI36PQkScL3fSzLwjRNACzLwnVdpOjZvcjydbKLfxezPAJBZ8T74nR67fc/dM57/CkQXATCmRcMnVY1Udd1T/3qeVxNtFgskslkTk2/3Yz8SfHPW+PQf1Wv86Npsus4wKGjOqmq3M1m+Tz6ANBq54Yha5ZFzfPYcV3MqKPPyjLTqdTA7Wq+z59rNVajcHQAqiRRTqV4UCice/kyYUhRUSipKlrLPrNYHd8tFlmzLAzfZ9/zsCK7uXQau+Ul2Mv9F3RHP89JHG/XMAxq0UqPYrGIHn2AsW37yPF8Pk8ulwPoyW7Q6Wmahu/77O/vs7u7C8CVK1fI5/PIsowsyxdavk528e/CmRcIOiPeF+3pp9//0Dnv8adAcBEIZ17w3mEFAVuOw1YU+7x1Rv54/PPWOPReGLLpOFQcBy8MkTmMuy4QvE84jkO9XmdnZ4f19XUqlQq1Wo0wDE90UiVJolgsUiqVKJfLAEns3dPs4GSn96zpaZpGGIZUq1VWVlaAQz2Hubk5ZmZmkCTpQsrXyS7Or1wuMzc3x/T0NIVCAU1sPxEIBAKBQNAnwpkXDJ2T1ETbfR3tV000CEMmFIX7+TwzmvbOjHwrycxyGLLabGL6PobvYwUBO9G++Se1GilJSpajf2cYiTjejuuiShKT0dLaAM7F7mm9TsV18cIQtWWZfcV1eVqvU1SUcy2fJknUfJ+q5+G03K94JURsF29pmNE0bug6V1KpZPVDr/df0B29PCf1ep2ffvqJp0+f8ujRI1ZXV3Gi1Sjtlo9rmsb09DSLi4sALC0tsbOz09HuPNOzbZtGowFAPp/n6tWrLC4uIknShZWvk52mady8eZOHDx/y4MED7ty5w9TU1Kn3ViD4kBHvi/YItfXeGcb4UyAYNsKZFwyd81YTTctyMuMuSxIzmvbOjPxJ5y9ms/y2WKSoqhi+z67rsmHbeGHI940GXhgmIddioTgvDJnVdWZ1/R2BufOw0ySJO9ks5eilEgvg/WiahHCu5ZPCEFXTyMgyiiThA04QsOk4fF2vJ2nN6jp3s9kjAnj5KI1+7qegOzpd13iP/M7ODk+fPuWLL77g8ePHrK+vJ4OZ42F6Wo+XSiW2t7cBWFlZoVqtdmU3zPQqlcqFl6+T3ebmZmI3OTlJsVgUe+gFgjaI98XpiOvTG0LNXvA+Ipx5wVjQy5f4SVXlfqGQ7NlOR3vfOzGjafxxaor/NTGBF4a8jkK4PYvU3Z+bJl/s7wM/h3CbT6e5l83yWaHwTui387L7ZTbLg0IBMyhL4QAAIABJREFUOAxN9+OQylfTddbfvqUYOedOEPDW81hpNnlSq/EqUrD/JJfj82LxndB0gvPntOck3iO/vr7Oo0ePePz4Mbu7u0ds2tmHYUi9Xmd5eRkAwzC6tvvQ0utkt7u7y+PHjwG4ffs2MzMzYg+9QCDoG7FS4XwR11cw6ogRtmDonLeaaOvMfC/kFYXbLeImW45DTlEIgOemyZJpIkczckEYspjNcjeb5feRinyc53nbtarWFxWFcEjl27MspvJ5SKfJyTJeGGL6Pnuex+tIn+BuNpuo47e7B0Kd+Hzo9Jx4nodhGFQqFVZXV4/MyHeD4zhUq9WBlfd9Ta+TnWmarK+vs7q6SqVSwTAMdF0XSzgFghMQ74vTEWrrvSHU7AXvI2IqQDB0zqImGu9NHQbxXvr7+TwlVUWWJIIwJAhDZEmiFAnrtarBD9Nu2OXLyTK3MhluZTLkWpbNw2FH0s7uOEKdePB085y0XnfHccR1vyDCMLzQfk0gGCfE+6I9oh/pnXEZfwoEvSCcecGFcXzfabtzujlPMH6I+zo4xHMiEAjeZ0T/9i6i3+8fMf4UvE8IZ14wdFrVRDVNa9tZxh1pfP6w1URjlfZvDIOq5yUz1/FMdtXz+MYw+M4wEgG5YdoNu3yNIOBFs8mLZpOG7x+5VgG0tTtOt/df0B3dPifiuo8GF92vCQTjhOi3Tkb0I/0xLuNPgaAXxJ55wdBRVZV8Pk+pVGJ6eppSqUS9Xk/CN8WkUikKhQLlcplSqUQ+n0cdgpCaFQTsex5LpsmXUbi1tCyzmM1SivKPheLi33RZxo72U61Z1rnaqZKEGy0NezLE8u00m/zYaJC2LK4EAVOSRFZRuKSqXNc0Xh2zg8Ml/eljwl7d3v92yLKcvFRd1z3zPrZxT6/b50Rc9+GkN6j7JRAILq7fGpX+pB2iH+mPUR9/CgT9IFqmYOgoikIul6NcLrO4uMj29jbLy8vviEbl83kWFhb46KOPKJfL5HI5lGN7tc+DeOb6y1qNP+3vs+95zKfT3M1muR8Jz8Uh3NYsK5mFfplOA4fO8nnabdg2a5YFkISRG0b59g8OeGEYzDSb/Mr3uSrLTKkqC5kMnxeLyOn0ETs7CE4Uwuv2/rcjfsnCYcx027a7sntf0+v2ORHXfTjpDep+CQSCi+u3RqU/aYfoR/pj1MefAkE/CGdeIIg4PiP/TbRcfDISdvttsZioyMczzvFy928MI3Gw42ODtpOBlWaTl5ZFLXKYd1yXWV3nXov6/HmVD8Mg8DxmouulABlZ5qqm8VmhQDOXY922WbdtvqrX8cIQN1LHn9G0I7Hmj6BpcOkSpFIgSeA4YBiH/xUIBAKBQCAQCAQnIpx5wdCJ411XKhWWlpZYWVnBMIx3zjMMg5WVFWZmZqhUKjQajXONx9xuRv5+Ps8fJidZzGYTlfZP8/lkKXns8O5FDvYlVT0Xu4bv89Qw2HIcdiJVVVWSmNV1PisUjqjIn0f5ZptNfhPNxLc65rE6vlssstps8o1h8KNpsuk4rDab/LZY5I9TU0nYv3fu/9YWxswM5HKHzny1Cisrh/89Add1qdfryb/Pyrin1+1z0u1z1285euV9TW9Q90sgEFxcvzUq/Uk7RD/SH6M6/hQIzoJw5gVDJ453Xa1W2dnZoVqtnhgexHVd9vb2qFQqVKvVc4/HbAUBW47DVhQzvXXmOp5djon/bQcBThCw0mzyxrbxwhDSae5HDvN8Ov2OnR0EvIyWpO953s8z3x3sruo6RUVBBsxov92kolBUFK7q+sDyaWeXcd1kj3yqRTQmLcvMaBrXdZ3LqRSqJLHrOFQcB9P3Kaoq/2tiIjk/uf/1OjueRzWfJ1xYgFLpcEYeYH297X2K48QOinFPr9vnpNvnrt9y9Mr7ml6392tzc5PXr1+zvb3N9PQ0uVwusY8H+6lUClVVk+Wdvu/jed6R3+PB5XG7dsdHJb3zKkccTsqyLEzTBMCyLFzXRZIksVR2zLiofmtU+pN2DHt89L4wquNPgeAsCGdeMHS6jXcdH2+N81ksFslEM7znQRCGTCgK96O93sdnrluJZ6TjGfMN28Y4pvL+ISFxNJSLF4YYvo/h+4cfOSKS+x8EOHNzhNPTcP/+4XL75WUIw8M/QVd0+5yIOPOjQXzdDcNgbW2Na9euAYcOLYBt29RqNQCKxSL5fD5x9BuNBoZhHPld1/UT7dodH5X0zqscQRDQaDTY399nd3cXgCtXrpDP55FlWTjzY4bot07mIsZH7wOjPP4UCPpFOPOCC6Obl3IYhkN7ecczzACyJDGjae/MyJ90/mI2y+fFIgAbto0iSexHM9o3LAtdlpOPAfHxWCjukqpCJDB3SVVPtdu0bWq+TwBk49kpoOb7bNo2W44zkHza2U35Pqbvs+d5iZo+RFoDjsOGbbPrulhBQEaWkaPfdl2X1y3ls8OQHd+nkk5jLyyAbUM+fzgrX60e/on98ueGGAxfPGEYUqvV+OGHHwjDkNevXzM5OQn87KRKkkSxWKRUKlEulwGSWaJarUYYhj05vaOS3nmXIwxDtra2WF9fZ2VlBYBarcbNmze5ceMG5XKZQqGA1qZfFwgE7z+jNv4UCM6CcOYFQ6c1zmcqlUKSpLYdpiRJaJo2lDifk6rK/UIBK1rCnm5xck9jVtf51+lpfpXL8XW9zrNjavCxqjtw8p78Y450O7uv63U2oqX809F12HFdNmybr+t1cooykHza2REEvPU8ViI1+5hYayAOkxeL6wVheGL5HFlmQ9fZuHwZU5KgUoGtrcNZ+W+/hVevoNHo8y5+ePQTZ77Tcyc4f6rVKn/9619ZWloil8sl96x1+bimaUxPT7O4uAjA0tISOzs7SRilXpejj0p651mOMAxZWlpic3Mz2Qubz+e5c+cOv//973nw4AF37txhamqqzzsnGCYnxQUX/ZaIg94vozr+FAjOgnDmBUNHlmV0XUfX9a7ERHo9v19aZ+Z7oaiq3FNVSqkUOUVBO6YGH6vkw8+h31rV5OdbQsZ1slMkiYVMhrvZLPBzaLpnpkkAA8vnJLt9x+FFy8cNH3CCgE3H4et6ne8bDbwwZFbXTy2f7/t87Xm8SqVQJiaYePsW8+VLvB9/JFxfh729ttc6Hrzko48PhmHgum7fg7txT0+SJLLZLJcvX+bmzZuUy+W28XCH9RwJuqPZbPL69Wtev36dbE2Jab2/pVKJ7e1tAFZWVo7s8TzNbtTTG3Y5dnd3E/vJyUmKxSKKoohnYcSJ44KXy2Vu3rzJ5uYmu7u7mKbZsV/ttz8eh/dCt/2+4CijOv4UCM6CePIFY8E4fImP99AfV4N/bpp8sb8PQNXzSMvyETX52Fm+EQnNdbL7JJdLlvU/qdX4vtE4l3yO2+3YNpfyedKRmr3TMlP/pFbjlWV1Vb4QeGvb+LbNZLNJplplfXmZ2osXYBiEnDxoj2ciCoUCCwsLwOGgfS9y/uNzjtvxnqYX212+fJnf/e53PHz4kLm5OREPdww5bd9mvV5neXkZOHQCWs/ttN9zlNMbdjl2d3d5/PgxALdv32ZmZkaoU48BcVzwubk5Hj58CMDjx49Zj0RS2/Wr/fbH4/JeEP3+8BiH8afgw0Y484KhE6u62rZNEC1pPw3f93Ecp+vzB00QBCeqLR9XYw49j6zrcs3z+DSVop5K8aNh8HfLQo5eykEUd/1uNvuOSr4uy9hBgBUEPDdNlkzzRLt/nphIlsWnJAkvDE89v998jtsVMxmkXA7SaXKyjBeGyR7611EEgF7K9wtJ4pe5HMXpadZ+8Qve2nYyW9G6nNZxnCPLZa9du5Ysz43DxrTaxfckCIIjy3aPH49nS8rlMh999NHYpRfb3bx5k4cPH/LgwQOmp6fbLgXs9bkTjAaO41BtE6ZxnNMbdjlM02R9fZ3V1VUqlYpQpx4TZFlGlmWmp6d58OBBcnx1dfXUfvWk/vPKlSu8efMmeZ/kcjl0XUeSpLF7L3Tb7wuOMm7jT4GgG4QzLxg6rWqinZaaxWGGLlJNNI5LelxtuZ0asxUEzGWz3JEkipKELEkEUR1lSaIULV9vjQsPP8/s73seX+zvd2XX6/n95gOQk2VuZTKQyZBTFFqD7MjQc/lmsln+pVzm3rVr7F6/zt729pHrq2kaQRBQrVYTIauFhQXm5uaYmZlBkqQjwlmtdpIkvSOc1e54OyGucUmvXC4zNzfH9PQ0hUKhbTvu5bkTCN43hDr1eFMoFLhz5w6Tk5Pcvn2bSqXSU/95kjDiwsICpVIJWZZxHGes3gvd9vuCo4zb+FMg6AbhzAsEbXAch3q9zs7ODuvr6+8MHtqqMadSFK9dYyufxxIOU1sURSGbyXD18mV+USrhmSb1eh0gUZv2fZ/t7W2K0bL9jz/+mNnZWQqFArIsJx9RWu1a1a67OX7SR5lxSi/+XczMCASnI9SpxxdN05iamqJYLDIzM9N1v9oasnB+fp7Z2dkj75MrV66gKEryvj9uB6P9XhD9vkAgEM68YOiMi5povV7np59+4unTpzx69IjV1dVk+dupasyXLpG6exfj9m025ucJJiePLC+vRsJz8Qx5vIw9VoX/xjCoeh5BGJ5qB/R0fr/5xHaNIOBFswnNJrd8/0jnEUDf5SvKMh9nMlzOZJJBVtwufN/Htm0uX74MHApX5XI5VFVFkqRkmWSrXavadTfHW7dLjGN6rb+fhlCzF3zoCHXq8SfeQ99tvxr3j7Isk8vlmJycPPI+iYUQ45CIx+1g9N8Lgu4Zl/GnQNALwpkXDJ1RVxON98jv7Ozw9OlTvvjii0Rw51T1ZMMgzOXA95HqdajXCXd3mQBuXLpEOp2mFoakZZnnpklalpP963CoMv9lFN4tLcssZrOUouXqsTDdc9NElaQkzvuTLs7vN5/jdjvNJj82GqQtiytBwJQkkVUULqkq1zWNV2coX0ZVSWWzTOo66egeh2GI7/uk02mykTp+Op1OBjiSJCHLMqlUqu3St16Pj3t6pyFUeQUC8RyMO/Ee+l771Xhv+vH3ia7rKIqCJEkj04/3elzQPaM+/hQI+kE484KxYJgziPEe+fX1dR49esTjx4/Z3d19Rx35HfXkfB5u3YJ79wjv34dCAWlzk1nD4P8plZi5dImfwpAV1z0S5/1lS8i41vjud7NZ7kcz3HHIuDXLYsO2WYsU6ePQb6ed328+x+32Dw54YRjMRHHmr8oyU6rKQibD58Uicjp9pvLF8e77CQ8oEAgE3SJWpAgEgm4R/YVg1BHOvGDojLqaqOd5GIZBpVJhdXX1yIx8K4l6sqZBLgdzc3DvHty+Dfk81OuwvEy+UGDho4+4q6qUdZ2C6x6J8x47vvGxOL77b4vFZLn6pKqiShIbts2GbWP4fmIzq+t8kssdUZGfVFXSx+Ldd5tPOzsMg8DzmInqrwAZWeaqpvFZoUAjm2Wl2eSlZVGLHPQd12VW17mXzfL7yclT83GCgIbvs5jNMqvrFDosITR8ny3HSa5FXlGY0TTyA7azgoB9z8Pw/WSVgi7L5BUlqcdpdlZkk5blU88/b4SavUAg1KkFgg+ZUR9/CgT9IJx5wdAZdTXR1vI5jtP5q2wuBwsLh478/fuHjvzWFiwvE377Le70NLUHD5Bv3ODjYpFLkQhO7CjvRY7vJVU9Et99MZs9ogrvhiFrloXh+8ls9qSqcjeb5fPIIW89/3i8+27zaWc322zym2gmvtXxjffINwoFnhoGW47DThQ6TZUkZnWdzwqFjuVbaTZ5ahh8Xizyr9PT/DJaCtmOLcfhv96+ZbnZBOB2JsMfp6a43aF99Gq373l8U6+z0myyHdXrSirFQibD/UKh7UqCWJtgy3EIwpAZTTv1/PNGqNkLPnSEOrVA8GEz6uNPgaAfhDMvuDCkSAyt0zndnHehaBqUSod/mgaGAcvL8OwZ0vo6kqqC45CWZa5oGoV0GjsI8MKQddtOHPPLqRSf5HLvxHcHmNE05tNp5tNpNmw7me1tPX78fDhcuu4EASvNJm9sGy8MIZ3mfuTQn2RnBwEvoyXze56XzMxnXDfZI59quSdpWWZG07iq6xQVBRkwo/JNKgpFReGqrnfM50206gDgV7kcl1SVwgn33goC6r7PkmnyZa3G940GALuuy3z0oeGkGfB4prxXO8P3WWk2+ape52VUvhuRwvDtEz44HM9ny3GYiD5+WEGQaDJ4nnckXnyr0FHr8Vaho7PYNZtN6vU6pmniR6sSBIIPiVhUs9FoUK/XaTabiVr4oJ67QT/HndIT+3gFgt55b8afAgHCmRdcAK1qonEM1ZO+jsYdaXz+sNREuy1fS0EP/2InvlqFb789dOQbjXfKH89ku2HIarOJFzm+d6O958fju8fossyVVCpxJOHQqbySSiWz3K0kM+a+z1PDOLI8fxTxwhDD99mwbb6u18nIMr/KZDi++P3A8/ifZvNQXK/ZZC1ysFVZ5kmtRkqSTtx7H8+U92pnBwHbrsvLFi0AgLnoo8xx4ny+rNX40/4+VhBwP59PlPxjZ8IwjCOhDltDELUePymkUT929XqdRqOBZVkEQSDU7AUfFPH7JAgCLMtKQoPFzvCgnrtBP8ed0hPOvEDQPaM+/hQI+kE484Kho6oq+XyeUqnE9PQ0pVKJer2ehH2LSaVSFAoFyuUypVKJfD6PeoKTe1HlixVpAdyDAwKAMDx05l+9ItVonFj+VDSTvZjN8ttikctRGrczmXdm5FvJKwoL0RKvuUiULl7ufdJ+73RLPp9HIW02bBtFktiPZtxvWBZ6tJcbSI7HwnSXVBWivKZ8H9P32fO8RK0eoplox2HTtqn5PgGQjWeTgJrvs2nbbDlOV/koksQz0yQlSWjAlOtiR/ltuy5vI0f++0YDPwyTNP0w5PtGA1WSko8brfm1zsj3YheXc8txkhURW46THJ+KPtAcz+cbw0i0CWY0jUuAubfHysEB6+vrVCoVarVaEhLp+KBdkiSKxSKlUolyuQxApVKhWq32ZRf/LS8vYxjGiW3sNFpnKQYRr3sc0mudSe02vSP9guueeZ/lqKfX73W/qPtvGAYrKyvous6rV68SB/uszx2c7HyfV3rlcpm5uTmmp6cpFApoQjhUIOjIqI8/BYJ+EC1TMHTiOLHlcpnFxUW2t7dZXl4+FJNrIZ/Ps7CwwEcffUS5XCaXyw0lrmq35Ys7e2SZ+toaNhw6844DjUbH8s9oGn+cmuKfjgmxtWNSVblfKHA7mz1RiK0ds7rOv05P86tcjq/rdZ61UZEHjswox2r39+O0g4C3nsdKpGYfE89Ef12vsxEt5Z+OnIUd101m2nOK0lU+sQO957oEYchtxyETlXWz0WDZdfni4IAD3z/Rrtd6dbKLw+vFjnls89w0j8zot80n0iaYbjaprK7y47ff8ujRI1ZXV5MBRLvltJqmMT09zeLiIgBLS0vs7Oz0Zbe9vY1lWdRqNXZ2dnp2nuJZCmAge+5HPT1FUUhHH5gsy8KL2kcnkn4BqNfr2NEKkH4Z9fT6ve7Dvv/x/1cqFf70pz/xt7/9jXQ6nfTJg3juBv0cn5bezZs3efjwIQ8ePODOnTtMTU2d6foJBB8Coz7+FAj6QTjzAsFZcZxD5foeB8V5Reko1tZKPNPeK0VV5Z6qUkqlyCkK2jEV+XiPN/wcMq5V7X4+Dk3nOLxo+WjgA04QsOk4yUcCRZJYyGS4G+0lj0PTPTNNAugqn9ix3vM8vms02HFdpqKB+FvTZNN12fd9LrWx67Ve3dh5Ycisrr9Tr+8bDbwwPDWf3+Tz3EqlaGxt8eO33/LFF1/w+PHjI1ESju/Laz1eKpXY3t4GYGVlhWq1emY7geBDJAxDGo0GjUgv4zyeu2Glt7m5mRyfnJykWCyKPfQCgUDwASKcecHQifcMVyoVlpaWWFlZOXHZb7wccmZmhkqlQqPRGMoewW7L57ou9Xo9+feolL8d8R764yryz02TL/b3Aah6HmlZPjKjHDu9O7bNpXyedLSs32mZqX9Sq/HKsphPp/kkl0uW9cfL4XvJ50a0L/0bw2DVsvjestCjQa1tmuTTaW52sOs3v9Ps+q3XrVSKlG2zvr7Oo0ePePz4Mbu7u0cc63ZOdhiG1Ot1lpeXgcM2NQi7foiVfU/L931Kz/d9rKht9CIY2Klf6JVRT6/f6z4K9/88nrthpbe7u8vjx48BuH37NjMzM2IPvUDQgVEffwoE/SCcecHQieO4V6tVdnZ22s4Yuq7L3t4em5ubvH79mu3t7WR/4HmqDNfrdXZ2dtjY2GBzc7Nt+eJ4pe1oV/54j+aw1Y5bZ/btIMAKAp6bJkummYizBWHIYjbL3Wg/f+se/mImg5TLQTpNTpbxwjDZQ/862k9+N5s9Eu8+JUl4YdhTProsHynfC8/7eS+s57EY5dPJrt/82tn1W68J3+etaVKpVFhdXT0yI98NjuO8swTwPO3aMYh9zeOWXrdL61vp1C+8b+n1e91H/f4P+vkZdHqmabK+vs7q6iqVSgXDMNB1XYh0CQSn0Ov4M9a3EM+XYJQRzrxg6HQbxz0+bhgGa2trXLt2DTgUcDpPleGdnR2Wl5dZW1uj0Wj0PUBsV/54lu+i1I7jGfp9z+OL/X1kSSKIyipLEqVoefhxVf2cLHMrk4FMhpyi0OoOyHCiXT/5vFM+IIic5Xb5nKVe/dj1cr4T7VPv1N4FAoGgW+J+RMTBFgi6p9fxp3i+BOOAcOYFF0Y3Tk0YhtRqNX744QcA3rx5w/Xr189VZXhjY4O1tTV++OEHDg4OzlzHuPxhGPL69WsmJye7KodQO36/EE68QCAYJINejSAQfCh0O/4Uz5dgHBDOvGDotMb5TKVSHeNdV6tV/vrXv7K0tEQ+n2dmZuZcVYY3NzdpNBocHBywt7d35vq2lj+XyyXLtC5K7ThWn//GMKh6HkEYHlkmXo2E4OIZ63g5eiMIeNFsQrPJLd8/0nkE8I4d0Fc+75QPkKL2EUhS93b95tfBrtd6TfTY3gUCgaAbJElC0zQRB1sg6JJexp/i+RKMC8KZFwwdWZbRdR1d17sSE2k2m7x+/ZrXr18PXWV4EBwvfz/lOIvasR2GuIUCV3QdB3hp20m4tbQss5jNUoqWj8cCbs9NExlo+D5Xo5n/Wq3GumFQtCyuBAFTkkRWUbikqlzXNF5FdhKHseUBntbrPeezGYWye26a6LLMLVVFjz5q2KkUehd2/eZ3ml2v9VIlCTcMuSrLeEBNVXGP3S+BQCA4C72+TwWCD5lenxfxfAnGAeHMC8aKYasMD5qLUDve8X12rl2jlE5TDUPWXTcJrTafTnM3m+V+NOMch1ZbsyxWmk2eGgbFSJRP2ttD3d/nXhRn/qosM6WqLGQyfF4sIqfTrFkWf282+XO0DaDiumiS1FM+Nd9nw7aRJYl5XT/MJxLsepvNsplKsXqKndJnfp3seq3Xhm2zZllcVxSKUR61IDildQgEAkHviJU+AsH5IZ4vwagjnHnB0InVlG3bJujDuRl1leFRKUesduyWy6QqFfJ7e2wBu1Ec9Vld55Nc7ohK+6SqokoSG7bNS8tiy3GIv0VP1OvMOQ43gwA/DFGAjCxzVdP4rFDAyGb5e7PJT6bJajQD7YUhd7JZfpnN8ofJya7yCSK7W+k097JZ7roumSj0WzOb5XkqxYZt88K2T7RbyGR6qlcnOwn6qteGbWP4PmuyzAxg2DaNHkKcCQQCQSd838dxnL7fpwLBh0Sv40/xfAnGAeHMC4ZOq5qo67riq+c5EV/Xpuex5TiolsUW4Mkyk6rK3WyWz4vFd1Ta3TBkzbKoeR47rosZvcAyYUhRUSipKlrLcvF4b3itUODPtRqrUdg2AFWSKKdSPCgUus4nK8tMp1KH5SsUuGHb7ER2d3I5JnSdV7ZN3ffb2/VQr052Nd/vq16G77PveRhBgAV4tk0zCER7FwgEAyEMQ6G2LRD0QC/jT/F8CcYFsQFEIHiPEY6jQCAQCAQCgUDwfiJm5gVDp1c1e0H/SJJEWlGY0TTy6TRpfl5m/9w0eVKrkZKkIyrtsTjejuuiShKT0d5yTZKo+T5Vz8NpuV+xGvzTep2K6+KFIWrLcvSK6/K0XqeoKF3lEwA70b7+J/U6B65LxvMA2Gw0eO44ne16qFcnu37rte95TKoql+Nl9rrOlixzINq7QCAYAEJtWyDoDaFmL3gfEc68YOgIddDhkpdlbuk613M5aorCa99PBPC+bzTwwpD9yFmOBdy8MGRW15nV9Z8F8MIQVdPIyDKKJOEDThCw6Th8Xa/zo2miSRJ3slnK0UsvFor70TQJoat8YkE6D3hmmuy5LlPRy/atabKZSuFBe7se69WNXb/1upvN/iyAp+v8FOUpEHSDJEmkUiny0cciwzDOtDVp0OkJLh7xPhUIukeo2QveR4QzLxC85xRlmXu6zj8UCqi5HJtBwJNaje8bDdYsi+emyReRwFwcWm0+Ep/7rFD4OTSdrrP+9i3FTIa8ouAEAW89j5Vmkye1Gq8si/l0ml9mszwoFIDDEG4/Ruru3eYTh4p7ZpqsWhbfWxZ6NCNumyb5dJqbHez6ze80u17r9Ukux+fF4mFoukaDr3SdL8VgQHACJ4WYlCQJSZIoFAosLCwAhyEr9/b2jpxz3O4s6QnGE3HvBILzQzxfglFHOPOCoXNWNXtBb6hhyITvcw2YSqe5piikIjG356bJkmkiR4P/IAxZzGa5m83y+0ilfUbTANizLKbyeUinyckyXhhi+j57nsdrx8EKAu4eU3cvKgoh9JTPluOQUxSCyO6F5yXOSeh5LEb5dLLrN792dr3WK1bFn/B93jYaFD2PlBgUCCIymQylUolisUgul0OL2mMQBDiOk8yil8tlPvroIwBmZmaoVCrJbHoqlUKJt4tEdsCJx9ult7m5iWEY1Go1qtUqzWaH7U0oAAAgAElEQVRz2JdCcAaE2rZA0D1CzV7wPiKcecHQEWr2w+MkNdZJXefTfJ59z+OL/X1kSSKI7oEsSZRUlfv5/BGVdoCcLHMrk4FMhpyiYLfkI8OJdv3kE6vjJ3ZAEDnL7fI50a7f/Lqw6+V8x7JEexe8Q6lU4h//8R/5+OOPmZ+fZ2JiAkmSsG2bWq0GQLFYpFQqUS6XAahUKlSr1SO/a5p2ol2748fTe/36NWtra/zwww/89a9/5fXr18O+FII+EWrbAkFvCDV7wfuIcOYFF8bxpaCCwRMvrRVcPOI+CGIkSWJiYoKPP/6Y3/3udywsLFAqlQCwbZt6vQ5AoVAgn8+Ty+UAaDQaGIZx5Hc92i5y3K7d8ePpbW9vc+3aNQCWlpaEMz9GiP5dIOiPbp4b8XwJxgXhzAuGTquaaDx7JGYrB0/8Ioqvd6zGGqvPf2MYVD2PIAyPLBOveh7fGEYyYx0vR28EAS+aTWg2ueX7RzqPAN6xA/rK553ycSi+B4cz9F3b9ZtfB7te6zUh2rughfi5zOVyzM/Ps7CwwPT0dOJgB0FAsVgEDvtKVVWTJfO5XA5d14/8HosyHbdrd/x4etPT0wC8efOGfD4v2ueY0K5/FwgE7el2/CmeL8E4IZx5wdBRVZV8Pk+pVGJ6eppSqUS9Xk/2e57GKKk7t361DcPwTAPg86hXNpvl8uXL3Lx5k3K5jJrNshsEvLBtvozCp6VlmcVsllK0fDwWcIt/02UZO9onttNs8mOjQdqyuBIETEkSWUXhkqpyXdN4FdmpkoQblftJH/msWVZSPl2WuaWq6FHbsFMp9C7s+s3vNLt+63UrlSKVzfbV3uFQTTceRLiu2/W+vX7tTqO1vQ+CUU6v3+e703VPpVIUCgWuXr3K9evXuXLlCrlc7shAsd1Szjjtdr/3elyWZQqFArIsc/36dWZmZsa2fX5o6cXtqFwuUyqVyOfzqKoY0gkEp9Ht+FM8X4JxQrRMwdBRFIVcLke5XGZxcZHt7W2Wl5epVqvvnNs6mB41defYAQd6+gDQTzn6qdfly5f53e9+x8OHD5mbm8PVdX5oNvmLYfCn/X32PY/5dJq72Sz3o48IcWi1NctKwq29TKcB2D844IVhMNNs8ivf56osM6WqLGQyfF4sIqfTrFkWG7bNmmUBJGHaeslnzbL40/4+e57HvK4f5mMf7tB/m82ymUqxeopdr/Xq1q7fejXzeT7OZLpq7ycRDyoA6vU6tm13sDibXTuOLzk8q8M8Dun1+nxD5+uez+dZWFjgo48+olwuk8vlkpnyi6CX/vgkRqV9fmjpjVo7EgjGgW77O/F8CcYJ4cwLRp5cLsfly5eZmJggnU5z5cqVc1V33t7exrIsDg4O2NnZodFonLn809PTFItF0ul08nXXCgKqjoMThiiqymy5zD/cvYsuSSfWy5MkakGAEQRYvk8IZGSZnKIwoSikwvBIvW7evMnDhw9Z+PRTdnM5fjTNJATbvucxGQm1/bZYTJaPT6oqaVlm3/PYj5aLxw4shkHgecxE9VKi/K9qGp8VCjSyWVaaTV5aFrXIkd1xXWZ1nXstKvKd8omPTSoKn+Zy3HYcMlHot2Y2y7KmnW7XY7062clwpnq5QYAbhjiuS0Oo4QoEAoFAIBAIBoRw5gVDx/d9Go0GlUqFpaUlVlZWMAyj7fnT09P84Q9/4N69e5TL5eQPzkfdOf579uwZf/rTnzBN88RZuVjpNP73SUiSRLlcPlL+bDaLJEls2jZ/q9XY8X3Sus7tUon/e26OaUU5sV4HisIz2+aFbbPlOBCGzOg6N3Wdj3WdCd8/cn65XGZubo7dXI7/3WzydG+PDdtGkSTm02nu5/P8YXKSxWz2iEq7Hu21jR3evciBnW02+U00E59v+UId7w1vFAo8NQy2HIed6LqoksSsrvNZofCOGny7fC6pKvPpNL/O5XhYLDJlmuxEdndyOa5ns8iSxLeNxol2vdark13D989Ur1fNJsuGQbC6yvNnz3jdob0fx3XdRMAsbm/nadeO1jY+iGXs45Bep+f7JDpdd8MwWFlZST7YNRoNcrlcssd92PTaHx9nVNrnh5beqLUjgWAc6La/E8+XYJwQzrxg6Hieh2EYVKtVdnZ2qFarpw6W8/k8t2/f5h/+4R+Ym5vj8uXL56ruvLu7y/r6OrZt89VXX7UtV7f7aI+Xf2JiAoDVZhNzbw/FsrAUBTmfR5ueppxOc/3mTTzTPFLON8BBvU6l0UCNZpXz6TSzuRz/UChwDY6cr2azuLrOj6bJ0709vqzVMHyfa7rO/ciBnU+nEyE4gBlNww4CXkZL5vc8L5nBzrhuskc+1bKcOS3LzGgaV3WdoqIgA2Y0Az2pKBQVhau63nU+pNNJ+W7oOjnXpRbldyWVIq/rrKfTvLTttna91KuT3VnrVbVtTNuGapU3lQq1Du39OHFc3F7p1+40Bi2MNsrp9auD0em6u67L3t5e8sHOMAx0Xb8wcaVe++PjjEr7/NDSG7V2JBCMA932d+L5EowTwpkXDJ3WOJ+O43SM8ynLMrquk8vlKBQKR/YunYe6s23b5HI50uk0siyfyUE4qfxx3hOaxqUgIJRllkyT9UYDXddxwpCPMxkuZzJHylmxLGqmyRawFaWfBmqKgprLMZVOHzl/Nwj4odnk63qdDdvG8H08oVI9dMIwxPd98DyCIBBK4R848f0flfjFvfTHgtFh1NqRQDAOdNvfiedLME4IZ15wYXQ7aIwFSwqFAplM5siX0fNQd85kMuTzebLZ7EDUS4+XP14hMCFJzPs+W8Cq77PveXzbaCBJEhlVJZXNMhmdu+95bAYBr32f3SDAiz5M7EbHNoOAa4py5PwXts1fDINnpokiSVyLfrukquxHM9M3LAtdlpNl4vHxWMDtkqpCJBQ35fuYvs+e5yWq7nC493/fcdi0bWq+TwBk4w8nQM332Yy2BnSTT2v55jSNKdfFjvLbdl3eRkJ0p9n1Uq9Odmet12Q6zS8AS9OoyTL1M7cowbhz1ugX58GolUfQmVFsRwLBONDNcyOeL8G4IJx5wdBpjfOZSqVOjWssSRKapg01zmcv5evEaeWP95of32Mdq6DbQXAkrnkcDi0Wa4ND5/G5afKkViMlSUfO/7JWO6LSfv+Yw9kun3Z2BAFvPY+VSM0+Jo7THq8A8MKQ6aieO67Lhm3zdb1OTlF6Kt+e6xKE4aEAXlTWzUaDZdfli4MDDnx/IPXqZHfWen2USnFPktgqFtnWNLZFHO8Pnovo19oxyP5OMFxGqR0JBOPAqI8/BYJ+UD3Pw/f95C8ObRV/kRrkl6l4ielxoaIwDAmCQAhLfCDEHaSmaV3dc1mWk/OHMdDstXydaFd+XZK4kkoRZjI0o2dvz3XZi1TQrSBIHMw45JkbhlzXNO5mswDJse8bDbwwfOf8vUgV/te5HPMtodg65XOS3Z5ts6ooxFffB5wgYNNxEpV8WZK4FYVri8vnAc9MkwB6Kl+8UmHHdZmKrtlb0+RN9Nukqg6kXt3YnaVe/1c6zR1Z5uXlyzydn2fvzRt2d3dpNptdhz/MRx8LDMPoKkxav3aC4THsfq0dg+7vBMNlVNrRqCPGnwIY/fGnYDQYVn8xKD9btW0b3/exbfvIYC8IguTPb5mFOwvx3tHWgif7SRHL/D4UWj8cdUP88LR+dBql8nWiU/kLksSvMhk0IAhDvms0WLUsnpsmX0Qh2aqehy7LzEfh0D6P4hU/iZzo087/NFKFvxEts5/TtK7yOW6322xyKZcjk06Tk2Wclpn6J7UaLy1roOX7ttHgpWXxg22jRwJ4tmmS13VutKjdn7Ve3dr1W687uk5ekvBnZ/mnf/onwjDkz3/+MxsbG0n7aI2P3npMkiQKhQK3bt0C4MWLF+zt7Z3ZTnDxDLtfa8eg+zvBcBmVdjTqiPGnAEZ//CkYDYbVX7T62ieN6bpF/T//5//g+z6u6/I///M/HBwckM/nqdVqvH37Fk3TEnGwsxJflFqthhfNZMWhtOIBqOD9x7Is9vf3qVarXan72rZNtVple3sb27ZJRzOqo1K+TnRTfgWYcl1uR+HPvrcsXnge8be/ALilqlyVZe66Ljeich24Lnsdzr/tOEyZJrkoHFK3+Ry3802T665LyvdJhyFeGCZ76F/bNoZlDbx8P9g2K56X9A2h57EAXFOUgdXrvK97ynWxOezjfvGLX3Dv3j329/fJZDJ4nkcYhqiqmnzpDcMw6R9VVeXy5cvcuXMHAE3T2N3d7cuuUqnQbDYxTRPDMHAcp22bFZw/w+7X2jHo/k4wXEalHY06YvwpgNEffwpGg2H1F77v4zhOkk+/WznUf//3f08KfXBwwPr6OvPz87x584bl5eWBL72LB5zNZhOAN2/eUKlUREf6AWGaJru7u6ysrNBoNDqq2TcaDVZWVigWi1y+fJlstNR5FMrXiV7Kb4chGc9jKgzRo84iiJ4LKQzRHYcp2yazv5/EXe/l/Di8W6/5xHbhwQHqzg5Fw0CNOreokkhwruULz7Few7rusXLu7Ows//zP/8y9e/cwTfMwvRZhR8/zkuPZbJZiscjU1BQAN27coFar9WW3s7NDpVJhfX2dn376iWq1ekrLFZwnF9GvtWOQ/Z1guIxSOxoHxPhTMOrjT8HoMIz+IggCHMfhzZs3NJvN/p35gZVIIDgHxv0lO+7lFwwOTdMolUpMTExw7do1LMs64nzHkROOO+XpdDqZDbAsq2+7/f193rx5Qz6fZ3t7WzjzF4joFwSDQLQjgeD8EM+XYFxQ/+3f/u3IMvv/+I//IJPJcO3aNW7fvn1uy+zfvHkDwLVr1ygWi2KZ0weEZVlcuXKFWq1GPp9vKyoSt4l8Ps/CwgIff/wxk5OTQ1lm3035OtFr+bddl81Gg7emiW2ahK3LtyUJO5XibTZLM5vlTi4H0NP5V6Ivfr3mE9vVdnd51WxSy+fxVPXnL4GSRAjYmnZu5ZPiPUvnUK9hXfeY43vw4DB8YbKVoGVflqIoKIqSrI46i51pmty8eRNZlvn22295+fKlmIW9AC6qX2vHoPo7wXAZtXY06ojxpwBGf/wpGA2G1V/Ey+wrlUrbkNndoP7hD39IBPAA/vu//xtJkpIlmrquD9SZjweblUoFgGKxSKlUOjIoFbzfuK5LPp9nbm6Oq1evUiqVqNfr7+zhTaVSFAoFrl27xtzcHLOzs+RyuXMPD9Jt+eIY97FNEAR9ld8KAg48j7fNJsuuy6brkk+nWQwCStGsayystplK8TyVYiISb3vuOGymUqeev6xpXM9myUc2b227q3yO2+2ZJq9TKTKKwi1JIi9JZBWFS6rKdV3HS6cHWr43rkte11ngcAk/gJ1Kkdd13gywXt3a9Vuvy5kME6pK+oLVkl3X5dKlS+zs7HD9+nVevXp1YrtuR6f23ivva3qD6heGRbf9XTvO6zr1yoeW3qi1o1FHjD8FMPrjT8FoMKz+Iva/i8VissqyH1Rd15MCxzEXJUlCluXkb1DOfPzyav2qIUlSMoMkQoN8GMTta2ZmhsXFRSqVCsvLy+8s+42/iC4uLjIzM0OhUDgi+HXR5Ys7e4B6vf6OmEq35a/7Pv8TKcJ/cXDAvu9zMwqDdj8KLRaHPFu1LDZsm1dRXnGItNPO3/c8ZElivSUUWzf5HLfbq9dZbTSYsSw+DQKuyTJTqspCJsPnxSJyOj3Y8nkeN9JprikKU1F6b7NZ3qRSvLQsDgZUr27t+q2XA/w6nyc3oH60X7pt1+3o1N575X1Nb1D9wrC4qHYxKvdrXNMbtXY06ojxpwBGf/wpGA2G1V+EYZikd5YPBGr8JSBeltla6Na/QSDL8jvS+60fD8SX0Q+D1vvd7T3vx2aY5esnTcP32XIclkyTJ7Ua3zcaHPg+l1SV+/k8vy0W+TRyEidVFRlYaTZ5YdvUow9wO67LbBQ27feTk0fOT8sy+56XxGt/GQ0e9z3v1Hza2dFoEPg+V6M6KUBGlrmqaXxWKNDIZgdavjiO/G3HIROFfmtmsyxrGgfROYOoVye7s153NwxpBgGL2Syzuk6xw9fXuF0YUV55RWFG08h3+BhgBQH7nocVvYTSspyUp10bFFwso3BPRqEMgrMh7mFnxPhTAKM//hSMBsPqLwblZwsBPMHQ8X2fRqNBpVJhaWmJlZUVDMN45zzDMFhZWWFmZoZKpUKj0SCXy537l9Fuy+e6LvV6Pfl3r+Xfchz+6+1bvqzVeN5s4och8+k09/N5/jA5yWI2y2Tk+H2az9PwfZ4aBltRGDUAVZKY1XU+KxT4NJ8/cr4e5fONYbBmWexFCvSXVPXUfNrZzTab/CaaiW91LCdV9bB8hcJAyxfHkZ8yzURF/k4ux/VsFlmS+LbRGEi9Otmd9bqvNJs8NQw+Lxb51+lp7nVw5uN2sRwpqN7OZPjj1BS3O+yn2vc8vovKGYQhM5rG/UKBGU0Dum/X7ejU3nvlfU3vrP3CsLmodjEq92tc0xu1diQQjAOjPv4UCPpBOPOCoeN5HoZhUK1W2dnZoVqtnihA4roue3t7VCoVqtUqhmGg6/q571nqtnxBEJy6VLJT+Q3fZ7nZ5PtGgzXbZlJVuR85lvPpdOKEAcxoGld1naKiIANmNPs6qSgUFYWruv7O+XYQ8DKdThzXNcs6/DGdPjWfdnYZ1032yKdaviKmZfncyndD18m5bhLe7Uq0Z349nealbQ+kXp3szlqvN7bNRtROfpXLUUqljsyYx8Qz60umyZfRSg2AXddlPvqA0o3dluMwEX1ssVr25XbbrtvRqb33yvuaXr/9gqIo+L6P53mJs5dKpVBVNdnqdtLvrSKH3RyP04t/v6h2MSr3a1zTu6j3o0Awzoz6+FMg6AfhzAuGjuu61Go1arVaEnv7JOLj8fn1ep1isXgmxcdBlq8TF1V+wWjhhSGG77Nh23xdr5NTFD7N5498BICfZ9afRCs11qKBvyrLPKnVSEnSqXZf1mr8aX8fKwi4n88jH1u2Nah2LTgb7foFVVVpNBoYhkGtVgMOBXfy+Ty5KIrCSb/rkSijbdtdHY/Ti5150S7GE/F+EQh6Z9THnwJBPwhnXnBhdDNojMNDXASDyPe08ucVhduZDLuuiyrL+GHIfjRjfMOy0KM9z3DosG3aNjXfJwCy8awbUPN9Nm2bLcc5cv6aZbEWCbFdUlWIBN8uqeqp+bSzm/J9TN9nz/NwW+pkBQH7jnMu5ZvTNKZcFzvKb9t1eWvbA61XJ7tB1UuRJJ6ZJposJ0vxW+1aZ+T9MEx+88OQ7xsNVEk61e4bw2Df85hUVWY0jRlNO1FBXzhrF09rv+A4DtVqFcuyWF9fp1KpHHG+S6US5XIZIJklqtVqhGHYkzMfR6kpl8vMzc0xPT2dCLLFZRKMFxf5fhQIxplRH38KBL0gnHnB0EmlUhSLRYrFYhJBoV2HKUkSmqZRLBYpFApDWeLUS/k6cVr5ZzSNP05NMZ/JJAJ4sRMIYAdBIqz2nWHwdb3Ohm3jhSHTUTo7rvvOjG98fjxTu+95h3vCjzmc7fJpZ0cQ8NbzWGk2+VUkzhandx7l23NdgjA8FMCLyrrZaLDsunxxcMCB7w+kXp3sLvq692x3wt5/GGy7FpyN1n5BkiRWV1d5/vw5jx49YnV1NQmTpGka09PTLC4uArC0tMTOzk7ye6/L7DVN4+bNmzx8+JAHDx5w584dstmsaBdjykW8HwWCcWbUx58CQT8IZ14wdGRZRtd1dF3vSkyk1/OHXb5+04tn5vOKQkqSUCUpUUH/xjCSvdDwc8gzRZJYyGS4m80CUYi0MOSZaRLAO+fHM7X383nmW0KxdcrnJLsDy2ItCFAcBykI8AEnCNh0HL6u13k24PLteR7fNRrsuC5T0cv2rWmy6brst6jPn7Ve3dhd5HXv1e63xSKL2ew7y/GH/RwJOiPLMrVajW+//ZYnT57w+PFj1tfXk8GlJEmUSiW2t7cBWFlZObLH87gCbjfHNzc3k+OTk5PMzs6SSqVEuxhTxHMtEHTPqI8/BYJ+EM68YCwY95mi08ofq8EfV0F/bpp8EYVkq3oeaVlmPp3mk1yOz4tFgCMz+u3Oj2dqY+fwRiT81imf43bVep2rkkQ6CCiGIU7LTP2TWo1XljXw8q1aFt9bFnrknNimST6d5uYA69Wt3UVd917tjs/IC0YT3/cxTZP19XUePXrEV199xe7u7pG+IgxD6vU6y8vLwKHC8vHfT+K047u7uzx+/BiA27dvc+nSJfyWlTaC8WPc348CwSgjni/BqCNGfIKhE6v62rZN0KK23Q7f93Ecp+vzh12+TnQqf6wGD4dLqK0g4LlpsmSaiYhZEIYsZrPczWb554mJZJl1SpLwwvDU84/P1Oqy3FU+iZ0kgWlyaW8PfWMDNjfJWRaWorCt67zSNF76PnYQnEv5XnheMtMYeh6LUT5nrlePdkO/7me0O86g27XgbDiOw/7+PgcHB7x48eLIjPzx86rV6sDyjT8grK6uHtmfL9rFeDLs96NAMM6M+vhTIOgHsWZEMHRa1URd1z31q2cYhkfURAcRn3eQ5etEL+WPZ+jv5/OUVBVZkgjCkCAMkSWJUrSMOo5r3uv5/eaDacLLl2S++47ZP/+Z2W+/JbO/T1PTeHP5Mm8uX8bW9fMrHxBKEqEkIcPg6jXq1/2MdscZZLsWnI0wDLEsi0qlwvb2NpZlDe1+xKJOcXuoVqu8fftWtIsx5CLejwLBODPq40+BoB+EMy8QCE7GdeHgAF6+hK++IvXllxSfPye9s4OhqqyXy/wwP89Ps7MYIlyLQNATrfvah+1AC5VmgUAgEAjeD8Qye8HQGXU10WGp2R8nVoX/xjCoel4y8wqHy6mrkQBaPFML9HR+vPy663waDT59+5aZ776D//xP+OYb2N6moeu8uHqVv330Ef/fp5/y3cIC1Xye/HmVD5Ci6x9I0tnrdUa7c7/uA7I7jlCzHx0kSSKdTnPlyhXCMCSdTg/1frT2S6VSCUC0izFEqG0LBL0x6uNPgaAfhDMvGDqjriY6LDX7mFidPI4X/tw0Scsyi9kspWjZdCx09tw0USUpifP+pIvz01Fcczva77VmWafmUwgCNisVVvf3WXjxgvBvf0P65huc9XUaus7mtWusf/IJ+7/+NROffMIvZmbI+z76OZRPl2VuqSp6FIrLTqWSfHqtV7/XY1jXfVB2cLg0/3iMeaHKO1qoqkoul0v+PWzi9pCJVtWIdjGeiOdaIOieUR9/CgT9IJx5wVgw7jNFp5U/nnk9Hi/8bjbL/WgmOA5BtmZZbNg2a5HCeRwi7bTz4zBmL1tCnZ2Wz2alQvDqFbvPnmH/5S+Ef//7kRn59U8+Yetf/oWpX/+a/3d2lkYmcy7l2/M85nWdq7LMlG0D8DabZTOVYrWPevV7PYZ13QdlF8ehbzdDLxgNRqFPG4UyCM6OuI8Cwfkhni/BqCOcecHQGXU10WGp2Ru+z5bjsGSaSaiz4/HC42Xdk5EQ3EqzyUvLohY5bjuuy6yucy+b5feTk0fOT8vykfjksSMaH3snH9dlstFgdX+f3WfPuPLVV+jffYe7s0ND19mKZuSr//iPZB484OqdO/y6UCCUpPMpn6LwaS7HbcchE4Via2azLGtab/Xq93oM67oP2M4JAhq+z2I2y6yuU4xmfdu2a02DXO7wv5IEjgOGcfhfwbnheR6GYST/HjZxv9RsNgGhZj+uCLVtgaB7Rn38KRD0g3DmBUPnLGqixWIxWRY6CuXrxGnl33Ic/uvt28Ml1M0mfjTTe1K88E/zeRq+z1PDYMtx2IlUVVVJYlbX+axQOKJmflLc+r3IYbikqifnE+2RX3jxAvsvf0H/7juu7O3R0HVWW2bkMw8e8PH8PHOFAhPRHrLzKN+vczkeFotMmSY7kd2dXI7r2SyyJPFtFOe9Y736vR7Duu4DtltpNnlqGHxeLPKv09Pci85t265zOVhYgFLp0JmvVmFl5fC/gnOhVc0eGKqafZx/q5p9GIZCzX4MuYj3o0Awzoz6+FMg6AfhzAsujFY159PO6ea882AQ+Z5WfsP3WW42+b7RYM22D2deI8dtPp0+skx6RtO4qusUFQUZMKMvxJOKQlFRuKrr75xvBwEv0+nEMYxnekmnj+YjSVCvw/o6M999R/i3vxH+/e/JjPzazAx/XVzkza9+hfrLX3Lzxg2mJye5ouvnXr4buk7OdalF1/BKKkVe11lPp3lp26fXq9/rMazrfk52b2ybjWhbwq9yOUqp1JGQdUl71DTI52FuDu7dO3Tmo5li1tcRnB/H+4Vh93En9UsX1c8K+uci348CwTgz6uNPgaAXhDMvGDqtaqKaprVVE4070vj8i1CzP618nbio8vdMFEeer76C//xPpBbV+tWrV/nr4iL/+ze/4eDjj/lkcpJ5STqcwRWMJF4YYvg+G7bN1/U6OUXh03yeiePtulAgvHULfvlLuH//0LlfXoYwPPwTnAtxvxCr2QNDVbM/3i+1qtmfpb8TDJexeb8IBCPEqI8/BYJ+EM68YOioqko+n6dUKjE9PU2pVKJer+Mc26ObSqUoFAqUy2VKpRL5fH4oqs/dlk+W5aRzd133nf1UncqfVxRuZzLsui6qLOOHIfvRjOwNy0KX5WRGdd/z2LRtar5PAGSjpdUBUPN9Nu3/n713/W3jyvK1n7qxyGKRkiiJlmwrvsi2fGvb6czpZDqdGQzOAD04n8+X8z++nw8wBweDRnB6knS3E8fjOHZa8lW2bhYlkcUi6/5+YBVDyaJ4EUVS9n4AAwZZq/avqF279qq191oO66677/gX9XozMdqUqkKcUG1KVdn1fV5ZFmuex8TWFtkffkD75htoyVqf7JF/+5vfsHfrFuVz53irqrxwnKHoe1Gvs5BKMe15OPHDdsPz2I4T0YyMRlwAACAASURBVB1ld5i+btob1nUNUl87O0WSeGzbpOIs95c1Dc0wmDpzhsKVK0zoOtUrV/AuXGhE6C2rsbR+Zwfi7QQJyaTGjPfqW5Z1rCXZH+r5OtlJkoRhGMzMzHD16lUuXLiA7/vMz8/z+vXrvsaZXjk4Lk1OTgJ0HO/a0a++QV/Xx3a+UT0fBYLTzLjPPwWCfhA9UzB0FEUhm81SLBZZWlpiY2OD5eVlSgf26JqmyeLiIteuXaNYLJLNZlEUZWz0JYM9QKVSwYmXNnerfy6V4o/T01zMZJoJ8A7LSg6Nuub3KxVWHQc/ipiNJ4VbnvdeBDY5/mB2/HsHHMDazg4z1SrpX37h4n/8B5OPHh2atV69cYPbk5O8VVWeOw47QTAUfTueRxhFjQR48W+yVq2y7Hl8vbfHXhAcatfu9+vU3rB+90Hr69auZprcymSYuXiRS//6r7ze2uJVocBeEMD6OiwvI/34Y2OJfbUKccQiiVDkcjkWFxcBWFlZYWdnB6B5TCutzuvBzz/U83WyS9qbmZnh97//PX/4wx9YWlrCsixu3LjB9vZ2X+NMrxwcl/L5PEDH8a4d/eob9HV9bOcb1fNRIDjNjPv8UyDoB+HMCwQjIonMm4qCJkmokrQvK3lSfx5+LUGmSBKLmQzXDQP4tUTaY9smhPeOb82CfjGO2L6yLGo7O+ivXyM9e0b06BHRgwe4a2v76sgnWesvXbjARUniRezIn7S+xAHd8X0eVqtseR7TsfO1bduseR67QcBUG7uj9B3V3rCu6yT0dWtXDkNsTaN86RJ6schsJkNhbw9jZwc9nUabn0eJa5+HYYjrus1oc7FY5Nq1awDMzc2xubnZjDprmtac6CR2wKGfH/d8Sa1f13Wb2eBN0+Ts2bMsLS2NTF8nu6S9S5cu8dVXX3H37l1mZmZwHEfULxYIBAKBQNAXwpkXDJ0gCKhWq2xubvL06VNWVlaak/JWLMtiZWWlOSGuVqtks9kTn/h2q8/zPCqVSvP//eqfVNVDs5I/sW2+jkuylXyftCxzMZ3mdjbL53E0rTWi3+74JAt64uSteR4z1SrSs2f8w//7f3zy889kt7ffi8gnWetnJydBkrgQJ2Q7aX2t7Tyv13lUr6PHkVDHtjHTaS51sOu3vWFd1yjtgiBgPYpQMxkuZzJ8oqosLC0x+8kn5GWZVBxhdhyHcrkM0NxbXSwWAdjc3KRUKu37Ptl/eNCu3efHOV8YhpRKJVZWVgBYXFxkYWGBubk5JEkaqb5OdsVikYWFBSYnJ5Fl+djjTK8cHJcSbZ10tKNffYO+ro/tfKN6PgoEp5lxn38KBP0gnHnB0EnqK5dKJba2tpqlkQ7ieR47OzvNCbFlWei6fuJJSLrVl9QrbUe3+tOy3MxQ7oQh9TDkiW3z1LaRYyc2jCKWDIPrhsEfJiaay6w1ScKPoiOP/yKfZ8kwGlnrbZuJrS3Sv/xC9OgRn/z8M8b6Olactf5vS0uU7t5l+u5d5q9eZSGXa2at12X5ZPXFv8HBdp75fnNZc+T7LIVhV3b9tjes6xq13VVd51Yux2eqysLEBLOqSi6XQ4//3o7jNJ2PXC6HaZpk46h9tVrFsqx937ezG/T5UqkUQRCwsbHRXCJ+69Ytzp8/Ty6XQ5blkerrZJd87/s+29vbxx5neuXguLSbvBjqoKMd/eob9HV9bOcb1fNRIDjNjPv8UyDoB+HMC4ZOa51P13XbThyTz0dZZ/4ofZ3oVX8Sod/1fb7e3UWWJML4HLIkUYiXUR+sa9718ZUKvHxJ9ocfuPgf/0H04AHZ7W2sOCJ/f2mJ//O735H59FP+1/nz3G2pIz8Ufe3aAcLYCZWhe7t+2xvWdY3YblrX+W9TU3xpmmTCED1eJp5EHsIwbDrLmqahqmpzaXk2m0XX9X3ft7Mb9PkkSSIIAhzHYWZmpnGtk5Nks1lUVUWSpJHq62SXfF+r1QYyzvTKwXGptc78MHUIjseono8CwWlm3OefAkE/CGdeMDK6mTRGUTSyyeUg2h2l/iae10ho9vo1/O1vaN98w+SjR8098i/m5ri/tMQ3t27xcHGRubk5qpkMkSg/90Ej0UgGlNJ1cqpK+pDlg+0mLklm7nbf9/p5L+eLooggCEin0xhxDoN0Ot10sCVJGqm+XuyS6xk2h41LIx+nBD0zFs8XgeAUMu7zT4GgF8TmD8HQaa3zmUTa2iFJEqlUamR15jvp60Qv+nd9n4eWxQPLouT7hFGELEnNiGopTmT20LKaic26On5zk92VlWYdef70p31Z6/96/Tr/53e/48937rAxOUkpCPa1c+L6OrUDSFGEFEWE0L1dv+0N67rG1E4wHAY5zvRK67hUKBSYnp4eiQ7B8RjF81EgOM2M+/xTIOgHEZkXDB1ZltF1HV3Xu0om0uvxw9bX7/mSrORWEOCEIS/qdb4rl3li26RlmSXDoBAvm04SnT2xbSQaNc4BfqhU2h6fC0PWNjd5vrvL4soK0Q8/ILXUkW9mrb97l8ynnzI3N0cqCNDjdmSgGgTMx3uD1+JSbIPSl+6iHV2Wuayq6HH2cUfTjq1vHK5rHO0upNOYikJeVZlsE6kHsIKAddfFin8LU1GYS6UwO5Tt6dXu4P0BjTwAWVkmd8QEbFj6jmvnSRJlVaVsGHjT01AoNLbCdFnf/bgk41KyamBY46tgsAz7+SgQnGbGff4pEPSDcOYFp4LTvtTpMP27vs+DSoWVWo0Nz2tmHPejiIvpNNcNg3txwrWkBNmLep1fajW+STJQex4pSTr0+LXNTcJXr3j300/U//pXwl9+QT6kjvz03bv8r/PnqWYy+9pZqdX4wbLIx05JOQhYdRyUNu31qq9TO7IkcVHXmZdlpuPEUduGwZqm8fwY+kZ9XSel77h2F9NpFjMZbhoG93K5ZiK9g6y7Lv++vc1yrQbAlUyGP05Pc6XDXsJe7Q7eHwBnNI3L6TS/MYy2D69h6TuuXTkMeew4PNY0ypcvE717B8vL0GV990Fw2sdVQQPxdxQITg5xfwnGHeHMC4ZOktXXcRzCOOJ2FEEQ4Lpu18cPW18n2um3goCVWo2/VSq8dBzWXZdd3+e8rnM7m92XPX1SVZGAX2o1/m7bPI8jk34UcdUwuGEY/PPkZON4z2OyWuX57i7vHj/mzN/+hv7jj7jv3lHTdVbn5/n55k1Kv/0t2Xv3WLh2jbu5HJEkMamqqJLEquPwsl5n3XWbe3HCuL3FTOZ4+uLjO7VzOZ3mpmFw3fPIxBm3a4bBE01j1XF4Fv9m3eobl+satL5+7WRgpVbjWb3OmuvyynHYjKPClzOZ95z5JFL+1Lb5Ni7NB/DO87iYyWAqyqER/X7tDt4fABd0nTCKuKTrTMJ77VSCYGj6jmv3S63G97Uaj6OI8sQETE1BmxcoJ0EyLtXilxDDGl8Fg2XYz0eB4DQz7vNPgaAfhDMvGDqt2UQ9zzvyrWcURSPNZt9JXyeO0u+EIRuex0vH4UW9Tj0MmVRVrhsGn+fz72VPLwcB35TLPI/LogGokkRR0/g0l/v1+GqVO9vbLD57Rv0vfyH98CHFnR1qcUT+yc2b/PiHP5D59FPufPIJN1qy1t8xTbwo4kW9Ttn32fI87PgBZsgys5p2fH29tJPLccFx2IrtrmazTOg6rxyHShD0pG+srmuA+vq1qwYBP1gWa65LLQxZjx35YirVXDLeSrIH/7tymSe1Gi9iB1uVZb4rl9EkiTum+d5LgH7tDt4fCed0vbnsvpU93+e/arWh6Tuu3TflMn+uVnniOOz5PkRR498QaB2XWrPZH3e8EwyXUTwfBYLTzLjPPwWCfhDOvEDwoRBnrU+/fs2Zhw/h+++JfvkFL4nIz83x8MYNHt6+zZPFRc6cOYOdTous9QKgETHecF1e1Ou8rNc5q+tN5/9gBDqIouZ3QRTxqFpFlST0OAo9CLsX9Tov4tUG9dh5X3ddXtbrjUi95+HEE7ENz2M7duSHpe+4dg+SxIOu21haXyoNbb+8QCAQCASCDwPhzAuGzmHZRNu9HR2XbPb9RquO0q/LMmc0jQtxwrJkmf0T294X2QN4aFn8UKmw6Xn4UYTastx70/P4oVIhb1nc2d7mzMOHRP/7f8ODB0gbG9R0nddnz/Lw+nX+8/PP+a8rV1jLZinVanxbqaDK8r52kiR8W56HKklMxnuwQ2DL8/rXpyi9t1OpsOd5ZOJs62vVKk9cty99Y3VdA9TXr939SoVVx6EWhmRip7MWhqzGifOyB67r23KZP+3usuv7XEynuXfA8U4y4jthOBC75Lp2fX+fM9yuXyx7Hl/v7bEXBEPRd1y7bcfhnKIw7Xn89OIFW8+eEcVL9U+ag9nsgYGMd4LhIrJtCwS9Me7zT4GgH4QzLxg6455NdFjZ7E1FYTFesrWQTu9LgPeoWsWPoqZDkCQsS0kSVw2DYvxQ2fQ8jDBk9d07lnd2uLyyQvH77+HBA4LVVfxMhvr58wT37qHdvcvU3bvMzs7ieB4+tG3HjyLO6zrndf29hGq96ktJEj/bNhH01g7w2LbZ8Tym44fttm2zpmn40Je+sbiuE9DXr50iSVxOpzkfv1BKEuY9tm3CQ64rcazvmSYX02mApuO6G5e6S/aED8Iuua7rcT35J7aNF0WH9wvPYzcImBqivuPY5RWFm7pOXZJ4vbfH1s7O0JbZg8hm/6Egsm0LBN0z7vNPgaAfhDMvOBWc9kjRYfonVZV7uRxXDGNfabpH1WrTsf86TvyWlBK7mE5zwzD4NJcDGiXSVt+9w11dZePxY+xvviF6+hRpYwM/k2FnYQH/s8+Y+x//g+nf/IYbU1OsyDL3KxUex9nM27Vz0zD4LJd7r9RZJ7uD+n4+RjvP63Ue1evocUTcsW3MdJpLx9A3Dtc1jnZAV8ffM03+eXKy6bxeiPezP7CsE7G7nc3yeT4P0Lw/juoXw9bXr93NVIrPVJU1XeebEU0ST/u4Kmgg/o4Cwckh7i/BuCOcecHQGfdsosPKZp+W5X3JsaY1DS1OsvbEtnlq28ixsxJGEUuGwfUD2dPzisKTUokXb96QefwY9aef8NbWqKVSOGfP4n32Gakvv2Tyt78lfekSC5JE0fPIKgohHNnOP8XtJBrXXbcru4P6omO288z3kWK7yPdZCsNj6RuX6xo3O6Cr47/I51kyjGY7uizjhCH1MDwRu9Ys/K33R7t+MWx9/dr9g66z4DhUfR9tBJNFkc3+w0Bk2xYIumfc558CQT+INSOCoXOcbKJeXG96XPR1ohf9k6rKHdPknmlSUFVkSSKMIsIoQpYkCvFy3iQreXL8V5LEP759y62XL5moVqmlUryam+PtnTvo//ZvTP3Lv6CdOQOSBHH5uV7aOa6+Y7cDRJJEJEnIMDB9I7+uMbM7dfrGrF/0andL15FseyRZ5A9ms9/e3hbZ7E8ho3g+CgSnmXGffwoE/SAi84KRkUTVOh3TzXEnwSDaHYZ+3fMo7u6i7+6Sdl1qus6rYpH6hQtIi4tw7hyTmoYistYLBGPHKMa3w8alUY2zgv4Z5fNRIDjNjPv8UyDoBRGZFwyd1myiqVSq7WCZDKTJ8aPIZn+Uvk70qj+pP/3Asij5fjOSl0T2SnFCrYdxSavk+IeWRdl1kcMQKYqw02leFYs8LBT4xvd5WK2y21I3vNd2jqvv2O0AUhQhRREhDEzfyK9rzOxOnb4x6xe92v3kOESGcexxplcOjkuFQoHp6emh6xAcj1E9HwWC08y4zz8Fgn4QkXnB0FFVFdM0KRQKzM7OUigUqFQquAdqLGuaRi6Xo1gsUigUME0TVT35LtutPlmWm4O753nv7afqVn+S7TqpP/3EtknLMkuGQSE+Pkmc9cS2USUJL14a9l25jG9Z3PN99NhhQFUhn2cvm2XDdXlXqaArCk6s70W93lU7aVlu7v/txe6gvuO0o8syl1UVPf7tHU1DP6a+cbiucbIb9+s6TN849Yt+7ZQgQNI0XNMkPz3d9zjTKwfHpcnJSYCO4107+tU36Ov62M43quejQHCaGff5p0DQD6JnCoaOoihks1mKxSJLS0tsbGywvLxMqVTad5xpmiwuLnLt2jWKxSLZbBYlLrs1DvqSwR6gUqngOE5f+pNI3sG61dcNg3tx4q+kpNWLep1Vx+FFnDH7iW0zV63yGxpJ2TRJIqsoXEinWVdVHto2y3Em7ZctpbO6aSeJNvZqd1CfH0V9tbPj+1zUdeZlmen4t902DNY0jefH0Dfq6zopfR/qdR3U50XRWPWLfu1Krgu5HIZhUFxcZHFrq69xplcOjkv5uFJAp/GuHf3qG/R1fWznG9XzUSA4zYz7/FMg6AfhzAsEI8IKAtZdl6e23Sy51Vq3+ot8vpnFezJO+LVSq/GyXqccOxBbnofh++iyTE5RUCUJI3bm13QdQ1FYj5f1Jg5RsmS5XTtpWd5XJ7tbu3b6zus6Nw9kTe+qHUXhTjbLFdclE7+QqBkGy6lUX/rG5roGrO9Dva52+s7pOtczGW5q2kj7xSDsfnIcDFmmMjdHdPYsvHnz3jghEAgEAoFA0A7hzAuGThAEVKtVNjc3efr0KSsrK1iW9d5xlmWxsrLC3Nwcm5ubVKtVstks8gnXZO5Wn+d5VCqV5v971b/uuvz79nZjSW6tRhBHRJO61UuG0cySfcc0qQYBP1gW667LVtyeKklMqSoFVSWnqmiShCzLfJJOUzNNNvN57qfTvKjX2YkdoilVPbIdPdaXOCjd2rXTd17X+SyX25f1u5t27mazfJXPM23bbMV2V7NZzhkGsiTxY7V6Kq9r0Po+1Otqqy+V4remyTXPG2m/GJTdtuvi53LUCwWsllKVCZ3GmV45OC6Vy2WAjuNdO/rVN+jr+tjON6rno0Bwmhn3+adA0A/CmRcMHd/3sSyLUqnE1tYWpVLp0PIgnuexs7PD5uYmpVIJy7LQdf3Ek5B0qy+pV9qOTvqtIGC5VuNRtcoLx2lE8mJH4GI6va8G/Vwqxbyuk1cUZMCO91tOKgppWW7s240TuciSxISicCaVYiGdZkVV2fH9ZuSQdPrIdpww5GXLC4Bu7drpyysK87reVzsXdJ2s51GOr+2MpmHqOq/TaV46zqm9rkHq+1Cvq52+nKIwn0pxBkbaLwZl9yoIQNchnYZDJoqdxpleOTgu7carGzqNd+3oV9+gr+tjO9+ono8CwWlm3OefAkE/iFdMgqHTWufTdd22E8coikZeZ/4ofZ0YlX6BQCBox8FxqbXO/HHGO8FwEc8XgaB3xn3+KRD0g4jMC0ZGN5PGZEAdBYNo9yj9pqJwJZPhneehyjJBFLEbR/gu1Ovostxcnrvr+6w5DuUgIASMOIIX0siGXw9DnChCA4Iowg4CNlyX1/U6u4rClKo2In80lgEf1c6Ler2Z2KsXu3b6ykHAmuOw7ro9t7OQSjHteTjxb7jheWzHCdF61TdO1zVIfR/qdbXTVwkC1lyX3Ij7xXHtdjyPvCRRdF323r7FefMGajWGwWHjknDiTx+jfD4KBKeZcZ9/CgS9IJx5wdBprfOpaRqSJLUdMCVJIpVKjazOfCd9nThK/1wqxR+np7mYyTQT4LVmx3bCsJk466Flcb9SYdVx8KOI2fg8W57Hju9T8n0qvk8uiqiHIa/qdX60LP5cLrOuKI09vAccinbtHMyq361dO32rjsP9SoWsovTUzo7nEUZRIwFe3OZatcqy5/H13h57QXAqr2vQ+j7U62qrz3X53rKo+/5I+8Vx7bYdh3OKwnS1yk/ff8/W/ftEOzsMg9ZxqVAoAAxkvBMMl1E8HwWC08y4zz8Fgn4Qzrxg6MiyjK7r6LreVTKRXo8ftr5+z5dE5s24pJwqSfuyYyf15+HXklaKJLGYyXDdMIBGqa4JRcH3PGzPwwhD7CDgZb3OK8fBDoJmVu2LLaWzOrXTmo27F7vD9PlRxGPbJoSe2tnxfR5Wq2x5HtPxw3bbtlnzPHaDgKlTel0noe9Dva7D9HlRxJNajb0x6BfHscsrCjd1nXoY8np9na23b2GITnQyLmUyGYChja+CwTLs56NAcJoZ9/mnQNAPwpkXnApOe6ToKP2Tqnpolusnts3XSXIq3ycty1xMp7mdzfJ5XBv6u709okyGjO9Tr9cbmVpjZ37P97lmGJyfnOSfJyebzsaFOFFXp3aSbNy92u3T17LioJ92ntfrPKrXm8n9HNvGTKe5dAx943Bd42Q37td1mL5x6hf92t1MpfhMVVnTdb4Z0STxtI+rggbi7ygQnBzi/hKMO8KZFwydJKuv4ziEcZbqowiCANd1uz5+2Po60Ul/WpabGa+deP/7E9vmqW0jx85KGEUsGQbXDYM/TEw0lu3aNpplUd3e5szuLnq1ihwE1GWZDUXB0XWu53LczudZMoxmG7osd9XOF33aNfUBmiThR9Gx2nnm+0ixXeT7LIXhsfSNy3WNi924X1c7fePSL/q1+wddZ8FxqPo+2ggmi8m4VIv36Q9rfBUMlmE/HwWC08y4zz8Fgn4Qa0YEQ6c1m6jneUe+9Rx1NvtO+jrRi/4kQn/PNCmoKrIkEUYRYRQhSxKFeDnvHdNkUlGYLJe589NP/O7BA668fs3M3h4pz8NTVfZyOZia4ubk5L564T23cwy7gbUDRJJEJEnIMDB9I7+uMbM7dfrGrF/0andL15FseyDjTK+0y2Y/bB2C4yGybQsEvTHu80+BoB9EZF4gOG3YNpTLpB8/Zu7+fXj0CDY3sYG1mRlWzp3jzcwMci6Hp4pbXCAQCAQCgUAg+BARkXnB0Dksm2g7xiWbfb/0on/X93loWTywLEq+34zkJZG9ku/zoFLh4atX7P75z/B//y/8+c/w889ElQrvJib45vZt/nTvHk8XFljJZPiL4/DQspoJuLpux7KObTewdgApipCiiBAGpm/k1zVmdqdO35j1i17tfnIcIsMYyDjTKwez2U9PT49Eh+B4iGzbAkFvjPv8UyDoBxG2Ewydcc8mOqxs9glJtuunts235TKPqxZy5HNejchKDSehGslk61XKLytsvV7F/etf4eFDWF7GrVaxp6fZu3YN74svSN24wcSZM9iZDD/V62jlcnMfLzSybX9bLvPEtknLMkuGQSGO4CcJupLv+rFTJQkvXrr23THb0WWZy6qK7roAOJqGfkx943Bd42Q37td1mL5x6hf92sm+T6SqlFUVbwQOtMhm/2Egsm0LBN0z7vNPgaAfhDMvOBWc9n2cR+lPInlJ/elNx2ZG9rmV8TknNZJTvQkzqJtlCj/9ndSjn5H/67/g9WuiSgV7eprXn31G7fPPuffll8ydP08+CHjoefvqXb9sKZ3VWh/7umFwL04wlpTOOo7dquPwIs7onZQ666edHd/noq4zL8tMOw4A24bBmqbx/BRf10np+1Cv66A+L4rGql/0a7dVr1PXdeqOQ3lEiZVO+7gqaCD+jgLBySHuL8G4I5x5wdAZ92yiw8pmbwUB667LU9vmu3KZ+3slftnbwHVKmHIFJItIqpHx4Fw1g/lil4vf/8yZxyvoL19ScxxKk5PsLS1R/+ILjC++YOHmTWYmJwktC7lc3lfvOnGIks+S+thf5PPNbOGTqkpalvuyUyWJVcdh1XGwgqBpc17XuZ3N7stK3lU7isKdbJYrrksmLu1VMwyWU6nTfV0D1tevnQys1Gq8rNcpxw7pludxXte5aRj8U5w8cdz0ndN1rmcy3NS0kfaL49ptOw6PHYe6LFOem4OzZ6FUgji7/Ekjstl/GIhs2wJB94z7/FMg6AfhzAuGznGyiebz+eay0HHQ14mj9K+7Lv++vd1YklursWZtUC2vEFZ+4Vn1CW/dTdIEnC/DnVWFiy887i6X+WTDIlersT01xf07d/C++IKbX37J2Rs3MCYm0NvUrd+JHaIpVd1XH3vJMJrZuI9j50URL+p1rCBoRisnVZXrhsHnsUPTSzt3s1m+yueZtm22Yrur2SznDANZkvgxrod+2q5r0Pr6tasGAT9YFuuuy1acpVeVJM7rOp/lciO/rrb6Uil+a5pc87yR9ovj2v1QqfDMtlnPZtn77DMiWYa//hXevOGkOZjNPooikc3+FDKK56NAcJoZ9/mnQNAPwpkXjIxuEi1JkjSyhEyDaPco/RXf40m1woPKHq9dD6tuodW3oPqK6s5jUuW3FGxIbcH5Z3BlFT55B0aYZmNqiqeLl/n+9k2yt29y+/JlJopFADTYV7fejyJeO07TEZ3RNG5ns+/Vx+aYdhfTaS6m06w6DvX4DXbr572283k+z1Img+J5lOPf8IymMZPJ4AIBnMrr6qTPDUNWajXeOg5+FEE6zb3YQTysPScMeZlONx3KJELcyW5e18krCjJgx9c1qSjkFYV5XR9YO4PWl1MU5lMpzsC+fmHqOq/TaV46zlD0DcKuHEVsplIwPw8bGxAv1T9pDhuXROK708con48CwWlm3OefAkEvCGdeMHRas4mmUikkSTr07WgykCbHjyKb/VH6OtFJfxCF1AOHeuAQRBBGIV7gQegShiEFGz5/A/+4Cl++gislyLkSG9MT/PnWLR7cvsnfb17jk/Nz1Iz3nYCk3rUXRTyv1fBjh+h6JvNeRHkQdrosc0bTuKDrzc8u6Dpn4uRkvbZz1zTJSRLWAbsJVeWuaRLAqbyuTvqSiHTrsn6BYFAcHJcKhQLAscc7wXAZ1fNRIDjNjPv8UyDoB+HMC4aOqqqYpkmhUGB2dpZCoUClUsGNM1MnaJpGLpejWCxSKBQwTRN1CHXTu9Uny3JzcPc87739VEfpj4gIPAun8gynvEmIQeQ7BEqGDAUKdo7b2zv846rH71ZDrpTACHU2pif4rwvn+ObqPI8umOzmq+SUHRwcIiIkfn2LnJZl5lIplgyDL/J5ZmKtVzKZ9yLDrfRrZyoKi/EStIU4wnhG01jMDaz6dgAAIABJREFUZDAVpa92giB4z5lPyzJZRTnV19VJ3+f5PACrjoMiSezGkd8L9Tq6LDdfBiSfJ4nYplS1Gd2dUtUj7dYch3IQEAJG/FIiBMpBwJrjsO66A2ln0PoqQcCa65LzPJx4ErbheWzHifKGpW9QdrKuo2gadUVhW5aptUwuk8mkGe+5tyzrWEvhJUnCMAxmZma4dOkSxWKRyclJgI7jXTs6jYODthPnazCq56NAcJoZ9/mnQNAPomcKho6iKGSzWYrFIktLS2xsbLC8vEypVNp3nGmaLC4ucu3aNYrFItlsFuUQ52lU+pLBHqBSqeDEmbU76Y+IiKKIwNnCffdnvM1nhNo86HOQnqegKXxeesM/vt7jyzd7XHnnkHOJI/K3+ebqPN9+ovE28xp17xHeu3XChUtE0VmQ2OfQQ2Np7x+np/kyjvKaitLWoTyO3aSqci+X44phNMt06bKMqSiHRqKHre+0XNd5Xed/zs7ym2yW+5UKjw9kTXfCsJlQrbUKQpI9/d4Bx7Gd3f1KhdV4Kf9s7GRseR6rjsP9SoWsogyknYHrc12+tyzqvk8mtl2rVln2PL7e22MvCIaib1B2s7kcRibDeirFN4rC65ZlnZIkkcvlWFxcBGBlZYWdnR2gsZ/z4BLQ1pcABz9PIk0zMzP8/ve/56uvvmJhYYF8/OKo03jXjk7j4KDtxPkajOr5KBCcZsZ9/ikQ9INw5gWCIeOHPjWvRtnewNp7Sn3nMUFqk3SqzJSmcHPd5ovXAb97w4GI/Hm+uTrPXz8xeGZuUQk2ydbWqexF7NnrWO5lMloGTd6/FMxUFK70kbSlV7sksjyodjpFH0/rdXUir6rcVFUKmkZWUUgdyJpeD8Omo5iUOmvNnn6xpURaJztFkljMZLhuGMCvpeke2zYhDKydQerzoogntRp7nsd03Ee2bZs1z2M3CJgaor5B2F3VdQzX5e3iItKnn/J8chIvTvinaRrFYpFr164BMDc3x+bmZjM6r2lac4IZhmEzunTY50mU/9KlS3z11Vd8+umnzM7OomkagdjOIRAIBALBqUQ484KhEwQB1WqVzc1Nnj59ysrKCpZ1cDF1Y0npyspKcwJbrVbJZrPIh+xTHoU+z/OoVCrN/3er34kcNqobvKm8oVQrUa1tEjhlZpwtPttd4x9f+fz+yXOure2Rq/tsFKb3ReSfmVtYzi8E/gbVsE6pdoY3lTdsVDeYN+fRUmJf14dAsof+YNb0J7bN13FJtpLvk5blfdnTE6fyQpyQrZNdkmwQ4LtymUdxNvhBtzNIfc/rdR7V6+hxBNqxbcx0mksj0Hdcu0uqijo5SblY5MqVK2xublIulwGae9qLcXLLzc1NSqXSvu+TfZ+O43T1ebFYZGFhgdnZWXK5XNfjXTs6jYODthPnazCq56NAcJoZ9/mnQNAPwpkXDB3f97Esi1KpxNbWVrM00kE8z2NnZ6c5gbUsC13XTzwJSbf6knql7Win38Vlt7bbcOS9Kp5fBaqo1SrZdxWmtiSKu3ukA5n1wgyPLl3im1s3GxH59AtK4Sr4a+DuEAKWa7FV2WJjd4OUnyJMh2iahqqqzehcEAT4vr8v4pc8lMIw7OrzYZ9PkiSCIKBer2PbNgD1eh3P85pLhk/jdfVyvglN47KmUTNN6mHIE9vmqW0jx05sGEUsGQbX4/35rXvydVnGCcOOdn+YmGguA9ckCT+KTqSdQet75vvN5eSR77MUhiPRNxA702R2cpK5uTksy2o6fblcDtM0yWazAFSr1fe+1+PEjI7jdPV5cr5kHK3Val2Nd+3oNA4O2k6cr8Gono8CwWlm3OefAkE/CGdeMHRa63y6rtt24ph8Pso680fp60Q7/YEaUPNr1LwaQfjr8lZb8Xht7PIyK7Orh0SpGf5y/Trf3bjOtzeu88zcxSq9AXsF/GrTzvVddqo7rL1bI9qNqKar5PP5Q52A1ghd62S/m8+Hfb5UnABvd3eXd+/eAXDmzBlM00SWZWRZPpXX1ev5NMPgViZDOQz5encXWZII474lSxKFeLn2wSz5SWR/1/e7tuv1+H7bGYg+IIydZBnGQt9x7JK9nLquN/exH3w5dNj3rS+Buvm89XwwuPFOMFxG9XwUCE4z4z7/FAj6QTjzgpHRzaQxiqKRTS4H0W4v+uuawtpkhidBjr/6edKp83x74wYPFy/z7Ow8JUKovP9WuGpVWVlegRcw6U0yqU0euTw3iqKenEpJkkZyvlQqRRRFlEolVlZWACiXyywsLDA3N4ckSafyuno939SZM8xcvIgt9jZ/0CQvqDRNazth7PR9r5+3Ipz408con48CwWlm3OefAkEvCGdeMHRa63wmy6nbDZiSJJFKpUZWZ76Tvk4cpt/HJ6NmyGgZFPnXCJmTzrI5scj3c5d5t3QRRZ9nrTDFdj6HZWTBzUH2CvgWVFcgTna1/W6b7378jp+2fkKzNDRfI5VKMTs7y9LSEgBPnz5la2trX4KsXpZ7j/J8juNQrTZWIpimyfz8PEtLS0iSdKqvq9vzFa5c4dK//ivlS5dYjyLCKNq3bLsUJ1pLIsLJcu9d3+ehZfHAsij5fkc7oKfj+21nYPoAKb4vQ0kaub7j2o2KQY53guEyiuejQHCaGff5p0DQD8KZFwwdWZbRdR1d17tKJtLr8cPW1+v5UlKKycwkhUyBrJZFU7MEcho/cx5/8iZO+hIlZRpkDUfawafccOQjD4xPIHIh9CAC3Cq1vRpv/v4GXkJUicBtPIQKhQIbGxtAo6RV696wXkpaJZ+Py/kKhQKbm5sj13Hi50ulkHI5JnSd11tb6MUiaibDVV1nWteR+DWh2hPbJi3Lzf3a0Miq/m253PxuyTAoxMu6W+1UScKLdXzXxfH9tjNIfbosc1lV0eOXJI6moY9I33HtoLE0Pz2ixErDHl8Fg0X8/QSC7hn3+adA0A/CmRecCk57pKhVv67qnMme4VzuXMOhzxSppuYJzSsweY9AyeJU34L1isB+BpLUiMgbn0BmDjQzPqkG9RWouUTlCCzA/7W9SqXC8vIy0MjM2qqh0z6xwz4fl/ONi44TP59pEl2+TPXKFV4VCsxmMlzOZLiVy/HfpqZQFKVZ6qy1rvnLlhJprfXMrxsG9+IId6vdquPwIs7AnpSmO+r4ftsZlD4virio68zLMtNxQrFtw2BN03g+An3HtUvq0I86Qi84vZz256NAMM6I+0sw7ghnXjB0kqy+juMQxtGsowiCANd1uz4+qetcj49Ny3JXka/Ebq9eZ69WY81xmuc4Dgf1p+QUZsokb5zBnFgi7WjUtXk8fR5Uk8i38OvPofK4sZweGkvrI7fhyKtmvNxegboK8mvwSuDWGtH6GNd1KZVKx9Y/bucbFx0ndr5UCrJZWFiAGzfwLlxgLwgo7O3xiarymarypWmS0vVmv26ta544vslnST3zL/L55nL1SVVFBlZqNV7W65Rjx3LL8ziv69w0DP5pcnLf8f22M2h953Sd65kMNzWNTFzyrWYYLKdSQ9XXr50qSbx2HF47Dn+rVPCjCC/Ocj+XSmG2JKdrpd9xrRO9jseC8aLX56NA8DFz0vNPgWAUCGdeMHRas4l6nnfkW88oinrOJrrr+zyoVFh3XWRJYi6V6irylex1fVEus7O7y8/lMjsd9HWirX4JFH2W1MyXaMpVZAzwHaitQ3UZdn+E2qtfs9ZXVxpL66HhyGfmQJmFYA4mfgbtrxC96VunYIzIZmFxEW7ehHv3wDRhfR1jZ4eFpSUWJibIhCG5NnXod2LHd0pV99UzXzKMfVnhq0HAD5bFuuuyFe/RVyWJ87rOZ7nce1nk+21n4PpSKX5rmlzzPLbi469ms5wzDGRJ4sdqdSj6+rXzoojntRoPLIufbZs11+V5rcYX+Tx/nJ7mSpvxLRmf1l2XMIqYS6W4l8sdO6Lfy3gsGC/6eT4KBB8zJz3/FAhGgXDmBSPj4D7hdsd0c1wr9TBk3XV5atvsBQFzqdSRe1OTiNdT2+bbcpmXlQqS4/AuCHCOObFtp19CQtFM9Nxl9KCA7INkryMHz8DZJHQ2iNydXw1cF0nWkZ0tSJ8lVHNEsglpBbQ9kNLH0ikYI1IpKBQa/1IpsCyk5WXSmQyzFy4wq6rokkRalpuOnBOGuGHISq3GW8fBjyJIp7kXO5YX0+l9Tt9cKsW8rpNXFGTAjiMOk4pCXlGY1/X3jnfCkJfpdNNxTSLRndrp166dvpyiMJ9KcQYox/fWGU3D1HVep9O8dJyh6OvX7pyuM6NpqJLEO9dl03Wxg4C8qvKPExPvdYeD49O66zIRR+8HsXIooddxVjB6+nk+CgSCk5t/CgSjQDjzgqHTmk00lUq1zSaaDKTJ8b1kE5Ulib0g4IFlNZ33dntTk4jXt+Uyf9rdpeI4XFMU0uk0qqL0nd25k35FkkkrOmlFRwk8ZElGUzSQU3iSzMEiZLIko8kaKPH3IY098j77ltcLTjmS1PhnWbC8jFQqIT18iHb2LHlZfq8fJVnRk0j2quNgiRJ2Y4vE/kmiH0VYQYAVBI2XMAc4OD7Vw5B7ptnMkH9cuh2PBePFcZ6PAsHHyjDmnwLBsBHOvGDoqKqKaZoUCgVmZ2cpFApUKpVm+a4ETdPI5XIUi0UKhQKmaaKqnbtsErGcS6Wa+1ofWBbAvgg9sC/i9cCy2PV9cqrKhWyWsFDgTbGI3UZfUvMZGku3Du6n6qQ/p2pcz+bYDSLStRproUnVnSXMfkIOm3R2hnTs0tdRqKeKONlPkNMzTKdNlFDCrznU7TpWELJfXWd9vTIu5xsXHSd2PteFZM99FKFVq+SqVYqqSsE03+tHSX9fMgw+z+cBWHUcFEliN44YX6jX0eM91tDo92uOQzkICAEjKYsHlIOANcdh3XX3Hf+iXm8mbptSVYgTvk2p6pHt9GvXTl8lCFhzXXKe11w5s+F5bMeJ8oalr1+7VcfhnedRD0MysoxMI8L+zvN4c8jvfnB8mlTVfePbcel2PG6HuI9Hc75+n48CwcfMSc8/BYJRIHqmYOgoikI2m6VYLLK0tMTGxgbLy8vvJQ0zTZPFxUWuXbtGsVgkm82itEkO1UoSqTy4p/Vg9mhgX8QryT59N5vlq3we9/x57Bs3CN+9O1RfMtgDVCoVnDizdrf651Ip/jg9zcVMhu/KZe4r8CPg6lNcLt7kgmRxVqoB8DbK8DIyeRbmSOkF7k6cYcrfpVKpsFYqseK6HEy51klfr4zL+cZFx4mdz7JgZQVev4YoavSj+fmO98F5Xed/zs7ym2yW+5UKj9tkTYdGv79fqbAaL8mfjZ2MLc9j1XG4X6mQVZQj75N7Bxzbbu+vbu3a6nNdvrcs6r5PJrZdq1ZZ9jy+3ttjLwiGoq9fu6S8XuKYh1HU2+9+yF7849DteNwOcR+P5nz9Ph8Fgo+Zk55/CgSjQDjzgg+Og3uJ4dcM0w8sq7kHFX4tFdWaffp3psnVdJrNeG/ySWEqClcyGUxFQZMkVEmihsKmM0la9kF2kGJnnihDOtQphiozWprfZnMYWyUer6+z/vYt1GonplMwZFoj8wCeB9PTHc3yqspNVaWgaWQVhdSBbOuH9XtFkljMZLhuGMCvpeke2zYhHHmfXGwpxdbL/dWL3WH6vCjiSa3GnucxHUfmt22bNc9jNwiYGqK+fu38KOK8rvf1u3+Rzzcz3wsEAoFAIPi4Ec68YOgEQUC1WmVzc5OnT5+ysrKCFS+Db8WyLFZWVpibm2Nzc5NqtUo2m0Xucmlpuwj9E9vm67ikVcn3ScvyvojXZU1Dc5yO+jzPo1KpNP/fr/6DOr+vyCzbFs+dgKzUmOxXI4WcpnLFMPlNOsM/aBol2+ZPKyt96+uVcTnfuOgY1vl6vQ967fe3s9nm8vzvymUexdngO90nifN6IU781u391avdYfqe1+s8qtebL9sc28ZMp7k0An2DvK5u2hlURD6h2/G4HeI+Hs35jvt8FAg+RoY1/xQIholw5gVDx/d9LMuiVCqxtbVFqVQ6NAGJ53ns7OywublJqVTCsix0Xe86CcnBCH09DHli2zy17WbyqDCu73zdMJoRr4kgYNu2O+pL6pW2o1v9h+n8pVZn1XeRJe1XnSmVm1mTz3Sd846DZVmUt7f71tcr43K+cdExrPP1eh/02u//MDHRXNatSRJ+FHV1nyRt6LLc0/3Vq107fc98v5lELvJ9lsJwJPoGfV3dtjMouh2P2yHu49Gc77jPR4HgY2RY80+BYJiIV0yCodNa59N13bYTxyiK3qvz2U9EI4lU3jNNCqqKLEmEUUQYRciSRCFevprU1e5WXyd61d+tzlu6jmTbx9YnOB30ex/02u97Pb7fdgamD4gkiUiSkGHk+ob9uw+KQY13guEyqOejQPAxMez5p0AwDIQzLxgZ3UwakwF1FAyi3ZPULybdHw+jvA8EHweif50+xLggEPTHuM8/BYJeEM68YOi01vnUNK25VPYwJEkilUodq85nUqf5gWVR8v1mxCuJgJXiRFUP49JPvejrRC/6u9X5k+MQGcZA9AlOB/3cB732+16P77edgekDpChCiiJCGLm+Yf/ug2KQ451guAzi+SgQfEwMe/4pEAwDsWdeMHRkWUbXdXRd7yqZSK/HJ9mjrSDACUNe1OvNclBpWWbJMCjEy1WTBFNPbBtVkvCiiHlZxgfKqoo3gIltO/396gw9D0tRWE+nqU9PQ6EAlUojC7rgg6XTfdBvf5Jo1JYH+KFS6Xi8DFSDgHldB2AtLql2UnaH6dNlmcuqih73eUfT0I/ZTnL/n9d1IuCN43T1+6VlublPHhrZ7L/tYbwBemoHGkv5B1FjHnofXwXjhfj7CQTdc9LzT4FgFAhnXnAq6GWp067v86BSYaVWY8Pzmhmi/SjiYjrNdcPgXpx4Kin99KJeZ9VxeFGvc05RyAcBq45DOZ6gn4T+fnW+sG2WVZW6LLN58SLRu3ewvLy/nJngg+So+6Df/vRLrcY35TIAm55HSpKOPH6lVuMHyyIf19wtx/eKckJ2B/VpksRFXWdelpmOE4ptGwZrmsbzY7ST3P8zmkYURbzzPJ7UagQdfr8kWv6ypTRda134Tu0BXf2dDtatF6XpBAliKbBAcHKI+0sw7ghnXjB0kqy+juMQduEsB0GA67pdH28FASu1Gn+rVHjpOKy7Lru+z3ld53Y2uy+L9KSqokoSq47DquNgBQEvZJk5wHIcqnFE8Di009+vzleeh+X7+LJMeW4Ozp6FN2+OrVMw3nS6D3rtTxLwS63G322b5/EKFD+KuGoY3DAM/nly8tD+97JeZ911m3u0wthuMZM5st/2atdO35VMhqVMhluaRiYu4VYzDJ5oGquOw7P42nvVl9z/aVkmiiL8KKIeRSzoerO+e6tdWpb31ZNPHPPks9a68Ee1l9i0+zsdbAcYaIS+1/FYMF70+nwUCD5mTnr+KRCMAuHMC4ZOazZRz/OOfOt5MJtoPp8nk8kceX4nDNnwPF7Gka96GDKpqlw3DD6PJ9ZJVug7pokXRbyo17GCoLFMOQypA77jUAvDY72VPUp/3zp9n5LvY8kyzsQETE2B2Mv1QdPNfdBrfyoHAd+UyzyPy6IBqJJEUdP4NJdr2//Kvs+W52HHExtDlpnVtI79tle7o/Tdy2a54ftsxcdfzWaZ0HVeOQ6VIOhLX3L/12K7GU3jhmHwD7nce/Xd75hm06FOHPmdOHI+papt68If1h5w5N/pYDuDjtD3Mh4Lxot+no8CwcfMSc8/BYJRIJx5gUAgEHz0hFGEE4a4YYgqSfsi6wfruyf/d8IQP4p47ThNJ3tG07idzba1u5hOczGdZtVxqMcvDlo/b9cONCL49TBk3XVZd12uiUiRQCAQCAQfNcKZFwydw7KJtns72k82UV2WOaNpXIgTYCXLjZ/YNt+Vy2iS1FzG+tCymsmnkqWxM8kye11nXZbZO0JfJ47S36/Oku+TlySMMGRzbw9/ZwdE/dMPmm7ug1770w+VCpuehx9FqC3L2Dc9jx8qFfKKcmj/2/K8hrMb70kPgS3P69hve7U7St+DahXP98nEDvRatcoT1x2IvhlNw1QUrmcy70XKW0nqw3tRxPNaDT92rDvZHfw7AVzQdc7ESfzatZN8t+66TCgK4YAi6L2Mx4LxQmTbFgh646TnnwLBKBDOvGDonHQ2UVNRWIyXQi2k0/sSgT2qVvGjqBlFSxJM+XEW6+uG8WsCPF3n77FDcBza6e9X51lN47KqUg9D6uvrVN++hVrt2DoF402n+6Cf/pSSJK4aBsV4kpIkwPvZtomg7X1yXtffSzDXzf3Vq91h+jRJ4mmtRtnzmI4nYdu2zZqm4cOx9SXO/E3DeC+y3kpalplLpVgyDL7I55mJNV7JZI60O/h3AjijaSxmMpiHjDdJO9CI0K+7LmEUMZdKDSSjvcjWfLoRfz+BoHtENnvBh4hw5gWngl4iRZOqyr1cjiuGsa9E16NqtengfB0nzkpKP11Mp7mdzfJ5Pt8oTVet8jdd59sBDd6H6e9X5zVN47aisB6GrL54wfrKClGcGEvwYXPUfdBvf7phGHyaywGN0m8/x9nT2x1/0zD4LJd7r/Tb4xOyO0zf83qdR/U6ehyxd2wbM53m0gD0ndN1VEkir6pd7UefS6X44/Q0X8bJ7ExFOdLu4N8JGtF6U1EOjeS32t0xzebS+rQsH3m84ONBrKQQCE4OcX8Jxh0xExAMnZPOJtoayQKY1jS0OInWE9vmqW0jx05AGEUsGQbXDaOZRXoiCNiuVsn7PtoABvF2+vvV+TtdZ8FxoF4nvb3dKEknHjYfPJ3ug377U2vW+ryiEMGRx/9TfHzS1rrrklUUwhOya6fvme8jxcdHvs9SGA5UX7eYisKVHpIiHfw7nbRdJ0Q2+9ONyLYtEHSPyGYv+BARa0YEQ+c42US9PvaGJxGte6ZJQVWRJYkwigijCFmSKMSJrpI9roPM7tyL/m513tJ1JNsW2ac/Ivq5D3rt970e3287A9MHRJJEJEnIMHB9Hwsim/3pZRDPR4HgY2LY80+BYBgIZ14wMpKoWqdjujnuJBhEuyepf1S/i2D4jPI+EHwciP51+hDjgkDQH+M+/xQIekE484Kh05pNNJVKtR0sk4E0Ob7fbKK7vs9Dy+KBZVHy/WZELonQlXyfB5bFQ8ti1/e71teJXvV3q/MnxyEyjGPrE5wO+r0Peu33vR7fbzsD0wdIUYQURYQwcH0fC4Ma7wTDZVDPR4HgY2LY80+BYBh8fGsKBSNHVVVM06RQKDA7O0uhUKBSqeC67r7jNE0jl8tRLBYpFAqYponawzLYehiy6/s8tW2+jctPpWWZJcOgEJ8nSYCVfKfLMpc1Dc0wKBaLXLp0ibW1Nd69e4dt280lWckgb8Z7eS3L2rdkS5IkDMNgZmaGS5cuUSwW2+rvVacSBEiahmua5Ken2/5+siw3Hz6e5x17v9e4nG9cdAzrfL3eB732J1WS8OJ++10P90mSvO1Fvd7T/dWr3WH6dFnmsqqix33eicu6DUIfNJbmDyJT/Gmg2/G4HeI+Hs35jvt8FAg+RoY1/xQIhonomYKhoygK2WyWYrHI0tISGxsbLC8vUyqV9h1nmiaLi4tcu3aNYrFINptF6aFUXBKR+7Zc5k+7u+z6PhfTaa4bBvdiJzwpTfWiXm9G5Wqmya1MhoWFBb766isA/vM//5PXr183zy1JErlcjsXFRQBWVlbY2dnZ9/3MzAy///3v+eqrr1hYWGirv1edJdeFXA7DMCguLrK4tXXo75c8jAAqlQqO43T92x3GuJxvXHQM63y93ge99qdVx+FFvQ7QLNPWzX3yMi6r9qJe7+n+6tXuoD4virio68zLMtPxb7ttGKxpGs8HoM8Jw74S4Z1Wuh2P2yHu49Gc77jPR4HgY2RY80+BYJgIZ17wwWEFAeuuy1Pbbpbm2vX9Rkko0+SLfL6ZHTuJwCXLeB9YFm4YUosiZrNZFu/caZ73+fPnzQQomqZRLBa5du0a1TCkPj2Nv7lJGIZkZZkzmsbNS5f46quv+PTTT5mdnX1viVbZ91l1HJ7adrN0Vrc6f3IcDFmmMjdHdPYsvHkzpF9XMK702u9lYKVW42W9Tjl2ZLc8j/O6zs2W7O7J8Qfvk8TBTj7r9v7q1k6VJFYdh1XHwQoCwihiy/M4p+tcz2S4qWlk4hJzNcNgOZUaiD7go4zQCwQCgUAgOH0IZ14wdIIgoFqtsrm5ydOnT1lZWcE6pE66ZVmsrKwwNzfH5uYm1WqVbDaL3GFyve66/Pv2dmNpba1GEEca75km/zw5yZJhNLNW3zHN5sQ9cQBWajV+sCw+Taf5t08+4V+mp7ly5Qqbm5uUy2UA8vk8hUKBYrHIC89j+/lz/FIJPwi4qGn893yeT4tFFhYWmJ2dbUZkWll1HP6/rS2+K5dZdRwUSepJ57br4udy1AsFrEOiiJ7nUalUmv8/LuNyvnHRMazzdXsf9Nrvq0HAD5bFuuuyFetUJYnzus5nudy+7O6H9b+d+AXAlKr21G+7tfOiiBf1OlYQsOv7OGHY0JdK8VvT5JrnsRUffzWb5ZxhIEsSP1arx9L3sUXoux2P2yHu49Gcr9/no0DwMXPS80+BYBQIZ14wdHzfx7IsSqUSW1tblEqlQ8uDeJ7Hzs4Om5ublEolLMtC1/WOSUisIGC5VuNRtcoLx2lE5OIJ/cV0et/kfC6VwglDXqbTTQfgbRwNBPhsaooLhQK/KRbxbbs5GcvlcqiGgafrvLVtZMMgKpchCEin08xNTfHJ5CRnJybI6fo+fa17mr8rl/m2XMYKAs7qek86XwUB6Dqk03DIAyappzooxuV846JjWOfr9j7otd/P6zp5RUEG7Hj/7qSikFcU5nW9Y/9LIt+k0z31227tzus6M5pGWpbjHEkeAAAdb0lEQVSphSFuGDKjaUyrKudSKc4A5Th50RlNYyaTwQUC4LXjNJ3yGU3jdjbLF/k8S4bxXjtAc3/9ru9TD0PWXZd11+XaR1BXuNvxuB3iPh7N+fp9PgoEHzMnPf8UCEaBcOYFQ6e1zqfrum0njsnnrXU+8/k8mUzmRPX5UYQVBKw6DvcrFTKSxK1MhplMhnw+DzSW2b8LQ36q1fhLpcLfHYc3QUAURRhRxOMoohBF5KOIgzH5ZE/z/UqluYTYF7WdBW0Y1X0waiIa155cvypJmIqCqSioh2QgnlBV7pomAfC8VsOPHfHrmQyfx0vrD6sjn9ShTyL0667LhKIQfiT3ZLfjsWC8+FjHBYHgOIz7/FMg6AfhzAtGRjeTxtbJfLeYisKVTIZ3nocqywRRxG4cEbxQr6PLcnNSn3yeLK+dUtVGpBtQJInHtk1KlsmoKpphMBlH2Xd9n2eOw18si59sm1CSKMTfSarKL56HUauR03WkA+0lWcYf2zaKJHE2tptS1a507ngeeUmi6LrsvX2L8+YN1Go9/UaC00U390Gv/X7NcSgHASFgxI5sCJSDgDXHYd11u7pPuu23vdq9cRzeeR5+FDGjaUyqamOvfDZLXlXhQJQzLctkFYUlw+CLfJ6ZOIJyJZN5LyJ/0K41Qr/uuoRRxFwqJfbLCwQCwQfISc0/BYJRIJx5wdBprfOpaRqSJLUdMCVJIpVK9VTncy6V4o/T01zMZJqJwA7bCwscmvX73gFHZNzsth2Hc4rCdLXKT99/z9b9+0QtmfQFHx7d3Ae99vtkZYgfRczG59vyvOaKlKyijLS/fxfv/a9HETfiDPSf5/Ncy2SYVRTq1eqhv1XyO3wZBEDjJUc3+96TCH2ytD7d8nLhQ+awustiAjv+iDrYAkHvnPT8UyAYBR/+TEUwdsiyjK7r6LreVTKRXo9PIpSmoqBJEqok7ctWnexZh19LU7Vmu77YUtJqHO3yisJNXacehrxeX2fr7VsQk+8Pnk73QT/9XpEkFjMZrhsG8Gtpuse2TQgj7+9BFLGg6/xDLtfMQn9G0wiCgHqb3yn5HXqlNUL/MZHUXS4Wi1y6dIm1tTXevXuHbdsdnfrEmTTjlzCWZeF5/397d7vctnXmAfyPN4Lim2iKImVZsqzKstKoTuO4M931RtNPO3sD24vpFfRifAf+1HZm0+14MvXUTRonZuIsbb1QFiVRJEWAIM5+EAGTNCWRFF8OyP9vRtMU4nl0AD+Q8AAH59RH1o7xPsSLRCJIp9NYX19HJpPhOthEPRj19SfRJPA3PwXCIBc9ne/CerNVf1et4i/NJa2KjoOwqrbNdu0VG2vNibpka/dpKITHuo4908Rf+cdlpvRyHvSb97+KRvHb5lwQrU/0Zcn3brPQ0/B46y6vrq5iZ2cHAPDVV18hn88DuMg5pWOOAm+boiiIx+PY2NgAAORyORw3RwkNux0AxmuJl06n8eTJE+zs7GB1dZXrYBONCEcqkex4ZURj583qa1kW3B5mi240GrBtu+fPezrfha25Lr6rVvGqWoXavEhyhcBWJIJPmu/Ztr5ba6qqlO1+Y5pYtSxUHAcG/8jMjF7Pg37z/sv5eX94u6EocISQKt872/HCarhUVYWqqlhcXMSjR4/87T/99JP/9NgwDL9QdF0Xtm37T5szmQwePHgAAP4yTqNoB6DneNlsFru7u/6SU9FoFKZpQlGUgeINu3/DiLe+vo6dnR08evQIi4uLHAJM1INxXX8SjROLeRq71tlErxtqKIS48Wyi3pPKE8fBX05OoCqKP1O1qihINYf/ds52LWu7bVXF2fFxT8ePpsMg58EgeShjvl82Cz0NVzwex+bmJpLJJO7fv49CoYBSqQQAbe/TW5bVtj2VSiGTyQCAv4zTKNtdF08Igf39feTzeeRyOQDAxsYGUqkUVFWFbdsT7d+w4mUyGayurmJxcRHxeOeaKUTUzbivP4nGgVdIREREMy4UCmFhYQGJRAJLS0sol8s4OzsDcFHom81VNyzLatsei8UQjUYBAJVKZeTtrovnui7u3buHlZUVfynR7e1tZLNZaJoG27Yn2r9hx+MTeSKi2cZinsZu3LOJeuu6vyiXUXQcuEK0DectNifg8p4UesN5ZW0XMk2sRiI9HT+aDoOcB/3mIQAp872zHY2W9w69aZp+MWwYhj/5k+u6bdt1XfeHgo+j3XXxVFVFNBpFMplEOp0GACSTSSQSCWiaBiHERPs3inhE1BvOZk/TiMU8jd24ZhP1Zsf21nX/rlpFWFWxFYkg1Ry260205X3Pe48XuJhtW8Z2quNA6DpKuo56xwRJNL16PQ/6zXtdUVBvXsz8TcJ899oBF0PzTeb8SHnv0BuGcemQ0su2j7tdt+3eO+jhcBiR5ioN4XAYpmlC0zQoijLR/o0iHhH1hrPZ0zRiMU+BMMiTZ+/JX+c6158016wGPiyB1bre9c8tS2fJ2O6wVkPNNFGzLJQ4IctM6eU86Dfv31oW3jRnlveWppMp3zvXoc/y6QgREY0JRz6S7FjM09iNejbRzieTL8rltnWuvfWqgYsnfWFVbVvv2itsvG2ytTuyLHxrWaipKkpLS8DyMlAsAufnff5LUJBcdx70m/e6ouCtZeGtZaHcaAC4yMEV08SvotG2We5lOE+Aixnwxdwc4nw6T0REfeJs9jSNWMzT2I16NtHLnkx2W6+623rcx80ngbd0Xcp2fz87w4/VKvajUZw+fgyhqsDz58C7d33+S1BQ9HIe9Jv3dSHwplZDudHwn34ndR2fRCL4bbOwliHfvXZeH88bDTycmwPfFiYion5wNnuaRizmaWKUHp6uKYrS0+da1VwX+7aNfdtGzXXbnvy1rlcNoG09btt1kTs/x65lwRECCIfxebPguBcOf9TOcl38HA77BYr3xHEc7UpCoBAKAbdvAwcHQHPoMk2nXs6DfvPey7O3loVa84lD6/bLzhNHCOQtyy+u04aBX0Wj155fg7YDLm5U+PtnWdg0TUQHO5RERDTjRnX9STQJLOZp7FpnE/XW0O12d9T7Rep9vp/ZRF0hMK9p+Lw5C3bnk79W3mzZlUYDfy+X24YdE01aP+dBP3lvqiqyhoG15tJXALBmmsgahv9UvJV3ntSFwE/n53CahfYnc3MfPckfZjuvL/u2jXlNgwDANxiJiKhf47j+JBo3FvM0drquIxaLIZVKYXFxEalUCmdnZ7Btu+1zhmEgHo8jk8kglUohFotB73LR3ymsqv6TPVVRsBQKffTkr9vnt5rDiwHgrWVBUxScNJ+cr9VqMFXVLzq87d7w31u67j8dv6XrY2nnahocy0KtVkPZdWF37Jc3YzJwMbTspu97yRJPln6MK16v50G/eR/TNGw0hwyuNnMwaxjYmJtDrMuSV63nyb8lEkg39/H+3FzP59cg7YCLJ/T7tg1XCGQNA2HOKkxERH0a9fUn0SQwM2nsvHWMM5kMtra2cHBwgNevX6NYLLZ9LhaLYWNjAw8ePEAmk0E0Gu1pXd2kruPzeNwfOhxuKYqvsmKa+O/FRTyMRvH12Rm+vWQ2bQDd303uKLxH3e7TUAhnZ2fYKxaRs220H70Pf4wA4OzsDJZlXXsMriJLPFn6Ma54vZ4H/ea99/n7kYg/nN1UVcQ07cp2S6EQ/mthAf/RHL0S07Se1oAftJ33hP6B10dFQVxRUL62JRER0Qejvv4kmgQW8zR1Wp/o9SOh6/hU15EyDEQ1DaGO2bS92cKBD0tntc7Gfa9lya1RtkuoKrZNExHXxbf7+9jf3eVM9tR33g96nsQ0DfcHmARo0Had/RRCoNFosJgnIiKimcdinsau0WigUqmgUCjg1atXyOVyKJc/vjQvl8vI5XJYWlpCoVBApVJBNBqFOuIhtp3v6nqzaX9XreIvJycAgKLjIKyqbbNxe0X5WnNCu1G12zZN/MYwUKxW8adc7tLjV6/XcXZ25v/3TckST5Z+jCvepM4DIiKiaSL79SfRIFjM09g5joNyuYxisYjDw0MUi8WuE5DU63UcHx+jUCigWCyiXC7DNM2RT0LS+a5uzXXxXbWKV9Uq1ObMpq4Q2IpE8EnzPeDWd39NVR1pu8emiRXLQrlcRuno6NLj562nOiyyxJOlH+OKN6nzgIiIaJrIfv1JNAjeYqKxa13n07btS9f5FEJ8tM7nMJ509sp7Qv95LIaUrkNVFLhCwBUCqqIg1Rwm3zkb96jbbZsmlGr12uNH02HS5wEREdE0CMr1J1E/WMzTxPRShHq/UImIiIiIborXnzRNWMzT2LWu82kYBpTmUPJuFEVBKBSayDqfJ46Df5TLeFEuo+g4/hNy74l5sTlR3T/KZX+iunG0+8ayICKRtnVSaXpxvVsiIqKbC8r1J1E/+M48jZ2qqjBNE6Zp9jSZSL+fvylvFvlX1Sr+t1TCd9UqwqqKrUgEqeaweG9COu973vvuwMWs9KNspzUaUAwDbjKJ22truLu3h/fv36Narfp3kb3iL9Zc2q5cLqNerw98l1mWeLL0Y5zxIpEI0uk01tfXkclkuN4tERHRAGS//iQaBK8IKRDGOdTJe0Leua77J5EIPm8Wad5Sca3rwv/cssTcKNsVbRuIx7F46xY++/d/R1hV8dVXXyGfz/v7oCgK4vE4NjY2AAC5XA7Hx8cALo5l593o1psAndu9J8OTjidLP8YdL51O48mTJ9jZ2cHq6irXuyUiIhoTDrUn2bGYp7HzZvu2LAtu86n0VWzbxsnJCYrFIjRNg6qqfjHTaDTgOI4/MYlhGP7dU9d1e9qu6zo0TYMlBI5tG99Vq/hrqYQX5TKOLAsJTcOnoRB+Y5rYbsYImSa0RgNF2/bXhX/TXFruuF6/sp3qODis1XBkWfj72Znfzltj3ltH/vEl7Y7rdfyzVsPdUAhLm5tYdxycWRZu3bqFWjNWOBzG7du38ctf/hIAsLCwgL29PdRqNQghEA6Hoes6FEWB4zhXbp9kPACwLMtf6i2RSODOnTv49NNPA71f/cTb3NzEl19+iV//+tdIJpNwHAfn5+c95/Wwz5NJx1MUBY1GA7VaDdVqFQBQq9VQr9f9GyCT7J8sx0n2eKPqhzdpVWd+WJbV9v2gHKegHHfZ4/WbF0HZr2mLN+p+VCoVFItFnJyc9DShXaPRgG3bPV+vEk0Ci3kau9bZRK8bgiyEQKVSwZs3b3Dnzh0AF8OeotEoAKBSqVws0VYqAbgo9kzTBHBRBPayPRaLIRqN4thx8Pz4GH8rlfA/lQpOHAd3NA2fmiYe6zpWLQtnzaesq5EIFMMA4nF8Y1l4U6vhuPmkPaEoV7YTuo6aaeJby8KP1SpKzf2/pett68ivXNNu33Xx2fw87j58iP/MZuEUCjg4OAAAZLNZ3LlzB2trawCAn3/+Ge/evfO/7w3X9o7hddsnES8ajcJ1Xbx//x4//PADAODBgwfY2NjA+vo6FEUJ5H71G29tbQ1bW1tIp9NQVRVHR0d95bUXc1jnyaTjhUIhNBoNnJyc4P379/5xisViUFUVqqpOtH+yHCfZ442qH67rolKpfJQfpmlC0zTYth2o4xSU4y57vH7zIij7NW3xRt2Pw8NDvH79Gm/evEGlUrn2+rN1NvtEIoG5ublLP080KSzmSXqlUgnffvstFEXB7u4u7ty5g0wmAwD+GqClUglCiL5+2SuKgkQigVQqhUwmg0NVxVfHx3heLuM7ywJsGwv1OmqKgj3TRMVx2trZsRgikQgiqooj28b/NRoAgIxtY6FSQc1129p5/SjpOmqWhZqqYj8aRaG5zrzbfJIfcV0Uq1X/j5i3X347IbBvGEAohDnThOI4uOc4MAYcCnbV0iwyxBs0huz71Ws8b11cy7J6yvfOvAaGe55MOl4oFIIQAsViEblcDsDF74jV1VUsLS1BUZSJ9E+24yRrvFH3QwiB/f195PP5tvxIpVJQFOXaYl6W4xS04y57vF7zImj7NS3xxtWPt2/f4s2bN/jmm29wenoKomnAYp7GrttsolcVRMViEc+fP8erV68Qi8WwtLSEra0tAMCrV69weHgI27b92P0MwwqFQlhcXMTW1hZqySSe1+v4yXFw6jhAsYhv3rxB/vQUf1VVGC3D8EKhEBILC8hsbOBsaQlOPA40/5ic7u3hm6+/Rn5//6N2hmGgrigouS5KS0s4/eILYHkZAOA0h5N/u7+PP+VyKB0dte2X325+Hqf37gGpFL7Rdfx8fIzYDz9AKRRQq9WgKMpHw73/9a9/XTqMvXNYd+f2ScYTQsC2bX+Y/YsXL7CysuIPsw/qfg0ST1XVnvO9Na+HfZ7IEs+yLFQqFQBALBbD7du3sbW1BUVRJtY/GY+TjPFG2Q8hBF69eoW9vT2Uy2UAQDQa9S/2g3ScgnTcZY/XT14Eab+mKd44+rG3t4dKpYLT01N/PpvLcDZ7CgrdcRw0Gg3/y5t4yVtfcZjrLLqu+1E87/+7rsuZImeEl2O9/nufn5/j3bt3ePfuHRRFQSqV8och53I5FIvFKycSu267F0/cuoWcoqAoBCAEUCzi8McfcdjyC7+z3cbhIcTyMmqpFNCcyM7a3cXh11/jcHf36n4sL0MoClAoALh4f2+vWMT+7u7V+3XrFsTxMZBKoaAoKBwfQ8nlgI7P5/N5HB0dDe04yRJvb28PxWJx4v2QPd6ozhOZ4xWa59Ik+xeE4yRDPFn6MWvxZOmH7PFk6cesxRtnP3qhqipCoZC/DPCw6iGS27jq1WHV2bplWWg0GrAsq+39Zdd1/a9Gc/jwTQkh/BsG3s/xtnn/TdOvXq+jXC6jXC7DcZy+/t2FEDg7O8Pr168BXCz91XmyXdbu2nihEMofvgHYNkSlcvHfV7V79w7lUAjwTu5aDaJYvLSdr1gEnj8H/vnPi31xXeRsGzg/v3q/ymUglwPyeUBRLvpZLrf9vJEepwnHk6UfsseTpR+zFk+WfsgeT5Z+zFo8WfohezxZ+jFr8cbZj14IIfw6yPui6SfEeOrV1lpbiI9XPOqV/uc//xmNRgP1eh0vX77E6ekpYrEYSqUSjo6OEAqFhrYMkndQSqUSnOZkYd47L4qiDLwTFCylUgn5fB77+/v+MON+2LbtP5kdhkHj3bgf5+cXX148AD1Fs+2Lr2s/JsdxGnY8WfohezxZ+jFr8WTph+zxZOnHrMWTpR+yx5OlH7MWT5Z+eCzLQrFYxMHBASzLQrg5ApOm27jqVW+1BO/nDPoqh/7HP/7R7/Tp6Sny+Tzu3buH3d1dvH79GqFQaKjD34UQbUsr7e7uolAosJCfIcViEa9fv8b333/vvwtNRERERCQDIS5WU8rlckgkEkin04hEIpPuFo3JOOpV13Vh2zZ2d3dxfn4+cDHPl9SJiIiIiIia+JCRgkL/wx/+0DbM/unTp5ibm8Py8jLu378/smH2u83JwZaXl5FIJDjMfoaUSiVEo1FUKhW8ePFi0t0hIiIiIgLwYSh1LBbDxsYGtre3kUwmOcx+RoyrXvWG2RcKBczNzQ0cR//d737nT4AHAM+ePfPXZ1xYWIBpmkMt5r3JA7xZh711IDVNYzE/IyKRCHRdx8HBAVZWVvylYrzlR66iKAoMw0AsFgNwMaFJ68SN/Ro0niz9mLV4svRD9niy9GPW4snSD9njydKPWYsnSz9kjydLP2Ytnkz9iEQiSKfT2NzcxPr6OlZWVhCNRrk83YwYV73q1d+JRMJfnngQummafoe9Nb8V5WLZMO9rWMW867oA2icPUBQFmqb5P4um39zcHLLZLH7xi19ge3sbxWLRXzKkk5cn3iyPiqIgHo9jY2MDwMVSI95aod1mgvR+aXfbPmg8Wfoxa/Fk6Yfs8WTpx6zFk6UfsseTpR+zFk+WfsgeT5Z+zFo82fqRTqfx5MkT7OzsYG1tDfF4HLqus06ZEeOqV4UQfrzOfOyH7t0J0DSt7W6DtwOtO3JTqqp+dAJ58W+6IxQchmHAMAzcuXMHjx8/BgCkUim8ffsW5fLF4nCxWAzhcNi/U1Wv16EoF3dZM5kMHjx4AABYWlpCoVDw77YahuHffPImlvB+Zuf2QePJ0o9pj+f9srRtuy0vlpeXsbW1Fdj9Yn7eLJ6seSHbcZI13jj6kc1msbu76+dHNBqFaZpQFCUwxymIx132eL3kRRD3axriyXadsbm5iZ2dHTx69AiZTAamaYJmx7jq1WHV2YM/0ye6oXQ6jS+//BLr6+v44osvkMvl8MMPPwAANjc3sbS0hFgsBiGEvySEN8wlk8kAuBj+UiwW274fCoWgKAosy+pp+6DxZOnHNMdzXdcfuQEAGxsbWF1dxdLSEhRFCex+MT9vFk/mvJDpOMkcb1T9EEJgf38f+Xy+LT9SqRRUVfWXAQrKcQrKcZc9Xr95EZT9mrZ4slxnrK+vY21tDZlMBvF4HEQyYzFPExOJRHD37l0sLCwgm80im8367zZ99tlnWF1d9Yt5bwm7eDyOWCyGaDQKAKhUKiiXy23f9+6gWpbV0/ZB48nSj2mNFwqF0Gg0cHBwgEQiAQDY3t7GysoK4vE4VFUN5H4xP28WT/a8kOU4yR5vVP1wXRf37t3DyspKW35ks1lomgbbtgN1nIJy3GWP129eBGW/pi2ebNcZfCJPQcBiniYuFAohnU7DcRxUq1UAwN27d5HNZv15HLxfsoZhQNd1f0iVN0yu9fvesCnXdXvaPmg8WfoxrfEURfEnB0mn0wCAZDKJaDQKXdehKEog94v5ebN4sueFLMdJ9nij6oeqqohGo0gmk235kUgkoGkahBCBOk5BOe6yx+s3L4KyX9MWT7brDKIgYKbSxOm6jkgkgkQigVu3bgG4GP4UjUb9eRwuW7JBVVUYhnHp9/vdPmg8WfoxTfGEuJhNNBwOIxKJAADC4bD/h9t7dylo+zWJeLL0YxjxgpQXsvRD9njD7If3Lmxnfngr81z190T24yTzcZc93k3yQub9muZ4MlxnEAUBM5WIiIiIiIgoYFjMExEREREREQUMi3kiIiIiIiKigGExT0RERERERBQwLOaJiIiIiIiIAobFPBEREREREVHAsJgnIiIiIiIiChgW80REREREREQBw2KeiIiIiIiIKGBYzBMREREREREFDIt5IiIiIiIiooBhMU9EREREREQUMCzmiYiIiIiIiAKGxTwRERERERFRwLCYJyIiIiIiIgoYFvNEREREREREAcNinoiIiIiIiChgWMwTERERERERBQyLeSIiIiIiIqKAYTFPREREREREFDAs5omIiIiIiIgCRu+2UQiBRqPhfw2LEAKu66LRaMB1XQDwf4YQAoqiDO1nUXAwL6gb5gV1w7ygqzA/qBvmBXXDvKBuxpUXrbX2TeK2FfNCCP9/6/U6LMsCAGiadsPufojvui5s24Zt2wAA27ZhWRZUVeVJM6OYF9QN84K6YV7QVZgf1A3zgrphXlA348qLRqMBy7JQr9f9Yt6rxfuhe5327j4IIXB6eoqXL18CAAzDGHoxXyqVsLu7CwAoFApIJBI8aWYY84K6YV5QN8wLugrzg7phXlA3zAvqZlx50Wg0UK/X8fLlS5yeniKZTPojAvop6v1ivl6v+3cG8vk8nj59imfPnkFRlKEmsxACjuPg/PwcADA3Nwdd13nCzDjmBXXDvKBumBd0FeYHdcO8oG6YF9TNOPJCCOE/RM/n85ifn/fr8XA43HMcHQAURYGmaUgmk9je3oa3bdiJ7HW6XC4jn88DAFZXVzE/P+//TJo9zAvqhnlB3TAv6CrMD+qGeUHdMC+om3HlhVdrJ5NJzM/PY3t7G8lkEpqm9fUzFCGEcF0XjuOgUCjg+++/x8nJCQzDGPoQk9bhBE+fPgUA/P73v8fDhw+HOpyfgoV5Qd0wL6gb5gVdhflB3TAvqBvmBXUzzrzwhvTX63Ukk0k8ePAAmUwGuq5DVXtbdE4HAFVVYRgGMpkMYrEYGo3GSJLYe9EfAJ49ewYAePjwIXZ2dmCaJk+aGcW8oG6YF9QN84KuwvygbpgX1A3zgroZd154Nw80TUMkEoFhGH09TP9//gwau+otmGAAAAAASUVORK5CYII=;" vertex="1" parent="1">
          <mxGeometry x="50" y="110" width="352.36" height="260" as="geometry" />
        </mxCell>
        <mxCell id="VI82FPDczhNBWMs6-pdR-27" style="rounded=0;orthogonalLoop=1;jettySize=auto;html=1;exitX=1;exitY=0.5;exitDx=0;exitDy=0;strokeWidth=3;" edge="1" parent="1" source="VI82FPDczhNBWMs6-pdR-4">
          <mxGeometry relative="1" as="geometry">
            <mxPoint x="440" y="200" as="targetPoint" />
          </mxGeometry>
        </mxCell>
        <mxCell id="VI82FPDczhNBWMs6-pdR-4" value="" style="whiteSpace=wrap;html=1;aspect=fixed;fillColor=none;strokeWidth=3;strokeColor=#FF0000;" vertex="1" parent="1">
          <mxGeometry x="290" y="140" width="50" height="50" as="geometry" />
        </mxCell>
        <mxCell id="VI82FPDczhNBWMs6-pdR-21" style="rounded=0;orthogonalLoop=1;jettySize=auto;html=1;exitX=1;exitY=0.5;exitDx=0;exitDy=0;entryX=0;entryY=0.5;entryDx=0;entryDy=0;shape=link;movable=1;resizable=1;rotatable=1;deletable=1;editable=1;locked=0;connectable=1;" edge="1" parent="1" source="VI82FPDczhNBWMs6-pdR-5" target="VI82FPDczhNBWMs6-pdR-9">
          <mxGeometry relative="1" as="geometry" />
        </mxCell>
        <mxCell id="VI82FPDczhNBWMs6-pdR-5" value="" style="ellipse;whiteSpace=wrap;html=1;aspect=fixed;movable=1;resizable=1;rotatable=1;deletable=1;editable=1;locked=0;connectable=1;" vertex="1" parent="1">
          <mxGeometry x="510" y="220" width="30" height="30" as="geometry" />
        </mxCell>
        <mxCell id="VI82FPDczhNBWMs6-pdR-14" style="edgeStyle=orthogonalEdgeStyle;rounded=0;orthogonalLoop=1;jettySize=auto;html=1;exitX=1;exitY=0.5;exitDx=0;exitDy=0;entryX=0;entryY=0.5;entryDx=0;entryDy=0;shape=link;movable=1;resizable=1;rotatable=1;deletable=1;editable=1;locked=0;connectable=1;" edge="1" parent="1" source="VI82FPDczhNBWMs6-pdR-6" target="VI82FPDczhNBWMs6-pdR-8">
          <mxGeometry relative="1" as="geometry" />
        </mxCell>
        <mxCell id="VI82FPDczhNBWMs6-pdR-20" style="rounded=0;orthogonalLoop=1;jettySize=auto;html=1;exitX=0.5;exitY=1;exitDx=0;exitDy=0;shape=link;movable=1;resizable=1;rotatable=1;deletable=1;editable=1;locked=0;connectable=1;" edge="1" parent="1" source="VI82FPDczhNBWMs6-pdR-6">
          <mxGeometry relative="1" as="geometry">
            <mxPoint x="525" y="220" as="targetPoint" />
          </mxGeometry>
        </mxCell>
        <mxCell id="VI82FPDczhNBWMs6-pdR-6" value="" style="ellipse;whiteSpace=wrap;html=1;aspect=fixed;fillColor=#000000;movable=1;resizable=1;rotatable=1;deletable=1;editable=1;locked=0;connectable=1;" vertex="1" parent="1">
          <mxGeometry x="510" y="160" width="30" height="30" as="geometry" />
        </mxCell>
        <mxCell id="VI82FPDczhNBWMs6-pdR-12" style="edgeStyle=orthogonalEdgeStyle;rounded=0;orthogonalLoop=1;jettySize=auto;html=1;exitX=1;exitY=0.5;exitDx=0;exitDy=0;entryX=0;entryY=0.5;entryDx=0;entryDy=0;shape=link;movable=1;resizable=1;rotatable=1;deletable=1;editable=1;locked=0;connectable=1;" edge="1" parent="1" source="VI82FPDczhNBWMs6-pdR-7" target="VI82FPDczhNBWMs6-pdR-6">
          <mxGeometry relative="1" as="geometry" />
        </mxCell>
        <mxCell id="VI82FPDczhNBWMs6-pdR-19" style="rounded=0;orthogonalLoop=1;jettySize=auto;html=1;exitX=1;exitY=1;exitDx=0;exitDy=0;entryX=0;entryY=0;entryDx=0;entryDy=0;shape=link;movable=1;resizable=1;rotatable=1;deletable=1;editable=1;locked=0;connectable=1;" edge="1" parent="1" source="VI82FPDczhNBWMs6-pdR-7" target="VI82FPDczhNBWMs6-pdR-5">
          <mxGeometry relative="1" as="geometry" />
        </mxCell>
        <mxCell id="VI82FPDczhNBWMs6-pdR-7" value="" style="ellipse;whiteSpace=wrap;html=1;aspect=fixed;fillColor=#000000;movable=1;resizable=1;rotatable=1;deletable=1;editable=1;locked=0;connectable=1;" vertex="1" parent="1">
          <mxGeometry x="460" y="160" width="30" height="30" as="geometry" />
        </mxCell>
        <mxCell id="VI82FPDczhNBWMs6-pdR-16" style="edgeStyle=orthogonalEdgeStyle;rounded=0;orthogonalLoop=1;jettySize=auto;html=1;exitX=1;exitY=0.5;exitDx=0;exitDy=0;entryX=0;entryY=0.5;entryDx=0;entryDy=0;shape=link;movable=1;resizable=1;rotatable=1;deletable=1;editable=1;locked=0;connectable=1;" edge="1" parent="1" source="VI82FPDczhNBWMs6-pdR-8" target="VI82FPDczhNBWMs6-pdR-10">
          <mxGeometry relative="1" as="geometry" />
        </mxCell>
        <mxCell id="VI82FPDczhNBWMs6-pdR-18" style="rounded=0;orthogonalLoop=1;jettySize=auto;html=1;exitX=1;exitY=0;exitDx=0;exitDy=0;entryX=0;entryY=1;entryDx=0;entryDy=0;shape=link;movable=1;resizable=1;rotatable=1;deletable=1;editable=1;locked=0;connectable=1;" edge="1" parent="1" source="VI82FPDczhNBWMs6-pdR-8" target="VI82FPDczhNBWMs6-pdR-15">
          <mxGeometry relative="1" as="geometry" />
        </mxCell>
        <mxCell id="VI82FPDczhNBWMs6-pdR-22" style="rounded=0;orthogonalLoop=1;jettySize=auto;html=1;exitX=0.5;exitY=1;exitDx=0;exitDy=0;entryX=0.5;entryY=0;entryDx=0;entryDy=0;shape=link;movable=1;resizable=1;rotatable=1;deletable=1;editable=1;locked=0;connectable=1;" edge="1" parent="1" source="VI82FPDczhNBWMs6-pdR-8" target="VI82FPDczhNBWMs6-pdR-9">
          <mxGeometry relative="1" as="geometry" />
        </mxCell>
        <mxCell id="VI82FPDczhNBWMs6-pdR-23" style="rounded=0;orthogonalLoop=1;jettySize=auto;html=1;exitX=0;exitY=1;exitDx=0;exitDy=0;entryX=1;entryY=0;entryDx=0;entryDy=0;shape=link;movable=1;resizable=1;rotatable=1;deletable=1;editable=1;locked=0;connectable=1;" edge="1" parent="1" source="VI82FPDczhNBWMs6-pdR-8" target="VI82FPDczhNBWMs6-pdR-5">
          <mxGeometry relative="1" as="geometry" />
        </mxCell>
        <mxCell id="VI82FPDczhNBWMs6-pdR-25" style="rounded=0;orthogonalLoop=1;jettySize=auto;html=1;exitX=1;exitY=1;exitDx=0;exitDy=0;entryX=0;entryY=0;entryDx=0;entryDy=0;shape=link;movable=1;resizable=1;rotatable=1;deletable=1;editable=1;locked=0;connectable=1;" edge="1" parent="1" source="VI82FPDczhNBWMs6-pdR-8" target="VI82FPDczhNBWMs6-pdR-11">
          <mxGeometry relative="1" as="geometry" />
        </mxCell>
        <mxCell id="VI82FPDczhNBWMs6-pdR-8" value="" style="ellipse;whiteSpace=wrap;html=1;aspect=fixed;fillColor=#000000;movable=1;resizable=1;rotatable=1;deletable=1;editable=1;locked=0;connectable=1;" vertex="1" parent="1">
          <mxGeometry x="560" y="160" width="30" height="30" as="geometry" />
        </mxCell>
        <mxCell id="VI82FPDczhNBWMs6-pdR-24" style="edgeStyle=orthogonalEdgeStyle;rounded=0;orthogonalLoop=1;jettySize=auto;html=1;exitX=1;exitY=0.5;exitDx=0;exitDy=0;entryX=0;entryY=0.5;entryDx=0;entryDy=0;shape=link;movable=1;resizable=1;rotatable=1;deletable=1;editable=1;locked=0;connectable=1;" edge="1" parent="1" source="VI82FPDczhNBWMs6-pdR-9" target="VI82FPDczhNBWMs6-pdR-11">
          <mxGeometry relative="1" as="geometry" />
        </mxCell>
        <mxCell id="VI82FPDczhNBWMs6-pdR-9" value="" style="ellipse;whiteSpace=wrap;html=1;aspect=fixed;movable=1;resizable=1;rotatable=1;deletable=1;editable=1;locked=0;connectable=1;" vertex="1" parent="1">
          <mxGeometry x="560" y="220" width="30" height="30" as="geometry" />
        </mxCell>
        <mxCell id="VI82FPDczhNBWMs6-pdR-26" style="rounded=0;orthogonalLoop=1;jettySize=auto;html=1;exitX=0.5;exitY=1;exitDx=0;exitDy=0;shape=link;movable=1;resizable=1;rotatable=1;deletable=1;editable=1;locked=0;connectable=1;" edge="1" parent="1" source="VI82FPDczhNBWMs6-pdR-10">
          <mxGeometry relative="1" as="geometry">
            <mxPoint x="635" y="220" as="targetPoint" />
          </mxGeometry>
        </mxCell>
        <mxCell id="VI82FPDczhNBWMs6-pdR-10" value="" style="ellipse;whiteSpace=wrap;html=1;aspect=fixed;movable=1;resizable=1;rotatable=1;deletable=1;editable=1;locked=0;connectable=1;" vertex="1" parent="1">
          <mxGeometry x="620" y="160" width="30" height="30" as="geometry" />
        </mxCell>
        <mxCell id="VI82FPDczhNBWMs6-pdR-11" value="" style="ellipse;whiteSpace=wrap;html=1;aspect=fixed;movable=1;resizable=1;rotatable=1;deletable=1;editable=1;locked=0;connectable=1;" vertex="1" parent="1">
          <mxGeometry x="620" y="220" width="30" height="30" as="geometry" />
        </mxCell>
        <mxCell id="VI82FPDczhNBWMs6-pdR-17" style="edgeStyle=orthogonalEdgeStyle;rounded=0;orthogonalLoop=1;jettySize=auto;html=1;exitX=0.5;exitY=1;exitDx=0;exitDy=0;entryX=0.5;entryY=0;entryDx=0;entryDy=0;shape=link;movable=1;resizable=1;rotatable=1;deletable=1;editable=1;locked=0;connectable=1;" edge="1" parent="1" source="VI82FPDczhNBWMs6-pdR-15" target="VI82FPDczhNBWMs6-pdR-10">
          <mxGeometry relative="1" as="geometry" />
        </mxCell>
        <mxCell id="VI82FPDczhNBWMs6-pdR-73" style="edgeStyle=orthogonalEdgeStyle;rounded=0;orthogonalLoop=1;jettySize=auto;html=1;exitX=0.5;exitY=1;exitDx=0;exitDy=0;entryX=0.5;entryY=0;entryDx=0;entryDy=0;strokeWidth=4;" edge="1" parent="1" source="VI82FPDczhNBWMs6-pdR-28" target="VI82FPDczhNBWMs6-pdR-29">
          <mxGeometry relative="1" as="geometry" />
        </mxCell>
        <mxCell id="VI82FPDczhNBWMs6-pdR-28" value="" style="rounded=0;whiteSpace=wrap;html=1;fillColor=none;" vertex="1" parent="1">
          <mxGeometry x="440" y="100" width="230" height="170" as="geometry" />
        </mxCell>
        <mxCell id="VI82FPDczhNBWMs6-pdR-15" value="" style="ellipse;whiteSpace=wrap;html=1;aspect=fixed;fillColor=#FF0000;movable=1;resizable=1;rotatable=1;deletable=1;editable=1;locked=0;connectable=1;" vertex="1" parent="1">
          <mxGeometry x="620" y="110" width="30" height="30" as="geometry" />
        </mxCell>
        <mxCell id="VI82FPDczhNBWMs6-pdR-29" value="" style="rounded=0;whiteSpace=wrap;html=1;fillColor=none;" vertex="1" parent="1">
          <mxGeometry x="440" y="320" width="230" height="170" as="geometry" />
        </mxCell>
        <mxCell id="VI82FPDczhNBWMs6-pdR-51" style="rounded=0;orthogonalLoop=1;jettySize=auto;html=1;exitX=1;exitY=0.5;exitDx=0;exitDy=0;entryX=0;entryY=0.5;entryDx=0;entryDy=0;shape=link;movable=1;resizable=1;rotatable=1;deletable=1;editable=1;locked=0;connectable=1;" edge="1" parent="1" source="VI82FPDczhNBWMs6-pdR-52" target="VI82FPDczhNBWMs6-pdR-66">
          <mxGeometry relative="1" as="geometry" />
        </mxCell>
        <mxCell id="VI82FPDczhNBWMs6-pdR-52" value="0.98" style="ellipse;whiteSpace=wrap;html=1;aspect=fixed;movable=1;resizable=1;rotatable=1;deletable=1;editable=1;locked=0;connectable=1;" vertex="1" parent="1">
          <mxGeometry x="510" y="445" width="30" height="30" as="geometry" />
        </mxCell>
        <mxCell id="VI82FPDczhNBWMs6-pdR-53" style="edgeStyle=orthogonalEdgeStyle;rounded=0;orthogonalLoop=1;jettySize=auto;html=1;exitX=1;exitY=0.5;exitDx=0;exitDy=0;entryX=0;entryY=0.5;entryDx=0;entryDy=0;shape=link;movable=1;resizable=1;rotatable=1;deletable=1;editable=1;locked=0;connectable=1;" edge="1" parent="1" source="VI82FPDczhNBWMs6-pdR-55" target="VI82FPDczhNBWMs6-pdR-64">
          <mxGeometry relative="1" as="geometry" />
        </mxCell>
        <mxCell id="VI82FPDczhNBWMs6-pdR-54" style="rounded=0;orthogonalLoop=1;jettySize=auto;html=1;exitX=0.5;exitY=1;exitDx=0;exitDy=0;shape=link;movable=1;resizable=1;rotatable=1;deletable=1;editable=1;locked=0;connectable=1;" edge="1" parent="1" source="VI82FPDczhNBWMs6-pdR-55">
          <mxGeometry relative="1" as="geometry">
            <mxPoint x="525" y="445" as="targetPoint" />
          </mxGeometry>
        </mxCell>
        <mxCell id="VI82FPDczhNBWMs6-pdR-55" value="0.02" style="ellipse;whiteSpace=wrap;html=1;aspect=fixed;movable=1;resizable=1;rotatable=1;deletable=1;editable=1;locked=0;connectable=1;" vertex="1" parent="1">
          <mxGeometry x="510" y="385" width="30" height="30" as="geometry" />
        </mxCell>
        <mxCell id="VI82FPDczhNBWMs6-pdR-56" style="edgeStyle=orthogonalEdgeStyle;rounded=0;orthogonalLoop=1;jettySize=auto;html=1;exitX=1;exitY=0.5;exitDx=0;exitDy=0;entryX=0;entryY=0.5;entryDx=0;entryDy=0;shape=link;movable=1;resizable=1;rotatable=1;deletable=1;editable=1;locked=0;connectable=1;" edge="1" parent="1" source="VI82FPDczhNBWMs6-pdR-58" target="VI82FPDczhNBWMs6-pdR-55">
          <mxGeometry relative="1" as="geometry" />
        </mxCell>
        <mxCell id="VI82FPDczhNBWMs6-pdR-57" style="rounded=0;orthogonalLoop=1;jettySize=auto;html=1;exitX=1;exitY=1;exitDx=0;exitDy=0;entryX=0;entryY=0;entryDx=0;entryDy=0;shape=link;movable=1;resizable=1;rotatable=1;deletable=1;editable=1;locked=0;connectable=1;" edge="1" parent="1" source="VI82FPDczhNBWMs6-pdR-58" target="VI82FPDczhNBWMs6-pdR-52">
          <mxGeometry relative="1" as="geometry" />
        </mxCell>
        <mxCell id="VI82FPDczhNBWMs6-pdR-58" value="0.01" style="ellipse;whiteSpace=wrap;html=1;aspect=fixed;movable=1;resizable=1;rotatable=1;deletable=1;editable=1;locked=0;connectable=1;" vertex="1" parent="1">
          <mxGeometry x="460" y="385" width="30" height="30" as="geometry" />
        </mxCell>
        <mxCell id="VI82FPDczhNBWMs6-pdR-59" style="edgeStyle=orthogonalEdgeStyle;rounded=0;orthogonalLoop=1;jettySize=auto;html=1;exitX=1;exitY=0.5;exitDx=0;exitDy=0;entryX=0;entryY=0.5;entryDx=0;entryDy=0;shape=link;movable=1;resizable=1;rotatable=1;deletable=1;editable=1;locked=0;connectable=1;" edge="1" parent="1" source="VI82FPDczhNBWMs6-pdR-64" target="VI82FPDczhNBWMs6-pdR-68">
          <mxGeometry relative="1" as="geometry" />
        </mxCell>
        <mxCell id="VI82FPDczhNBWMs6-pdR-60" style="rounded=0;orthogonalLoop=1;jettySize=auto;html=1;exitX=1;exitY=0;exitDx=0;exitDy=0;entryX=0;entryY=1;entryDx=0;entryDy=0;shape=link;movable=1;resizable=1;rotatable=1;deletable=1;editable=1;locked=0;connectable=1;" edge="1" parent="1" source="VI82FPDczhNBWMs6-pdR-64" target="VI82FPDczhNBWMs6-pdR-71">
          <mxGeometry relative="1" as="geometry" />
        </mxCell>
        <mxCell id="VI82FPDczhNBWMs6-pdR-61" style="rounded=0;orthogonalLoop=1;jettySize=auto;html=1;exitX=0.5;exitY=1;exitDx=0;exitDy=0;entryX=0.5;entryY=0;entryDx=0;entryDy=0;shape=link;movable=1;resizable=1;rotatable=1;deletable=1;editable=1;locked=0;connectable=1;" edge="1" parent="1" source="VI82FPDczhNBWMs6-pdR-64" target="VI82FPDczhNBWMs6-pdR-66">
          <mxGeometry relative="1" as="geometry" />
        </mxCell>
        <mxCell id="VI82FPDczhNBWMs6-pdR-62" style="rounded=0;orthogonalLoop=1;jettySize=auto;html=1;exitX=0;exitY=1;exitDx=0;exitDy=0;entryX=1;entryY=0;entryDx=0;entryDy=0;shape=link;movable=1;resizable=1;rotatable=1;deletable=1;editable=1;locked=0;connectable=1;" edge="1" parent="1" source="VI82FPDczhNBWMs6-pdR-64" target="VI82FPDczhNBWMs6-pdR-52">
          <mxGeometry relative="1" as="geometry" />
        </mxCell>
        <mxCell id="VI82FPDczhNBWMs6-pdR-63" style="rounded=0;orthogonalLoop=1;jettySize=auto;html=1;exitX=1;exitY=1;exitDx=0;exitDy=0;entryX=0;entryY=0;entryDx=0;entryDy=0;shape=link;movable=1;resizable=1;rotatable=1;deletable=1;editable=1;locked=0;connectable=1;" edge="1" parent="1" source="VI82FPDczhNBWMs6-pdR-64" target="VI82FPDczhNBWMs6-pdR-69">
          <mxGeometry relative="1" as="geometry" />
        </mxCell>
        <mxCell id="VI82FPDczhNBWMs6-pdR-64" value="0.01" style="ellipse;whiteSpace=wrap;html=1;aspect=fixed;movable=1;resizable=1;rotatable=1;deletable=1;editable=1;locked=0;connectable=1;" vertex="1" parent="1">
          <mxGeometry x="560" y="385" width="30" height="30" as="geometry" />
        </mxCell>
        <mxCell id="VI82FPDczhNBWMs6-pdR-65" style="edgeStyle=orthogonalEdgeStyle;rounded=0;orthogonalLoop=1;jettySize=auto;html=1;exitX=1;exitY=0.5;exitDx=0;exitDy=0;entryX=0;entryY=0.5;entryDx=0;entryDy=0;shape=link;movable=1;resizable=1;rotatable=1;deletable=1;editable=1;locked=0;connectable=1;" edge="1" parent="1" source="VI82FPDczhNBWMs6-pdR-66" target="VI82FPDczhNBWMs6-pdR-69">
          <mxGeometry relative="1" as="geometry" />
        </mxCell>
        <mxCell id="VI82FPDczhNBWMs6-pdR-66" value="0.98" style="ellipse;whiteSpace=wrap;html=1;aspect=fixed;movable=1;resizable=1;rotatable=1;deletable=1;editable=1;locked=0;connectable=1;" vertex="1" parent="1">
          <mxGeometry x="560" y="445" width="30" height="30" as="geometry" />
        </mxCell>
        <mxCell id="VI82FPDczhNBWMs6-pdR-67" style="rounded=0;orthogonalLoop=1;jettySize=auto;html=1;exitX=0.5;exitY=1;exitDx=0;exitDy=0;shape=link;movable=1;resizable=1;rotatable=1;deletable=1;editable=1;locked=0;connectable=1;" edge="1" parent="1" source="VI82FPDczhNBWMs6-pdR-68">
          <mxGeometry relative="1" as="geometry">
            <mxPoint x="635" y="445" as="targetPoint" />
          </mxGeometry>
        </mxCell>
        <mxCell id="VI82FPDczhNBWMs6-pdR-68" value="0.99" style="ellipse;whiteSpace=wrap;html=1;aspect=fixed;movable=1;resizable=1;rotatable=1;deletable=1;editable=1;locked=0;connectable=1;" vertex="1" parent="1">
          <mxGeometry x="620" y="385" width="30" height="30" as="geometry" />
        </mxCell>
        <mxCell id="VI82FPDczhNBWMs6-pdR-69" value="0.98" style="ellipse;whiteSpace=wrap;html=1;aspect=fixed;movable=1;resizable=1;rotatable=1;deletable=1;editable=1;locked=0;connectable=1;" vertex="1" parent="1">
          <mxGeometry x="620" y="445" width="30" height="30" as="geometry" />
        </mxCell>
        <mxCell id="VI82FPDczhNBWMs6-pdR-70" style="edgeStyle=orthogonalEdgeStyle;rounded=0;orthogonalLoop=1;jettySize=auto;html=1;exitX=0.5;exitY=1;exitDx=0;exitDy=0;entryX=0.5;entryY=0;entryDx=0;entryDy=0;shape=link;movable=1;resizable=1;rotatable=1;deletable=1;editable=1;locked=0;connectable=1;" edge="1" parent="1" source="VI82FPDczhNBWMs6-pdR-71" target="VI82FPDczhNBWMs6-pdR-68">
          <mxGeometry relative="1" as="geometry" />
        </mxCell>
        <mxCell id="VI82FPDczhNBWMs6-pdR-71" value="0.99" style="ellipse;whiteSpace=wrap;html=1;aspect=fixed;movable=1;resizable=1;rotatable=1;deletable=1;editable=1;locked=0;connectable=1;" vertex="1" parent="1">
          <mxGeometry x="620" y="335" width="30" height="30" as="geometry" />
        </mxCell>
      </root>
    </mxGraphModel>
  </diagram>
</mxfile>
